%TF.GenerationSoftware,KiCad,Pcbnew,9.0.6-9.0.6~ubuntu24.04.1*%
%TF.CreationDate,2025-12-17T14:29:43+07:00*%
%TF.ProjectId,esp32s3-gnss-base-station,65737033-3273-4332-9d67-6e73732d6261,0.1*%
%TF.SameCoordinates,Original*%
%TF.FileFunction,Legend,Bot*%
%TF.FilePolarity,Positive*%
%FSLAX46Y46*%
G04 Gerber Fmt 4.6, Leading zero omitted, Abs format (unit mm)*
G04 Created by KiCad (PCBNEW 9.0.6-9.0.6~ubuntu24.04.1) date 2025-12-17 14:29:43*
%MOMM*%
%LPD*%
G01*
G04 APERTURE LIST*
%ADD10C,0.300000*%
%ADD11C,0.200000*%
%ADD12C,0.100000*%
%ADD13C,0.125000*%
%ADD14C,0.150000*%
%ADD15C,0.250000*%
%ADD16C,1.800000*%
%ADD17C,2.000000*%
%ADD18C,5.000000*%
%ADD19C,1.000000*%
%ADD20C,1.200000*%
%ADD21C,1.700000*%
%ADD22R,1.700000X1.700000*%
%ADD23C,0.550000*%
%ADD24O,2.000000X3.000000*%
%ADD25C,1.600000*%
G04 APERTURE END LIST*
D10*
X109088346Y-59474400D02*
X106802632Y-59474400D01*
X107945489Y-60617257D02*
X107945489Y-58331542D01*
D11*
X64073733Y-97266041D02*
X64073733Y-94218422D01*
X62549923Y-95742231D02*
X65597542Y-95742231D01*
D12*
X82391352Y-123824800D02*
X82248495Y-123872419D01*
X82248495Y-123872419D02*
X82010400Y-123872419D01*
X82010400Y-123872419D02*
X81915162Y-123824800D01*
X81915162Y-123824800D02*
X81867543Y-123777180D01*
X81867543Y-123777180D02*
X81819924Y-123681942D01*
X81819924Y-123681942D02*
X81819924Y-123586704D01*
X81819924Y-123586704D02*
X81867543Y-123491466D01*
X81867543Y-123491466D02*
X81915162Y-123443847D01*
X81915162Y-123443847D02*
X82010400Y-123396228D01*
X82010400Y-123396228D02*
X82200876Y-123348609D01*
X82200876Y-123348609D02*
X82296114Y-123300990D01*
X82296114Y-123300990D02*
X82343733Y-123253371D01*
X82343733Y-123253371D02*
X82391352Y-123158133D01*
X82391352Y-123158133D02*
X82391352Y-123062895D01*
X82391352Y-123062895D02*
X82343733Y-122967657D01*
X82343733Y-122967657D02*
X82296114Y-122920038D01*
X82296114Y-122920038D02*
X82200876Y-122872419D01*
X82200876Y-122872419D02*
X81962781Y-122872419D01*
X81962781Y-122872419D02*
X81819924Y-122920038D01*
X80819924Y-123777180D02*
X80867543Y-123824800D01*
X80867543Y-123824800D02*
X81010400Y-123872419D01*
X81010400Y-123872419D02*
X81105638Y-123872419D01*
X81105638Y-123872419D02*
X81248495Y-123824800D01*
X81248495Y-123824800D02*
X81343733Y-123729561D01*
X81343733Y-123729561D02*
X81391352Y-123634323D01*
X81391352Y-123634323D02*
X81438971Y-123443847D01*
X81438971Y-123443847D02*
X81438971Y-123300990D01*
X81438971Y-123300990D02*
X81391352Y-123110514D01*
X81391352Y-123110514D02*
X81343733Y-123015276D01*
X81343733Y-123015276D02*
X81248495Y-122920038D01*
X81248495Y-122920038D02*
X81105638Y-122872419D01*
X81105638Y-122872419D02*
X81010400Y-122872419D01*
X81010400Y-122872419D02*
X80867543Y-122920038D01*
X80867543Y-122920038D02*
X80819924Y-122967657D01*
X79915162Y-123872419D02*
X80391352Y-123872419D01*
X80391352Y-123872419D02*
X80391352Y-122872419D01*
D11*
X100277542Y-63396993D02*
X100277542Y-64111279D01*
X100277542Y-64111279D02*
X104563257Y-64111279D01*
X104563257Y-64111279D02*
X104563257Y-63396993D01*
D13*
X126512525Y-71971119D02*
X125941097Y-71971119D01*
X126226811Y-72971119D02*
X126226811Y-71971119D01*
X125607763Y-72971119D02*
X125607763Y-71971119D01*
X125607763Y-71971119D02*
X125226811Y-71971119D01*
X125226811Y-71971119D02*
X125131573Y-72018738D01*
X125131573Y-72018738D02*
X125083954Y-72066357D01*
X125083954Y-72066357D02*
X125036335Y-72161595D01*
X125036335Y-72161595D02*
X125036335Y-72304452D01*
X125036335Y-72304452D02*
X125083954Y-72399690D01*
X125083954Y-72399690D02*
X125131573Y-72447309D01*
X125131573Y-72447309D02*
X125226811Y-72494928D01*
X125226811Y-72494928D02*
X125607763Y-72494928D01*
X124607763Y-72590166D02*
X123845859Y-72590166D01*
X124226811Y-72971119D02*
X124226811Y-72209214D01*
X122893478Y-71971119D02*
X123369668Y-71971119D01*
X123369668Y-71971119D02*
X123417287Y-72447309D01*
X123417287Y-72447309D02*
X123369668Y-72399690D01*
X123369668Y-72399690D02*
X123274430Y-72352071D01*
X123274430Y-72352071D02*
X123036335Y-72352071D01*
X123036335Y-72352071D02*
X122941097Y-72399690D01*
X122941097Y-72399690D02*
X122893478Y-72447309D01*
X122893478Y-72447309D02*
X122845859Y-72542547D01*
X122845859Y-72542547D02*
X122845859Y-72780642D01*
X122845859Y-72780642D02*
X122893478Y-72875880D01*
X122893478Y-72875880D02*
X122941097Y-72923500D01*
X122941097Y-72923500D02*
X123036335Y-72971119D01*
X123036335Y-72971119D02*
X123274430Y-72971119D01*
X123274430Y-72971119D02*
X123369668Y-72923500D01*
X123369668Y-72923500D02*
X123417287Y-72875880D01*
X122417287Y-72875880D02*
X122369668Y-72923500D01*
X122369668Y-72923500D02*
X122417287Y-72971119D01*
X122417287Y-72971119D02*
X122464906Y-72923500D01*
X122464906Y-72923500D02*
X122417287Y-72875880D01*
X122417287Y-72875880D02*
X122417287Y-72971119D01*
X121750621Y-71971119D02*
X121655383Y-71971119D01*
X121655383Y-71971119D02*
X121560145Y-72018738D01*
X121560145Y-72018738D02*
X121512526Y-72066357D01*
X121512526Y-72066357D02*
X121464907Y-72161595D01*
X121464907Y-72161595D02*
X121417288Y-72352071D01*
X121417288Y-72352071D02*
X121417288Y-72590166D01*
X121417288Y-72590166D02*
X121464907Y-72780642D01*
X121464907Y-72780642D02*
X121512526Y-72875880D01*
X121512526Y-72875880D02*
X121560145Y-72923500D01*
X121560145Y-72923500D02*
X121655383Y-72971119D01*
X121655383Y-72971119D02*
X121750621Y-72971119D01*
X121750621Y-72971119D02*
X121845859Y-72923500D01*
X121845859Y-72923500D02*
X121893478Y-72875880D01*
X121893478Y-72875880D02*
X121941097Y-72780642D01*
X121941097Y-72780642D02*
X121988716Y-72590166D01*
X121988716Y-72590166D02*
X121988716Y-72352071D01*
X121988716Y-72352071D02*
X121941097Y-72161595D01*
X121941097Y-72161595D02*
X121893478Y-72066357D01*
X121893478Y-72066357D02*
X121845859Y-72018738D01*
X121845859Y-72018738D02*
X121750621Y-71971119D01*
D12*
X81819924Y-127920038D02*
X81915162Y-127872419D01*
X81915162Y-127872419D02*
X82058019Y-127872419D01*
X82058019Y-127872419D02*
X82200876Y-127920038D01*
X82200876Y-127920038D02*
X82296114Y-128015276D01*
X82296114Y-128015276D02*
X82343733Y-128110514D01*
X82343733Y-128110514D02*
X82391352Y-128300990D01*
X82391352Y-128300990D02*
X82391352Y-128443847D01*
X82391352Y-128443847D02*
X82343733Y-128634323D01*
X82343733Y-128634323D02*
X82296114Y-128729561D01*
X82296114Y-128729561D02*
X82200876Y-128824800D01*
X82200876Y-128824800D02*
X82058019Y-128872419D01*
X82058019Y-128872419D02*
X81962781Y-128872419D01*
X81962781Y-128872419D02*
X81819924Y-128824800D01*
X81819924Y-128824800D02*
X81772305Y-128777180D01*
X81772305Y-128777180D02*
X81772305Y-128443847D01*
X81772305Y-128443847D02*
X81962781Y-128443847D01*
X81343733Y-128872419D02*
X81343733Y-127872419D01*
X81343733Y-127872419D02*
X80772305Y-128872419D01*
X80772305Y-128872419D02*
X80772305Y-127872419D01*
X80296114Y-128872419D02*
X80296114Y-127872419D01*
X80296114Y-127872419D02*
X80058019Y-127872419D01*
X80058019Y-127872419D02*
X79915162Y-127920038D01*
X79915162Y-127920038D02*
X79819924Y-128015276D01*
X79819924Y-128015276D02*
X79772305Y-128110514D01*
X79772305Y-128110514D02*
X79724686Y-128300990D01*
X79724686Y-128300990D02*
X79724686Y-128443847D01*
X79724686Y-128443847D02*
X79772305Y-128634323D01*
X79772305Y-128634323D02*
X79819924Y-128729561D01*
X79819924Y-128729561D02*
X79915162Y-128824800D01*
X79915162Y-128824800D02*
X80058019Y-128872419D01*
X80058019Y-128872419D02*
X80296114Y-128872419D01*
D13*
X144902525Y-78071119D02*
X144331097Y-78071119D01*
X144616811Y-79071119D02*
X144616811Y-78071119D01*
X143997763Y-79071119D02*
X143997763Y-78071119D01*
X143997763Y-78071119D02*
X143616811Y-78071119D01*
X143616811Y-78071119D02*
X143521573Y-78118738D01*
X143521573Y-78118738D02*
X143473954Y-78166357D01*
X143473954Y-78166357D02*
X143426335Y-78261595D01*
X143426335Y-78261595D02*
X143426335Y-78404452D01*
X143426335Y-78404452D02*
X143473954Y-78499690D01*
X143473954Y-78499690D02*
X143521573Y-78547309D01*
X143521573Y-78547309D02*
X143616811Y-78594928D01*
X143616811Y-78594928D02*
X143997763Y-78594928D01*
X142997763Y-78690166D02*
X142235859Y-78690166D01*
X142616811Y-79071119D02*
X142616811Y-78309214D01*
X141331097Y-78404452D02*
X141331097Y-79071119D01*
X141569192Y-78023500D02*
X141807287Y-78737785D01*
X141807287Y-78737785D02*
X141188240Y-78737785D01*
X140807287Y-78975880D02*
X140759668Y-79023500D01*
X140759668Y-79023500D02*
X140807287Y-79071119D01*
X140807287Y-79071119D02*
X140854906Y-79023500D01*
X140854906Y-79023500D02*
X140807287Y-78975880D01*
X140807287Y-78975880D02*
X140807287Y-79071119D01*
X140378716Y-78166357D02*
X140331097Y-78118738D01*
X140331097Y-78118738D02*
X140235859Y-78071119D01*
X140235859Y-78071119D02*
X139997764Y-78071119D01*
X139997764Y-78071119D02*
X139902526Y-78118738D01*
X139902526Y-78118738D02*
X139854907Y-78166357D01*
X139854907Y-78166357D02*
X139807288Y-78261595D01*
X139807288Y-78261595D02*
X139807288Y-78356833D01*
X139807288Y-78356833D02*
X139854907Y-78499690D01*
X139854907Y-78499690D02*
X140426335Y-79071119D01*
X140426335Y-79071119D02*
X139807288Y-79071119D01*
D12*
X82391352Y-121324800D02*
X82248495Y-121372419D01*
X82248495Y-121372419D02*
X82010400Y-121372419D01*
X82010400Y-121372419D02*
X81915162Y-121324800D01*
X81915162Y-121324800D02*
X81867543Y-121277180D01*
X81867543Y-121277180D02*
X81819924Y-121181942D01*
X81819924Y-121181942D02*
X81819924Y-121086704D01*
X81819924Y-121086704D02*
X81867543Y-120991466D01*
X81867543Y-120991466D02*
X81915162Y-120943847D01*
X81915162Y-120943847D02*
X82010400Y-120896228D01*
X82010400Y-120896228D02*
X82200876Y-120848609D01*
X82200876Y-120848609D02*
X82296114Y-120800990D01*
X82296114Y-120800990D02*
X82343733Y-120753371D01*
X82343733Y-120753371D02*
X82391352Y-120658133D01*
X82391352Y-120658133D02*
X82391352Y-120562895D01*
X82391352Y-120562895D02*
X82343733Y-120467657D01*
X82343733Y-120467657D02*
X82296114Y-120420038D01*
X82296114Y-120420038D02*
X82200876Y-120372419D01*
X82200876Y-120372419D02*
X81962781Y-120372419D01*
X81962781Y-120372419D02*
X81819924Y-120420038D01*
X81391352Y-121372419D02*
X81391352Y-120372419D01*
X81391352Y-120372419D02*
X81153257Y-120372419D01*
X81153257Y-120372419D02*
X81010400Y-120420038D01*
X81010400Y-120420038D02*
X80915162Y-120515276D01*
X80915162Y-120515276D02*
X80867543Y-120610514D01*
X80867543Y-120610514D02*
X80819924Y-120800990D01*
X80819924Y-120800990D02*
X80819924Y-120943847D01*
X80819924Y-120943847D02*
X80867543Y-121134323D01*
X80867543Y-121134323D02*
X80915162Y-121229561D01*
X80915162Y-121229561D02*
X81010400Y-121324800D01*
X81010400Y-121324800D02*
X81153257Y-121372419D01*
X81153257Y-121372419D02*
X81391352Y-121372419D01*
X80438971Y-121086704D02*
X79962781Y-121086704D01*
X80534209Y-121372419D02*
X80200876Y-120372419D01*
X80200876Y-120372419D02*
X79867543Y-121372419D01*
D13*
X114296335Y-72417309D02*
X114153478Y-72464928D01*
X114153478Y-72464928D02*
X114105859Y-72512547D01*
X114105859Y-72512547D02*
X114058240Y-72607785D01*
X114058240Y-72607785D02*
X114058240Y-72750642D01*
X114058240Y-72750642D02*
X114105859Y-72845880D01*
X114105859Y-72845880D02*
X114153478Y-72893500D01*
X114153478Y-72893500D02*
X114248716Y-72941119D01*
X114248716Y-72941119D02*
X114629668Y-72941119D01*
X114629668Y-72941119D02*
X114629668Y-71941119D01*
X114629668Y-71941119D02*
X114296335Y-71941119D01*
X114296335Y-71941119D02*
X114201097Y-71988738D01*
X114201097Y-71988738D02*
X114153478Y-72036357D01*
X114153478Y-72036357D02*
X114105859Y-72131595D01*
X114105859Y-72131595D02*
X114105859Y-72226833D01*
X114105859Y-72226833D02*
X114153478Y-72322071D01*
X114153478Y-72322071D02*
X114201097Y-72369690D01*
X114201097Y-72369690D02*
X114296335Y-72417309D01*
X114296335Y-72417309D02*
X114629668Y-72417309D01*
X113677287Y-72655404D02*
X113201097Y-72655404D01*
X113772525Y-72941119D02*
X113439192Y-71941119D01*
X113439192Y-71941119D02*
X113105859Y-72941119D01*
X112915382Y-71941119D02*
X112343954Y-71941119D01*
X112629668Y-72941119D02*
X112629668Y-71941119D01*
X112010620Y-72560166D02*
X111248716Y-72560166D01*
X111629668Y-72941119D02*
X111629668Y-72179214D01*
D12*
X82438971Y-125372419D02*
X81819924Y-125372419D01*
X81819924Y-125372419D02*
X82153257Y-125753371D01*
X82153257Y-125753371D02*
X82010400Y-125753371D01*
X82010400Y-125753371D02*
X81915162Y-125800990D01*
X81915162Y-125800990D02*
X81867543Y-125848609D01*
X81867543Y-125848609D02*
X81819924Y-125943847D01*
X81819924Y-125943847D02*
X81819924Y-126181942D01*
X81819924Y-126181942D02*
X81867543Y-126277180D01*
X81867543Y-126277180D02*
X81915162Y-126324800D01*
X81915162Y-126324800D02*
X82010400Y-126372419D01*
X82010400Y-126372419D02*
X82296114Y-126372419D01*
X82296114Y-126372419D02*
X82391352Y-126324800D01*
X82391352Y-126324800D02*
X82438971Y-126277180D01*
X81534209Y-125372419D02*
X81200876Y-126372419D01*
X81200876Y-126372419D02*
X80867543Y-125372419D01*
X80629447Y-125372419D02*
X80010400Y-125372419D01*
X80010400Y-125372419D02*
X80343733Y-125753371D01*
X80343733Y-125753371D02*
X80200876Y-125753371D01*
X80200876Y-125753371D02*
X80105638Y-125800990D01*
X80105638Y-125800990D02*
X80058019Y-125848609D01*
X80058019Y-125848609D02*
X80010400Y-125943847D01*
X80010400Y-125943847D02*
X80010400Y-126181942D01*
X80010400Y-126181942D02*
X80058019Y-126277180D01*
X80058019Y-126277180D02*
X80105638Y-126324800D01*
X80105638Y-126324800D02*
X80200876Y-126372419D01*
X80200876Y-126372419D02*
X80486590Y-126372419D01*
X80486590Y-126372419D02*
X80581828Y-126324800D01*
X80581828Y-126324800D02*
X80629447Y-126277180D01*
D14*
X101333332Y-55407200D02*
X101190475Y-55454819D01*
X101190475Y-55454819D02*
X100952380Y-55454819D01*
X100952380Y-55454819D02*
X100857142Y-55407200D01*
X100857142Y-55407200D02*
X100809523Y-55359580D01*
X100809523Y-55359580D02*
X100761904Y-55264342D01*
X100761904Y-55264342D02*
X100761904Y-55169104D01*
X100761904Y-55169104D02*
X100809523Y-55073866D01*
X100809523Y-55073866D02*
X100857142Y-55026247D01*
X100857142Y-55026247D02*
X100952380Y-54978628D01*
X100952380Y-54978628D02*
X101142856Y-54931009D01*
X101142856Y-54931009D02*
X101238094Y-54883390D01*
X101238094Y-54883390D02*
X101285713Y-54835771D01*
X101285713Y-54835771D02*
X101333332Y-54740533D01*
X101333332Y-54740533D02*
X101333332Y-54645295D01*
X101333332Y-54645295D02*
X101285713Y-54550057D01*
X101285713Y-54550057D02*
X101238094Y-54502438D01*
X101238094Y-54502438D02*
X101142856Y-54454819D01*
X101142856Y-54454819D02*
X100904761Y-54454819D01*
X100904761Y-54454819D02*
X100761904Y-54502438D01*
X100428570Y-54454819D02*
X100190475Y-55454819D01*
X100190475Y-55454819D02*
X99999999Y-54740533D01*
X99999999Y-54740533D02*
X99809523Y-55454819D01*
X99809523Y-55454819D02*
X99571428Y-54454819D01*
X98666666Y-55454819D02*
X99238094Y-55454819D01*
X98952380Y-55454819D02*
X98952380Y-54454819D01*
X98952380Y-54454819D02*
X99047618Y-54597676D01*
X99047618Y-54597676D02*
X99142856Y-54692914D01*
X99142856Y-54692914D02*
X99238094Y-54740533D01*
X138690476Y-84359580D02*
X138738095Y-84407200D01*
X138738095Y-84407200D02*
X138880952Y-84454819D01*
X138880952Y-84454819D02*
X138976190Y-84454819D01*
X138976190Y-84454819D02*
X139119047Y-84407200D01*
X139119047Y-84407200D02*
X139214285Y-84311961D01*
X139214285Y-84311961D02*
X139261904Y-84216723D01*
X139261904Y-84216723D02*
X139309523Y-84026247D01*
X139309523Y-84026247D02*
X139309523Y-83883390D01*
X139309523Y-83883390D02*
X139261904Y-83692914D01*
X139261904Y-83692914D02*
X139214285Y-83597676D01*
X139214285Y-83597676D02*
X139119047Y-83502438D01*
X139119047Y-83502438D02*
X138976190Y-83454819D01*
X138976190Y-83454819D02*
X138880952Y-83454819D01*
X138880952Y-83454819D02*
X138738095Y-83502438D01*
X138738095Y-83502438D02*
X138690476Y-83550057D01*
X138261904Y-84454819D02*
X138261904Y-83454819D01*
X138261904Y-83454819D02*
X137690476Y-84454819D01*
X137690476Y-84454819D02*
X137690476Y-83454819D01*
X136690476Y-84454819D02*
X137261904Y-84454819D01*
X136976190Y-84454819D02*
X136976190Y-83454819D01*
X136976190Y-83454819D02*
X137071428Y-83597676D01*
X137071428Y-83597676D02*
X137166666Y-83692914D01*
X137166666Y-83692914D02*
X137261904Y-83740533D01*
D11*
X132145863Y-80020400D02*
X134431578Y-80020400D01*
X141545863Y-80020400D02*
X143831578Y-80020400D01*
X142688720Y-78877542D02*
X142688720Y-81163257D01*
D15*
%TO.C,SW1*%
X106350000Y-62850000D02*
X106350000Y-56150000D01*
X106350000Y-56150000D02*
X93650000Y-56150000D01*
X93650000Y-62850000D02*
X106350000Y-62850000D01*
X93650000Y-56150000D02*
X93650000Y-62850000D01*
%TO.C,CN1*%
X141010000Y-79620000D02*
X140500000Y-79620000D01*
X141000000Y-82800000D02*
X141000000Y-78300000D01*
X141000000Y-78300000D02*
X135000000Y-78300000D01*
X140540000Y-82160000D02*
X140540000Y-80260000D01*
X140540000Y-80260000D02*
X140930000Y-80260000D01*
X140500000Y-79620000D02*
X140500000Y-78860000D01*
X140500000Y-78860000D02*
X138340000Y-78860000D01*
X138340000Y-78860000D02*
X138340000Y-78350000D01*
X137750000Y-78860000D02*
X137750000Y-78350000D01*
X135590000Y-82160000D02*
X140540000Y-82160000D01*
X135590000Y-80260000D02*
X135590000Y-82160000D01*
X135590000Y-79620000D02*
X135590000Y-78860000D01*
X135590000Y-78860000D02*
X137750000Y-78860000D01*
X135080000Y-80260000D02*
X135590000Y-80260000D01*
X135080000Y-79620000D02*
X135590000Y-79620000D01*
X135000000Y-82800000D02*
X141000000Y-82800000D01*
X135000000Y-78300000D02*
X135000000Y-82800000D01*
%TD*%
%LPC*%
D16*
%TO.C,U6*%
X100000000Y-100000000D03*
D17*
X102550000Y-102550000D03*
X102550000Y-97450000D03*
X97450000Y-97450000D03*
X97450000Y-102550000D03*
%TD*%
D18*
%TO.C,H1*%
X80000000Y-57000000D03*
%TD*%
%TO.C,H3*%
X138000000Y-95000000D03*
%TD*%
D19*
%TO.C,B1*%
X61000000Y-82000000D03*
D20*
X61000000Y-89500000D03*
%TD*%
D18*
%TO.C,H6*%
X54000000Y-100000000D03*
%TD*%
D21*
%TO.C,J1*%
X116960000Y-72500000D03*
D22*
X119500000Y-72500000D03*
%TD*%
D18*
%TO.C,H2*%
X108000000Y-50000000D03*
%TD*%
D21*
%TO.C,J2*%
X77600000Y-120990000D03*
X77600000Y-123530000D03*
X77600000Y-126070000D03*
D22*
X77600000Y-128610000D03*
%TD*%
D18*
%TO.C,H5*%
X80000000Y-143000000D03*
%TD*%
D23*
%TO.C,USB1*%
X149300000Y-88500000D03*
X149300000Y-92500000D03*
%TD*%
D18*
%TO.C,H4*%
X108000000Y-150000000D03*
%TD*%
D24*
%TO.C,SW1*%
X95300000Y-59500000D03*
X100000000Y-59500000D03*
X104700000Y-59500000D03*
%TD*%
D25*
%TO.C,CN1*%
X137000000Y-80000000D03*
X139000000Y-80000000D03*
%TD*%
%LPD*%
M02*
