M48
; DRILL file {KiCad 9.0.6-9.0.6~ubuntu24.04.1} date 2025-12-17T14:29:43+0700
; FORMAT={-:-/ absolute / inch / decimal}
; #@! TF.CreationDate,2025-12-17T14:29:43+07:00
; #@! TF.GenerationSoftware,Kicad,Pcbnew,9.0.6-9.0.6~ubuntu24.04.1
; #@! TF.FileFunction,Plated,1,4,PTH
FMAT,2
INCH
; #@! TA.AperFunction,Plated,PTH,ViaDrill
T1C0.0118
; #@! TA.AperFunction,Plated,PTH,ComponentDrill
T2C0.0118
; #@! TA.AperFunction,Plated,PTH,ComponentDrill
T3C0.0217
; #@! TA.AperFunction,Plated,PTH,ComponentDrill
T4C0.0354
; #@! TA.AperFunction,Plated,PTH,ComponentDrill
T5C0.0394
; #@! TA.AperFunction,Plated,PTH,ComponentDrill
T6C0.0472
; #@! TA.AperFunction,Plated,PTH,ComponentDrill
T7C0.0472
; #@! TA.AperFunction,Plated,PTH,ComponentDrill
T8C0.0512
; #@! TA.AperFunction,Plated,PTH,ComponentDrill
T9C0.0551
; #@! TA.AperFunction,Plated,PTH,ComponentDrill
T10C0.0984
%
G90
G05
T1
X2.7559Y-3.6772
X2.7559Y-3.8071
X2.9882Y-3.2323
X3.0315Y-3.2323
X3.0413Y-3.4094
X3.0413Y-3.9882
X3.0748Y-4.1654
X3.1181Y-4.1654
X3.124Y-3.5748
X3.124Y-3.8228
X3.1929Y-4.2283
X3.248Y-3.6988
X3.2874Y-1.9882
X3.2913Y-3.2323
X3.3307Y-4.2283
X3.3661Y-2.3031
X3.372Y-3.5748
X3.372Y-3.8228
X3.4449Y-2.3031
X3.4547Y-3.4094
X3.4547Y-3.9882
X3.4646Y-4.1654
X3.5236Y-1.9882
X3.6024Y-3.8976
X3.6024Y-3.9764
X3.6417Y-3.5433
X3.662Y-4.4783
X3.7008Y-3.8976
X3.7008Y-3.9764
X3.712Y-4.9783
X3.7598Y-1.9882
X3.762Y-4.9283
X3.7992Y-3.8976
X3.7992Y-3.9764
X3.8504Y-2.8543
X3.8976Y-3.8976
X3.8976Y-3.9764
X3.9764Y-3.8976
X3.9764Y-3.9764
X4.1772Y-2.7539
X4.2224Y-5.0283
X4.2224Y-5.0783
X4.252Y-2.7539
X4.3504Y-4.4783
X4.3504Y-4.5283
X4.3504Y-4.5783
X4.3504Y-4.6283
X4.5472Y-5.0787
X4.626Y-1.9882
X4.7047Y-2.3031
X5.0394Y-3.4449
X5.0591Y-3.248
X5.0787Y-3.3268
X5.1063Y-3.4449
X5.1201Y-4.4193
X5.1457Y-4.1831
X5.1575Y-4.1142
X5.1575Y-4.3504
X5.1898Y-3.3606
X5.1969Y-4.1142
X5.1969Y-4.3504
X5.2756Y-3.4449
X5.2756Y-4.1535
X5.2756Y-4.3898
X5.3543Y-4.1929
X5.3543Y-4.4291
X5.4134Y-3.5551
X5.4331Y-3.3858
X5.4528Y-3.5965
X5.4921Y-3.5295
X5.6299Y-3.3661
X5.689Y-3.3858
X5.7638Y-3.189
X5.7677Y-3.5118
X5.7677Y-3.5551
X5.7677Y-3.5965
X5.7764Y-4.3413
X5.8228Y-4.2559
X5.8228Y-4.5079
T2
X3.9567Y-4.7835
X3.9567Y-4.8622
X3.9961Y-4.8228
X4.0354Y-4.7835
X4.0354Y-4.8622
T3
X5.878Y-3.4843
X5.878Y-3.6417
T4
X5.3937Y-3.1496
X5.4724Y-3.1496
T5
X2.4016Y-3.2283
X3.0551Y-4.7634
X3.0551Y-4.8634
X3.0551Y-4.9634
X3.0551Y-5.0634
X4.6047Y-2.8543
X4.7047Y-2.8543
T6
X3.937Y-3.937
T7
X2.4016Y-3.5236
T9
X3.8366Y-3.8366
X3.8366Y-4.0374
X4.0374Y-3.8366
X4.0374Y-4.0374
T10
X2.126Y-3.937
X3.1496Y-2.2441
X3.1496Y-5.6299
X4.252Y-1.9685
X4.252Y-5.9055
X5.4331Y-3.7402
T8
G00X3.752Y-2.3563
M15
G01X3.752Y-2.3287
M16
G05
G00X3.937Y-2.3563
M15
G01X3.937Y-2.3287
M16
G05
G00X4.122Y-2.3563
M15
G01X4.122Y-2.3287
M16
G05
M30
