%TF.GenerationSoftware,KiCad,Pcbnew,9.0.6-9.0.6~ubuntu24.04.1*%
%TF.CreationDate,2025-12-17T14:29:43+07:00*%
%TF.ProjectId,esp32s3-gnss-base-station,65737033-3273-4332-9d67-6e73732d6261,0.1*%
%TF.SameCoordinates,Original*%
%TF.FileFunction,Copper,L4,Bot*%
%TF.FilePolarity,Positive*%
%FSLAX46Y46*%
G04 Gerber Fmt 4.6, Leading zero omitted, Abs format (unit mm)*
G04 Created by KiCad (PCBNEW 9.0.6-9.0.6~ubuntu24.04.1) date 2025-12-17 14:29:43*
%MOMM*%
%LPD*%
G01*
G04 APERTURE LIST*
%TA.AperFunction,ComponentPad*%
%ADD10C,1.800000*%
%TD*%
%TA.AperFunction,ComponentPad*%
%ADD11C,2.000000*%
%TD*%
%TA.AperFunction,ComponentPad*%
%ADD12C,5.000000*%
%TD*%
%TA.AperFunction,ComponentPad*%
%ADD13C,1.000000*%
%TD*%
%TA.AperFunction,ComponentPad*%
%ADD14C,1.200000*%
%TD*%
%TA.AperFunction,HeatsinkPad*%
%ADD15C,0.600000*%
%TD*%
%TA.AperFunction,ComponentPad*%
%ADD16C,1.700000*%
%TD*%
%TA.AperFunction,ComponentPad*%
%ADD17R,1.700000X1.700000*%
%TD*%
%TA.AperFunction,ComponentPad*%
%ADD18C,0.550000*%
%TD*%
%TA.AperFunction,ComponentPad*%
%ADD19O,2.000000X3.000000*%
%TD*%
%TA.AperFunction,ComponentPad*%
%ADD20C,1.600000*%
%TD*%
%TA.AperFunction,ViaPad*%
%ADD21C,0.600000*%
%TD*%
%TA.AperFunction,Conductor*%
%ADD22C,0.500000*%
%TD*%
%TA.AperFunction,Conductor*%
%ADD23C,0.300000*%
%TD*%
G04 APERTURE END LIST*
D10*
%TO.P,U6,5*%
%TO.N,Net-(U2-RF_IN)*%
X100000000Y-100000000D03*
D11*
%TO.P,U6,4*%
%TO.N,GND*%
X102550000Y-102550000D03*
%TO.P,U6,3*%
X102550000Y-97450000D03*
%TO.P,U6,2*%
X97450000Y-97450000D03*
%TO.P,U6,1*%
X97450000Y-102550000D03*
%TD*%
D12*
%TO.P,H1,1,1*%
%TO.N,GND*%
X80000000Y-57000000D03*
%TD*%
%TO.P,H3,1,1*%
%TO.N,GND*%
X138000000Y-95000000D03*
%TD*%
D13*
%TO.P,B1,*%
%TO.N,*%
X61000000Y-82000000D03*
D14*
X61000000Y-89500000D03*
%TD*%
D12*
%TO.P,H6,1,1*%
%TO.N,GND*%
X54000000Y-100000000D03*
%TD*%
D15*
%TO.P,U1,41,GND*%
%TO.N,GND*%
X100500000Y-121500000D03*
X100500000Y-123500000D03*
X101500000Y-122500000D03*
X102500000Y-121500000D03*
X102500000Y-123500000D03*
%TD*%
D16*
%TO.P,J1,2,Pin_2*%
%TO.N,+BATT*%
X116960000Y-72500000D03*
D17*
%TO.P,J1,1,Pin_1*%
%TO.N,+5V*%
X119500000Y-72500000D03*
%TD*%
D12*
%TO.P,H2,1,1*%
%TO.N,GND*%
X108000000Y-50000000D03*
%TD*%
D16*
%TO.P,J2,4,Pin_4*%
%TO.N,SDA*%
X77600000Y-120990000D03*
%TO.P,J2,3,Pin_3*%
%TO.N,SCL*%
X77600000Y-123530000D03*
%TO.P,J2,2,Pin_2*%
%TO.N,+3V3*%
X77600000Y-126070000D03*
D17*
%TO.P,J2,1,Pin_1*%
%TO.N,GND*%
X77600000Y-128610000D03*
%TD*%
D12*
%TO.P,H5,1,1*%
%TO.N,GND*%
X80000000Y-143000000D03*
%TD*%
D18*
%TO.P,USB1,*%
%TO.N,*%
X149300000Y-88500000D03*
X149300000Y-92500000D03*
%TD*%
D12*
%TO.P,H4,1,1*%
%TO.N,GND*%
X108000000Y-150000000D03*
%TD*%
D19*
%TO.P,SW1,3,3*%
%TO.N,unconnected-(SW1-Pad3)*%
X95300000Y-59500000D03*
%TO.P,SW1,2,2*%
%TO.N,+BATT*%
X100000000Y-59500000D03*
%TO.P,SW1,1,1*%
%TO.N,Net-(U4-BAT)*%
X104700000Y-59500000D03*
%TD*%
D20*
%TO.P,CN1,2,2*%
%TO.N,GND*%
X137000000Y-80000000D03*
%TO.P,CN1,1,1*%
%TO.N,Net-(U4-BAT)*%
X139000000Y-80000000D03*
%TD*%
D21*
%TO.N,GND*%
X91500000Y-101000000D03*
X77250000Y-86600000D03*
X92500000Y-90000000D03*
X95500000Y-50500000D03*
X79350000Y-97100000D03*
X130050000Y-112250000D03*
X96500000Y-99000000D03*
X96500000Y-101000000D03*
X85650000Y-90800000D03*
X146500000Y-89200000D03*
X83500000Y-50500000D03*
X101000000Y-101000000D03*
X101000000Y-99000000D03*
X94000000Y-101000000D03*
X87750000Y-86600000D03*
X146720000Y-110270000D03*
X79350000Y-90800000D03*
X99000000Y-99000000D03*
X131000000Y-104500000D03*
X131000000Y-110500000D03*
X85650000Y-97100000D03*
X82500000Y-93950000D03*
X138000000Y-86000000D03*
X87750000Y-101300000D03*
X89500000Y-50500000D03*
X130700000Y-106250000D03*
X91500000Y-99000000D03*
X77250000Y-101300000D03*
X99000000Y-101000000D03*
X94000000Y-99000000D03*
%TO.N,+5V*%
X119500000Y-58500000D03*
X144500000Y-86000000D03*
%TO.N,+3V3*%
X115500000Y-129000000D03*
X132000000Y-104500000D03*
X70000000Y-96700000D03*
X147900000Y-108100000D03*
X107250000Y-128990000D03*
X108000000Y-69950000D03*
X70000000Y-93400000D03*
X136000000Y-106500000D03*
X147900000Y-114500000D03*
X134000000Y-111500000D03*
X97800000Y-72500000D03*
X81100000Y-107400000D03*
X132000000Y-110500000D03*
X134000000Y-105500000D03*
X136000000Y-112500000D03*
%TO.N,+BATT*%
X106100000Y-69950000D03*
%TO.N,Net-(U4-~{CHRG})*%
X146400000Y-81000000D03*
X117500000Y-50500000D03*
%TO.N,BOOT*%
X110500000Y-113750000D03*
X93015000Y-113750000D03*
X129000000Y-84500000D03*
%TO.N,COM_DTR*%
X128000000Y-87500000D03*
X134000000Y-87500000D03*
X129700000Y-87500000D03*
%TO.N,Net-(Q1-B1)*%
X131820000Y-85360000D03*
X128500000Y-82500000D03*
%TO.N,ENABLE*%
X84600000Y-107400000D03*
X110500000Y-115020000D03*
X107250000Y-127720000D03*
%TO.N,Net-(U3-VDD)*%
X139500000Y-89650000D03*
X143000000Y-85500000D03*
%TO.N,Net-(U2-RTK_STAT)*%
X85500000Y-58500000D03*
X83600000Y-82100000D03*
%TO.N,Net-(U2-TIMEPULSE)*%
X88000000Y-105800000D03*
X87500000Y-58500000D03*
%TO.N,COM_RX*%
X110500000Y-116290000D03*
X94285000Y-126450000D03*
%TO.N,COM_TX*%
X95555000Y-125180000D03*
X110500000Y-117560000D03*
%TO.N,RTCM_OUT*%
X78100000Y-105800000D03*
X75900000Y-82100000D03*
%TO.N,RTCM_IN*%
X79200000Y-105800000D03*
X77000000Y-82100000D03*
%TO.N,Net-(U3-D+)*%
X137500000Y-90300000D03*
X146500000Y-90300000D03*
%TO.N,Net-(U3-D-)*%
X138500000Y-91350000D03*
X146500000Y-91350000D03*
%TD*%
D22*
%TO.N,+5V*%
X119500000Y-72500000D02*
X134800000Y-72500000D01*
X120800000Y-58500000D02*
X134800000Y-72500000D01*
X119500000Y-58500000D02*
X120800000Y-58500000D01*
X144500000Y-82200000D02*
X144500000Y-86000000D01*
X134800000Y-72500000D02*
X144500000Y-82200000D01*
%TO.N,+3V3*%
X119500000Y-129000000D02*
X115500000Y-129000000D01*
X81100000Y-125200000D02*
X80300000Y-126000000D01*
X132000000Y-97500000D02*
X132000000Y-104500000D01*
X70000000Y-96700000D02*
X70000000Y-106650000D01*
X147900000Y-114500000D02*
X147900000Y-108100000D01*
X136000000Y-112500000D02*
X135000000Y-112500000D01*
X137500000Y-108100000D02*
X136000000Y-106600000D01*
X83090000Y-128990000D02*
X80170000Y-126070000D01*
X81100000Y-107400000D02*
X81100000Y-125200000D01*
X107250000Y-128990000D02*
X83090000Y-128990000D01*
X135000000Y-112500000D02*
X134000000Y-111500000D01*
X108000000Y-71500000D02*
X107000000Y-72500000D01*
X70750000Y-107400000D02*
X81100000Y-107400000D01*
X134000000Y-105500000D02*
X132000000Y-105500000D01*
X77670000Y-126000000D02*
X77600000Y-126070000D01*
X107000000Y-72500000D02*
X97800000Y-72500000D01*
X108000000Y-69950000D02*
X108000000Y-71500000D01*
X132000000Y-110500000D02*
X132000000Y-116500000D01*
X136000000Y-106600000D02*
X136000000Y-106500000D01*
X107000000Y-72500000D02*
X132000000Y-97500000D01*
X70000000Y-106650000D02*
X70750000Y-107400000D01*
X147900000Y-108100000D02*
X137500000Y-108100000D01*
X136000000Y-112500000D02*
X138000000Y-114500000D01*
X132000000Y-116500000D02*
X119500000Y-129000000D01*
X132000000Y-104500000D02*
X132000000Y-110500000D01*
X70000000Y-93400000D02*
X70000000Y-96700000D01*
X138000000Y-114500000D02*
X147900000Y-114500000D01*
X80300000Y-126000000D02*
X77670000Y-126000000D01*
X136000000Y-106500000D02*
X135000000Y-106500000D01*
X80170000Y-126070000D02*
X77600000Y-126070000D01*
X132000000Y-105500000D02*
X132000000Y-104500000D01*
X134000000Y-111500000D02*
X132000000Y-111500000D01*
X135000000Y-106500000D02*
X134000000Y-105500000D01*
%TO.N,+BATT*%
X106100000Y-69950000D02*
X100150000Y-69950000D01*
X100000000Y-59500000D02*
X100000000Y-67000000D01*
X100150000Y-69950000D02*
X100000000Y-69800000D01*
X100000000Y-69800000D02*
X100000000Y-67000000D01*
D23*
%TO.N,Net-(U4-~{CHRG})*%
X117500000Y-54000000D02*
X144500000Y-81000000D01*
X144500000Y-81000000D02*
X146400000Y-81000000D01*
X117500000Y-50500000D02*
X117500000Y-54000000D01*
%TO.N,BOOT*%
X93015000Y-113750000D02*
X110500000Y-113750000D01*
%TO.N,COM_DTR*%
X134000000Y-87500000D02*
X129700000Y-87500000D01*
X129700000Y-87500000D02*
X128000000Y-87500000D01*
%TO.N,Net-(Q1-B1)*%
X131700000Y-82500000D02*
X131820000Y-82620000D01*
X131820000Y-82620000D02*
X131820000Y-85360000D01*
X128500000Y-82500000D02*
X131700000Y-82500000D01*
%TO.N,ENABLE*%
X84600000Y-107400000D02*
X85400000Y-107400000D01*
X93000000Y-127720000D02*
X107250000Y-127720000D01*
X110500000Y-115020000D02*
X93020000Y-115020000D01*
X93020000Y-115020000D02*
X93000000Y-115000000D01*
X85400000Y-107400000D02*
X93000000Y-115000000D01*
X93000000Y-115250000D02*
X93000000Y-118900000D01*
X93000000Y-118900000D02*
X93000000Y-127720000D01*
X93000000Y-115000000D02*
X93000000Y-115250000D01*
%TO.N,Net-(U3-VDD)*%
X143000000Y-89000000D02*
X142350000Y-89650000D01*
X142350000Y-89650000D02*
X139500000Y-89650000D01*
X143000000Y-85500000D02*
X143000000Y-89000000D01*
%TO.N,Net-(U2-RTK_STAT)*%
X85500000Y-58500000D02*
X85500000Y-80200000D01*
X85500000Y-80200000D02*
X83600000Y-82100000D01*
%TO.N,Net-(U2-TIMEPULSE)*%
X87500000Y-80200000D02*
X86700000Y-81000000D01*
X86700000Y-104500000D02*
X88000000Y-105800000D01*
X86700000Y-81000000D02*
X86700000Y-104500000D01*
X87500000Y-58500000D02*
X87500000Y-80200000D01*
%TO.N,COM_RX*%
X94250000Y-126450000D02*
X94250000Y-118750000D01*
X94250000Y-118750000D02*
X96710000Y-116290000D01*
X96710000Y-116290000D02*
X110500000Y-116290000D01*
%TO.N,COM_TX*%
X95560000Y-125175000D02*
X95560000Y-118940000D01*
X96940000Y-117560000D02*
X110500000Y-117560000D01*
X95560000Y-118940000D02*
X96940000Y-117560000D01*
X95555000Y-125180000D02*
X95560000Y-125175000D01*
%TO.N,RTCM_OUT*%
X75900000Y-82100000D02*
X75900000Y-103600000D01*
X75900000Y-103600000D02*
X78100000Y-105800000D01*
%TO.N,RTCM_IN*%
X78300000Y-104900000D02*
X79200000Y-105800000D01*
X77000000Y-82100000D02*
X78300000Y-83400000D01*
X78300000Y-83400000D02*
X78300000Y-104900000D01*
%TO.N,Net-(U3-D+)*%
X137500000Y-90300000D02*
X146500000Y-90300000D01*
%TO.N,Net-(U3-D-)*%
X138500000Y-91350000D02*
X146500000Y-91350000D01*
%TD*%
%TA.AperFunction,Conductor*%
%TO.N,GND*%
G36*
X133776826Y-105956947D02*
G01*
X133790645Y-105958035D01*
X133796640Y-105960518D01*
X133806814Y-105966392D01*
X133818163Y-105969432D01*
X133824151Y-105971913D01*
X133856271Y-105993374D01*
X134723387Y-106860490D01*
X134723389Y-106860491D01*
X134790953Y-106899500D01*
X134790954Y-106899500D01*
X134826112Y-106919798D01*
X134826114Y-106919799D01*
X134940691Y-106950500D01*
X135672389Y-106950500D01*
X135730580Y-106969407D01*
X135742393Y-106979496D01*
X137223386Y-108460489D01*
X137282696Y-108494731D01*
X137326114Y-108519799D01*
X137440691Y-108550500D01*
X147350500Y-108550500D01*
X147408691Y-108569407D01*
X147444655Y-108618907D01*
X147449500Y-108649500D01*
X147449500Y-113950500D01*
X147430593Y-114008691D01*
X147381093Y-114044655D01*
X147350500Y-114049500D01*
X138227611Y-114049500D01*
X138169420Y-114030593D01*
X138157607Y-114020504D01*
X136493374Y-112356271D01*
X136467751Y-112311887D01*
X136466392Y-112306815D01*
X136466392Y-112306814D01*
X136400500Y-112192686D01*
X136307314Y-112099500D01*
X136307311Y-112099498D01*
X136307309Y-112099496D01*
X136193189Y-112033609D01*
X136193191Y-112033609D01*
X136143799Y-112020375D01*
X136065892Y-111999500D01*
X135934108Y-111999500D01*
X135855719Y-112020504D01*
X135806813Y-112033608D01*
X135802259Y-112036238D01*
X135752761Y-112049500D01*
X135227611Y-112049500D01*
X135169420Y-112030593D01*
X135157607Y-112020504D01*
X134493374Y-111356271D01*
X134467751Y-111311887D01*
X134466392Y-111306815D01*
X134466392Y-111306814D01*
X134400500Y-111192686D01*
X134307314Y-111099500D01*
X134307311Y-111099498D01*
X134307309Y-111099496D01*
X134193189Y-111033609D01*
X134193191Y-111033609D01*
X134143799Y-111020375D01*
X134065892Y-110999500D01*
X133934108Y-110999500D01*
X133849245Y-111022238D01*
X133806813Y-111033608D01*
X133802259Y-111036238D01*
X133752761Y-111049500D01*
X132549500Y-111049500D01*
X132491309Y-111030593D01*
X132455345Y-110981093D01*
X132450500Y-110950500D01*
X132450500Y-110747238D01*
X132463765Y-110697735D01*
X132466392Y-110693186D01*
X132500500Y-110565892D01*
X132500500Y-110434108D01*
X132466392Y-110306814D01*
X132463761Y-110302258D01*
X132450500Y-110252761D01*
X132450500Y-106049500D01*
X132469407Y-105991309D01*
X132518907Y-105955345D01*
X132549500Y-105950500D01*
X133752761Y-105950500D01*
X133776826Y-105956947D01*
G37*
%TD.AperFunction*%
%TA.AperFunction,Conductor*%
G36*
X76473296Y-82251102D02*
G01*
X76476425Y-82250965D01*
X76499556Y-82266263D01*
X76523571Y-82280129D01*
X76526393Y-82284013D01*
X76527458Y-82284718D01*
X76528045Y-82286287D01*
X76535736Y-82296873D01*
X76599496Y-82407309D01*
X76599498Y-82407311D01*
X76599500Y-82407314D01*
X76692686Y-82500500D01*
X76692688Y-82500501D01*
X76692690Y-82500503D01*
X76806810Y-82566390D01*
X76806808Y-82566390D01*
X76806812Y-82566391D01*
X76806814Y-82566392D01*
X76934108Y-82600500D01*
X76963810Y-82600500D01*
X77022001Y-82619407D01*
X77033814Y-82629496D01*
X77920504Y-83516186D01*
X77948281Y-83570703D01*
X77949500Y-83586190D01*
X77949500Y-104914810D01*
X77930593Y-104973001D01*
X77881093Y-105008965D01*
X77819907Y-105008965D01*
X77780496Y-104984814D01*
X76279496Y-103483814D01*
X76251719Y-103429297D01*
X76250500Y-103413810D01*
X76250500Y-82498321D01*
X76266927Y-82443707D01*
X76272435Y-82435378D01*
X76300500Y-82407314D01*
X76365765Y-82294270D01*
X76367427Y-82291759D01*
X76389123Y-82274488D01*
X76409733Y-82255932D01*
X76412848Y-82255604D01*
X76415299Y-82253654D01*
X76442997Y-82252435D01*
X76470583Y-82249536D01*
X76473296Y-82251102D01*
G37*
%TD.AperFunction*%
%TA.AperFunction,Conductor*%
G36*
X100203639Y-46500903D02*
G01*
X101532652Y-46522475D01*
X101535078Y-46522545D01*
X102863084Y-46577182D01*
X102865462Y-46577309D01*
X104191702Y-46664980D01*
X104194118Y-46665170D01*
X105517785Y-46785821D01*
X105520118Y-46786063D01*
X106748116Y-46928889D01*
X106840360Y-46939618D01*
X106842804Y-46939933D01*
X107028148Y-46966180D01*
X108158796Y-47126294D01*
X108161174Y-47126661D01*
X109378254Y-47330031D01*
X109472088Y-47345711D01*
X109474515Y-47346147D01*
X110779602Y-47597758D01*
X110781983Y-47598248D01*
X112080414Y-47882265D01*
X112082693Y-47882793D01*
X112924056Y-48088897D01*
X112976076Y-48121107D01*
X112999230Y-48177742D01*
X112999500Y-48185054D01*
X112999500Y-54065892D01*
X113029579Y-54178151D01*
X113033609Y-54193190D01*
X113099496Y-54307309D01*
X113099498Y-54307311D01*
X113099500Y-54307314D01*
X113192686Y-54400500D01*
X113192688Y-54400501D01*
X113192690Y-54400503D01*
X113306810Y-54466390D01*
X113306808Y-54466390D01*
X113306812Y-54466391D01*
X113306814Y-54466392D01*
X113434108Y-54500500D01*
X113434110Y-54500500D01*
X115565890Y-54500500D01*
X115565892Y-54500500D01*
X115693186Y-54466392D01*
X115693188Y-54466390D01*
X115693190Y-54466390D01*
X115807309Y-54400503D01*
X115807309Y-54400502D01*
X115807314Y-54400500D01*
X115900500Y-54307314D01*
X115928349Y-54259078D01*
X115966390Y-54193190D01*
X115966391Y-54193187D01*
X115966392Y-54193186D01*
X116000500Y-54065892D01*
X116000501Y-50434108D01*
X116999500Y-50434108D01*
X116999500Y-50565892D01*
X117029579Y-50678151D01*
X117033609Y-50693190D01*
X117099496Y-50807309D01*
X117099498Y-50807311D01*
X117099500Y-50807314D01*
X117120505Y-50828319D01*
X117148281Y-50882834D01*
X117149500Y-50898321D01*
X117149500Y-54046146D01*
X117154791Y-54065891D01*
X117154791Y-54065892D01*
X117154792Y-54065892D01*
X117154792Y-54065893D01*
X117173386Y-54135288D01*
X117219530Y-54215212D01*
X120884816Y-57880498D01*
X120912592Y-57935013D01*
X120903021Y-57995445D01*
X120859756Y-58038710D01*
X120814811Y-58049500D01*
X119747239Y-58049500D01*
X119697741Y-58036238D01*
X119693186Y-58033608D01*
X119565892Y-57999500D01*
X119434108Y-57999500D01*
X119356200Y-58020375D01*
X119306809Y-58033609D01*
X119192690Y-58099496D01*
X119099496Y-58192690D01*
X119033609Y-58306809D01*
X119033608Y-58306814D01*
X118999500Y-58434108D01*
X118999500Y-58565892D01*
X119025195Y-58661789D01*
X119033609Y-58693190D01*
X119099496Y-58807309D01*
X119099498Y-58807311D01*
X119099500Y-58807314D01*
X119192686Y-58900500D01*
X119192688Y-58900501D01*
X119192690Y-58900503D01*
X119306810Y-58966390D01*
X119306808Y-58966390D01*
X119306812Y-58966391D01*
X119306814Y-58966392D01*
X119434108Y-59000500D01*
X119434110Y-59000500D01*
X119565890Y-59000500D01*
X119565892Y-59000500D01*
X119693186Y-58966392D01*
X119697741Y-58963761D01*
X119747239Y-58950500D01*
X120572389Y-58950500D01*
X120630580Y-58969407D01*
X120642393Y-58979496D01*
X133543393Y-71880496D01*
X133571170Y-71935013D01*
X133561599Y-71995445D01*
X133518334Y-72038710D01*
X133473389Y-72049500D01*
X120649500Y-72049500D01*
X120591309Y-72030593D01*
X120555345Y-71981093D01*
X120550500Y-71950500D01*
X120550500Y-71630253D01*
X120550498Y-71630241D01*
X120543088Y-71592990D01*
X120538867Y-71571769D01*
X120494552Y-71505448D01*
X120494548Y-71505445D01*
X120428233Y-71461134D01*
X120428231Y-71461133D01*
X120428228Y-71461132D01*
X120428227Y-71461132D01*
X120369758Y-71449501D01*
X120369748Y-71449500D01*
X118630252Y-71449500D01*
X118630251Y-71449500D01*
X118630241Y-71449501D01*
X118571772Y-71461132D01*
X118571766Y-71461134D01*
X118505451Y-71505445D01*
X118505445Y-71505451D01*
X118461134Y-71571766D01*
X118461132Y-71571772D01*
X118449501Y-71630241D01*
X118449500Y-71630253D01*
X118449500Y-73369746D01*
X118449501Y-73369758D01*
X118461132Y-73428227D01*
X118461134Y-73428233D01*
X118497171Y-73482165D01*
X118505448Y-73494552D01*
X118571769Y-73538867D01*
X118616231Y-73547711D01*
X118630241Y-73550498D01*
X118630246Y-73550498D01*
X118630252Y-73550500D01*
X118630253Y-73550500D01*
X120369747Y-73550500D01*
X120369748Y-73550500D01*
X120428231Y-73538867D01*
X120494552Y-73494552D01*
X120538867Y-73428231D01*
X120550500Y-73369748D01*
X120550500Y-73049500D01*
X120569407Y-72991309D01*
X120618907Y-72955345D01*
X120649500Y-72950500D01*
X134572389Y-72950500D01*
X134630580Y-72969407D01*
X134642393Y-72979496D01*
X144020504Y-82357607D01*
X144048281Y-82412124D01*
X144049500Y-82427611D01*
X144049500Y-85752761D01*
X144036238Y-85802259D01*
X144033608Y-85806813D01*
X144028362Y-85826392D01*
X143999500Y-85934108D01*
X143999500Y-86065892D01*
X144029579Y-86178151D01*
X144033609Y-86193190D01*
X144099496Y-86307309D01*
X144099498Y-86307311D01*
X144099500Y-86307314D01*
X144192686Y-86400500D01*
X144192688Y-86400501D01*
X144192690Y-86400503D01*
X144306810Y-86466390D01*
X144306808Y-86466390D01*
X144306812Y-86466391D01*
X144306814Y-86466392D01*
X144434108Y-86500500D01*
X144434110Y-86500500D01*
X144565890Y-86500500D01*
X144565892Y-86500500D01*
X144693186Y-86466392D01*
X144693188Y-86466390D01*
X144693190Y-86466390D01*
X144807309Y-86400503D01*
X144807309Y-86400502D01*
X144807314Y-86400500D01*
X144900500Y-86307314D01*
X144966392Y-86193186D01*
X145000500Y-86065892D01*
X145000500Y-85934108D01*
X144966392Y-85806814D01*
X144963761Y-85802258D01*
X144950500Y-85752761D01*
X144950500Y-82140692D01*
X144950500Y-82140691D01*
X144919799Y-82026114D01*
X144860490Y-81923387D01*
X144456604Y-81519501D01*
X144428829Y-81464987D01*
X144438400Y-81404555D01*
X144481665Y-81361290D01*
X144526610Y-81350500D01*
X146001679Y-81350500D01*
X146059870Y-81369407D01*
X146071676Y-81379490D01*
X146092686Y-81400500D01*
X146092688Y-81400501D01*
X146092690Y-81400503D01*
X146206810Y-81466390D01*
X146206808Y-81466390D01*
X146206812Y-81466391D01*
X146206814Y-81466392D01*
X146334108Y-81500500D01*
X146334110Y-81500500D01*
X146465890Y-81500500D01*
X146465892Y-81500500D01*
X146593186Y-81466392D01*
X146593188Y-81466390D01*
X146593190Y-81466390D01*
X146707309Y-81400503D01*
X146707309Y-81400502D01*
X146707314Y-81400500D01*
X146800500Y-81307314D01*
X146804723Y-81300000D01*
X146866390Y-81193190D01*
X146866390Y-81193188D01*
X146866392Y-81193186D01*
X146900500Y-81065892D01*
X146900500Y-80934108D01*
X146866392Y-80806814D01*
X146866390Y-80806811D01*
X146866390Y-80806809D01*
X146800503Y-80692690D01*
X146800501Y-80692688D01*
X146800500Y-80692686D01*
X146707314Y-80599500D01*
X146707311Y-80599498D01*
X146707309Y-80599496D01*
X146593189Y-80533609D01*
X146593191Y-80533609D01*
X146543799Y-80520375D01*
X146465892Y-80499500D01*
X146334108Y-80499500D01*
X146256200Y-80520375D01*
X146206809Y-80533609D01*
X146092690Y-80599496D01*
X146092689Y-80599497D01*
X146092686Y-80599499D01*
X146092686Y-80599500D01*
X146071680Y-80620505D01*
X146017166Y-80648281D01*
X146001679Y-80649500D01*
X144686190Y-80649500D01*
X144627999Y-80630593D01*
X144616186Y-80620504D01*
X117879496Y-53883814D01*
X117851719Y-53829297D01*
X117850500Y-53813810D01*
X117850500Y-50898321D01*
X117869407Y-50840130D01*
X117879490Y-50828323D01*
X117900500Y-50807314D01*
X117900503Y-50807309D01*
X117966390Y-50693190D01*
X117966390Y-50693188D01*
X117966392Y-50693186D01*
X118000500Y-50565892D01*
X118000500Y-50434108D01*
X117966392Y-50306814D01*
X117966390Y-50306811D01*
X117966390Y-50306809D01*
X117900503Y-50192690D01*
X117900501Y-50192688D01*
X117900500Y-50192686D01*
X117807314Y-50099500D01*
X117807311Y-50099498D01*
X117807309Y-50099496D01*
X117693189Y-50033609D01*
X117693191Y-50033609D01*
X117643799Y-50020375D01*
X117565892Y-49999500D01*
X117434108Y-49999500D01*
X117356200Y-50020375D01*
X117306809Y-50033609D01*
X117192690Y-50099496D01*
X117099496Y-50192690D01*
X117033609Y-50306809D01*
X117033608Y-50306814D01*
X116999500Y-50434108D01*
X116000501Y-50434108D01*
X116000501Y-49086086D01*
X116019408Y-49027898D01*
X116068908Y-48991934D01*
X116128844Y-48991538D01*
X116274280Y-49036674D01*
X116355907Y-49062007D01*
X116357743Y-49062596D01*
X117350241Y-49392055D01*
X117351967Y-49392647D01*
X118255645Y-49712399D01*
X118337802Y-49741469D01*
X118339615Y-49742131D01*
X118935335Y-49966136D01*
X118983147Y-50004313D01*
X118999490Y-50058800D01*
X118999499Y-54065891D01*
X118999500Y-54065893D01*
X119033608Y-54193187D01*
X119071651Y-54259079D01*
X119071652Y-54259080D01*
X119099497Y-54307311D01*
X119099502Y-54307317D01*
X119192683Y-54400497D01*
X119192687Y-54400501D01*
X119240923Y-54428349D01*
X119306814Y-54466392D01*
X119434108Y-54500500D01*
X119434109Y-54500500D01*
X119434110Y-54500500D01*
X121565890Y-54500500D01*
X121565892Y-54500500D01*
X121693186Y-54466392D01*
X121693188Y-54466390D01*
X121693190Y-54466390D01*
X121807309Y-54400503D01*
X121807309Y-54400502D01*
X121807314Y-54400500D01*
X121900500Y-54307314D01*
X121928349Y-54259078D01*
X121966390Y-54193190D01*
X121966391Y-54193187D01*
X121966392Y-54193186D01*
X122000500Y-54065892D01*
X122000499Y-51391762D01*
X122019406Y-51333572D01*
X122068906Y-51297608D01*
X122130092Y-51297608D01*
X122140114Y-51301478D01*
X122600266Y-51508532D01*
X122602587Y-51509614D01*
X123884865Y-52128218D01*
X123887216Y-52129390D01*
X124504509Y-52447745D01*
X125152569Y-52781967D01*
X125154889Y-52783203D01*
X126402416Y-53469292D01*
X126404610Y-53470537D01*
X127633419Y-54189647D01*
X127635615Y-54190971D01*
X128078713Y-54466390D01*
X128844784Y-54942562D01*
X128847007Y-54943985D01*
X129277022Y-55227438D01*
X130035715Y-55727546D01*
X130037843Y-55728990D01*
X131205232Y-56543955D01*
X131207364Y-56545487D01*
X132352605Y-57391277D01*
X132354663Y-57392840D01*
X133476972Y-58268876D01*
X133478992Y-58270497D01*
X134577553Y-59176144D01*
X134579515Y-59177806D01*
X134657535Y-59245698D01*
X135653517Y-60112395D01*
X135655485Y-60114154D01*
X136704182Y-61077034D01*
X136706102Y-61078845D01*
X137728738Y-62069318D01*
X137730610Y-62071180D01*
X138726477Y-63088563D01*
X138728298Y-63090473D01*
X139696728Y-64134082D01*
X139698497Y-64136041D01*
X140638714Y-65205041D01*
X140640430Y-65207045D01*
X141551847Y-66300766D01*
X141553510Y-66302817D01*
X142410023Y-67388231D01*
X142435426Y-67420422D01*
X142437017Y-67422494D01*
X143288877Y-68563277D01*
X143290390Y-68565361D01*
X143789492Y-69272300D01*
X144111498Y-69728397D01*
X144112992Y-69730573D01*
X144902828Y-70915119D01*
X144904262Y-70917334D01*
X145127568Y-71272389D01*
X145615552Y-72048281D01*
X145662195Y-72122442D01*
X145663564Y-72124685D01*
X146369203Y-73315977D01*
X146389153Y-73349656D01*
X146390451Y-73351918D01*
X146642046Y-73803722D01*
X147083086Y-74595724D01*
X147084340Y-74598047D01*
X147743602Y-75859935D01*
X147744768Y-75862242D01*
X148370145Y-77141229D01*
X148371272Y-77143615D01*
X148962328Y-78438815D01*
X148963392Y-78441231D01*
X149519706Y-79751717D01*
X149520705Y-79754160D01*
X150041894Y-81079031D01*
X150042827Y-81081500D01*
X150528504Y-82419768D01*
X150529371Y-82422261D01*
X150647946Y-82778317D01*
X150911829Y-83570703D01*
X150979192Y-83772978D01*
X150979993Y-83775493D01*
X151392718Y-85134666D01*
X151393074Y-85135864D01*
X151393361Y-85136855D01*
X151408456Y-85193190D01*
X151410942Y-85197496D01*
X151412335Y-85202301D01*
X151412347Y-85202328D01*
X151443360Y-85253683D01*
X151444316Y-85255301D01*
X151474348Y-85307318D01*
X151474349Y-85307319D01*
X151474351Y-85307322D01*
X151477358Y-85311242D01*
X151480471Y-85315138D01*
X151523728Y-85356724D01*
X151524427Y-85357396D01*
X151567535Y-85400503D01*
X151571862Y-85403001D01*
X151575473Y-85406472D01*
X151575475Y-85406474D01*
X151608888Y-85424896D01*
X151628031Y-85435452D01*
X151629687Y-85436386D01*
X151681661Y-85466394D01*
X151686210Y-85468278D01*
X151690873Y-85470103D01*
X151690878Y-85470106D01*
X151749208Y-85484511D01*
X151750930Y-85484954D01*
X151808957Y-85500503D01*
X151808963Y-85500502D01*
X151813916Y-85501154D01*
X151818810Y-85501701D01*
X151818818Y-85501703D01*
X151878935Y-85500518D01*
X151880679Y-85500501D01*
X153400500Y-85500500D01*
X153458691Y-85519407D01*
X153494655Y-85568907D01*
X153499500Y-85599500D01*
X153499500Y-114400497D01*
X153480593Y-114458688D01*
X153431093Y-114494652D01*
X153400500Y-114499497D01*
X151880834Y-114499494D01*
X151879852Y-114499494D01*
X151818816Y-114498293D01*
X151813952Y-114499494D01*
X151808957Y-114499494D01*
X151808955Y-114499494D01*
X151751049Y-114515009D01*
X151749165Y-114515494D01*
X151690877Y-114529889D01*
X151686290Y-114531683D01*
X151681663Y-114533600D01*
X151629756Y-114563568D01*
X151628063Y-114564523D01*
X151575473Y-114593522D01*
X151571541Y-114596418D01*
X151567535Y-114599492D01*
X151525190Y-114641836D01*
X151523802Y-114643197D01*
X151480470Y-114684857D01*
X151477441Y-114688648D01*
X151474349Y-114692677D01*
X151444415Y-114744523D01*
X151443427Y-114746197D01*
X151412346Y-114797665D01*
X151410383Y-114802151D01*
X151408457Y-114806804D01*
X151393649Y-114862066D01*
X151392745Y-114865229D01*
X150972492Y-116248040D01*
X150971677Y-116250599D01*
X150513067Y-117624527D01*
X150512182Y-117627062D01*
X150016497Y-118987991D01*
X150015544Y-118990501D01*
X149483128Y-120337499D01*
X149482107Y-120339983D01*
X148913352Y-121672051D01*
X148912264Y-121674506D01*
X148307593Y-122990658D01*
X148306439Y-122993083D01*
X147666309Y-124292321D01*
X147665090Y-124294713D01*
X147233376Y-125114108D01*
X147003982Y-125549500D01*
X146989930Y-125576170D01*
X146988656Y-125578509D01*
X146940372Y-125664419D01*
X146279007Y-126841149D01*
X146277660Y-126843472D01*
X145534023Y-128086412D01*
X145532613Y-128088697D01*
X144755543Y-129311008D01*
X144754072Y-129313255D01*
X143944125Y-130514060D01*
X143942593Y-130516265D01*
X143100412Y-131694610D01*
X143098821Y-131696774D01*
X143050438Y-131760729D01*
X143000252Y-131795729D01*
X142971486Y-131800000D01*
X124091007Y-131800000D01*
X124032816Y-131781093D01*
X124021003Y-131771004D01*
X124000000Y-131750001D01*
X124000000Y-131750000D01*
X76000000Y-131750000D01*
X76000000Y-131750001D01*
X75978997Y-131771004D01*
X75924480Y-131798781D01*
X75908993Y-131800000D01*
X57027537Y-131800000D01*
X56969346Y-131781093D01*
X56947099Y-131758713D01*
X56901106Y-131694610D01*
X56113254Y-130596528D01*
X56111783Y-130594418D01*
X55299600Y-129395037D01*
X55298151Y-129392833D01*
X55005342Y-128934108D01*
X54518830Y-128171920D01*
X54517426Y-128169653D01*
X54502059Y-128144075D01*
X54131221Y-127526809D01*
X53771516Y-126928074D01*
X53770165Y-126925754D01*
X53265783Y-126032164D01*
X53058202Y-125664403D01*
X53056923Y-125662063D01*
X52964444Y-125487314D01*
X52379442Y-124381886D01*
X52378218Y-124379496D01*
X51925860Y-123465588D01*
X51906528Y-123426532D01*
X76549500Y-123426532D01*
X76549500Y-123633467D01*
X76589869Y-123836418D01*
X76669058Y-124027597D01*
X76784020Y-124199651D01*
X76784023Y-124199655D01*
X76930345Y-124345977D01*
X77102402Y-124460941D01*
X77293580Y-124540130D01*
X77496535Y-124580500D01*
X77496536Y-124580500D01*
X77703464Y-124580500D01*
X77703465Y-124580500D01*
X77906420Y-124540130D01*
X78097598Y-124460941D01*
X78269655Y-124345977D01*
X78415977Y-124199655D01*
X78530941Y-124027598D01*
X78610130Y-123836420D01*
X78650500Y-123633465D01*
X78650500Y-123426535D01*
X78610130Y-123223580D01*
X78530941Y-123032402D01*
X78415977Y-122860345D01*
X78269655Y-122714023D01*
X78269651Y-122714020D01*
X78097597Y-122599058D01*
X77906418Y-122519869D01*
X77703467Y-122479500D01*
X77703465Y-122479500D01*
X77496535Y-122479500D01*
X77496532Y-122479500D01*
X77293581Y-122519869D01*
X77102402Y-122599058D01*
X76930348Y-122714020D01*
X76784020Y-122860348D01*
X76669058Y-123032402D01*
X76589869Y-123223581D01*
X76549500Y-123426532D01*
X51906528Y-123426532D01*
X51806073Y-123223580D01*
X51735668Y-123081340D01*
X51734542Y-123078984D01*
X51127455Y-121763923D01*
X51126375Y-121761498D01*
X51088518Y-121673281D01*
X50750897Y-120886532D01*
X76549500Y-120886532D01*
X76549500Y-121093467D01*
X76589869Y-121296418D01*
X76669058Y-121487597D01*
X76669059Y-121487598D01*
X76784023Y-121659655D01*
X76930345Y-121805977D01*
X77102402Y-121920941D01*
X77293580Y-122000130D01*
X77496535Y-122040500D01*
X77496536Y-122040500D01*
X77703464Y-122040500D01*
X77703465Y-122040500D01*
X77906420Y-122000130D01*
X78097598Y-121920941D01*
X78269655Y-121805977D01*
X78415977Y-121659655D01*
X78530941Y-121487598D01*
X78610130Y-121296420D01*
X78650500Y-121093465D01*
X78650500Y-120886535D01*
X78610130Y-120683580D01*
X78530941Y-120492402D01*
X78415977Y-120320345D01*
X78269655Y-120174023D01*
X78097598Y-120059059D01*
X78097599Y-120059059D01*
X78097597Y-120059058D01*
X77906418Y-119979869D01*
X77703467Y-119939500D01*
X77703465Y-119939500D01*
X77496535Y-119939500D01*
X77496532Y-119939500D01*
X77293581Y-119979869D01*
X77102402Y-120059058D01*
X76930348Y-120174020D01*
X76784020Y-120320348D01*
X76669058Y-120492402D01*
X76589869Y-120683581D01*
X76549500Y-120886532D01*
X50750897Y-120886532D01*
X50555170Y-120430436D01*
X50554152Y-120427972D01*
X50518696Y-120338748D01*
X50036853Y-119126190D01*
X50019276Y-119081957D01*
X50018318Y-119079448D01*
X49935684Y-118853856D01*
X49520114Y-117719344D01*
X49519261Y-117716913D01*
X49058136Y-116343820D01*
X49057316Y-116341263D01*
X48709371Y-115203856D01*
X48633621Y-114956238D01*
X48632872Y-114953665D01*
X48618173Y-114900503D01*
X48246883Y-113557612D01*
X48246204Y-113555016D01*
X48104116Y-112980918D01*
X47898227Y-112149040D01*
X47897621Y-112146440D01*
X47872923Y-112033609D01*
X47587890Y-110731481D01*
X47587375Y-110728968D01*
X47316124Y-109306083D01*
X47315663Y-109303471D01*
X47083109Y-107873800D01*
X47082729Y-107871248D01*
X46889031Y-106435762D01*
X46888719Y-106433184D01*
X46734026Y-104992995D01*
X46733777Y-104990324D01*
X46730589Y-104950500D01*
X46618205Y-103546538D01*
X46618029Y-103543885D01*
X46611979Y-103429297D01*
X46541654Y-102097456D01*
X46541551Y-102094802D01*
X46537318Y-101929669D01*
X46504434Y-100646831D01*
X46504402Y-100644289D01*
X46506569Y-99195771D01*
X46506610Y-99193088D01*
X46507540Y-99160586D01*
X46548057Y-97745284D01*
X46548169Y-97742626D01*
X46551296Y-97686603D01*
X46628869Y-96296440D01*
X46629054Y-96293782D01*
X46639577Y-96167088D01*
X46748945Y-94850327D01*
X46749196Y-94847735D01*
X46908201Y-93407968D01*
X46908517Y-93405418D01*
X46918357Y-93334108D01*
X69499500Y-93334108D01*
X69499500Y-93465892D01*
X69533608Y-93593186D01*
X69536234Y-93597735D01*
X69549500Y-93647238D01*
X69549500Y-96452761D01*
X69536238Y-96502259D01*
X69533608Y-96506813D01*
X69533608Y-96506814D01*
X69499500Y-96634108D01*
X69499500Y-96765892D01*
X69533608Y-96893186D01*
X69536234Y-96897735D01*
X69549500Y-96947238D01*
X69549500Y-106709309D01*
X69573713Y-106799673D01*
X69573712Y-106799673D01*
X69580200Y-106823886D01*
X69580202Y-106823890D01*
X69639507Y-106926609D01*
X69639509Y-106926611D01*
X69639511Y-106926614D01*
X70473386Y-107760489D01*
X70473388Y-107760490D01*
X70473390Y-107760492D01*
X70576107Y-107819796D01*
X70576109Y-107819797D01*
X70576113Y-107819799D01*
X70600322Y-107826284D01*
X70600325Y-107826287D01*
X70600326Y-107826286D01*
X70690688Y-107850499D01*
X70690690Y-107850500D01*
X70690691Y-107850500D01*
X80550500Y-107850500D01*
X80608691Y-107869407D01*
X80644655Y-107918907D01*
X80649500Y-107949500D01*
X80649500Y-124972388D01*
X80630593Y-125030579D01*
X80620504Y-125042391D01*
X80142393Y-125520503D01*
X80087876Y-125548281D01*
X80072389Y-125549500D01*
X78568555Y-125549500D01*
X78510364Y-125530593D01*
X78486239Y-125505501D01*
X78415979Y-125400348D01*
X78415977Y-125400345D01*
X78269655Y-125254023D01*
X78269651Y-125254020D01*
X78097597Y-125139058D01*
X77906418Y-125059869D01*
X77703467Y-125019500D01*
X77703465Y-125019500D01*
X77496535Y-125019500D01*
X77496532Y-125019500D01*
X77293581Y-125059869D01*
X77102402Y-125139058D01*
X76930348Y-125254020D01*
X76784020Y-125400348D01*
X76669058Y-125572402D01*
X76589869Y-125763581D01*
X76549500Y-125966532D01*
X76549500Y-126173467D01*
X76589869Y-126376418D01*
X76669058Y-126567597D01*
X76784020Y-126739651D01*
X76784023Y-126739655D01*
X76930345Y-126885977D01*
X77102402Y-127000941D01*
X77268005Y-127069536D01*
X77314530Y-127109273D01*
X77328814Y-127168767D01*
X77305399Y-127225295D01*
X77253230Y-127257265D01*
X77230119Y-127260000D01*
X76702176Y-127260000D01*
X76642629Y-127266401D01*
X76642618Y-127266403D01*
X76507911Y-127316646D01*
X76507909Y-127316647D01*
X76392815Y-127402807D01*
X76392807Y-127402815D01*
X76306647Y-127517909D01*
X76306646Y-127517911D01*
X76256403Y-127652618D01*
X76256401Y-127652629D01*
X76250000Y-127712175D01*
X76250000Y-128359999D01*
X76250001Y-128360000D01*
X77166988Y-128360000D01*
X77134075Y-128417007D01*
X77100000Y-128544174D01*
X77100000Y-128675826D01*
X77134075Y-128802993D01*
X77166988Y-128860000D01*
X76250001Y-128860000D01*
X76250000Y-128860001D01*
X76250000Y-129507824D01*
X76249999Y-129507824D01*
X76256401Y-129567370D01*
X76256403Y-129567381D01*
X76306646Y-129702088D01*
X76306647Y-129702090D01*
X76392807Y-129817184D01*
X76392815Y-129817192D01*
X76507909Y-129903352D01*
X76507911Y-129903353D01*
X76642618Y-129953596D01*
X76642629Y-129953598D01*
X76702176Y-129960000D01*
X77349999Y-129960000D01*
X77350000Y-129959999D01*
X77350000Y-129043012D01*
X77407007Y-129075925D01*
X77534174Y-129110000D01*
X77665826Y-129110000D01*
X77792993Y-129075925D01*
X77850000Y-129043012D01*
X77850000Y-129959999D01*
X77850001Y-129960000D01*
X78497824Y-129960000D01*
X78557370Y-129953598D01*
X78557381Y-129953596D01*
X78692088Y-129903353D01*
X78692090Y-129903352D01*
X78807184Y-129817192D01*
X78807192Y-129817184D01*
X78893352Y-129702090D01*
X78893353Y-129702088D01*
X78943596Y-129567381D01*
X78943598Y-129567370D01*
X78950000Y-129507824D01*
X78950000Y-128860001D01*
X78949999Y-128860000D01*
X78033012Y-128860000D01*
X78065925Y-128802993D01*
X78100000Y-128675826D01*
X78100000Y-128544174D01*
X78065925Y-128417007D01*
X78033012Y-128360000D01*
X78949999Y-128360000D01*
X78950000Y-128359999D01*
X78950000Y-127712175D01*
X78943598Y-127652629D01*
X78943596Y-127652618D01*
X78893353Y-127517911D01*
X78893352Y-127517909D01*
X78807192Y-127402815D01*
X78807184Y-127402807D01*
X78692090Y-127316647D01*
X78692088Y-127316646D01*
X78557381Y-127266403D01*
X78557370Y-127266401D01*
X78497824Y-127260000D01*
X77969881Y-127260000D01*
X77911690Y-127241093D01*
X77875726Y-127191593D01*
X77875726Y-127130407D01*
X77911690Y-127080907D01*
X77931992Y-127069537D01*
X78097598Y-127000941D01*
X78269655Y-126885977D01*
X78415977Y-126739655D01*
X78530941Y-126567598D01*
X78533012Y-126564499D01*
X78581062Y-126526619D01*
X78615328Y-126520500D01*
X79942389Y-126520500D01*
X80000580Y-126539407D01*
X80012392Y-126549495D01*
X82813386Y-129350490D01*
X82916114Y-129409799D01*
X83030691Y-129440500D01*
X107002761Y-129440500D01*
X107052258Y-129453761D01*
X107056814Y-129456392D01*
X107184108Y-129490500D01*
X107184110Y-129490500D01*
X107315890Y-129490500D01*
X107315892Y-129490500D01*
X107443186Y-129456392D01*
X107443188Y-129456390D01*
X107443190Y-129456390D01*
X107557309Y-129390503D01*
X107557309Y-129390502D01*
X107557314Y-129390500D01*
X107650500Y-129297314D01*
X107710616Y-129193190D01*
X107716390Y-129183190D01*
X107716390Y-129183188D01*
X107716392Y-129183186D01*
X107750500Y-129055892D01*
X107750500Y-128924108D01*
X107716392Y-128796814D01*
X107716390Y-128796811D01*
X107716390Y-128796809D01*
X107650503Y-128682690D01*
X107650501Y-128682688D01*
X107650500Y-128682686D01*
X107557314Y-128589500D01*
X107557311Y-128589498D01*
X107557309Y-128589496D01*
X107443189Y-128523609D01*
X107443191Y-128523609D01*
X107393799Y-128510375D01*
X107315892Y-128489500D01*
X107184108Y-128489500D01*
X107105719Y-128510504D01*
X107056813Y-128523608D01*
X107052259Y-128526238D01*
X107002761Y-128539500D01*
X83317612Y-128539500D01*
X83259421Y-128520593D01*
X83247608Y-128510504D01*
X80907107Y-126170003D01*
X80879330Y-126115486D01*
X80888901Y-126055054D01*
X80907104Y-126029999D01*
X81460490Y-125476614D01*
X81519799Y-125373887D01*
X81530329Y-125334587D01*
X81550500Y-125259309D01*
X81550500Y-107647238D01*
X81563765Y-107597735D01*
X81566392Y-107593186D01*
X81600500Y-107465892D01*
X81600500Y-107334108D01*
X84099500Y-107334108D01*
X84099500Y-107465892D01*
X84129579Y-107578151D01*
X84133609Y-107593190D01*
X84199496Y-107707309D01*
X84199498Y-107707311D01*
X84199500Y-107707314D01*
X84292686Y-107800500D01*
X84292688Y-107800501D01*
X84292690Y-107800503D01*
X84406810Y-107866390D01*
X84406808Y-107866390D01*
X84406812Y-107866391D01*
X84406814Y-107866392D01*
X84534108Y-107900500D01*
X84534110Y-107900500D01*
X84665890Y-107900500D01*
X84665892Y-107900500D01*
X84793186Y-107866392D01*
X84793188Y-107866390D01*
X84793190Y-107866390D01*
X84907309Y-107800503D01*
X84907309Y-107800502D01*
X84907314Y-107800500D01*
X84928319Y-107779494D01*
X84982834Y-107751719D01*
X84998321Y-107750500D01*
X85213810Y-107750500D01*
X85272001Y-107769407D01*
X85283814Y-107779496D01*
X92620504Y-115116186D01*
X92648281Y-115170703D01*
X92649500Y-115186190D01*
X92649500Y-115203856D01*
X92649500Y-118853856D01*
X92649500Y-127766144D01*
X92673386Y-127855288D01*
X92673387Y-127855290D01*
X92701254Y-127903557D01*
X92719531Y-127935212D01*
X92784788Y-128000469D01*
X92864712Y-128046614D01*
X92953856Y-128070500D01*
X93046144Y-128070500D01*
X106851679Y-128070500D01*
X106909870Y-128089407D01*
X106921676Y-128099490D01*
X106942686Y-128120500D01*
X106942688Y-128120501D01*
X106942690Y-128120503D01*
X107056810Y-128186390D01*
X107056808Y-128186390D01*
X107056812Y-128186391D01*
X107056814Y-128186392D01*
X107184108Y-128220500D01*
X107184110Y-128220500D01*
X107315890Y-128220500D01*
X107315892Y-128220500D01*
X107443186Y-128186392D01*
X107443188Y-128186390D01*
X107443190Y-128186390D01*
X107557309Y-128120503D01*
X107557309Y-128120502D01*
X107557314Y-128120500D01*
X107650500Y-128027314D01*
X107650503Y-128027309D01*
X107716390Y-127913190D01*
X107716390Y-127913188D01*
X107716392Y-127913186D01*
X107750500Y-127785892D01*
X107750500Y-127654108D01*
X107716392Y-127526814D01*
X107716390Y-127526811D01*
X107716390Y-127526809D01*
X107650503Y-127412690D01*
X107650501Y-127412688D01*
X107650500Y-127412686D01*
X107557314Y-127319500D01*
X107557311Y-127319498D01*
X107557309Y-127319496D01*
X107443189Y-127253609D01*
X107443191Y-127253609D01*
X107393799Y-127240375D01*
X107315892Y-127219500D01*
X107184108Y-127219500D01*
X107106200Y-127240375D01*
X107056809Y-127253609D01*
X106942690Y-127319496D01*
X106942689Y-127319497D01*
X106942686Y-127319499D01*
X106942686Y-127319500D01*
X106921680Y-127340505D01*
X106867166Y-127368281D01*
X106851679Y-127369500D01*
X93449500Y-127369500D01*
X93391309Y-127350593D01*
X93355345Y-127301093D01*
X93350500Y-127270500D01*
X93350500Y-126384108D01*
X93784500Y-126384108D01*
X93784500Y-126515892D01*
X93814579Y-126628151D01*
X93818609Y-126643190D01*
X93884496Y-126757309D01*
X93884498Y-126757311D01*
X93884500Y-126757314D01*
X93977686Y-126850500D01*
X93977688Y-126850501D01*
X93977690Y-126850503D01*
X94091810Y-126916390D01*
X94091808Y-126916390D01*
X94091812Y-126916391D01*
X94091814Y-126916392D01*
X94219108Y-126950500D01*
X94219110Y-126950500D01*
X94350890Y-126950500D01*
X94350892Y-126950500D01*
X94478186Y-126916392D01*
X94478188Y-126916390D01*
X94478190Y-126916390D01*
X94592309Y-126850503D01*
X94592309Y-126850502D01*
X94592314Y-126850500D01*
X94685500Y-126757314D01*
X94685503Y-126757309D01*
X94751390Y-126643190D01*
X94751390Y-126643188D01*
X94751392Y-126643186D01*
X94785500Y-126515892D01*
X94785500Y-126384108D01*
X94751392Y-126256814D01*
X94751390Y-126256811D01*
X94751390Y-126256809D01*
X94685503Y-126142690D01*
X94685499Y-126142685D01*
X94629496Y-126086681D01*
X94601719Y-126032164D01*
X94600500Y-126016678D01*
X94600500Y-125114108D01*
X95054500Y-125114108D01*
X95054500Y-125245892D01*
X95078266Y-125334587D01*
X95088609Y-125373190D01*
X95154496Y-125487309D01*
X95154498Y-125487311D01*
X95154500Y-125487314D01*
X95247686Y-125580500D01*
X95247688Y-125580501D01*
X95247690Y-125580503D01*
X95361810Y-125646390D01*
X95361808Y-125646390D01*
X95361812Y-125646391D01*
X95361814Y-125646392D01*
X95489108Y-125680500D01*
X95489110Y-125680500D01*
X95620890Y-125680500D01*
X95620892Y-125680500D01*
X95748186Y-125646392D01*
X95748188Y-125646390D01*
X95748190Y-125646390D01*
X95862309Y-125580503D01*
X95862309Y-125580502D01*
X95862314Y-125580500D01*
X95955500Y-125487314D01*
X96005712Y-125400345D01*
X96021390Y-125373190D01*
X96021390Y-125373188D01*
X96021392Y-125373186D01*
X96055500Y-125245892D01*
X96055500Y-125114108D01*
X96021392Y-124986814D01*
X96021390Y-124986811D01*
X96021390Y-124986809D01*
X95955503Y-124872690D01*
X95955498Y-124872684D01*
X95939495Y-124856680D01*
X95911718Y-124802163D01*
X95910500Y-124786678D01*
X95910500Y-119126190D01*
X95929407Y-119067999D01*
X95939496Y-119056186D01*
X97056186Y-117939496D01*
X97110703Y-117911719D01*
X97126190Y-117910500D01*
X110101679Y-117910500D01*
X110159870Y-117929407D01*
X110171676Y-117939490D01*
X110192686Y-117960500D01*
X110192688Y-117960501D01*
X110192690Y-117960503D01*
X110306810Y-118026390D01*
X110306808Y-118026390D01*
X110306812Y-118026391D01*
X110306814Y-118026392D01*
X110434108Y-118060500D01*
X110434110Y-118060500D01*
X110565890Y-118060500D01*
X110565892Y-118060500D01*
X110693186Y-118026392D01*
X110693188Y-118026390D01*
X110693190Y-118026390D01*
X110807309Y-117960503D01*
X110807309Y-117960502D01*
X110807314Y-117960500D01*
X110900500Y-117867314D01*
X110966392Y-117753186D01*
X111000500Y-117625892D01*
X111000500Y-117494108D01*
X110966392Y-117366814D01*
X110966390Y-117366811D01*
X110966390Y-117366809D01*
X110900503Y-117252690D01*
X110900501Y-117252688D01*
X110900500Y-117252686D01*
X110807314Y-117159500D01*
X110807311Y-117159498D01*
X110807309Y-117159496D01*
X110693189Y-117093609D01*
X110693191Y-117093609D01*
X110643799Y-117080375D01*
X110565892Y-117059500D01*
X110434108Y-117059500D01*
X110356200Y-117080375D01*
X110306809Y-117093609D01*
X110192690Y-117159496D01*
X110192689Y-117159497D01*
X110192686Y-117159499D01*
X110192686Y-117159500D01*
X110171680Y-117180505D01*
X110117166Y-117208281D01*
X110101679Y-117209500D01*
X96893856Y-117209500D01*
X96804712Y-117233386D01*
X96724788Y-117279530D01*
X95279529Y-118724789D01*
X95256479Y-118764711D01*
X95256480Y-118764712D01*
X95233386Y-118804710D01*
X95209500Y-118893857D01*
X95209500Y-124776678D01*
X95190593Y-124834869D01*
X95180505Y-124846680D01*
X95154501Y-124872684D01*
X95154496Y-124872690D01*
X95088609Y-124986809D01*
X95088608Y-124986814D01*
X95054500Y-125114108D01*
X94600500Y-125114108D01*
X94600500Y-118936189D01*
X94619407Y-118877998D01*
X94629496Y-118866185D01*
X96826185Y-116669496D01*
X96880702Y-116641719D01*
X96896189Y-116640500D01*
X110101679Y-116640500D01*
X110159870Y-116659407D01*
X110171676Y-116669490D01*
X110192686Y-116690500D01*
X110192688Y-116690501D01*
X110192690Y-116690503D01*
X110306810Y-116756390D01*
X110306808Y-116756390D01*
X110306812Y-116756391D01*
X110306814Y-116756392D01*
X110434108Y-116790500D01*
X110434110Y-116790500D01*
X110565890Y-116790500D01*
X110565892Y-116790500D01*
X110693186Y-116756392D01*
X110693188Y-116756390D01*
X110693190Y-116756390D01*
X110807309Y-116690503D01*
X110807309Y-116690502D01*
X110807314Y-116690500D01*
X110900500Y-116597314D01*
X110966392Y-116483186D01*
X111000500Y-116355892D01*
X111000500Y-116224108D01*
X110966392Y-116096814D01*
X110966390Y-116096811D01*
X110966390Y-116096809D01*
X110900503Y-115982690D01*
X110900501Y-115982688D01*
X110900500Y-115982686D01*
X110807314Y-115889500D01*
X110807311Y-115889498D01*
X110807309Y-115889496D01*
X110693189Y-115823609D01*
X110693191Y-115823609D01*
X110643799Y-115810375D01*
X110565892Y-115789500D01*
X110434108Y-115789500D01*
X110356200Y-115810375D01*
X110306809Y-115823609D01*
X110192690Y-115889496D01*
X110192689Y-115889497D01*
X110192686Y-115889499D01*
X110192686Y-115889500D01*
X110171680Y-115910505D01*
X110117166Y-115938281D01*
X110101679Y-115939500D01*
X96663856Y-115939500D01*
X96574712Y-115963386D01*
X96574711Y-115963386D01*
X96574709Y-115963387D01*
X96494790Y-116009529D01*
X93969525Y-118534793D01*
X93947247Y-118573383D01*
X93947246Y-118573386D01*
X93923387Y-118614709D01*
X93899500Y-118703857D01*
X93899500Y-126090177D01*
X93886237Y-126139677D01*
X93818608Y-126256812D01*
X93795869Y-126341676D01*
X93784500Y-126384108D01*
X93350500Y-126384108D01*
X93350500Y-115469500D01*
X93369407Y-115411309D01*
X93418907Y-115375345D01*
X93449500Y-115370500D01*
X110101679Y-115370500D01*
X110159870Y-115389407D01*
X110171676Y-115399490D01*
X110192686Y-115420500D01*
X110192688Y-115420501D01*
X110192690Y-115420503D01*
X110306810Y-115486390D01*
X110306808Y-115486390D01*
X110306812Y-115486391D01*
X110306814Y-115486392D01*
X110434108Y-115520500D01*
X110434110Y-115520500D01*
X110565890Y-115520500D01*
X110565892Y-115520500D01*
X110693186Y-115486392D01*
X110693188Y-115486390D01*
X110693190Y-115486390D01*
X110807309Y-115420503D01*
X110807309Y-115420502D01*
X110807314Y-115420500D01*
X110900500Y-115327314D01*
X110900503Y-115327309D01*
X110966390Y-115213190D01*
X110966390Y-115213188D01*
X110966392Y-115213186D01*
X111000500Y-115085892D01*
X111000500Y-114954108D01*
X110966392Y-114826814D01*
X110966390Y-114826811D01*
X110966390Y-114826809D01*
X110900503Y-114712690D01*
X110900501Y-114712688D01*
X110900500Y-114712686D01*
X110807314Y-114619500D01*
X110807311Y-114619498D01*
X110807309Y-114619496D01*
X110693189Y-114553609D01*
X110693191Y-114553609D01*
X110618514Y-114533600D01*
X110565892Y-114519500D01*
X110434108Y-114519500D01*
X110381486Y-114533600D01*
X110306809Y-114553609D01*
X110192690Y-114619496D01*
X110192689Y-114619497D01*
X110192686Y-114619499D01*
X110192686Y-114619500D01*
X110171680Y-114640505D01*
X110117166Y-114668281D01*
X110101679Y-114669500D01*
X93206190Y-114669500D01*
X93147999Y-114650593D01*
X93136186Y-114640504D01*
X92915186Y-114419504D01*
X92887409Y-114364987D01*
X92896980Y-114304555D01*
X92940245Y-114261290D01*
X92985190Y-114250500D01*
X93080890Y-114250500D01*
X93080892Y-114250500D01*
X93208186Y-114216392D01*
X93208188Y-114216390D01*
X93208190Y-114216390D01*
X93322309Y-114150503D01*
X93322309Y-114150502D01*
X93322314Y-114150500D01*
X93343319Y-114129494D01*
X93397834Y-114101719D01*
X93413321Y-114100500D01*
X110101679Y-114100500D01*
X110159870Y-114119407D01*
X110171676Y-114129490D01*
X110192686Y-114150500D01*
X110192688Y-114150501D01*
X110192690Y-114150503D01*
X110306810Y-114216390D01*
X110306808Y-114216390D01*
X110306812Y-114216391D01*
X110306814Y-114216392D01*
X110434108Y-114250500D01*
X110434110Y-114250500D01*
X110565890Y-114250500D01*
X110565892Y-114250500D01*
X110693186Y-114216392D01*
X110693188Y-114216390D01*
X110693190Y-114216390D01*
X110807309Y-114150503D01*
X110807309Y-114150502D01*
X110807314Y-114150500D01*
X110900500Y-114057314D01*
X110900503Y-114057309D01*
X110966390Y-113943190D01*
X110966390Y-113943188D01*
X110966392Y-113943186D01*
X111000500Y-113815892D01*
X111000500Y-113684108D01*
X110966392Y-113556814D01*
X110966390Y-113556811D01*
X110966390Y-113556809D01*
X110900503Y-113442690D01*
X110900501Y-113442688D01*
X110900500Y-113442686D01*
X110807314Y-113349500D01*
X110807311Y-113349498D01*
X110807309Y-113349496D01*
X110693189Y-113283609D01*
X110693191Y-113283609D01*
X110643799Y-113270375D01*
X110565892Y-113249500D01*
X110434108Y-113249500D01*
X110356200Y-113270375D01*
X110306809Y-113283609D01*
X110192690Y-113349496D01*
X110192689Y-113349497D01*
X110192686Y-113349499D01*
X110192686Y-113349500D01*
X110171680Y-113370505D01*
X110117166Y-113398281D01*
X110101679Y-113399500D01*
X93413321Y-113399500D01*
X93355130Y-113380593D01*
X93343323Y-113370509D01*
X93322314Y-113349500D01*
X93322311Y-113349498D01*
X93322309Y-113349496D01*
X93208189Y-113283609D01*
X93208191Y-113283609D01*
X93158799Y-113270375D01*
X93080892Y-113249500D01*
X92949108Y-113249500D01*
X92871200Y-113270375D01*
X92821809Y-113283609D01*
X92707690Y-113349496D01*
X92614496Y-113442690D01*
X92548609Y-113556809D01*
X92514500Y-113684109D01*
X92514500Y-113779810D01*
X92495593Y-113838001D01*
X92446093Y-113873965D01*
X92384907Y-113873965D01*
X92345496Y-113849814D01*
X89061572Y-110565890D01*
X85615212Y-107119530D01*
X85535288Y-107073386D01*
X85535285Y-107073385D01*
X85521901Y-107069798D01*
X85521901Y-107069799D01*
X85446144Y-107049500D01*
X85446142Y-107049500D01*
X84998321Y-107049500D01*
X84940130Y-107030593D01*
X84928323Y-107020509D01*
X84907314Y-106999500D01*
X84907311Y-106999498D01*
X84907309Y-106999496D01*
X84793189Y-106933609D01*
X84793191Y-106933609D01*
X84741646Y-106919798D01*
X84665892Y-106899500D01*
X84534108Y-106899500D01*
X84458354Y-106919798D01*
X84406809Y-106933609D01*
X84292690Y-106999496D01*
X84199496Y-107092690D01*
X84133609Y-107206809D01*
X84133608Y-107206814D01*
X84099500Y-107334108D01*
X81600500Y-107334108D01*
X81566392Y-107206814D01*
X81566390Y-107206811D01*
X81566390Y-107206809D01*
X81500503Y-107092690D01*
X81500501Y-107092688D01*
X81500500Y-107092686D01*
X81407314Y-106999500D01*
X81407311Y-106999498D01*
X81407309Y-106999496D01*
X81293189Y-106933609D01*
X81293191Y-106933609D01*
X81241646Y-106919798D01*
X81165892Y-106899500D01*
X81034108Y-106899500D01*
X80955719Y-106920504D01*
X80906813Y-106933608D01*
X80902259Y-106936238D01*
X80852761Y-106949500D01*
X70977611Y-106949500D01*
X70919420Y-106930593D01*
X70907607Y-106920504D01*
X70479496Y-106492393D01*
X70451719Y-106437876D01*
X70450500Y-106422389D01*
X70450500Y-96947238D01*
X70463765Y-96897735D01*
X70466392Y-96893186D01*
X70500500Y-96765892D01*
X70500500Y-96634108D01*
X70466392Y-96506814D01*
X70463761Y-96502258D01*
X70450500Y-96452761D01*
X70450500Y-93647238D01*
X70463765Y-93597735D01*
X70466392Y-93593186D01*
X70500500Y-93465892D01*
X70500500Y-93334108D01*
X70466392Y-93206814D01*
X70466390Y-93206811D01*
X70466390Y-93206809D01*
X70400503Y-93092690D01*
X70400501Y-93092688D01*
X70400500Y-93092686D01*
X70307314Y-92999500D01*
X70307311Y-92999498D01*
X70307309Y-92999496D01*
X70193189Y-92933609D01*
X70193191Y-92933609D01*
X70143799Y-92920375D01*
X70065892Y-92899500D01*
X69934108Y-92899500D01*
X69856200Y-92920375D01*
X69806809Y-92933609D01*
X69692690Y-92999496D01*
X69599496Y-93092690D01*
X69533609Y-93206809D01*
X69533608Y-93206814D01*
X69499500Y-93334108D01*
X46918357Y-93334108D01*
X47106513Y-91970489D01*
X47106895Y-91967969D01*
X47343737Y-90538919D01*
X47344189Y-90536406D01*
X47561207Y-89416230D01*
X60149500Y-89416230D01*
X60149500Y-89583769D01*
X60182183Y-89748079D01*
X60182185Y-89748085D01*
X60246296Y-89902862D01*
X60246297Y-89902863D01*
X60339374Y-90042162D01*
X60457838Y-90160626D01*
X60597137Y-90253703D01*
X60751918Y-90317816D01*
X60916233Y-90350500D01*
X60916234Y-90350500D01*
X61083766Y-90350500D01*
X61083767Y-90350500D01*
X61248082Y-90317816D01*
X61402863Y-90253703D01*
X61542162Y-90160626D01*
X61660626Y-90042162D01*
X61753703Y-89902863D01*
X61817816Y-89748082D01*
X61850500Y-89583767D01*
X61850500Y-89416233D01*
X61817816Y-89251918D01*
X61753703Y-89097137D01*
X61660626Y-88957838D01*
X61542162Y-88839374D01*
X61402863Y-88746297D01*
X61402864Y-88746297D01*
X61402862Y-88746296D01*
X61248085Y-88682185D01*
X61248079Y-88682183D01*
X61083769Y-88649500D01*
X61083767Y-88649500D01*
X60916233Y-88649500D01*
X60916230Y-88649500D01*
X60751920Y-88682183D01*
X60751914Y-88682185D01*
X60597137Y-88746296D01*
X60457838Y-88839374D01*
X60457834Y-88839377D01*
X60339377Y-88957834D01*
X60339374Y-88957838D01*
X60246296Y-89097137D01*
X60182185Y-89251914D01*
X60182183Y-89251920D01*
X60149500Y-89416230D01*
X47561207Y-89416230D01*
X47619700Y-89114308D01*
X47620225Y-89111783D01*
X47934185Y-87697772D01*
X47934796Y-87695185D01*
X47935297Y-87693186D01*
X48286993Y-86290184D01*
X48287650Y-86287707D01*
X48677846Y-84892697D01*
X48678573Y-84890227D01*
X49106451Y-83506342D01*
X49107231Y-83503937D01*
X49572460Y-82132232D01*
X49573354Y-82129708D01*
X49648634Y-81926081D01*
X60249500Y-81926081D01*
X60249500Y-82073918D01*
X60278342Y-82218914D01*
X60334915Y-82355493D01*
X60334916Y-82355495D01*
X60417049Y-82478416D01*
X60521584Y-82582951D01*
X60644505Y-82665084D01*
X60781087Y-82721658D01*
X60926082Y-82750500D01*
X60926083Y-82750500D01*
X61073917Y-82750500D01*
X61073918Y-82750500D01*
X61218913Y-82721658D01*
X61355495Y-82665084D01*
X61478416Y-82582951D01*
X61582951Y-82478416D01*
X61665084Y-82355495D01*
X61721658Y-82218913D01*
X61750500Y-82073918D01*
X61750500Y-82034108D01*
X75399500Y-82034108D01*
X75399500Y-82165892D01*
X75408539Y-82199625D01*
X75433609Y-82293190D01*
X75499496Y-82407309D01*
X75499498Y-82407311D01*
X75499500Y-82407314D01*
X75520505Y-82428319D01*
X75548281Y-82482834D01*
X75549500Y-82498321D01*
X75549500Y-103646144D01*
X75573386Y-103735288D01*
X75619530Y-103815212D01*
X77570505Y-105766187D01*
X77598281Y-105820702D01*
X77599500Y-105836189D01*
X77599500Y-105865892D01*
X77626429Y-105966392D01*
X77633609Y-105993190D01*
X77699496Y-106107309D01*
X77699498Y-106107311D01*
X77699500Y-106107314D01*
X77792686Y-106200500D01*
X77792688Y-106200501D01*
X77792690Y-106200503D01*
X77906810Y-106266390D01*
X77906808Y-106266390D01*
X77906812Y-106266391D01*
X77906814Y-106266392D01*
X78034108Y-106300500D01*
X78034110Y-106300500D01*
X78165890Y-106300500D01*
X78165892Y-106300500D01*
X78293186Y-106266392D01*
X78293188Y-106266390D01*
X78293190Y-106266390D01*
X78407309Y-106200503D01*
X78407309Y-106200502D01*
X78407314Y-106200500D01*
X78500500Y-106107314D01*
X78500503Y-106107309D01*
X78564264Y-105996873D01*
X78609733Y-105955932D01*
X78670583Y-105949536D01*
X78723571Y-105980129D01*
X78735736Y-105996873D01*
X78799496Y-106107309D01*
X78799498Y-106107311D01*
X78799500Y-106107314D01*
X78892686Y-106200500D01*
X78892688Y-106200501D01*
X78892690Y-106200503D01*
X79006810Y-106266390D01*
X79006808Y-106266390D01*
X79006812Y-106266391D01*
X79006814Y-106266392D01*
X79134108Y-106300500D01*
X79134110Y-106300500D01*
X79265890Y-106300500D01*
X79265892Y-106300500D01*
X79393186Y-106266392D01*
X79393188Y-106266390D01*
X79393190Y-106266390D01*
X79507309Y-106200503D01*
X79507309Y-106200502D01*
X79507314Y-106200500D01*
X79600500Y-106107314D01*
X79600503Y-106107309D01*
X79666390Y-105993190D01*
X79666390Y-105993188D01*
X79666392Y-105993186D01*
X79700500Y-105865892D01*
X79700500Y-105734108D01*
X79666392Y-105606814D01*
X79666390Y-105606811D01*
X79666390Y-105606809D01*
X79600503Y-105492690D01*
X79600501Y-105492688D01*
X79600500Y-105492686D01*
X79507314Y-105399500D01*
X79507311Y-105399498D01*
X79507309Y-105399496D01*
X79393189Y-105333609D01*
X79393191Y-105333609D01*
X79343799Y-105320375D01*
X79265892Y-105299500D01*
X79265890Y-105299500D01*
X79236190Y-105299500D01*
X79177999Y-105280593D01*
X79166186Y-105270504D01*
X78679496Y-104783814D01*
X78651719Y-104729297D01*
X78650500Y-104713810D01*
X78650500Y-83353857D01*
X78650500Y-83353856D01*
X78626614Y-83264712D01*
X78580470Y-83184788D01*
X77529496Y-82133814D01*
X77525869Y-82126696D01*
X77519407Y-82122001D01*
X77512243Y-82099952D01*
X77501719Y-82079297D01*
X77500500Y-82063810D01*
X77500500Y-82034109D01*
X77500500Y-82034108D01*
X83099500Y-82034108D01*
X83099500Y-82165892D01*
X83108539Y-82199625D01*
X83133609Y-82293190D01*
X83199496Y-82407309D01*
X83199498Y-82407311D01*
X83199500Y-82407314D01*
X83292686Y-82500500D01*
X83292688Y-82500501D01*
X83292690Y-82500503D01*
X83406810Y-82566390D01*
X83406808Y-82566390D01*
X83406812Y-82566391D01*
X83406814Y-82566392D01*
X83534108Y-82600500D01*
X83534110Y-82600500D01*
X83665890Y-82600500D01*
X83665892Y-82600500D01*
X83793186Y-82566392D01*
X83793188Y-82566390D01*
X83793190Y-82566390D01*
X83907309Y-82500503D01*
X83907309Y-82500502D01*
X83907314Y-82500500D01*
X84000500Y-82407314D01*
X84001958Y-82404789D01*
X84066390Y-82293190D01*
X84066390Y-82293188D01*
X84066392Y-82293186D01*
X84100500Y-82165892D01*
X84100500Y-82136189D01*
X84119407Y-82077998D01*
X84129490Y-82066191D01*
X85241826Y-80953856D01*
X86349500Y-80953856D01*
X86349500Y-104546144D01*
X86369164Y-104619530D01*
X86373386Y-104635288D01*
X86419530Y-104715212D01*
X87470505Y-105766187D01*
X87498281Y-105820702D01*
X87499500Y-105836189D01*
X87499500Y-105865892D01*
X87526429Y-105966392D01*
X87533609Y-105993190D01*
X87599496Y-106107309D01*
X87599498Y-106107311D01*
X87599500Y-106107314D01*
X87692686Y-106200500D01*
X87692688Y-106200501D01*
X87692690Y-106200503D01*
X87806810Y-106266390D01*
X87806808Y-106266390D01*
X87806812Y-106266391D01*
X87806814Y-106266392D01*
X87934108Y-106300500D01*
X87934110Y-106300500D01*
X88065890Y-106300500D01*
X88065892Y-106300500D01*
X88193186Y-106266392D01*
X88193188Y-106266390D01*
X88193190Y-106266390D01*
X88307309Y-106200503D01*
X88307309Y-106200502D01*
X88307314Y-106200500D01*
X88400500Y-106107314D01*
X88400503Y-106107309D01*
X88466390Y-105993190D01*
X88466390Y-105993188D01*
X88466392Y-105993186D01*
X88500500Y-105865892D01*
X88500500Y-105734108D01*
X88466392Y-105606814D01*
X88466390Y-105606811D01*
X88466390Y-105606809D01*
X88400503Y-105492690D01*
X88400501Y-105492688D01*
X88400500Y-105492686D01*
X88307314Y-105399500D01*
X88307311Y-105399498D01*
X88307309Y-105399496D01*
X88193189Y-105333609D01*
X88193191Y-105333609D01*
X88143799Y-105320375D01*
X88065892Y-105299500D01*
X88065890Y-105299500D01*
X88036190Y-105299500D01*
X87977999Y-105280593D01*
X87966186Y-105270504D01*
X87079496Y-104383814D01*
X87051719Y-104329297D01*
X87050500Y-104313810D01*
X87050500Y-102431943D01*
X95950000Y-102431943D01*
X95950000Y-102668056D01*
X95986934Y-102901252D01*
X95986935Y-102901256D01*
X96059892Y-103125793D01*
X96059894Y-103125796D01*
X96167084Y-103336169D01*
X96227339Y-103419105D01*
X96810689Y-102835754D01*
X96829669Y-102881574D01*
X96906275Y-102996223D01*
X97003777Y-103093725D01*
X97118426Y-103170331D01*
X97164243Y-103189309D01*
X96580893Y-103772659D01*
X96663825Y-103832913D01*
X96663829Y-103832915D01*
X96874203Y-103940105D01*
X96874206Y-103940107D01*
X97098743Y-104013064D01*
X97098747Y-104013065D01*
X97331944Y-104050000D01*
X97568056Y-104050000D01*
X97801252Y-104013065D01*
X97801256Y-104013064D01*
X98025793Y-103940107D01*
X98025796Y-103940105D01*
X98236170Y-103832915D01*
X98236176Y-103832911D01*
X98319105Y-103772659D01*
X98319105Y-103772658D01*
X97735756Y-103189309D01*
X97781574Y-103170331D01*
X97896223Y-103093725D01*
X97993725Y-102996223D01*
X98070331Y-102881574D01*
X98089309Y-102835756D01*
X98672658Y-103419105D01*
X98672659Y-103419105D01*
X98732911Y-103336176D01*
X98732915Y-103336170D01*
X98840105Y-103125796D01*
X98840107Y-103125793D01*
X98913064Y-102901256D01*
X98913065Y-102901252D01*
X98950000Y-102668056D01*
X98950000Y-102431943D01*
X101050000Y-102431943D01*
X101050000Y-102668056D01*
X101086934Y-102901252D01*
X101086935Y-102901256D01*
X101159892Y-103125793D01*
X101159894Y-103125796D01*
X101267084Y-103336169D01*
X101327339Y-103419105D01*
X101910689Y-102835754D01*
X101929669Y-102881574D01*
X102006275Y-102996223D01*
X102103777Y-103093725D01*
X102218426Y-103170331D01*
X102264243Y-103189309D01*
X101680893Y-103772659D01*
X101763825Y-103832913D01*
X101763829Y-103832915D01*
X101974203Y-103940105D01*
X101974206Y-103940107D01*
X102198743Y-104013064D01*
X102198747Y-104013065D01*
X102431944Y-104050000D01*
X102668056Y-104050000D01*
X102901252Y-104013065D01*
X102901256Y-104013064D01*
X103125793Y-103940107D01*
X103125796Y-103940105D01*
X103336170Y-103832915D01*
X103336176Y-103832911D01*
X103419105Y-103772659D01*
X103419105Y-103772658D01*
X102835756Y-103189309D01*
X102881574Y-103170331D01*
X102996223Y-103093725D01*
X103093725Y-102996223D01*
X103170331Y-102881574D01*
X103189309Y-102835756D01*
X103772658Y-103419105D01*
X103772659Y-103419105D01*
X103832911Y-103336176D01*
X103832915Y-103336170D01*
X103940105Y-103125796D01*
X103940107Y-103125793D01*
X104013064Y-102901256D01*
X104013065Y-102901252D01*
X104050000Y-102668056D01*
X104050000Y-102431943D01*
X104013065Y-102198747D01*
X104013064Y-102198743D01*
X103940107Y-101974206D01*
X103940105Y-101974203D01*
X103832915Y-101763829D01*
X103832913Y-101763825D01*
X103772659Y-101680893D01*
X103189309Y-102264243D01*
X103170331Y-102218426D01*
X103093725Y-102103777D01*
X102996223Y-102006275D01*
X102881574Y-101929669D01*
X102835754Y-101910689D01*
X103419105Y-101327339D01*
X103336169Y-101267084D01*
X103125796Y-101159894D01*
X103125793Y-101159892D01*
X102901256Y-101086935D01*
X102901252Y-101086934D01*
X102668056Y-101050000D01*
X102431944Y-101050000D01*
X102198747Y-101086934D01*
X102198743Y-101086935D01*
X101974206Y-101159892D01*
X101974203Y-101159894D01*
X101763823Y-101267088D01*
X101680893Y-101327339D01*
X102264244Y-101910690D01*
X102218426Y-101929669D01*
X102103777Y-102006275D01*
X102006275Y-102103777D01*
X101929669Y-102218426D01*
X101910690Y-102264244D01*
X101327339Y-101680893D01*
X101267088Y-101763823D01*
X101159894Y-101974203D01*
X101159892Y-101974206D01*
X101086935Y-102198743D01*
X101086934Y-102198747D01*
X101050000Y-102431943D01*
X98950000Y-102431943D01*
X98913065Y-102198747D01*
X98913064Y-102198743D01*
X98840107Y-101974206D01*
X98840105Y-101974203D01*
X98732915Y-101763829D01*
X98732913Y-101763825D01*
X98672659Y-101680893D01*
X98089309Y-102264243D01*
X98070331Y-102218426D01*
X97993725Y-102103777D01*
X97896223Y-102006275D01*
X97781574Y-101929669D01*
X97735754Y-101910689D01*
X98319105Y-101327339D01*
X98236169Y-101267084D01*
X98025796Y-101159894D01*
X98025793Y-101159892D01*
X97801256Y-101086935D01*
X97801252Y-101086934D01*
X97568056Y-101050000D01*
X97331944Y-101050000D01*
X97098747Y-101086934D01*
X97098743Y-101086935D01*
X96874206Y-101159892D01*
X96874203Y-101159894D01*
X96663823Y-101267088D01*
X96580893Y-101327339D01*
X97164244Y-101910690D01*
X97118426Y-101929669D01*
X97003777Y-102006275D01*
X96906275Y-102103777D01*
X96829669Y-102218426D01*
X96810690Y-102264244D01*
X96227339Y-101680893D01*
X96167088Y-101763823D01*
X96059894Y-101974203D01*
X96059892Y-101974206D01*
X95986935Y-102198743D01*
X95986934Y-102198747D01*
X95950000Y-102431943D01*
X87050500Y-102431943D01*
X87050500Y-99913385D01*
X98899500Y-99913385D01*
X98899500Y-100086614D01*
X98926597Y-100257702D01*
X98926598Y-100257706D01*
X98980123Y-100422438D01*
X98980125Y-100422441D01*
X98980126Y-100422444D01*
X98980127Y-100422445D01*
X99058768Y-100576788D01*
X99160586Y-100716928D01*
X99283072Y-100839414D01*
X99423212Y-100941232D01*
X99577555Y-101019873D01*
X99577557Y-101019873D01*
X99577558Y-101019874D01*
X99577561Y-101019876D01*
X99742293Y-101073401D01*
X99742297Y-101073402D01*
X99913386Y-101100500D01*
X99913389Y-101100500D01*
X100086614Y-101100500D01*
X100257702Y-101073402D01*
X100257706Y-101073401D01*
X100422438Y-101019876D01*
X100422440Y-101019874D01*
X100422445Y-101019873D01*
X100576788Y-100941232D01*
X100716928Y-100839414D01*
X100839414Y-100716928D01*
X100941232Y-100576788D01*
X101019873Y-100422445D01*
X101019874Y-100422440D01*
X101019876Y-100422438D01*
X101073401Y-100257706D01*
X101073402Y-100257702D01*
X101100500Y-100086614D01*
X101100500Y-99913385D01*
X101073402Y-99742297D01*
X101073401Y-99742293D01*
X101019876Y-99577561D01*
X101019874Y-99577558D01*
X101019873Y-99577557D01*
X101019873Y-99577555D01*
X100941232Y-99423212D01*
X100839414Y-99283072D01*
X100716928Y-99160586D01*
X100576788Y-99058768D01*
X100576787Y-99058767D01*
X100576785Y-99058766D01*
X100422441Y-98980125D01*
X100422438Y-98980123D01*
X100257706Y-98926598D01*
X100257702Y-98926597D01*
X100086614Y-98899500D01*
X100086611Y-98899500D01*
X99913389Y-98899500D01*
X99913386Y-98899500D01*
X99742297Y-98926597D01*
X99742293Y-98926598D01*
X99577561Y-98980123D01*
X99577558Y-98980125D01*
X99423214Y-99058766D01*
X99283073Y-99160585D01*
X99160585Y-99283073D01*
X99058766Y-99423214D01*
X98980125Y-99577558D01*
X98980123Y-99577561D01*
X98926598Y-99742293D01*
X98926597Y-99742297D01*
X98899500Y-99913385D01*
X87050500Y-99913385D01*
X87050500Y-97331943D01*
X95950000Y-97331943D01*
X95950000Y-97568056D01*
X95986934Y-97801252D01*
X95986935Y-97801256D01*
X96059892Y-98025793D01*
X96059894Y-98025796D01*
X96167084Y-98236169D01*
X96227339Y-98319105D01*
X96810689Y-97735754D01*
X96829669Y-97781574D01*
X96906275Y-97896223D01*
X97003777Y-97993725D01*
X97118426Y-98070331D01*
X97164243Y-98089309D01*
X96580893Y-98672659D01*
X96663825Y-98732913D01*
X96663829Y-98732915D01*
X96874203Y-98840105D01*
X96874206Y-98840107D01*
X97098743Y-98913064D01*
X97098747Y-98913065D01*
X97331944Y-98950000D01*
X97568056Y-98950000D01*
X97801252Y-98913065D01*
X97801256Y-98913064D01*
X98025793Y-98840107D01*
X98025796Y-98840105D01*
X98236170Y-98732915D01*
X98236176Y-98732911D01*
X98319105Y-98672659D01*
X98319105Y-98672658D01*
X97735756Y-98089309D01*
X97781574Y-98070331D01*
X97896223Y-97993725D01*
X97993725Y-97896223D01*
X98070331Y-97781574D01*
X98089309Y-97735756D01*
X98672658Y-98319105D01*
X98672659Y-98319105D01*
X98732911Y-98236176D01*
X98732915Y-98236170D01*
X98840105Y-98025796D01*
X98840107Y-98025793D01*
X98913064Y-97801256D01*
X98913065Y-97801252D01*
X98950000Y-97568056D01*
X98950000Y-97331943D01*
X101050000Y-97331943D01*
X101050000Y-97568056D01*
X101086934Y-97801252D01*
X101086935Y-97801256D01*
X101159892Y-98025793D01*
X101159894Y-98025796D01*
X101267084Y-98236169D01*
X101327339Y-98319105D01*
X101910689Y-97735754D01*
X101929669Y-97781574D01*
X102006275Y-97896223D01*
X102103777Y-97993725D01*
X102218426Y-98070331D01*
X102264243Y-98089309D01*
X101680893Y-98672659D01*
X101763825Y-98732913D01*
X101763829Y-98732915D01*
X101974203Y-98840105D01*
X101974206Y-98840107D01*
X102198743Y-98913064D01*
X102198747Y-98913065D01*
X102431944Y-98950000D01*
X102668056Y-98950000D01*
X102901252Y-98913065D01*
X102901256Y-98913064D01*
X103125793Y-98840107D01*
X103125796Y-98840105D01*
X103336170Y-98732915D01*
X103336176Y-98732911D01*
X103419105Y-98672659D01*
X103419105Y-98672658D01*
X102835756Y-98089309D01*
X102881574Y-98070331D01*
X102996223Y-97993725D01*
X103093725Y-97896223D01*
X103170331Y-97781574D01*
X103189309Y-97735756D01*
X103772658Y-98319105D01*
X103772659Y-98319105D01*
X103832911Y-98236176D01*
X103832915Y-98236170D01*
X103940105Y-98025796D01*
X103940107Y-98025793D01*
X104013064Y-97801256D01*
X104013065Y-97801252D01*
X104050000Y-97568056D01*
X104050000Y-97331943D01*
X104013065Y-97098747D01*
X104013064Y-97098743D01*
X103940107Y-96874206D01*
X103940105Y-96874203D01*
X103832915Y-96663829D01*
X103832913Y-96663825D01*
X103772659Y-96580893D01*
X103189309Y-97164243D01*
X103170331Y-97118426D01*
X103093725Y-97003777D01*
X102996223Y-96906275D01*
X102881574Y-96829669D01*
X102835754Y-96810689D01*
X103419105Y-96227339D01*
X103336169Y-96167084D01*
X103125796Y-96059894D01*
X103125793Y-96059892D01*
X102901256Y-95986935D01*
X102901252Y-95986934D01*
X102668056Y-95950000D01*
X102431944Y-95950000D01*
X102198747Y-95986934D01*
X102198743Y-95986935D01*
X101974206Y-96059892D01*
X101974203Y-96059894D01*
X101763823Y-96167088D01*
X101680893Y-96227339D01*
X102264244Y-96810690D01*
X102218426Y-96829669D01*
X102103777Y-96906275D01*
X102006275Y-97003777D01*
X101929669Y-97118426D01*
X101910690Y-97164244D01*
X101327339Y-96580893D01*
X101267088Y-96663823D01*
X101159894Y-96874203D01*
X101159892Y-96874206D01*
X101086935Y-97098743D01*
X101086934Y-97098747D01*
X101050000Y-97331943D01*
X98950000Y-97331943D01*
X98913065Y-97098747D01*
X98913064Y-97098743D01*
X98840107Y-96874206D01*
X98840105Y-96874203D01*
X98732915Y-96663829D01*
X98732913Y-96663825D01*
X98672659Y-96580893D01*
X98089309Y-97164243D01*
X98070331Y-97118426D01*
X97993725Y-97003777D01*
X97896223Y-96906275D01*
X97781574Y-96829669D01*
X97735754Y-96810689D01*
X98319105Y-96227339D01*
X98236169Y-96167084D01*
X98025796Y-96059894D01*
X98025793Y-96059892D01*
X97801256Y-95986935D01*
X97801252Y-95986934D01*
X97568056Y-95950000D01*
X97331944Y-95950000D01*
X97098747Y-95986934D01*
X97098743Y-95986935D01*
X96874206Y-96059892D01*
X96874203Y-96059894D01*
X96663823Y-96167088D01*
X96580893Y-96227339D01*
X97164244Y-96810690D01*
X97118426Y-96829669D01*
X97003777Y-96906275D01*
X96906275Y-97003777D01*
X96829669Y-97118426D01*
X96810690Y-97164244D01*
X96227339Y-96580893D01*
X96167088Y-96663823D01*
X96059894Y-96874203D01*
X96059892Y-96874206D01*
X95986935Y-97098743D01*
X95986934Y-97098747D01*
X95950000Y-97331943D01*
X87050500Y-97331943D01*
X87050500Y-81186189D01*
X87069407Y-81127998D01*
X87079490Y-81116191D01*
X87780470Y-80415212D01*
X87826614Y-80335288D01*
X87850500Y-80246144D01*
X87850500Y-80153856D01*
X87850500Y-72434108D01*
X97299500Y-72434108D01*
X97299500Y-72565892D01*
X97300602Y-72570003D01*
X97333609Y-72693190D01*
X97399496Y-72807309D01*
X97399498Y-72807311D01*
X97399500Y-72807314D01*
X97492686Y-72900500D01*
X97492688Y-72900501D01*
X97492690Y-72900503D01*
X97606810Y-72966390D01*
X97606808Y-72966390D01*
X97606812Y-72966391D01*
X97606814Y-72966392D01*
X97734108Y-73000500D01*
X97734110Y-73000500D01*
X97865890Y-73000500D01*
X97865892Y-73000500D01*
X97993186Y-72966392D01*
X97997741Y-72963761D01*
X98047239Y-72950500D01*
X106772389Y-72950500D01*
X106830580Y-72969407D01*
X106842393Y-72979496D01*
X131520504Y-97657607D01*
X131548281Y-97712124D01*
X131549500Y-97727611D01*
X131549500Y-104252761D01*
X131536238Y-104302259D01*
X131533608Y-104306813D01*
X131533608Y-104306814D01*
X131499500Y-104434108D01*
X131499500Y-104565892D01*
X131533608Y-104693186D01*
X131536234Y-104697735D01*
X131549500Y-104747238D01*
X131549500Y-110252761D01*
X131536238Y-110302259D01*
X131533608Y-110306813D01*
X131533608Y-110306814D01*
X131499500Y-110434108D01*
X131499500Y-110565892D01*
X131533608Y-110693186D01*
X131536234Y-110697735D01*
X131549500Y-110747238D01*
X131549500Y-116272389D01*
X131530593Y-116330580D01*
X131520504Y-116342393D01*
X119342393Y-128520504D01*
X119287876Y-128548281D01*
X119272389Y-128549500D01*
X115747239Y-128549500D01*
X115697741Y-128536238D01*
X115693186Y-128533608D01*
X115565892Y-128499500D01*
X115434108Y-128499500D01*
X115356200Y-128520375D01*
X115306809Y-128533609D01*
X115192690Y-128599496D01*
X115099496Y-128692690D01*
X115033609Y-128806809D01*
X115033608Y-128806814D01*
X114999500Y-128934108D01*
X114999500Y-129065892D01*
X115029579Y-129178151D01*
X115033609Y-129193190D01*
X115099496Y-129307309D01*
X115099498Y-129307311D01*
X115099500Y-129307314D01*
X115192686Y-129400500D01*
X115192688Y-129400501D01*
X115192690Y-129400503D01*
X115306810Y-129466390D01*
X115306808Y-129466390D01*
X115306812Y-129466391D01*
X115306814Y-129466392D01*
X115434108Y-129500500D01*
X115434110Y-129500500D01*
X115565890Y-129500500D01*
X115565892Y-129500500D01*
X115693186Y-129466392D01*
X115697741Y-129463761D01*
X115747239Y-129450500D01*
X119559309Y-129450500D01*
X119649669Y-129426287D01*
X119649672Y-129426287D01*
X119662903Y-129422741D01*
X119673887Y-129419799D01*
X119776614Y-129360489D01*
X132360490Y-116776613D01*
X132419799Y-116673886D01*
X132435145Y-116616614D01*
X132450500Y-116559309D01*
X132450500Y-112049500D01*
X132469407Y-111991309D01*
X132518907Y-111955345D01*
X132549500Y-111950500D01*
X133752761Y-111950500D01*
X133790645Y-111958035D01*
X133796640Y-111960518D01*
X133806814Y-111966392D01*
X133818163Y-111969432D01*
X133824151Y-111971913D01*
X133834695Y-111980918D01*
X133856271Y-111993374D01*
X134723387Y-112860490D01*
X134723389Y-112860491D01*
X134792685Y-112900500D01*
X134792686Y-112900500D01*
X134826112Y-112919798D01*
X134826114Y-112919799D01*
X134940691Y-112950500D01*
X135752761Y-112950500D01*
X135790645Y-112958035D01*
X135796640Y-112960518D01*
X135806814Y-112966392D01*
X135818163Y-112969432D01*
X135824151Y-112971913D01*
X135834695Y-112980918D01*
X135856271Y-112993374D01*
X137723386Y-114860489D01*
X137723388Y-114860490D01*
X137723389Y-114860491D01*
X137723390Y-114860492D01*
X137826107Y-114919796D01*
X137826109Y-114919797D01*
X137826113Y-114919799D01*
X137850322Y-114926284D01*
X137850325Y-114926287D01*
X137850326Y-114926286D01*
X137940688Y-114950499D01*
X137940690Y-114950500D01*
X137940691Y-114950500D01*
X147652761Y-114950500D01*
X147702258Y-114963761D01*
X147706814Y-114966392D01*
X147834108Y-115000500D01*
X147834110Y-115000500D01*
X147965890Y-115000500D01*
X147965892Y-115000500D01*
X148093186Y-114966392D01*
X148093188Y-114966390D01*
X148093190Y-114966390D01*
X148207309Y-114900503D01*
X148207309Y-114900502D01*
X148207314Y-114900500D01*
X148300500Y-114807314D01*
X148300793Y-114806807D01*
X148366390Y-114693190D01*
X148366390Y-114693188D01*
X148366392Y-114693186D01*
X148400500Y-114565892D01*
X148400500Y-114434108D01*
X148366392Y-114306814D01*
X148363761Y-114302258D01*
X148350500Y-114252761D01*
X148350500Y-108347238D01*
X148363765Y-108297735D01*
X148366392Y-108293186D01*
X148400500Y-108165892D01*
X148400500Y-108034108D01*
X148366392Y-107906814D01*
X148366390Y-107906811D01*
X148366390Y-107906809D01*
X148300503Y-107792690D01*
X148300501Y-107792688D01*
X148300500Y-107792686D01*
X148207314Y-107699500D01*
X148207311Y-107699498D01*
X148207309Y-107699496D01*
X148093189Y-107633609D01*
X148093191Y-107633609D01*
X148043799Y-107620375D01*
X147965892Y-107599500D01*
X147834108Y-107599500D01*
X147755719Y-107620504D01*
X147706813Y-107633608D01*
X147702259Y-107636238D01*
X147652761Y-107649500D01*
X137727611Y-107649500D01*
X137669420Y-107630593D01*
X137657607Y-107620504D01*
X136528702Y-106491599D01*
X136502552Y-106440275D01*
X136502179Y-106440376D01*
X136501708Y-106438619D01*
X136500925Y-106437082D01*
X136500552Y-106434506D01*
X136500500Y-106434116D01*
X136500500Y-106434108D01*
X136466392Y-106306814D01*
X136466390Y-106306811D01*
X136466390Y-106306809D01*
X136400503Y-106192690D01*
X136400501Y-106192688D01*
X136400500Y-106192686D01*
X136307314Y-106099500D01*
X136307311Y-106099498D01*
X136307309Y-106099496D01*
X136193189Y-106033609D01*
X136193191Y-106033609D01*
X136143799Y-106020375D01*
X136065892Y-105999500D01*
X135934108Y-105999500D01*
X135855719Y-106020504D01*
X135806813Y-106033608D01*
X135802259Y-106036238D01*
X135752761Y-106049500D01*
X135227611Y-106049500D01*
X135169420Y-106030593D01*
X135157607Y-106020504D01*
X134493374Y-105356271D01*
X134467751Y-105311887D01*
X134466392Y-105306815D01*
X134466392Y-105306814D01*
X134400500Y-105192686D01*
X134307314Y-105099500D01*
X134307311Y-105099498D01*
X134307309Y-105099496D01*
X134193189Y-105033609D01*
X134193191Y-105033609D01*
X134143799Y-105020375D01*
X134065892Y-104999500D01*
X133934108Y-104999500D01*
X133849245Y-105022238D01*
X133806813Y-105033608D01*
X133802259Y-105036238D01*
X133752761Y-105049500D01*
X132549500Y-105049500D01*
X132491309Y-105030593D01*
X132455345Y-104981093D01*
X132450500Y-104950500D01*
X132450500Y-104747238D01*
X132463765Y-104697735D01*
X132466392Y-104693186D01*
X132500500Y-104565892D01*
X132500500Y-104434108D01*
X132466392Y-104306814D01*
X132463761Y-104302258D01*
X132450500Y-104252761D01*
X132450500Y-97440692D01*
X132419799Y-97326114D01*
X132419799Y-97326112D01*
X132360492Y-97223390D01*
X132360490Y-97223388D01*
X132360489Y-97223386D01*
X127567920Y-92430817D01*
X148774500Y-92430817D01*
X148774500Y-92569183D01*
X148810312Y-92702836D01*
X148879495Y-92822665D01*
X148977335Y-92920505D01*
X149097164Y-92989688D01*
X149230817Y-93025500D01*
X149230819Y-93025500D01*
X149369181Y-93025500D01*
X149369183Y-93025500D01*
X149502836Y-92989688D01*
X149622665Y-92920505D01*
X149720505Y-92822665D01*
X149789688Y-92702836D01*
X149825500Y-92569183D01*
X149825500Y-92430817D01*
X149789688Y-92297164D01*
X149720505Y-92177335D01*
X149622665Y-92079495D01*
X149502836Y-92010312D01*
X149369183Y-91974500D01*
X149230817Y-91974500D01*
X149097164Y-92010312D01*
X148977335Y-92079495D01*
X148879495Y-92177335D01*
X148810312Y-92297164D01*
X148774500Y-92430817D01*
X127567920Y-92430817D01*
X125371211Y-90234108D01*
X136999500Y-90234108D01*
X136999500Y-90365892D01*
X137029579Y-90478151D01*
X137033609Y-90493190D01*
X137099496Y-90607309D01*
X137099498Y-90607311D01*
X137099500Y-90607314D01*
X137192686Y-90700500D01*
X137192688Y-90700501D01*
X137192690Y-90700503D01*
X137306810Y-90766390D01*
X137306808Y-90766390D01*
X137306812Y-90766391D01*
X137306814Y-90766392D01*
X137434108Y-90800500D01*
X137434110Y-90800500D01*
X137565890Y-90800500D01*
X137565892Y-90800500D01*
X137693186Y-90766392D01*
X137693188Y-90766390D01*
X137693190Y-90766390D01*
X137807309Y-90700503D01*
X137807309Y-90700502D01*
X137807314Y-90700500D01*
X137828319Y-90679494D01*
X137882834Y-90651719D01*
X137898321Y-90650500D01*
X146101679Y-90650500D01*
X146159870Y-90669407D01*
X146171676Y-90679490D01*
X146192686Y-90700500D01*
X146192691Y-90700503D01*
X146259826Y-90739264D01*
X146264122Y-90744036D01*
X146270186Y-90746148D01*
X146284263Y-90766405D01*
X146300766Y-90784734D01*
X146301436Y-90791117D01*
X146305102Y-90796392D01*
X146304583Y-90821058D01*
X146307161Y-90845584D01*
X146303950Y-90851143D01*
X146303816Y-90857564D01*
X146291994Y-90871853D01*
X146276568Y-90898572D01*
X146266820Y-90906298D01*
X146263412Y-90908665D01*
X146192686Y-90949500D01*
X146165431Y-90976754D01*
X146158174Y-90981798D01*
X146136934Y-90988208D01*
X146117166Y-90998281D01*
X146101679Y-90999500D01*
X138898321Y-90999500D01*
X138840130Y-90980593D01*
X138828323Y-90970509D01*
X138807314Y-90949500D01*
X138807311Y-90949498D01*
X138807309Y-90949496D01*
X138693189Y-90883609D01*
X138693191Y-90883609D01*
X138643799Y-90870375D01*
X138565892Y-90849500D01*
X138434108Y-90849500D01*
X138356200Y-90870375D01*
X138306809Y-90883609D01*
X138192690Y-90949496D01*
X138099496Y-91042690D01*
X138033609Y-91156809D01*
X138033608Y-91156814D01*
X137999500Y-91284108D01*
X137999500Y-91415892D01*
X138029579Y-91528151D01*
X138033609Y-91543190D01*
X138099496Y-91657309D01*
X138099498Y-91657311D01*
X138099500Y-91657314D01*
X138192686Y-91750500D01*
X138192688Y-91750501D01*
X138192690Y-91750503D01*
X138306810Y-91816390D01*
X138306808Y-91816390D01*
X138306812Y-91816391D01*
X138306814Y-91816392D01*
X138434108Y-91850500D01*
X138434110Y-91850500D01*
X138565890Y-91850500D01*
X138565892Y-91850500D01*
X138693186Y-91816392D01*
X138693188Y-91816390D01*
X138693190Y-91816390D01*
X138807309Y-91750503D01*
X138807309Y-91750502D01*
X138807314Y-91750500D01*
X138828319Y-91729494D01*
X138882834Y-91701719D01*
X138898321Y-91700500D01*
X146101679Y-91700500D01*
X146159870Y-91719407D01*
X146171676Y-91729490D01*
X146192686Y-91750500D01*
X146192688Y-91750501D01*
X146192690Y-91750503D01*
X146306810Y-91816390D01*
X146306808Y-91816390D01*
X146306812Y-91816391D01*
X146306814Y-91816392D01*
X146434108Y-91850500D01*
X146434110Y-91850500D01*
X146565890Y-91850500D01*
X146565892Y-91850500D01*
X146693186Y-91816392D01*
X146693188Y-91816390D01*
X146693190Y-91816390D01*
X146807309Y-91750503D01*
X146807309Y-91750502D01*
X146807314Y-91750500D01*
X146900500Y-91657314D01*
X146966392Y-91543186D01*
X147000500Y-91415892D01*
X147000500Y-91284108D01*
X146966392Y-91156814D01*
X146966390Y-91156811D01*
X146966390Y-91156809D01*
X146900503Y-91042690D01*
X146900501Y-91042688D01*
X146900500Y-91042686D01*
X146807314Y-90949500D01*
X146740173Y-90910736D01*
X146699233Y-90865267D01*
X146692837Y-90804417D01*
X146723430Y-90751429D01*
X146740171Y-90739264D01*
X146807314Y-90700500D01*
X146900500Y-90607314D01*
X146900503Y-90607309D01*
X146966390Y-90493190D01*
X146966390Y-90493188D01*
X146966392Y-90493186D01*
X147000500Y-90365892D01*
X147000500Y-90234108D01*
X146966392Y-90106814D01*
X146966390Y-90106811D01*
X146966390Y-90106809D01*
X146900503Y-89992690D01*
X146900501Y-89992688D01*
X146900500Y-89992686D01*
X146807314Y-89899500D01*
X146807311Y-89899498D01*
X146807309Y-89899496D01*
X146693189Y-89833609D01*
X146693191Y-89833609D01*
X146642053Y-89819907D01*
X146565892Y-89799500D01*
X146434108Y-89799500D01*
X146357947Y-89819907D01*
X146306809Y-89833609D01*
X146192690Y-89899496D01*
X146192689Y-89899497D01*
X146192686Y-89899499D01*
X146192686Y-89899500D01*
X146171680Y-89920505D01*
X146117166Y-89948281D01*
X146101679Y-89949500D01*
X142785189Y-89949500D01*
X142726998Y-89930593D01*
X142691034Y-89881093D01*
X142691034Y-89819907D01*
X142715183Y-89780498D01*
X143280470Y-89215212D01*
X143326614Y-89135288D01*
X143350500Y-89046144D01*
X143350500Y-88953856D01*
X143350500Y-88430817D01*
X148774500Y-88430817D01*
X148774500Y-88569183D01*
X148810312Y-88702836D01*
X148879495Y-88822665D01*
X148977335Y-88920505D01*
X149097164Y-88989688D01*
X149230817Y-89025500D01*
X149230819Y-89025500D01*
X149369181Y-89025500D01*
X149369183Y-89025500D01*
X149502836Y-88989688D01*
X149622665Y-88920505D01*
X149720505Y-88822665D01*
X149789688Y-88702836D01*
X149825500Y-88569183D01*
X149825500Y-88430817D01*
X149789688Y-88297164D01*
X149720505Y-88177335D01*
X149622665Y-88079495D01*
X149502836Y-88010312D01*
X149369183Y-87974500D01*
X149230817Y-87974500D01*
X149097164Y-88010312D01*
X148977335Y-88079495D01*
X148879495Y-88177335D01*
X148810312Y-88297164D01*
X148774500Y-88430817D01*
X143350500Y-88430817D01*
X143350500Y-85898321D01*
X143369407Y-85840130D01*
X143379490Y-85828323D01*
X143400500Y-85807314D01*
X143416681Y-85779288D01*
X143466390Y-85693190D01*
X143466390Y-85693188D01*
X143466392Y-85693186D01*
X143500500Y-85565892D01*
X143500500Y-85434108D01*
X143466392Y-85306814D01*
X143466390Y-85306811D01*
X143466390Y-85306809D01*
X143400503Y-85192690D01*
X143400501Y-85192688D01*
X143400500Y-85192686D01*
X143307314Y-85099500D01*
X143307311Y-85099498D01*
X143307309Y-85099496D01*
X143193189Y-85033609D01*
X143193191Y-85033609D01*
X143141911Y-85019869D01*
X143065892Y-84999500D01*
X142934108Y-84999500D01*
X142858089Y-85019869D01*
X142806809Y-85033609D01*
X142692690Y-85099496D01*
X142599496Y-85192690D01*
X142533609Y-85306809D01*
X142520055Y-85357396D01*
X142499500Y-85434108D01*
X142499500Y-85565892D01*
X142526674Y-85667309D01*
X142533609Y-85693190D01*
X142599496Y-85807309D01*
X142599498Y-85807311D01*
X142599500Y-85807314D01*
X142620505Y-85828319D01*
X142648281Y-85882834D01*
X142649500Y-85898321D01*
X142649500Y-88813810D01*
X142630593Y-88872001D01*
X142620504Y-88883814D01*
X142233814Y-89270504D01*
X142179297Y-89298281D01*
X142163810Y-89299500D01*
X139898321Y-89299500D01*
X139840130Y-89280593D01*
X139828323Y-89270509D01*
X139807314Y-89249500D01*
X139807311Y-89249498D01*
X139807309Y-89249496D01*
X139693189Y-89183609D01*
X139693191Y-89183609D01*
X139643799Y-89170375D01*
X139565892Y-89149500D01*
X139434108Y-89149500D01*
X139356200Y-89170375D01*
X139306809Y-89183609D01*
X139192690Y-89249496D01*
X139099496Y-89342690D01*
X139033609Y-89456809D01*
X139033608Y-89456814D01*
X138999500Y-89584108D01*
X138999500Y-89715892D01*
X139028702Y-89824879D01*
X139025500Y-89885978D01*
X138986995Y-89933528D01*
X138933076Y-89949500D01*
X137898321Y-89949500D01*
X137840130Y-89930593D01*
X137828323Y-89920509D01*
X137807314Y-89899500D01*
X137807311Y-89899498D01*
X137807309Y-89899496D01*
X137693189Y-89833609D01*
X137693191Y-89833609D01*
X137642053Y-89819907D01*
X137565892Y-89799500D01*
X137434108Y-89799500D01*
X137357947Y-89819907D01*
X137306809Y-89833609D01*
X137192690Y-89899496D01*
X137099496Y-89992690D01*
X137033609Y-90106809D01*
X137019189Y-90160626D01*
X136999500Y-90234108D01*
X125371211Y-90234108D01*
X122571211Y-87434108D01*
X127499500Y-87434108D01*
X127499500Y-87565892D01*
X127529579Y-87678151D01*
X127533609Y-87693190D01*
X127599496Y-87807309D01*
X127599498Y-87807311D01*
X127599500Y-87807314D01*
X127692686Y-87900500D01*
X127692688Y-87900501D01*
X127692690Y-87900503D01*
X127806810Y-87966390D01*
X127806808Y-87966390D01*
X127806812Y-87966391D01*
X127806814Y-87966392D01*
X127934108Y-88000500D01*
X127934110Y-88000500D01*
X128065890Y-88000500D01*
X128065892Y-88000500D01*
X128193186Y-87966392D01*
X128193188Y-87966390D01*
X128193190Y-87966390D01*
X128307309Y-87900503D01*
X128307309Y-87900502D01*
X128307314Y-87900500D01*
X128328319Y-87879494D01*
X128382834Y-87851719D01*
X128398321Y-87850500D01*
X129301679Y-87850500D01*
X129359870Y-87869407D01*
X129371676Y-87879490D01*
X129392686Y-87900500D01*
X129392688Y-87900501D01*
X129392690Y-87900503D01*
X129506810Y-87966390D01*
X129506808Y-87966390D01*
X129506812Y-87966391D01*
X129506814Y-87966392D01*
X129634108Y-88000500D01*
X129634110Y-88000500D01*
X129765890Y-88000500D01*
X129765892Y-88000500D01*
X129893186Y-87966392D01*
X129893188Y-87966390D01*
X129893190Y-87966390D01*
X130007309Y-87900503D01*
X130007309Y-87900502D01*
X130007314Y-87900500D01*
X130028319Y-87879494D01*
X130082834Y-87851719D01*
X130098321Y-87850500D01*
X133601679Y-87850500D01*
X133659870Y-87869407D01*
X133671676Y-87879490D01*
X133692686Y-87900500D01*
X133692688Y-87900501D01*
X133692690Y-87900503D01*
X133806810Y-87966390D01*
X133806808Y-87966390D01*
X133806812Y-87966391D01*
X133806814Y-87966392D01*
X133934108Y-88000500D01*
X133934110Y-88000500D01*
X134065890Y-88000500D01*
X134065892Y-88000500D01*
X134193186Y-87966392D01*
X134193188Y-87966390D01*
X134193190Y-87966390D01*
X134307309Y-87900503D01*
X134307309Y-87900502D01*
X134307314Y-87900500D01*
X134400500Y-87807314D01*
X134400503Y-87807309D01*
X134466390Y-87693190D01*
X134466390Y-87693188D01*
X134466392Y-87693186D01*
X134500500Y-87565892D01*
X134500500Y-87434108D01*
X134466392Y-87306814D01*
X134466390Y-87306811D01*
X134466390Y-87306809D01*
X134400503Y-87192690D01*
X134400501Y-87192688D01*
X134400500Y-87192686D01*
X134307314Y-87099500D01*
X134307311Y-87099498D01*
X134307309Y-87099496D01*
X134193189Y-87033609D01*
X134193191Y-87033609D01*
X134143799Y-87020375D01*
X134065892Y-86999500D01*
X133934108Y-86999500D01*
X133856200Y-87020375D01*
X133806809Y-87033609D01*
X133692690Y-87099496D01*
X133692689Y-87099497D01*
X133692686Y-87099499D01*
X133692686Y-87099500D01*
X133671680Y-87120505D01*
X133617166Y-87148281D01*
X133601679Y-87149500D01*
X130098321Y-87149500D01*
X130040130Y-87130593D01*
X130028323Y-87120509D01*
X130007314Y-87099500D01*
X130007311Y-87099498D01*
X130007309Y-87099496D01*
X129893189Y-87033609D01*
X129893191Y-87033609D01*
X129843799Y-87020375D01*
X129765892Y-86999500D01*
X129634108Y-86999500D01*
X129556200Y-87020375D01*
X129506809Y-87033609D01*
X129392690Y-87099496D01*
X129392689Y-87099497D01*
X129392686Y-87099499D01*
X129392686Y-87099500D01*
X129371680Y-87120505D01*
X129317166Y-87148281D01*
X129301679Y-87149500D01*
X128398321Y-87149500D01*
X128340130Y-87130593D01*
X128328323Y-87120509D01*
X128307314Y-87099500D01*
X128307311Y-87099498D01*
X128307309Y-87099496D01*
X128193189Y-87033609D01*
X128193191Y-87033609D01*
X128143799Y-87020375D01*
X128065892Y-86999500D01*
X127934108Y-86999500D01*
X127856200Y-87020375D01*
X127806809Y-87033609D01*
X127692690Y-87099496D01*
X127599496Y-87192690D01*
X127533609Y-87306809D01*
X127533608Y-87306814D01*
X127499500Y-87434108D01*
X122571211Y-87434108D01*
X119571211Y-84434108D01*
X128499500Y-84434108D01*
X128499500Y-84565892D01*
X128520989Y-84646092D01*
X128533609Y-84693190D01*
X128599496Y-84807309D01*
X128599498Y-84807311D01*
X128599500Y-84807314D01*
X128692686Y-84900500D01*
X128692688Y-84900501D01*
X128692690Y-84900503D01*
X128806810Y-84966390D01*
X128806808Y-84966390D01*
X128806812Y-84966391D01*
X128806814Y-84966392D01*
X128934108Y-85000500D01*
X128934110Y-85000500D01*
X129065890Y-85000500D01*
X129065892Y-85000500D01*
X129193186Y-84966392D01*
X129193188Y-84966390D01*
X129193190Y-84966390D01*
X129307309Y-84900503D01*
X129307309Y-84900502D01*
X129307314Y-84900500D01*
X129400500Y-84807314D01*
X129466392Y-84693186D01*
X129500500Y-84565892D01*
X129500500Y-84434108D01*
X129466392Y-84306814D01*
X129466390Y-84306811D01*
X129466390Y-84306809D01*
X129400503Y-84192690D01*
X129400501Y-84192688D01*
X129400500Y-84192686D01*
X129307314Y-84099500D01*
X129307311Y-84099498D01*
X129307309Y-84099496D01*
X129193189Y-84033609D01*
X129193191Y-84033609D01*
X129143799Y-84020375D01*
X129065892Y-83999500D01*
X128934108Y-83999500D01*
X128856200Y-84020375D01*
X128806809Y-84033609D01*
X128692690Y-84099496D01*
X128599496Y-84192690D01*
X128533609Y-84306809D01*
X128533608Y-84306814D01*
X128499500Y-84434108D01*
X119571211Y-84434108D01*
X117571211Y-82434108D01*
X127999500Y-82434108D01*
X127999500Y-82565892D01*
X128026078Y-82665084D01*
X128033609Y-82693190D01*
X128099496Y-82807309D01*
X128099498Y-82807311D01*
X128099500Y-82807314D01*
X128192686Y-82900500D01*
X128192688Y-82900501D01*
X128192690Y-82900503D01*
X128306810Y-82966390D01*
X128306808Y-82966390D01*
X128306812Y-82966391D01*
X128306814Y-82966392D01*
X128434108Y-83000500D01*
X128434110Y-83000500D01*
X128565890Y-83000500D01*
X128565892Y-83000500D01*
X128693186Y-82966392D01*
X128693188Y-82966390D01*
X128693190Y-82966390D01*
X128807309Y-82900503D01*
X128807309Y-82900502D01*
X128807314Y-82900500D01*
X128828319Y-82879494D01*
X128882834Y-82851719D01*
X128898321Y-82850500D01*
X131370500Y-82850500D01*
X131428691Y-82869407D01*
X131464655Y-82918907D01*
X131469500Y-82949500D01*
X131469500Y-84961678D01*
X131450593Y-85019869D01*
X131440505Y-85031680D01*
X131419501Y-85052684D01*
X131419496Y-85052690D01*
X131353609Y-85166809D01*
X131334539Y-85237978D01*
X131319500Y-85294108D01*
X131319500Y-85425892D01*
X131339666Y-85501154D01*
X131353609Y-85553190D01*
X131419496Y-85667309D01*
X131419498Y-85667311D01*
X131419500Y-85667314D01*
X131512686Y-85760500D01*
X131512688Y-85760501D01*
X131512690Y-85760503D01*
X131626810Y-85826390D01*
X131626808Y-85826390D01*
X131626812Y-85826391D01*
X131626814Y-85826392D01*
X131754108Y-85860500D01*
X131754110Y-85860500D01*
X131885890Y-85860500D01*
X131885892Y-85860500D01*
X132013186Y-85826392D01*
X132013188Y-85826390D01*
X132013190Y-85826390D01*
X132127309Y-85760503D01*
X132127309Y-85760502D01*
X132127314Y-85760500D01*
X132220500Y-85667314D01*
X132259653Y-85599500D01*
X132286390Y-85553190D01*
X132286390Y-85553188D01*
X132286392Y-85553186D01*
X132320500Y-85425892D01*
X132320500Y-85294108D01*
X132286392Y-85166814D01*
X132286390Y-85166811D01*
X132286390Y-85166809D01*
X132220503Y-85052690D01*
X132220498Y-85052684D01*
X132199495Y-85031680D01*
X132171719Y-84977163D01*
X132170500Y-84961678D01*
X132170500Y-82573857D01*
X132168366Y-82565892D01*
X132146614Y-82484712D01*
X132141939Y-82476614D01*
X132100470Y-82404788D01*
X131915212Y-82219530D01*
X131835288Y-82173386D01*
X131746144Y-82149500D01*
X131746142Y-82149500D01*
X128898321Y-82149500D01*
X128840130Y-82130593D01*
X128828323Y-82120509D01*
X128807314Y-82099500D01*
X128807311Y-82099498D01*
X128807309Y-82099496D01*
X128693189Y-82033609D01*
X128693191Y-82033609D01*
X128643799Y-82020375D01*
X128565892Y-81999500D01*
X128434108Y-81999500D01*
X128356200Y-82020375D01*
X128306809Y-82033609D01*
X128192690Y-82099496D01*
X128099496Y-82192690D01*
X128033609Y-82306809D01*
X128033608Y-82306814D01*
X127999500Y-82434108D01*
X117571211Y-82434108D01*
X115034787Y-79897684D01*
X135700000Y-79897684D01*
X135700000Y-80102315D01*
X135732008Y-80304412D01*
X135795243Y-80499027D01*
X135888139Y-80681348D01*
X135888143Y-80681353D01*
X135920523Y-80725920D01*
X135920524Y-80725920D01*
X136557851Y-80088592D01*
X136580656Y-80173698D01*
X136639901Y-80276314D01*
X136723686Y-80360099D01*
X136826302Y-80419344D01*
X136911405Y-80442147D01*
X136274078Y-81079475D01*
X136318647Y-81111858D01*
X136500972Y-81204756D01*
X136695587Y-81267991D01*
X136897685Y-81300000D01*
X137102315Y-81300000D01*
X137304412Y-81267991D01*
X137499027Y-81204756D01*
X137681342Y-81111863D01*
X137681350Y-81111858D01*
X137725920Y-81079475D01*
X137088593Y-80442148D01*
X137173698Y-80419344D01*
X137276314Y-80360099D01*
X137360099Y-80276314D01*
X137419344Y-80173698D01*
X137442148Y-80088593D01*
X138079475Y-80725920D01*
X138108771Y-80685599D01*
X138158271Y-80649636D01*
X138219457Y-80649637D01*
X138258867Y-80673788D01*
X138362209Y-80777131D01*
X138362213Y-80777134D01*
X138362218Y-80777139D01*
X138526086Y-80886632D01*
X138708165Y-80962051D01*
X138901459Y-81000500D01*
X138901460Y-81000500D01*
X139098540Y-81000500D01*
X139098541Y-81000500D01*
X139291835Y-80962051D01*
X139473914Y-80886632D01*
X139637782Y-80777139D01*
X139777139Y-80637782D01*
X139886632Y-80473914D01*
X139962051Y-80291835D01*
X140000500Y-80098541D01*
X140000500Y-79901459D01*
X139962051Y-79708165D01*
X139886632Y-79526086D01*
X139777139Y-79362218D01*
X139637782Y-79222861D01*
X139473914Y-79113368D01*
X139473915Y-79113368D01*
X139473913Y-79113367D01*
X139291835Y-79037949D01*
X139098543Y-78999500D01*
X139098541Y-78999500D01*
X138901459Y-78999500D01*
X138901456Y-78999500D01*
X138708165Y-79037949D01*
X138708163Y-79037949D01*
X138526086Y-79113367D01*
X138362218Y-79222861D01*
X138362208Y-79222869D01*
X138258866Y-79326211D01*
X138204350Y-79353988D01*
X138143918Y-79344416D01*
X138108772Y-79314400D01*
X138079475Y-79274078D01*
X137442147Y-79911405D01*
X137419344Y-79826302D01*
X137360099Y-79723686D01*
X137276314Y-79639901D01*
X137173698Y-79580656D01*
X137088592Y-79557851D01*
X137725920Y-78920524D01*
X137725920Y-78920523D01*
X137681353Y-78888143D01*
X137681348Y-78888139D01*
X137499027Y-78795243D01*
X137304412Y-78732008D01*
X137102315Y-78700000D01*
X136897685Y-78700000D01*
X136695587Y-78732008D01*
X136500972Y-78795243D01*
X136318651Y-78888139D01*
X136318647Y-78888141D01*
X136274078Y-78920523D01*
X136911406Y-79557851D01*
X136826302Y-79580656D01*
X136723686Y-79639901D01*
X136639901Y-79723686D01*
X136580656Y-79826302D01*
X136557851Y-79911406D01*
X135920523Y-79274078D01*
X135888141Y-79318647D01*
X135888139Y-79318651D01*
X135795243Y-79500972D01*
X135732008Y-79695587D01*
X135700000Y-79897684D01*
X115034787Y-79897684D01*
X107707106Y-72570003D01*
X107699987Y-72556031D01*
X107688900Y-72544944D01*
X107686447Y-72529456D01*
X107679329Y-72515486D01*
X107681781Y-72499999D01*
X107679329Y-72484512D01*
X107686447Y-72470541D01*
X107688900Y-72455054D01*
X107707100Y-72430002D01*
X107740570Y-72396532D01*
X115909500Y-72396532D01*
X115909500Y-72603467D01*
X115949869Y-72806418D01*
X116029058Y-72997597D01*
X116144020Y-73169651D01*
X116144023Y-73169655D01*
X116290345Y-73315977D01*
X116462402Y-73430941D01*
X116653580Y-73510130D01*
X116856535Y-73550500D01*
X116856536Y-73550500D01*
X117063464Y-73550500D01*
X117063465Y-73550500D01*
X117266420Y-73510130D01*
X117457598Y-73430941D01*
X117629655Y-73315977D01*
X117775977Y-73169655D01*
X117890941Y-72997598D01*
X117970130Y-72806420D01*
X118010500Y-72603465D01*
X118010500Y-72396535D01*
X117970130Y-72193580D01*
X117890941Y-72002402D01*
X117775977Y-71830345D01*
X117629655Y-71684023D01*
X117614484Y-71673886D01*
X117457597Y-71569058D01*
X117266418Y-71489869D01*
X117063467Y-71449500D01*
X117063465Y-71449500D01*
X116856535Y-71449500D01*
X116856532Y-71449500D01*
X116653581Y-71489869D01*
X116462402Y-71569058D01*
X116290348Y-71684020D01*
X116144020Y-71830348D01*
X116029058Y-72002402D01*
X115949869Y-72193581D01*
X115909500Y-72396532D01*
X107740570Y-72396532D01*
X108360490Y-71776613D01*
X108419799Y-71673886D01*
X108450500Y-71559309D01*
X108450500Y-70197238D01*
X108463765Y-70147735D01*
X108466392Y-70143186D01*
X108500500Y-70015892D01*
X108500500Y-69884108D01*
X108466392Y-69756814D01*
X108466390Y-69756811D01*
X108466390Y-69756809D01*
X108400503Y-69642690D01*
X108400501Y-69642688D01*
X108400500Y-69642686D01*
X108307314Y-69549500D01*
X108307311Y-69549498D01*
X108307309Y-69549496D01*
X108193189Y-69483609D01*
X108193191Y-69483609D01*
X108143799Y-69470375D01*
X108065892Y-69449500D01*
X107934108Y-69449500D01*
X107856200Y-69470375D01*
X107806809Y-69483609D01*
X107692690Y-69549496D01*
X107599496Y-69642690D01*
X107533609Y-69756809D01*
X107533608Y-69756814D01*
X107499500Y-69884108D01*
X107499500Y-70015892D01*
X107533608Y-70143186D01*
X107536234Y-70147735D01*
X107549500Y-70197238D01*
X107549500Y-71272389D01*
X107530593Y-71330580D01*
X107520504Y-71342393D01*
X106842393Y-72020504D01*
X106787876Y-72048281D01*
X106772389Y-72049500D01*
X98047239Y-72049500D01*
X97997741Y-72036238D01*
X97993186Y-72033608D01*
X97981934Y-72030593D01*
X97865892Y-71999500D01*
X97734108Y-71999500D01*
X97656200Y-72020375D01*
X97606809Y-72033609D01*
X97492690Y-72099496D01*
X97399496Y-72192690D01*
X97333609Y-72306809D01*
X97333608Y-72306814D01*
X97299500Y-72434108D01*
X87850500Y-72434108D01*
X87850500Y-58905515D01*
X94099500Y-58905515D01*
X94099500Y-60094484D01*
X94129058Y-60281113D01*
X94187453Y-60460832D01*
X94240047Y-60564055D01*
X94273240Y-60629199D01*
X94384310Y-60782073D01*
X94517927Y-60915690D01*
X94670801Y-61026760D01*
X94839168Y-61112547D01*
X95018882Y-61170940D01*
X95018883Y-61170940D01*
X95018886Y-61170941D01*
X95205516Y-61200500D01*
X95205519Y-61200500D01*
X95394484Y-61200500D01*
X95581113Y-61170941D01*
X95581114Y-61170940D01*
X95581118Y-61170940D01*
X95760832Y-61112547D01*
X95929199Y-61026760D01*
X96082073Y-60915690D01*
X96215690Y-60782073D01*
X96326760Y-60629199D01*
X96412547Y-60460832D01*
X96470940Y-60281118D01*
X96478160Y-60235534D01*
X96500500Y-60094484D01*
X96500500Y-58905515D01*
X98799500Y-58905515D01*
X98799500Y-60094484D01*
X98829058Y-60281113D01*
X98887453Y-60460832D01*
X98940047Y-60564055D01*
X98973240Y-60629199D01*
X99084310Y-60782073D01*
X99217927Y-60915690D01*
X99370801Y-61026760D01*
X99471208Y-61077920D01*
X99495445Y-61090269D01*
X99538710Y-61133534D01*
X99549500Y-61178479D01*
X99549500Y-66940691D01*
X99549500Y-69859309D01*
X99573713Y-69949673D01*
X99573712Y-69949673D01*
X99580200Y-69973886D01*
X99580202Y-69973890D01*
X99639507Y-70076609D01*
X99639509Y-70076611D01*
X99639511Y-70076614D01*
X99873386Y-70310489D01*
X99873388Y-70310490D01*
X99873390Y-70310492D01*
X99976107Y-70369796D01*
X99976109Y-70369797D01*
X99976113Y-70369799D01*
X100000322Y-70376284D01*
X100000325Y-70376287D01*
X100000326Y-70376286D01*
X100090688Y-70400499D01*
X100090690Y-70400500D01*
X100090691Y-70400500D01*
X105852761Y-70400500D01*
X105902258Y-70413761D01*
X105906814Y-70416392D01*
X106034108Y-70450500D01*
X106034110Y-70450500D01*
X106165890Y-70450500D01*
X106165892Y-70450500D01*
X106293186Y-70416392D01*
X106293188Y-70416390D01*
X106293190Y-70416390D01*
X106407309Y-70350503D01*
X106407309Y-70350502D01*
X106407314Y-70350500D01*
X106500500Y-70257314D01*
X106535185Y-70197238D01*
X106566390Y-70143190D01*
X106566390Y-70143188D01*
X106566392Y-70143186D01*
X106600500Y-70015892D01*
X106600500Y-69884108D01*
X106566392Y-69756814D01*
X106566390Y-69756811D01*
X106566390Y-69756809D01*
X106500503Y-69642690D01*
X106500501Y-69642688D01*
X106500500Y-69642686D01*
X106407314Y-69549500D01*
X106407311Y-69549498D01*
X106407309Y-69549496D01*
X106293189Y-69483609D01*
X106293191Y-69483609D01*
X106243799Y-69470375D01*
X106165892Y-69449500D01*
X106034108Y-69449500D01*
X105949245Y-69472238D01*
X105906813Y-69483608D01*
X105902259Y-69486238D01*
X105852761Y-69499500D01*
X100549500Y-69499500D01*
X100491309Y-69480593D01*
X100455345Y-69431093D01*
X100450500Y-69400500D01*
X100450500Y-61178479D01*
X100469407Y-61120288D01*
X100504555Y-61090269D01*
X100526976Y-61078845D01*
X100629199Y-61026760D01*
X100782073Y-60915690D01*
X100915690Y-60782073D01*
X101026760Y-60629199D01*
X101112547Y-60460832D01*
X101170940Y-60281118D01*
X101178160Y-60235534D01*
X101200500Y-60094484D01*
X101200500Y-58905515D01*
X103499500Y-58905515D01*
X103499500Y-60094484D01*
X103529058Y-60281113D01*
X103587453Y-60460832D01*
X103640047Y-60564055D01*
X103673240Y-60629199D01*
X103784310Y-60782073D01*
X103917927Y-60915690D01*
X104070801Y-61026760D01*
X104239168Y-61112547D01*
X104418882Y-61170940D01*
X104418883Y-61170940D01*
X104418886Y-61170941D01*
X104605516Y-61200500D01*
X104605519Y-61200500D01*
X104794484Y-61200500D01*
X104981113Y-61170941D01*
X104981114Y-61170940D01*
X104981118Y-61170940D01*
X105160832Y-61112547D01*
X105329199Y-61026760D01*
X105482073Y-60915690D01*
X105615690Y-60782073D01*
X105726760Y-60629199D01*
X105812547Y-60460832D01*
X105870940Y-60281118D01*
X105878160Y-60235534D01*
X105900500Y-60094484D01*
X105900500Y-58905515D01*
X105870941Y-58718886D01*
X105862592Y-58693190D01*
X105812547Y-58539168D01*
X105726760Y-58370801D01*
X105615690Y-58217927D01*
X105482073Y-58084310D01*
X105329199Y-57973240D01*
X105329198Y-57973239D01*
X105329196Y-57973238D01*
X105160832Y-57887453D01*
X104981113Y-57829058D01*
X104794484Y-57799500D01*
X104794481Y-57799500D01*
X104605519Y-57799500D01*
X104605516Y-57799500D01*
X104418886Y-57829058D01*
X104239167Y-57887453D01*
X104070803Y-57973238D01*
X103917928Y-58084309D01*
X103784309Y-58217928D01*
X103673238Y-58370803D01*
X103587453Y-58539167D01*
X103529058Y-58718886D01*
X103499500Y-58905515D01*
X101200500Y-58905515D01*
X101170941Y-58718886D01*
X101162592Y-58693190D01*
X101112547Y-58539168D01*
X101026760Y-58370801D01*
X100915690Y-58217927D01*
X100782073Y-58084310D01*
X100629199Y-57973240D01*
X100629198Y-57973239D01*
X100629196Y-57973238D01*
X100460832Y-57887453D01*
X100281113Y-57829058D01*
X100094484Y-57799500D01*
X100094481Y-57799500D01*
X99905519Y-57799500D01*
X99905516Y-57799500D01*
X99718886Y-57829058D01*
X99539167Y-57887453D01*
X99370803Y-57973238D01*
X99217928Y-58084309D01*
X99084309Y-58217928D01*
X98973238Y-58370803D01*
X98887453Y-58539167D01*
X98829058Y-58718886D01*
X98799500Y-58905515D01*
X96500500Y-58905515D01*
X96470941Y-58718886D01*
X96462592Y-58693190D01*
X96412547Y-58539168D01*
X96326760Y-58370801D01*
X96215690Y-58217927D01*
X96082073Y-58084310D01*
X95929199Y-57973240D01*
X95929198Y-57973239D01*
X95929196Y-57973238D01*
X95760832Y-57887453D01*
X95581113Y-57829058D01*
X95394484Y-57799500D01*
X95394481Y-57799500D01*
X95205519Y-57799500D01*
X95205516Y-57799500D01*
X95018886Y-57829058D01*
X94839167Y-57887453D01*
X94670803Y-57973238D01*
X94517928Y-58084309D01*
X94384309Y-58217928D01*
X94273238Y-58370803D01*
X94187453Y-58539167D01*
X94129058Y-58718886D01*
X94099500Y-58905515D01*
X87850500Y-58905515D01*
X87850500Y-58898321D01*
X87869407Y-58840130D01*
X87879490Y-58828323D01*
X87900500Y-58807314D01*
X87951554Y-58718886D01*
X87966390Y-58693190D01*
X87966390Y-58693188D01*
X87966392Y-58693186D01*
X88000500Y-58565892D01*
X88000500Y-58434108D01*
X87966392Y-58306814D01*
X87966390Y-58306811D01*
X87966390Y-58306809D01*
X87900503Y-58192690D01*
X87900501Y-58192688D01*
X87900500Y-58192686D01*
X87807314Y-58099500D01*
X87807311Y-58099498D01*
X87807309Y-58099496D01*
X87693189Y-58033609D01*
X87693191Y-58033609D01*
X87643799Y-58020375D01*
X87565892Y-57999500D01*
X87434108Y-57999500D01*
X87356200Y-58020375D01*
X87306809Y-58033609D01*
X87192690Y-58099496D01*
X87099496Y-58192690D01*
X87033609Y-58306809D01*
X87033608Y-58306814D01*
X86999500Y-58434108D01*
X86999500Y-58565892D01*
X87025195Y-58661789D01*
X87033609Y-58693190D01*
X87099496Y-58807309D01*
X87099498Y-58807311D01*
X87099500Y-58807314D01*
X87120505Y-58828319D01*
X87148281Y-58882834D01*
X87149500Y-58898321D01*
X87149500Y-80013810D01*
X87130593Y-80072001D01*
X87120504Y-80083814D01*
X86419529Y-80784789D01*
X86404692Y-80810488D01*
X86400233Y-80818212D01*
X86373386Y-80864712D01*
X86349500Y-80953856D01*
X85241826Y-80953856D01*
X85780470Y-80415212D01*
X85826614Y-80335288D01*
X85850500Y-80246144D01*
X85850500Y-80153856D01*
X85850500Y-58898321D01*
X85869407Y-58840130D01*
X85879490Y-58828323D01*
X85900500Y-58807314D01*
X85951554Y-58718886D01*
X85966390Y-58693190D01*
X85966390Y-58693188D01*
X85966392Y-58693186D01*
X86000500Y-58565892D01*
X86000500Y-58434108D01*
X85966392Y-58306814D01*
X85966390Y-58306811D01*
X85966390Y-58306809D01*
X85900503Y-58192690D01*
X85900501Y-58192688D01*
X85900500Y-58192686D01*
X85807314Y-58099500D01*
X85807311Y-58099498D01*
X85807309Y-58099496D01*
X85693189Y-58033609D01*
X85693191Y-58033609D01*
X85643799Y-58020375D01*
X85565892Y-57999500D01*
X85434108Y-57999500D01*
X85356200Y-58020375D01*
X85306809Y-58033609D01*
X85192690Y-58099496D01*
X85099496Y-58192690D01*
X85033609Y-58306809D01*
X85033608Y-58306814D01*
X84999500Y-58434108D01*
X84999500Y-58565892D01*
X85025195Y-58661789D01*
X85033609Y-58693190D01*
X85099496Y-58807309D01*
X85099498Y-58807311D01*
X85099500Y-58807314D01*
X85120505Y-58828319D01*
X85148281Y-58882834D01*
X85149500Y-58898321D01*
X85149500Y-80013810D01*
X85130593Y-80072001D01*
X85120504Y-80083814D01*
X83633814Y-81570504D01*
X83579297Y-81598281D01*
X83563810Y-81599500D01*
X83534108Y-81599500D01*
X83456200Y-81620375D01*
X83406809Y-81633609D01*
X83292690Y-81699496D01*
X83199496Y-81792690D01*
X83133609Y-81906809D01*
X83129167Y-81923387D01*
X83099500Y-82034108D01*
X77500500Y-82034108D01*
X77491227Y-81999500D01*
X77466392Y-81906814D01*
X77466390Y-81906811D01*
X77466390Y-81906809D01*
X77400503Y-81792690D01*
X77400501Y-81792688D01*
X77400500Y-81792686D01*
X77307314Y-81699500D01*
X77307311Y-81699498D01*
X77307309Y-81699496D01*
X77193189Y-81633609D01*
X77193191Y-81633609D01*
X77143799Y-81620375D01*
X77065892Y-81599500D01*
X76934108Y-81599500D01*
X76856200Y-81620375D01*
X76806809Y-81633609D01*
X76692690Y-81699496D01*
X76599496Y-81792690D01*
X76535736Y-81903126D01*
X76490267Y-81944067D01*
X76429416Y-81950463D01*
X76376428Y-81919870D01*
X76364264Y-81903126D01*
X76300503Y-81792690D01*
X76300501Y-81792688D01*
X76300500Y-81792686D01*
X76207314Y-81699500D01*
X76207311Y-81699498D01*
X76207309Y-81699496D01*
X76093189Y-81633609D01*
X76093191Y-81633609D01*
X76043799Y-81620375D01*
X75965892Y-81599500D01*
X75834108Y-81599500D01*
X75756200Y-81620375D01*
X75706809Y-81633609D01*
X75592690Y-81699496D01*
X75499496Y-81792690D01*
X75433609Y-81906809D01*
X75429167Y-81923387D01*
X75399500Y-82034108D01*
X61750500Y-82034108D01*
X61750500Y-81926082D01*
X61721658Y-81781087D01*
X61665084Y-81644505D01*
X61582951Y-81521584D01*
X61478416Y-81417049D01*
X61355495Y-81334916D01*
X61355493Y-81334915D01*
X61218914Y-81278342D01*
X61073918Y-81249500D01*
X60926082Y-81249500D01*
X60926081Y-81249500D01*
X60781085Y-81278342D01*
X60644506Y-81334915D01*
X60521585Y-81417048D01*
X60417048Y-81521585D01*
X60334915Y-81644506D01*
X60278342Y-81781085D01*
X60249500Y-81926081D01*
X49648634Y-81926081D01*
X49663123Y-81886889D01*
X49818578Y-81466392D01*
X50075640Y-80771051D01*
X50076554Y-80768682D01*
X50615473Y-79424226D01*
X50616502Y-79421757D01*
X51191716Y-78092340D01*
X51192738Y-78090063D01*
X51803799Y-76776731D01*
X51804954Y-76774337D01*
X52451362Y-75478151D01*
X52452558Y-75475832D01*
X53133918Y-74197589D01*
X53135158Y-74195336D01*
X53850914Y-72936078D01*
X53852268Y-72933770D01*
X53872390Y-72900503D01*
X54601922Y-71694373D01*
X54603274Y-71692204D01*
X55386291Y-70473554D01*
X55387714Y-70471404D01*
X56203481Y-69274457D01*
X56204966Y-69272340D01*
X57052880Y-68097980D01*
X57054437Y-68095882D01*
X57933914Y-66944918D01*
X57935540Y-66942851D01*
X58845848Y-65816236D01*
X58847541Y-65814196D01*
X59788079Y-64712673D01*
X59789797Y-64710714D01*
X60759923Y-63635039D01*
X60761732Y-63633089D01*
X61760614Y-62584182D01*
X61762408Y-62582349D01*
X62789401Y-61560888D01*
X62791269Y-61559079D01*
X63845585Y-60565848D01*
X63847517Y-60564076D01*
X64928446Y-59599749D01*
X64930326Y-59598117D01*
X66037022Y-58663452D01*
X66038996Y-58661831D01*
X67170560Y-57757582D01*
X67172603Y-57755994D01*
X68328300Y-56882748D01*
X68330362Y-56881233D01*
X69509345Y-56039630D01*
X69511474Y-56038155D01*
X70712788Y-55228880D01*
X70714951Y-55227465D01*
X71937813Y-54451040D01*
X71940002Y-54449692D01*
X73183441Y-53706737D01*
X73185708Y-53705424D01*
X74448826Y-52996473D01*
X74451069Y-52995253D01*
X75732970Y-52320809D01*
X75735355Y-52319596D01*
X75895662Y-52240729D01*
X77035065Y-51680171D01*
X77037377Y-51679073D01*
X78353938Y-51075139D01*
X78356331Y-51074080D01*
X78861679Y-50858657D01*
X78922622Y-50853232D01*
X78975117Y-50884665D01*
X78999110Y-50940949D01*
X78999500Y-50949729D01*
X78999500Y-54065892D01*
X79029579Y-54178151D01*
X79033609Y-54193190D01*
X79099496Y-54307309D01*
X79099498Y-54307311D01*
X79099500Y-54307314D01*
X79192686Y-54400500D01*
X79192688Y-54400501D01*
X79192690Y-54400503D01*
X79306810Y-54466390D01*
X79306808Y-54466390D01*
X79306812Y-54466391D01*
X79306814Y-54466392D01*
X79434108Y-54500500D01*
X79434110Y-54500500D01*
X81565890Y-54500500D01*
X81565892Y-54500500D01*
X81693186Y-54466392D01*
X81693188Y-54466390D01*
X81693190Y-54466390D01*
X81807309Y-54400503D01*
X81807309Y-54400502D01*
X81807314Y-54400500D01*
X81900500Y-54307314D01*
X81928349Y-54259078D01*
X81966390Y-54193190D01*
X81966391Y-54193187D01*
X81966392Y-54193186D01*
X82000500Y-54065892D01*
X82000500Y-49691696D01*
X82019407Y-49633505D01*
X82066487Y-49598363D01*
X82651881Y-49391323D01*
X82653534Y-49390756D01*
X83639717Y-49063406D01*
X83641358Y-49062879D01*
X84633730Y-48754774D01*
X84635418Y-48754268D01*
X84872991Y-48685546D01*
X84934143Y-48687539D01*
X84982446Y-48725096D01*
X84999500Y-48780647D01*
X84999500Y-54065892D01*
X85029579Y-54178151D01*
X85033609Y-54193190D01*
X85099496Y-54307309D01*
X85099498Y-54307311D01*
X85099500Y-54307314D01*
X85192686Y-54400500D01*
X85192688Y-54400501D01*
X85192690Y-54400503D01*
X85306810Y-54466390D01*
X85306808Y-54466390D01*
X85306812Y-54466391D01*
X85306814Y-54466392D01*
X85434108Y-54500500D01*
X85434110Y-54500500D01*
X87565891Y-54500500D01*
X87565893Y-54500500D01*
X87693187Y-54466392D01*
X87693189Y-54466390D01*
X87693191Y-54466390D01*
X87807310Y-54400503D01*
X87807310Y-54400502D01*
X87807315Y-54400500D01*
X87900501Y-54307314D01*
X87928350Y-54259078D01*
X87966391Y-54193190D01*
X87966392Y-54193187D01*
X87966393Y-54193186D01*
X88000501Y-54065892D01*
X88000497Y-47944859D01*
X88019404Y-47886669D01*
X88068904Y-47850705D01*
X88077491Y-47848337D01*
X88135217Y-47835176D01*
X88599982Y-47729213D01*
X88601725Y-47728834D01*
X89589029Y-47523269D01*
X89590744Y-47522929D01*
X90581836Y-47336030D01*
X90583486Y-47335735D01*
X90883994Y-47284921D01*
X90944523Y-47293862D01*
X90988236Y-47336673D01*
X90999500Y-47382535D01*
X90999500Y-54065892D01*
X91029579Y-54178151D01*
X91033609Y-54193190D01*
X91099496Y-54307309D01*
X91099498Y-54307311D01*
X91099500Y-54307314D01*
X91192686Y-54400500D01*
X91192688Y-54400501D01*
X91192690Y-54400503D01*
X91306810Y-54466390D01*
X91306808Y-54466390D01*
X91306812Y-54466391D01*
X91306814Y-54466392D01*
X91434108Y-54500500D01*
X91434110Y-54500500D01*
X93565890Y-54500500D01*
X93565892Y-54500500D01*
X93693186Y-54466392D01*
X93693188Y-54466390D01*
X93693190Y-54466390D01*
X93807309Y-54400503D01*
X93807309Y-54400502D01*
X93807314Y-54400500D01*
X93900500Y-54307314D01*
X93928349Y-54259078D01*
X93966390Y-54193190D01*
X93966391Y-54193187D01*
X93966392Y-54193186D01*
X94000500Y-54065892D01*
X94000500Y-46930490D01*
X94019407Y-46872299D01*
X94068907Y-46836335D01*
X94088805Y-46832069D01*
X94882828Y-46745805D01*
X94885224Y-46745575D01*
X96209689Y-46634953D01*
X96212123Y-46634779D01*
X97539001Y-46557150D01*
X97541411Y-46557040D01*
X98869785Y-46512456D01*
X98872194Y-46512405D01*
X100201301Y-46500895D01*
X100203639Y-46500903D01*
G37*
%TD.AperFunction*%
%TD*%
M02*
