%TF.GenerationSoftware,KiCad,Pcbnew,9.0.6-9.0.6~ubuntu24.04.1*%
%TF.CreationDate,2025-12-17T14:29:43+07:00*%
%TF.ProjectId,esp32s3-gnss-base-station,65737033-3273-4332-9d67-6e73732d6261,0.1*%
%TF.SameCoordinates,Original*%
%TF.FileFunction,Legend,Top*%
%TF.FilePolarity,Positive*%
%FSLAX46Y46*%
G04 Gerber Fmt 4.6, Leading zero omitted, Abs format (unit mm)*
G04 Created by KiCad (PCBNEW 9.0.6-9.0.6~ubuntu24.04.1) date 2025-12-17 14:29:43*
%MOMM*%
%LPD*%
G01*
G04 APERTURE LIST*
%ADD10C,0.191421*%
%ADD11C,0.100000*%
%ADD12C,0.125000*%
%ADD13C,0.150000*%
%ADD14C,0.200000*%
%ADD15C,0.250000*%
%ADD16C,0.120000*%
%ADD17C,0.300000*%
%ADD18C,0.130000*%
%ADD19R,1.600000X0.800000*%
%ADD20R,2.200000X1.700000*%
%ADD21R,1.500000X2.000000*%
%ADD22C,1.500000*%
%ADD23R,0.860000X0.810000*%
%ADD24C,1.800000*%
%ADD25C,2.000000*%
%ADD26C,5.000000*%
%ADD27R,0.900000X0.800000*%
%ADD28R,0.800000X0.800000*%
%ADD29R,1.410000X1.350000*%
%ADD30R,0.810000X0.860000*%
%ADD31R,3.200000X3.200000*%
%ADD32O,0.900000X0.280000*%
%ADD33O,0.280000X0.900000*%
%ADD34R,0.540000X0.790000*%
%ADD35R,0.790000X0.540000*%
%ADD36R,1.100000X1.100000*%
%ADD37R,0.800000X1.500000*%
%ADD38R,1.500000X0.800000*%
%ADD39R,1.600000X3.500000*%
%ADD40R,2.300000X4.500000*%
%ADD41C,1.000000*%
%ADD42C,1.200000*%
%ADD43R,1.100000X0.600000*%
%ADD44R,0.400000X0.900000*%
%ADD45C,0.600000*%
%ADD46R,3.900000X3.900000*%
%ADD47R,1.500000X0.900000*%
%ADD48R,0.900000X1.500000*%
%ADD49C,1.700000*%
%ADD50R,1.700000X1.700000*%
%ADD51R,0.800000X0.900000*%
%ADD52R,1.000000X1.600000*%
%ADD53R,1.400000X2.000000*%
%ADD54R,2.000000X0.400000*%
%ADD55C,0.550000*%
%ADD56R,0.490000X1.180000*%
%ADD57R,0.490000X1.160000*%
%ADD58O,2.000000X3.000000*%
%ADD59C,1.600000*%
G04 APERTURE END LIST*
D10*
X148995710Y-118100000D02*
G75*
G02*
X148804290Y-118100000I-95710J0D01*
G01*
X148804290Y-118100000D02*
G75*
G02*
X148995710Y-118100000I95710J0D01*
G01*
X118795710Y-53600000D02*
G75*
G02*
X118604290Y-53600000I-95710J0D01*
G01*
X118604290Y-53600000D02*
G75*
G02*
X118795710Y-53600000I95710J0D01*
G01*
X115095710Y-128000000D02*
G75*
G02*
X114904290Y-128000000I-95710J0D01*
G01*
X114904290Y-128000000D02*
G75*
G02*
X115095710Y-128000000I95710J0D01*
G01*
X68995710Y-96900000D02*
G75*
G02*
X68804290Y-96900000I-95710J0D01*
G01*
X68804290Y-96900000D02*
G75*
G02*
X68995710Y-96900000I95710J0D01*
G01*
X143495710Y-83200000D02*
G75*
G02*
X143304290Y-83200000I-95710J0D01*
G01*
X143304290Y-83200000D02*
G75*
G02*
X143495710Y-83200000I95710J0D01*
G01*
X114995710Y-127690000D02*
G75*
G02*
X114804290Y-127690000I-95710J0D01*
G01*
X114804290Y-127690000D02*
G75*
G02*
X114995710Y-127690000I95710J0D01*
G01*
X147895710Y-92400000D02*
G75*
G02*
X147704290Y-92400000I-95710J0D01*
G01*
X147704290Y-92400000D02*
G75*
G02*
X147895710Y-92400000I95710J0D01*
G01*
X84795710Y-53600000D02*
G75*
G02*
X84604290Y-53600000I-95710J0D01*
G01*
X84604290Y-53600000D02*
G75*
G02*
X84795710Y-53600000I95710J0D01*
G01*
X90795710Y-53600000D02*
G75*
G02*
X90604290Y-53600000I-95710J0D01*
G01*
X90604290Y-53600000D02*
G75*
G02*
X90795710Y-53600000I95710J0D01*
G01*
X68995710Y-93200000D02*
G75*
G02*
X68804290Y-93200000I-95710J0D01*
G01*
X68804290Y-93200000D02*
G75*
G02*
X68995710Y-93200000I95710J0D01*
G01*
X96795710Y-53600000D02*
G75*
G02*
X96604290Y-53600000I-95710J0D01*
G01*
X96604290Y-53600000D02*
G75*
G02*
X96795710Y-53600000I95710J0D01*
G01*
X143595710Y-92000000D02*
G75*
G02*
X143404290Y-92000000I-95710J0D01*
G01*
X143404290Y-92000000D02*
G75*
G02*
X143595710Y-92000000I95710J0D01*
G01*
D11*
X80327693Y-127920038D02*
X80232455Y-127872419D01*
X80232455Y-127872419D02*
X80089598Y-127872419D01*
X80089598Y-127872419D02*
X79946741Y-127920038D01*
X79946741Y-127920038D02*
X79851503Y-128015276D01*
X79851503Y-128015276D02*
X79803884Y-128110514D01*
X79803884Y-128110514D02*
X79756265Y-128300990D01*
X79756265Y-128300990D02*
X79756265Y-128443847D01*
X79756265Y-128443847D02*
X79803884Y-128634323D01*
X79803884Y-128634323D02*
X79851503Y-128729561D01*
X79851503Y-128729561D02*
X79946741Y-128824800D01*
X79946741Y-128824800D02*
X80089598Y-128872419D01*
X80089598Y-128872419D02*
X80184836Y-128872419D01*
X80184836Y-128872419D02*
X80327693Y-128824800D01*
X80327693Y-128824800D02*
X80375312Y-128777180D01*
X80375312Y-128777180D02*
X80375312Y-128443847D01*
X80375312Y-128443847D02*
X80184836Y-128443847D01*
X80803884Y-128872419D02*
X80803884Y-127872419D01*
X80803884Y-127872419D02*
X81375312Y-128872419D01*
X81375312Y-128872419D02*
X81375312Y-127872419D01*
X81851503Y-128872419D02*
X81851503Y-127872419D01*
X81851503Y-127872419D02*
X82089598Y-127872419D01*
X82089598Y-127872419D02*
X82232455Y-127920038D01*
X82232455Y-127920038D02*
X82327693Y-128015276D01*
X82327693Y-128015276D02*
X82375312Y-128110514D01*
X82375312Y-128110514D02*
X82422931Y-128300990D01*
X82422931Y-128300990D02*
X82422931Y-128443847D01*
X82422931Y-128443847D02*
X82375312Y-128634323D01*
X82375312Y-128634323D02*
X82327693Y-128729561D01*
X82327693Y-128729561D02*
X82232455Y-128824800D01*
X82232455Y-128824800D02*
X82089598Y-128872419D01*
X82089598Y-128872419D02*
X81851503Y-128872419D01*
X91627693Y-140310094D02*
X91532455Y-140262475D01*
X91532455Y-140262475D02*
X91389598Y-140262475D01*
X91389598Y-140262475D02*
X91246741Y-140310094D01*
X91246741Y-140310094D02*
X91151503Y-140405332D01*
X91151503Y-140405332D02*
X91103884Y-140500570D01*
X91103884Y-140500570D02*
X91056265Y-140691046D01*
X91056265Y-140691046D02*
X91056265Y-140833903D01*
X91056265Y-140833903D02*
X91103884Y-141024379D01*
X91103884Y-141024379D02*
X91151503Y-141119617D01*
X91151503Y-141119617D02*
X91246741Y-141214856D01*
X91246741Y-141214856D02*
X91389598Y-141262475D01*
X91389598Y-141262475D02*
X91484836Y-141262475D01*
X91484836Y-141262475D02*
X91627693Y-141214856D01*
X91627693Y-141214856D02*
X91675312Y-141167236D01*
X91675312Y-141167236D02*
X91675312Y-140833903D01*
X91675312Y-140833903D02*
X91484836Y-140833903D01*
X92103884Y-141262475D02*
X92103884Y-140262475D01*
X92103884Y-140262475D02*
X92675312Y-141262475D01*
X92675312Y-141262475D02*
X92675312Y-140262475D01*
X93103884Y-141214856D02*
X93246741Y-141262475D01*
X93246741Y-141262475D02*
X93484836Y-141262475D01*
X93484836Y-141262475D02*
X93580074Y-141214856D01*
X93580074Y-141214856D02*
X93627693Y-141167236D01*
X93627693Y-141167236D02*
X93675312Y-141071998D01*
X93675312Y-141071998D02*
X93675312Y-140976760D01*
X93675312Y-140976760D02*
X93627693Y-140881522D01*
X93627693Y-140881522D02*
X93580074Y-140833903D01*
X93580074Y-140833903D02*
X93484836Y-140786284D01*
X93484836Y-140786284D02*
X93294360Y-140738665D01*
X93294360Y-140738665D02*
X93199122Y-140691046D01*
X93199122Y-140691046D02*
X93151503Y-140643427D01*
X93151503Y-140643427D02*
X93103884Y-140548189D01*
X93103884Y-140548189D02*
X93103884Y-140452951D01*
X93103884Y-140452951D02*
X93151503Y-140357713D01*
X93151503Y-140357713D02*
X93199122Y-140310094D01*
X93199122Y-140310094D02*
X93294360Y-140262475D01*
X93294360Y-140262475D02*
X93532455Y-140262475D01*
X93532455Y-140262475D02*
X93675312Y-140310094D01*
X94056265Y-141214856D02*
X94199122Y-141262475D01*
X94199122Y-141262475D02*
X94437217Y-141262475D01*
X94437217Y-141262475D02*
X94532455Y-141214856D01*
X94532455Y-141214856D02*
X94580074Y-141167236D01*
X94580074Y-141167236D02*
X94627693Y-141071998D01*
X94627693Y-141071998D02*
X94627693Y-140976760D01*
X94627693Y-140976760D02*
X94580074Y-140881522D01*
X94580074Y-140881522D02*
X94532455Y-140833903D01*
X94532455Y-140833903D02*
X94437217Y-140786284D01*
X94437217Y-140786284D02*
X94246741Y-140738665D01*
X94246741Y-140738665D02*
X94151503Y-140691046D01*
X94151503Y-140691046D02*
X94103884Y-140643427D01*
X94103884Y-140643427D02*
X94056265Y-140548189D01*
X94056265Y-140548189D02*
X94056265Y-140452951D01*
X94056265Y-140452951D02*
X94103884Y-140357713D01*
X94103884Y-140357713D02*
X94151503Y-140310094D01*
X94151503Y-140310094D02*
X94246741Y-140262475D01*
X94246741Y-140262475D02*
X94484836Y-140262475D01*
X94484836Y-140262475D02*
X94627693Y-140310094D01*
X96151503Y-140738665D02*
X96294360Y-140786284D01*
X96294360Y-140786284D02*
X96341979Y-140833903D01*
X96341979Y-140833903D02*
X96389598Y-140929141D01*
X96389598Y-140929141D02*
X96389598Y-141071998D01*
X96389598Y-141071998D02*
X96341979Y-141167236D01*
X96341979Y-141167236D02*
X96294360Y-141214856D01*
X96294360Y-141214856D02*
X96199122Y-141262475D01*
X96199122Y-141262475D02*
X95818170Y-141262475D01*
X95818170Y-141262475D02*
X95818170Y-140262475D01*
X95818170Y-140262475D02*
X96151503Y-140262475D01*
X96151503Y-140262475D02*
X96246741Y-140310094D01*
X96246741Y-140310094D02*
X96294360Y-140357713D01*
X96294360Y-140357713D02*
X96341979Y-140452951D01*
X96341979Y-140452951D02*
X96341979Y-140548189D01*
X96341979Y-140548189D02*
X96294360Y-140643427D01*
X96294360Y-140643427D02*
X96246741Y-140691046D01*
X96246741Y-140691046D02*
X96151503Y-140738665D01*
X96151503Y-140738665D02*
X95818170Y-140738665D01*
X97246741Y-141262475D02*
X97246741Y-140738665D01*
X97246741Y-140738665D02*
X97199122Y-140643427D01*
X97199122Y-140643427D02*
X97103884Y-140595808D01*
X97103884Y-140595808D02*
X96913408Y-140595808D01*
X96913408Y-140595808D02*
X96818170Y-140643427D01*
X97246741Y-141214856D02*
X97151503Y-141262475D01*
X97151503Y-141262475D02*
X96913408Y-141262475D01*
X96913408Y-141262475D02*
X96818170Y-141214856D01*
X96818170Y-141214856D02*
X96770551Y-141119617D01*
X96770551Y-141119617D02*
X96770551Y-141024379D01*
X96770551Y-141024379D02*
X96818170Y-140929141D01*
X96818170Y-140929141D02*
X96913408Y-140881522D01*
X96913408Y-140881522D02*
X97151503Y-140881522D01*
X97151503Y-140881522D02*
X97246741Y-140833903D01*
X97675313Y-141214856D02*
X97770551Y-141262475D01*
X97770551Y-141262475D02*
X97961027Y-141262475D01*
X97961027Y-141262475D02*
X98056265Y-141214856D01*
X98056265Y-141214856D02*
X98103884Y-141119617D01*
X98103884Y-141119617D02*
X98103884Y-141071998D01*
X98103884Y-141071998D02*
X98056265Y-140976760D01*
X98056265Y-140976760D02*
X97961027Y-140929141D01*
X97961027Y-140929141D02*
X97818170Y-140929141D01*
X97818170Y-140929141D02*
X97722932Y-140881522D01*
X97722932Y-140881522D02*
X97675313Y-140786284D01*
X97675313Y-140786284D02*
X97675313Y-140738665D01*
X97675313Y-140738665D02*
X97722932Y-140643427D01*
X97722932Y-140643427D02*
X97818170Y-140595808D01*
X97818170Y-140595808D02*
X97961027Y-140595808D01*
X97961027Y-140595808D02*
X98056265Y-140643427D01*
X98913408Y-141214856D02*
X98818170Y-141262475D01*
X98818170Y-141262475D02*
X98627694Y-141262475D01*
X98627694Y-141262475D02*
X98532456Y-141214856D01*
X98532456Y-141214856D02*
X98484837Y-141119617D01*
X98484837Y-141119617D02*
X98484837Y-140738665D01*
X98484837Y-140738665D02*
X98532456Y-140643427D01*
X98532456Y-140643427D02*
X98627694Y-140595808D01*
X98627694Y-140595808D02*
X98818170Y-140595808D01*
X98818170Y-140595808D02*
X98913408Y-140643427D01*
X98913408Y-140643427D02*
X98961027Y-140738665D01*
X98961027Y-140738665D02*
X98961027Y-140833903D01*
X98961027Y-140833903D02*
X98484837Y-140929141D01*
X100103885Y-141214856D02*
X100246742Y-141262475D01*
X100246742Y-141262475D02*
X100484837Y-141262475D01*
X100484837Y-141262475D02*
X100580075Y-141214856D01*
X100580075Y-141214856D02*
X100627694Y-141167236D01*
X100627694Y-141167236D02*
X100675313Y-141071998D01*
X100675313Y-141071998D02*
X100675313Y-140976760D01*
X100675313Y-140976760D02*
X100627694Y-140881522D01*
X100627694Y-140881522D02*
X100580075Y-140833903D01*
X100580075Y-140833903D02*
X100484837Y-140786284D01*
X100484837Y-140786284D02*
X100294361Y-140738665D01*
X100294361Y-140738665D02*
X100199123Y-140691046D01*
X100199123Y-140691046D02*
X100151504Y-140643427D01*
X100151504Y-140643427D02*
X100103885Y-140548189D01*
X100103885Y-140548189D02*
X100103885Y-140452951D01*
X100103885Y-140452951D02*
X100151504Y-140357713D01*
X100151504Y-140357713D02*
X100199123Y-140310094D01*
X100199123Y-140310094D02*
X100294361Y-140262475D01*
X100294361Y-140262475D02*
X100532456Y-140262475D01*
X100532456Y-140262475D02*
X100675313Y-140310094D01*
X100961028Y-140595808D02*
X101341980Y-140595808D01*
X101103885Y-140262475D02*
X101103885Y-141119617D01*
X101103885Y-141119617D02*
X101151504Y-141214856D01*
X101151504Y-141214856D02*
X101246742Y-141262475D01*
X101246742Y-141262475D02*
X101341980Y-141262475D01*
X102103885Y-141262475D02*
X102103885Y-140738665D01*
X102103885Y-140738665D02*
X102056266Y-140643427D01*
X102056266Y-140643427D02*
X101961028Y-140595808D01*
X101961028Y-140595808D02*
X101770552Y-140595808D01*
X101770552Y-140595808D02*
X101675314Y-140643427D01*
X102103885Y-141214856D02*
X102008647Y-141262475D01*
X102008647Y-141262475D02*
X101770552Y-141262475D01*
X101770552Y-141262475D02*
X101675314Y-141214856D01*
X101675314Y-141214856D02*
X101627695Y-141119617D01*
X101627695Y-141119617D02*
X101627695Y-141024379D01*
X101627695Y-141024379D02*
X101675314Y-140929141D01*
X101675314Y-140929141D02*
X101770552Y-140881522D01*
X101770552Y-140881522D02*
X102008647Y-140881522D01*
X102008647Y-140881522D02*
X102103885Y-140833903D01*
X102437219Y-140595808D02*
X102818171Y-140595808D01*
X102580076Y-140262475D02*
X102580076Y-141119617D01*
X102580076Y-141119617D02*
X102627695Y-141214856D01*
X102627695Y-141214856D02*
X102722933Y-141262475D01*
X102722933Y-141262475D02*
X102818171Y-141262475D01*
X103151505Y-141262475D02*
X103151505Y-140595808D01*
X103151505Y-140262475D02*
X103103886Y-140310094D01*
X103103886Y-140310094D02*
X103151505Y-140357713D01*
X103151505Y-140357713D02*
X103199124Y-140310094D01*
X103199124Y-140310094D02*
X103151505Y-140262475D01*
X103151505Y-140262475D02*
X103151505Y-140357713D01*
X103770552Y-141262475D02*
X103675314Y-141214856D01*
X103675314Y-141214856D02*
X103627695Y-141167236D01*
X103627695Y-141167236D02*
X103580076Y-141071998D01*
X103580076Y-141071998D02*
X103580076Y-140786284D01*
X103580076Y-140786284D02*
X103627695Y-140691046D01*
X103627695Y-140691046D02*
X103675314Y-140643427D01*
X103675314Y-140643427D02*
X103770552Y-140595808D01*
X103770552Y-140595808D02*
X103913409Y-140595808D01*
X103913409Y-140595808D02*
X104008647Y-140643427D01*
X104008647Y-140643427D02*
X104056266Y-140691046D01*
X104056266Y-140691046D02*
X104103885Y-140786284D01*
X104103885Y-140786284D02*
X104103885Y-141071998D01*
X104103885Y-141071998D02*
X104056266Y-141167236D01*
X104056266Y-141167236D02*
X104008647Y-141214856D01*
X104008647Y-141214856D02*
X103913409Y-141262475D01*
X103913409Y-141262475D02*
X103770552Y-141262475D01*
X104532457Y-140595808D02*
X104532457Y-141262475D01*
X104532457Y-140691046D02*
X104580076Y-140643427D01*
X104580076Y-140643427D02*
X104675314Y-140595808D01*
X104675314Y-140595808D02*
X104818171Y-140595808D01*
X104818171Y-140595808D02*
X104913409Y-140643427D01*
X104913409Y-140643427D02*
X104961028Y-140738665D01*
X104961028Y-140738665D02*
X104961028Y-141262475D01*
X90961027Y-141872419D02*
X91294360Y-142872419D01*
X91294360Y-142872419D02*
X91627693Y-141872419D01*
X92484836Y-142872419D02*
X91913408Y-142872419D01*
X92199122Y-142872419D02*
X92199122Y-141872419D01*
X92199122Y-141872419D02*
X92103884Y-142015276D01*
X92103884Y-142015276D02*
X92008646Y-142110514D01*
X92008646Y-142110514D02*
X91913408Y-142158133D01*
X92913408Y-142777180D02*
X92961027Y-142824800D01*
X92961027Y-142824800D02*
X92913408Y-142872419D01*
X92913408Y-142872419D02*
X92865789Y-142824800D01*
X92865789Y-142824800D02*
X92913408Y-142777180D01*
X92913408Y-142777180D02*
X92913408Y-142872419D01*
X93913407Y-142872419D02*
X93341979Y-142872419D01*
X93627693Y-142872419D02*
X93627693Y-141872419D01*
X93627693Y-141872419D02*
X93532455Y-142015276D01*
X93532455Y-142015276D02*
X93437217Y-142110514D01*
X93437217Y-142110514D02*
X93341979Y-142158133D01*
X79756265Y-123824800D02*
X79899122Y-123872419D01*
X79899122Y-123872419D02*
X80137217Y-123872419D01*
X80137217Y-123872419D02*
X80232455Y-123824800D01*
X80232455Y-123824800D02*
X80280074Y-123777180D01*
X80280074Y-123777180D02*
X80327693Y-123681942D01*
X80327693Y-123681942D02*
X80327693Y-123586704D01*
X80327693Y-123586704D02*
X80280074Y-123491466D01*
X80280074Y-123491466D02*
X80232455Y-123443847D01*
X80232455Y-123443847D02*
X80137217Y-123396228D01*
X80137217Y-123396228D02*
X79946741Y-123348609D01*
X79946741Y-123348609D02*
X79851503Y-123300990D01*
X79851503Y-123300990D02*
X79803884Y-123253371D01*
X79803884Y-123253371D02*
X79756265Y-123158133D01*
X79756265Y-123158133D02*
X79756265Y-123062895D01*
X79756265Y-123062895D02*
X79803884Y-122967657D01*
X79803884Y-122967657D02*
X79851503Y-122920038D01*
X79851503Y-122920038D02*
X79946741Y-122872419D01*
X79946741Y-122872419D02*
X80184836Y-122872419D01*
X80184836Y-122872419D02*
X80327693Y-122920038D01*
X81327693Y-123777180D02*
X81280074Y-123824800D01*
X81280074Y-123824800D02*
X81137217Y-123872419D01*
X81137217Y-123872419D02*
X81041979Y-123872419D01*
X81041979Y-123872419D02*
X80899122Y-123824800D01*
X80899122Y-123824800D02*
X80803884Y-123729561D01*
X80803884Y-123729561D02*
X80756265Y-123634323D01*
X80756265Y-123634323D02*
X80708646Y-123443847D01*
X80708646Y-123443847D02*
X80708646Y-123300990D01*
X80708646Y-123300990D02*
X80756265Y-123110514D01*
X80756265Y-123110514D02*
X80803884Y-123015276D01*
X80803884Y-123015276D02*
X80899122Y-122920038D01*
X80899122Y-122920038D02*
X81041979Y-122872419D01*
X81041979Y-122872419D02*
X81137217Y-122872419D01*
X81137217Y-122872419D02*
X81280074Y-122920038D01*
X81280074Y-122920038D02*
X81327693Y-122967657D01*
X82232455Y-123872419D02*
X81756265Y-123872419D01*
X81756265Y-123872419D02*
X81756265Y-122872419D01*
X79756265Y-121324800D02*
X79899122Y-121372419D01*
X79899122Y-121372419D02*
X80137217Y-121372419D01*
X80137217Y-121372419D02*
X80232455Y-121324800D01*
X80232455Y-121324800D02*
X80280074Y-121277180D01*
X80280074Y-121277180D02*
X80327693Y-121181942D01*
X80327693Y-121181942D02*
X80327693Y-121086704D01*
X80327693Y-121086704D02*
X80280074Y-120991466D01*
X80280074Y-120991466D02*
X80232455Y-120943847D01*
X80232455Y-120943847D02*
X80137217Y-120896228D01*
X80137217Y-120896228D02*
X79946741Y-120848609D01*
X79946741Y-120848609D02*
X79851503Y-120800990D01*
X79851503Y-120800990D02*
X79803884Y-120753371D01*
X79803884Y-120753371D02*
X79756265Y-120658133D01*
X79756265Y-120658133D02*
X79756265Y-120562895D01*
X79756265Y-120562895D02*
X79803884Y-120467657D01*
X79803884Y-120467657D02*
X79851503Y-120420038D01*
X79851503Y-120420038D02*
X79946741Y-120372419D01*
X79946741Y-120372419D02*
X80184836Y-120372419D01*
X80184836Y-120372419D02*
X80327693Y-120420038D01*
X80756265Y-121372419D02*
X80756265Y-120372419D01*
X80756265Y-120372419D02*
X80994360Y-120372419D01*
X80994360Y-120372419D02*
X81137217Y-120420038D01*
X81137217Y-120420038D02*
X81232455Y-120515276D01*
X81232455Y-120515276D02*
X81280074Y-120610514D01*
X81280074Y-120610514D02*
X81327693Y-120800990D01*
X81327693Y-120800990D02*
X81327693Y-120943847D01*
X81327693Y-120943847D02*
X81280074Y-121134323D01*
X81280074Y-121134323D02*
X81232455Y-121229561D01*
X81232455Y-121229561D02*
X81137217Y-121324800D01*
X81137217Y-121324800D02*
X80994360Y-121372419D01*
X80994360Y-121372419D02*
X80756265Y-121372419D01*
X81708646Y-121086704D02*
X82184836Y-121086704D01*
X81613408Y-121372419D02*
X81946741Y-120372419D01*
X81946741Y-120372419D02*
X82280074Y-121372419D01*
X101594247Y-61208646D02*
X101594247Y-61446741D01*
X101594247Y-61446741D02*
X103022819Y-61446741D01*
X103022819Y-61446741D02*
X103022819Y-61208646D01*
D12*
X121377474Y-71971119D02*
X121948902Y-71971119D01*
X121663188Y-72971119D02*
X121663188Y-71971119D01*
X122282236Y-72971119D02*
X122282236Y-71971119D01*
X122282236Y-71971119D02*
X122663188Y-71971119D01*
X122663188Y-71971119D02*
X122758426Y-72018738D01*
X122758426Y-72018738D02*
X122806045Y-72066357D01*
X122806045Y-72066357D02*
X122853664Y-72161595D01*
X122853664Y-72161595D02*
X122853664Y-72304452D01*
X122853664Y-72304452D02*
X122806045Y-72399690D01*
X122806045Y-72399690D02*
X122758426Y-72447309D01*
X122758426Y-72447309D02*
X122663188Y-72494928D01*
X122663188Y-72494928D02*
X122282236Y-72494928D01*
X123282236Y-72590166D02*
X124044141Y-72590166D01*
X123663188Y-72971119D02*
X123663188Y-72209214D01*
X124996521Y-71971119D02*
X124520331Y-71971119D01*
X124520331Y-71971119D02*
X124472712Y-72447309D01*
X124472712Y-72447309D02*
X124520331Y-72399690D01*
X124520331Y-72399690D02*
X124615569Y-72352071D01*
X124615569Y-72352071D02*
X124853664Y-72352071D01*
X124853664Y-72352071D02*
X124948902Y-72399690D01*
X124948902Y-72399690D02*
X124996521Y-72447309D01*
X124996521Y-72447309D02*
X125044140Y-72542547D01*
X125044140Y-72542547D02*
X125044140Y-72780642D01*
X125044140Y-72780642D02*
X124996521Y-72875880D01*
X124996521Y-72875880D02*
X124948902Y-72923500D01*
X124948902Y-72923500D02*
X124853664Y-72971119D01*
X124853664Y-72971119D02*
X124615569Y-72971119D01*
X124615569Y-72971119D02*
X124520331Y-72923500D01*
X124520331Y-72923500D02*
X124472712Y-72875880D01*
X125472712Y-72875880D02*
X125520331Y-72923500D01*
X125520331Y-72923500D02*
X125472712Y-72971119D01*
X125472712Y-72971119D02*
X125425093Y-72923500D01*
X125425093Y-72923500D02*
X125472712Y-72875880D01*
X125472712Y-72875880D02*
X125472712Y-72971119D01*
X126139378Y-71971119D02*
X126234616Y-71971119D01*
X126234616Y-71971119D02*
X126329854Y-72018738D01*
X126329854Y-72018738D02*
X126377473Y-72066357D01*
X126377473Y-72066357D02*
X126425092Y-72161595D01*
X126425092Y-72161595D02*
X126472711Y-72352071D01*
X126472711Y-72352071D02*
X126472711Y-72590166D01*
X126472711Y-72590166D02*
X126425092Y-72780642D01*
X126425092Y-72780642D02*
X126377473Y-72875880D01*
X126377473Y-72875880D02*
X126329854Y-72923500D01*
X126329854Y-72923500D02*
X126234616Y-72971119D01*
X126234616Y-72971119D02*
X126139378Y-72971119D01*
X126139378Y-72971119D02*
X126044140Y-72923500D01*
X126044140Y-72923500D02*
X125996521Y-72875880D01*
X125996521Y-72875880D02*
X125948902Y-72780642D01*
X125948902Y-72780642D02*
X125901283Y-72590166D01*
X125901283Y-72590166D02*
X125901283Y-72352071D01*
X125901283Y-72352071D02*
X125948902Y-72161595D01*
X125948902Y-72161595D02*
X125996521Y-72066357D01*
X125996521Y-72066357D02*
X126044140Y-72018738D01*
X126044140Y-72018738D02*
X126139378Y-71971119D01*
X112003664Y-72417309D02*
X112146521Y-72464928D01*
X112146521Y-72464928D02*
X112194140Y-72512547D01*
X112194140Y-72512547D02*
X112241759Y-72607785D01*
X112241759Y-72607785D02*
X112241759Y-72750642D01*
X112241759Y-72750642D02*
X112194140Y-72845880D01*
X112194140Y-72845880D02*
X112146521Y-72893500D01*
X112146521Y-72893500D02*
X112051283Y-72941119D01*
X112051283Y-72941119D02*
X111670331Y-72941119D01*
X111670331Y-72941119D02*
X111670331Y-71941119D01*
X111670331Y-71941119D02*
X112003664Y-71941119D01*
X112003664Y-71941119D02*
X112098902Y-71988738D01*
X112098902Y-71988738D02*
X112146521Y-72036357D01*
X112146521Y-72036357D02*
X112194140Y-72131595D01*
X112194140Y-72131595D02*
X112194140Y-72226833D01*
X112194140Y-72226833D02*
X112146521Y-72322071D01*
X112146521Y-72322071D02*
X112098902Y-72369690D01*
X112098902Y-72369690D02*
X112003664Y-72417309D01*
X112003664Y-72417309D02*
X111670331Y-72417309D01*
X112622712Y-72655404D02*
X113098902Y-72655404D01*
X112527474Y-72941119D02*
X112860807Y-71941119D01*
X112860807Y-71941119D02*
X113194140Y-72941119D01*
X113384617Y-71941119D02*
X113956045Y-71941119D01*
X113670331Y-72941119D02*
X113670331Y-71941119D01*
X114289379Y-72560166D02*
X115051284Y-72560166D01*
X114670331Y-72941119D02*
X114670331Y-72179214D01*
D11*
X106303884Y-57991466D02*
X107065789Y-57991466D01*
X106684836Y-58372419D02*
X106684836Y-57610514D01*
D12*
X139777474Y-78071119D02*
X140348902Y-78071119D01*
X140063188Y-79071119D02*
X140063188Y-78071119D01*
X140682236Y-79071119D02*
X140682236Y-78071119D01*
X140682236Y-78071119D02*
X141063188Y-78071119D01*
X141063188Y-78071119D02*
X141158426Y-78118738D01*
X141158426Y-78118738D02*
X141206045Y-78166357D01*
X141206045Y-78166357D02*
X141253664Y-78261595D01*
X141253664Y-78261595D02*
X141253664Y-78404452D01*
X141253664Y-78404452D02*
X141206045Y-78499690D01*
X141206045Y-78499690D02*
X141158426Y-78547309D01*
X141158426Y-78547309D02*
X141063188Y-78594928D01*
X141063188Y-78594928D02*
X140682236Y-78594928D01*
X141682236Y-78690166D02*
X142444141Y-78690166D01*
X142063188Y-79071119D02*
X142063188Y-78309214D01*
X143348902Y-78404452D02*
X143348902Y-79071119D01*
X143110807Y-78023500D02*
X142872712Y-78737785D01*
X142872712Y-78737785D02*
X143491759Y-78737785D01*
X143872712Y-78975880D02*
X143920331Y-79023500D01*
X143920331Y-79023500D02*
X143872712Y-79071119D01*
X143872712Y-79071119D02*
X143825093Y-79023500D01*
X143825093Y-79023500D02*
X143872712Y-78975880D01*
X143872712Y-78975880D02*
X143872712Y-79071119D01*
X144301283Y-78166357D02*
X144348902Y-78118738D01*
X144348902Y-78118738D02*
X144444140Y-78071119D01*
X144444140Y-78071119D02*
X144682235Y-78071119D01*
X144682235Y-78071119D02*
X144777473Y-78118738D01*
X144777473Y-78118738D02*
X144825092Y-78166357D01*
X144825092Y-78166357D02*
X144872711Y-78261595D01*
X144872711Y-78261595D02*
X144872711Y-78356833D01*
X144872711Y-78356833D02*
X144825092Y-78499690D01*
X144825092Y-78499690D02*
X144253664Y-79071119D01*
X144253664Y-79071119D02*
X144872711Y-79071119D01*
D11*
X79708646Y-125372419D02*
X80327693Y-125372419D01*
X80327693Y-125372419D02*
X79994360Y-125753371D01*
X79994360Y-125753371D02*
X80137217Y-125753371D01*
X80137217Y-125753371D02*
X80232455Y-125800990D01*
X80232455Y-125800990D02*
X80280074Y-125848609D01*
X80280074Y-125848609D02*
X80327693Y-125943847D01*
X80327693Y-125943847D02*
X80327693Y-126181942D01*
X80327693Y-126181942D02*
X80280074Y-126277180D01*
X80280074Y-126277180D02*
X80232455Y-126324800D01*
X80232455Y-126324800D02*
X80137217Y-126372419D01*
X80137217Y-126372419D02*
X79851503Y-126372419D01*
X79851503Y-126372419D02*
X79756265Y-126324800D01*
X79756265Y-126324800D02*
X79708646Y-126277180D01*
X80613408Y-125372419D02*
X80946741Y-126372419D01*
X80946741Y-126372419D02*
X81280074Y-125372419D01*
X81518170Y-125372419D02*
X82137217Y-125372419D01*
X82137217Y-125372419D02*
X81803884Y-125753371D01*
X81803884Y-125753371D02*
X81946741Y-125753371D01*
X81946741Y-125753371D02*
X82041979Y-125800990D01*
X82041979Y-125800990D02*
X82089598Y-125848609D01*
X82089598Y-125848609D02*
X82137217Y-125943847D01*
X82137217Y-125943847D02*
X82137217Y-126181942D01*
X82137217Y-126181942D02*
X82089598Y-126277180D01*
X82089598Y-126277180D02*
X82041979Y-126324800D01*
X82041979Y-126324800D02*
X81946741Y-126372419D01*
X81946741Y-126372419D02*
X81661027Y-126372419D01*
X81661027Y-126372419D02*
X81565789Y-126324800D01*
X81565789Y-126324800D02*
X81518170Y-126277180D01*
D13*
X143523809Y-98907200D02*
X143666666Y-98954819D01*
X143666666Y-98954819D02*
X143904761Y-98954819D01*
X143904761Y-98954819D02*
X143999999Y-98907200D01*
X143999999Y-98907200D02*
X144047618Y-98859580D01*
X144047618Y-98859580D02*
X144095237Y-98764342D01*
X144095237Y-98764342D02*
X144095237Y-98669104D01*
X144095237Y-98669104D02*
X144047618Y-98573866D01*
X144047618Y-98573866D02*
X143999999Y-98526247D01*
X143999999Y-98526247D02*
X143904761Y-98478628D01*
X143904761Y-98478628D02*
X143714285Y-98431009D01*
X143714285Y-98431009D02*
X143619047Y-98383390D01*
X143619047Y-98383390D02*
X143571428Y-98335771D01*
X143571428Y-98335771D02*
X143523809Y-98240533D01*
X143523809Y-98240533D02*
X143523809Y-98145295D01*
X143523809Y-98145295D02*
X143571428Y-98050057D01*
X143571428Y-98050057D02*
X143619047Y-98002438D01*
X143619047Y-98002438D02*
X143714285Y-97954819D01*
X143714285Y-97954819D02*
X143952380Y-97954819D01*
X143952380Y-97954819D02*
X144095237Y-98002438D01*
X144523809Y-98954819D02*
X144523809Y-97954819D01*
X144523809Y-97954819D02*
X144761904Y-97954819D01*
X144761904Y-97954819D02*
X144904761Y-98002438D01*
X144904761Y-98002438D02*
X144999999Y-98097676D01*
X144999999Y-98097676D02*
X145047618Y-98192914D01*
X145047618Y-98192914D02*
X145095237Y-98383390D01*
X145095237Y-98383390D02*
X145095237Y-98526247D01*
X145095237Y-98526247D02*
X145047618Y-98716723D01*
X145047618Y-98716723D02*
X144999999Y-98811961D01*
X144999999Y-98811961D02*
X144904761Y-98907200D01*
X144904761Y-98907200D02*
X144761904Y-98954819D01*
X144761904Y-98954819D02*
X144523809Y-98954819D01*
X146095237Y-98859580D02*
X146047618Y-98907200D01*
X146047618Y-98907200D02*
X145904761Y-98954819D01*
X145904761Y-98954819D02*
X145809523Y-98954819D01*
X145809523Y-98954819D02*
X145666666Y-98907200D01*
X145666666Y-98907200D02*
X145571428Y-98811961D01*
X145571428Y-98811961D02*
X145523809Y-98716723D01*
X145523809Y-98716723D02*
X145476190Y-98526247D01*
X145476190Y-98526247D02*
X145476190Y-98383390D01*
X145476190Y-98383390D02*
X145523809Y-98192914D01*
X145523809Y-98192914D02*
X145571428Y-98097676D01*
X145571428Y-98097676D02*
X145666666Y-98002438D01*
X145666666Y-98002438D02*
X145809523Y-97954819D01*
X145809523Y-97954819D02*
X145904761Y-97954819D01*
X145904761Y-97954819D02*
X146047618Y-98002438D01*
X146047618Y-98002438D02*
X146095237Y-98050057D01*
X146952380Y-98954819D02*
X146952380Y-98431009D01*
X146952380Y-98431009D02*
X146904761Y-98335771D01*
X146904761Y-98335771D02*
X146809523Y-98288152D01*
X146809523Y-98288152D02*
X146619047Y-98288152D01*
X146619047Y-98288152D02*
X146523809Y-98335771D01*
X146952380Y-98907200D02*
X146857142Y-98954819D01*
X146857142Y-98954819D02*
X146619047Y-98954819D01*
X146619047Y-98954819D02*
X146523809Y-98907200D01*
X146523809Y-98907200D02*
X146476190Y-98811961D01*
X146476190Y-98811961D02*
X146476190Y-98716723D01*
X146476190Y-98716723D02*
X146523809Y-98621485D01*
X146523809Y-98621485D02*
X146619047Y-98573866D01*
X146619047Y-98573866D02*
X146857142Y-98573866D01*
X146857142Y-98573866D02*
X146952380Y-98526247D01*
X147428571Y-98954819D02*
X147428571Y-98288152D01*
X147428571Y-98478628D02*
X147476190Y-98383390D01*
X147476190Y-98383390D02*
X147523809Y-98335771D01*
X147523809Y-98335771D02*
X147619047Y-98288152D01*
X147619047Y-98288152D02*
X147714285Y-98288152D01*
X148476190Y-98954819D02*
X148476190Y-97954819D01*
X148476190Y-98907200D02*
X148380952Y-98954819D01*
X148380952Y-98954819D02*
X148190476Y-98954819D01*
X148190476Y-98954819D02*
X148095238Y-98907200D01*
X148095238Y-98907200D02*
X148047619Y-98859580D01*
X148047619Y-98859580D02*
X148000000Y-98764342D01*
X148000000Y-98764342D02*
X148000000Y-98478628D01*
X148000000Y-98478628D02*
X148047619Y-98383390D01*
X148047619Y-98383390D02*
X148095238Y-98335771D01*
X148095238Y-98335771D02*
X148190476Y-98288152D01*
X148190476Y-98288152D02*
X148380952Y-98288152D01*
X148380952Y-98288152D02*
X148476190Y-98335771D01*
X149476190Y-98954819D02*
X148904762Y-98954819D01*
X149190476Y-98954819D02*
X149190476Y-97954819D01*
X149190476Y-97954819D02*
X149095238Y-98097676D01*
X149095238Y-98097676D02*
X149000000Y-98192914D01*
X149000000Y-98192914D02*
X148904762Y-98240533D01*
X89928572Y-72573866D02*
X90690477Y-72573866D01*
X90309524Y-72954819D02*
X90309524Y-72192914D01*
X91071429Y-71954819D02*
X91690476Y-71954819D01*
X91690476Y-71954819D02*
X91357143Y-72335771D01*
X91357143Y-72335771D02*
X91500000Y-72335771D01*
X91500000Y-72335771D02*
X91595238Y-72383390D01*
X91595238Y-72383390D02*
X91642857Y-72431009D01*
X91642857Y-72431009D02*
X91690476Y-72526247D01*
X91690476Y-72526247D02*
X91690476Y-72764342D01*
X91690476Y-72764342D02*
X91642857Y-72859580D01*
X91642857Y-72859580D02*
X91595238Y-72907200D01*
X91595238Y-72907200D02*
X91500000Y-72954819D01*
X91500000Y-72954819D02*
X91214286Y-72954819D01*
X91214286Y-72954819D02*
X91119048Y-72907200D01*
X91119048Y-72907200D02*
X91071429Y-72859580D01*
X92119048Y-72859580D02*
X92166667Y-72907200D01*
X92166667Y-72907200D02*
X92119048Y-72954819D01*
X92119048Y-72954819D02*
X92071429Y-72907200D01*
X92071429Y-72907200D02*
X92119048Y-72859580D01*
X92119048Y-72859580D02*
X92119048Y-72954819D01*
X92500000Y-71954819D02*
X93119047Y-71954819D01*
X93119047Y-71954819D02*
X92785714Y-72335771D01*
X92785714Y-72335771D02*
X92928571Y-72335771D01*
X92928571Y-72335771D02*
X93023809Y-72383390D01*
X93023809Y-72383390D02*
X93071428Y-72431009D01*
X93071428Y-72431009D02*
X93119047Y-72526247D01*
X93119047Y-72526247D02*
X93119047Y-72764342D01*
X93119047Y-72764342D02*
X93071428Y-72859580D01*
X93071428Y-72859580D02*
X93023809Y-72907200D01*
X93023809Y-72907200D02*
X92928571Y-72954819D01*
X92928571Y-72954819D02*
X92642857Y-72954819D01*
X92642857Y-72954819D02*
X92547619Y-72907200D01*
X92547619Y-72907200D02*
X92500000Y-72859580D01*
X136454819Y-102142857D02*
X135978628Y-102476190D01*
X136454819Y-102714285D02*
X135454819Y-102714285D01*
X135454819Y-102714285D02*
X135454819Y-102333333D01*
X135454819Y-102333333D02*
X135502438Y-102238095D01*
X135502438Y-102238095D02*
X135550057Y-102190476D01*
X135550057Y-102190476D02*
X135645295Y-102142857D01*
X135645295Y-102142857D02*
X135788152Y-102142857D01*
X135788152Y-102142857D02*
X135883390Y-102190476D01*
X135883390Y-102190476D02*
X135931009Y-102238095D01*
X135931009Y-102238095D02*
X135978628Y-102333333D01*
X135978628Y-102333333D02*
X135978628Y-102714285D01*
X136454819Y-101190476D02*
X136454819Y-101761904D01*
X136454819Y-101476190D02*
X135454819Y-101476190D01*
X135454819Y-101476190D02*
X135597676Y-101571428D01*
X135597676Y-101571428D02*
X135692914Y-101666666D01*
X135692914Y-101666666D02*
X135740533Y-101761904D01*
X135454819Y-100285714D02*
X135454819Y-100761904D01*
X135454819Y-100761904D02*
X135931009Y-100809523D01*
X135931009Y-100809523D02*
X135883390Y-100761904D01*
X135883390Y-100761904D02*
X135835771Y-100666666D01*
X135835771Y-100666666D02*
X135835771Y-100428571D01*
X135835771Y-100428571D02*
X135883390Y-100333333D01*
X135883390Y-100333333D02*
X135931009Y-100285714D01*
X135931009Y-100285714D02*
X136026247Y-100238095D01*
X136026247Y-100238095D02*
X136264342Y-100238095D01*
X136264342Y-100238095D02*
X136359580Y-100285714D01*
X136359580Y-100285714D02*
X136407200Y-100333333D01*
X136407200Y-100333333D02*
X136454819Y-100428571D01*
X136454819Y-100428571D02*
X136454819Y-100666666D01*
X136454819Y-100666666D02*
X136407200Y-100761904D01*
X136407200Y-100761904D02*
X136359580Y-100809523D01*
X99238095Y-94954819D02*
X99238095Y-95764342D01*
X99238095Y-95764342D02*
X99285714Y-95859580D01*
X99285714Y-95859580D02*
X99333333Y-95907200D01*
X99333333Y-95907200D02*
X99428571Y-95954819D01*
X99428571Y-95954819D02*
X99619047Y-95954819D01*
X99619047Y-95954819D02*
X99714285Y-95907200D01*
X99714285Y-95907200D02*
X99761904Y-95859580D01*
X99761904Y-95859580D02*
X99809523Y-95764342D01*
X99809523Y-95764342D02*
X99809523Y-94954819D01*
X100714285Y-94954819D02*
X100523809Y-94954819D01*
X100523809Y-94954819D02*
X100428571Y-95002438D01*
X100428571Y-95002438D02*
X100380952Y-95050057D01*
X100380952Y-95050057D02*
X100285714Y-95192914D01*
X100285714Y-95192914D02*
X100238095Y-95383390D01*
X100238095Y-95383390D02*
X100238095Y-95764342D01*
X100238095Y-95764342D02*
X100285714Y-95859580D01*
X100285714Y-95859580D02*
X100333333Y-95907200D01*
X100333333Y-95907200D02*
X100428571Y-95954819D01*
X100428571Y-95954819D02*
X100619047Y-95954819D01*
X100619047Y-95954819D02*
X100714285Y-95907200D01*
X100714285Y-95907200D02*
X100761904Y-95859580D01*
X100761904Y-95859580D02*
X100809523Y-95764342D01*
X100809523Y-95764342D02*
X100809523Y-95526247D01*
X100809523Y-95526247D02*
X100761904Y-95431009D01*
X100761904Y-95431009D02*
X100714285Y-95383390D01*
X100714285Y-95383390D02*
X100619047Y-95335771D01*
X100619047Y-95335771D02*
X100428571Y-95335771D01*
X100428571Y-95335771D02*
X100333333Y-95383390D01*
X100333333Y-95383390D02*
X100285714Y-95431009D01*
X100285714Y-95431009D02*
X100238095Y-95526247D01*
X75238095Y-57454819D02*
X75238095Y-56454819D01*
X75238095Y-56931009D02*
X75809523Y-56931009D01*
X75809523Y-57454819D02*
X75809523Y-56454819D01*
X76809523Y-57454819D02*
X76238095Y-57454819D01*
X76523809Y-57454819D02*
X76523809Y-56454819D01*
X76523809Y-56454819D02*
X76428571Y-56597676D01*
X76428571Y-56597676D02*
X76333333Y-56692914D01*
X76333333Y-56692914D02*
X76238095Y-56740533D01*
X114359580Y-132666666D02*
X114407200Y-132714285D01*
X114407200Y-132714285D02*
X114454819Y-132857142D01*
X114454819Y-132857142D02*
X114454819Y-132952380D01*
X114454819Y-132952380D02*
X114407200Y-133095237D01*
X114407200Y-133095237D02*
X114311961Y-133190475D01*
X114311961Y-133190475D02*
X114216723Y-133238094D01*
X114216723Y-133238094D02*
X114026247Y-133285713D01*
X114026247Y-133285713D02*
X113883390Y-133285713D01*
X113883390Y-133285713D02*
X113692914Y-133238094D01*
X113692914Y-133238094D02*
X113597676Y-133190475D01*
X113597676Y-133190475D02*
X113502438Y-133095237D01*
X113502438Y-133095237D02*
X113454819Y-132952380D01*
X113454819Y-132952380D02*
X113454819Y-132857142D01*
X113454819Y-132857142D02*
X113502438Y-132714285D01*
X113502438Y-132714285D02*
X113550057Y-132666666D01*
X113788152Y-131809523D02*
X114454819Y-131809523D01*
X113407200Y-132047618D02*
X114121485Y-132285713D01*
X114121485Y-132285713D02*
X114121485Y-131666666D01*
X95954819Y-57119047D02*
X95954819Y-57595237D01*
X95954819Y-57595237D02*
X94954819Y-57595237D01*
X95431009Y-56785713D02*
X95431009Y-56452380D01*
X95954819Y-56309523D02*
X95954819Y-56785713D01*
X95954819Y-56785713D02*
X94954819Y-56785713D01*
X94954819Y-56785713D02*
X94954819Y-56309523D01*
X95954819Y-55880951D02*
X94954819Y-55880951D01*
X94954819Y-55880951D02*
X94954819Y-55642856D01*
X94954819Y-55642856D02*
X95002438Y-55499999D01*
X95002438Y-55499999D02*
X95097676Y-55404761D01*
X95097676Y-55404761D02*
X95192914Y-55357142D01*
X95192914Y-55357142D02*
X95383390Y-55309523D01*
X95383390Y-55309523D02*
X95526247Y-55309523D01*
X95526247Y-55309523D02*
X95716723Y-55357142D01*
X95716723Y-55357142D02*
X95811961Y-55404761D01*
X95811961Y-55404761D02*
X95907200Y-55499999D01*
X95907200Y-55499999D02*
X95954819Y-55642856D01*
X95954819Y-55642856D02*
X95954819Y-55880951D01*
X95050057Y-54928570D02*
X95002438Y-54880951D01*
X95002438Y-54880951D02*
X94954819Y-54785713D01*
X94954819Y-54785713D02*
X94954819Y-54547618D01*
X94954819Y-54547618D02*
X95002438Y-54452380D01*
X95002438Y-54452380D02*
X95050057Y-54404761D01*
X95050057Y-54404761D02*
X95145295Y-54357142D01*
X95145295Y-54357142D02*
X95240533Y-54357142D01*
X95240533Y-54357142D02*
X95383390Y-54404761D01*
X95383390Y-54404761D02*
X95954819Y-54976189D01*
X95954819Y-54976189D02*
X95954819Y-54357142D01*
X133238095Y-95454819D02*
X133238095Y-94454819D01*
X133238095Y-94931009D02*
X133809523Y-94931009D01*
X133809523Y-95454819D02*
X133809523Y-94454819D01*
X134190476Y-94454819D02*
X134809523Y-94454819D01*
X134809523Y-94454819D02*
X134476190Y-94835771D01*
X134476190Y-94835771D02*
X134619047Y-94835771D01*
X134619047Y-94835771D02*
X134714285Y-94883390D01*
X134714285Y-94883390D02*
X134761904Y-94931009D01*
X134761904Y-94931009D02*
X134809523Y-95026247D01*
X134809523Y-95026247D02*
X134809523Y-95264342D01*
X134809523Y-95264342D02*
X134761904Y-95359580D01*
X134761904Y-95359580D02*
X134714285Y-95407200D01*
X134714285Y-95407200D02*
X134619047Y-95454819D01*
X134619047Y-95454819D02*
X134333333Y-95454819D01*
X134333333Y-95454819D02*
X134238095Y-95407200D01*
X134238095Y-95407200D02*
X134190476Y-95359580D01*
X108133333Y-72859580D02*
X108085714Y-72907200D01*
X108085714Y-72907200D02*
X107942857Y-72954819D01*
X107942857Y-72954819D02*
X107847619Y-72954819D01*
X107847619Y-72954819D02*
X107704762Y-72907200D01*
X107704762Y-72907200D02*
X107609524Y-72811961D01*
X107609524Y-72811961D02*
X107561905Y-72716723D01*
X107561905Y-72716723D02*
X107514286Y-72526247D01*
X107514286Y-72526247D02*
X107514286Y-72383390D01*
X107514286Y-72383390D02*
X107561905Y-72192914D01*
X107561905Y-72192914D02*
X107609524Y-72097676D01*
X107609524Y-72097676D02*
X107704762Y-72002438D01*
X107704762Y-72002438D02*
X107847619Y-71954819D01*
X107847619Y-71954819D02*
X107942857Y-71954819D01*
X107942857Y-71954819D02*
X108085714Y-72002438D01*
X108085714Y-72002438D02*
X108133333Y-72050057D01*
X108990476Y-71954819D02*
X108800000Y-71954819D01*
X108800000Y-71954819D02*
X108704762Y-72002438D01*
X108704762Y-72002438D02*
X108657143Y-72050057D01*
X108657143Y-72050057D02*
X108561905Y-72192914D01*
X108561905Y-72192914D02*
X108514286Y-72383390D01*
X108514286Y-72383390D02*
X108514286Y-72764342D01*
X108514286Y-72764342D02*
X108561905Y-72859580D01*
X108561905Y-72859580D02*
X108609524Y-72907200D01*
X108609524Y-72907200D02*
X108704762Y-72954819D01*
X108704762Y-72954819D02*
X108895238Y-72954819D01*
X108895238Y-72954819D02*
X108990476Y-72907200D01*
X108990476Y-72907200D02*
X109038095Y-72859580D01*
X109038095Y-72859580D02*
X109085714Y-72764342D01*
X109085714Y-72764342D02*
X109085714Y-72526247D01*
X109085714Y-72526247D02*
X109038095Y-72431009D01*
X109038095Y-72431009D02*
X108990476Y-72383390D01*
X108990476Y-72383390D02*
X108895238Y-72335771D01*
X108895238Y-72335771D02*
X108704762Y-72335771D01*
X108704762Y-72335771D02*
X108609524Y-72383390D01*
X108609524Y-72383390D02*
X108561905Y-72431009D01*
X108561905Y-72431009D02*
X108514286Y-72526247D01*
X94359580Y-92642857D02*
X94407200Y-92690476D01*
X94407200Y-92690476D02*
X94454819Y-92833333D01*
X94454819Y-92833333D02*
X94454819Y-92928571D01*
X94454819Y-92928571D02*
X94407200Y-93071428D01*
X94407200Y-93071428D02*
X94311961Y-93166666D01*
X94311961Y-93166666D02*
X94216723Y-93214285D01*
X94216723Y-93214285D02*
X94026247Y-93261904D01*
X94026247Y-93261904D02*
X93883390Y-93261904D01*
X93883390Y-93261904D02*
X93692914Y-93214285D01*
X93692914Y-93214285D02*
X93597676Y-93166666D01*
X93597676Y-93166666D02*
X93502438Y-93071428D01*
X93502438Y-93071428D02*
X93454819Y-92928571D01*
X93454819Y-92928571D02*
X93454819Y-92833333D01*
X93454819Y-92833333D02*
X93502438Y-92690476D01*
X93502438Y-92690476D02*
X93550057Y-92642857D01*
X94454819Y-91690476D02*
X94454819Y-92261904D01*
X94454819Y-91976190D02*
X93454819Y-91976190D01*
X93454819Y-91976190D02*
X93597676Y-92071428D01*
X93597676Y-92071428D02*
X93692914Y-92166666D01*
X93692914Y-92166666D02*
X93740533Y-92261904D01*
X93788152Y-90833333D02*
X94454819Y-90833333D01*
X93407200Y-91071428D02*
X94121485Y-91309523D01*
X94121485Y-91309523D02*
X94121485Y-90690476D01*
X144859580Y-96666666D02*
X144907200Y-96714285D01*
X144907200Y-96714285D02*
X144954819Y-96857142D01*
X144954819Y-96857142D02*
X144954819Y-96952380D01*
X144954819Y-96952380D02*
X144907200Y-97095237D01*
X144907200Y-97095237D02*
X144811961Y-97190475D01*
X144811961Y-97190475D02*
X144716723Y-97238094D01*
X144716723Y-97238094D02*
X144526247Y-97285713D01*
X144526247Y-97285713D02*
X144383390Y-97285713D01*
X144383390Y-97285713D02*
X144192914Y-97238094D01*
X144192914Y-97238094D02*
X144097676Y-97190475D01*
X144097676Y-97190475D02*
X144002438Y-97095237D01*
X144002438Y-97095237D02*
X143954819Y-96952380D01*
X143954819Y-96952380D02*
X143954819Y-96857142D01*
X143954819Y-96857142D02*
X144002438Y-96714285D01*
X144002438Y-96714285D02*
X144050057Y-96666666D01*
X144050057Y-96285713D02*
X144002438Y-96238094D01*
X144002438Y-96238094D02*
X143954819Y-96142856D01*
X143954819Y-96142856D02*
X143954819Y-95904761D01*
X143954819Y-95904761D02*
X144002438Y-95809523D01*
X144002438Y-95809523D02*
X144050057Y-95761904D01*
X144050057Y-95761904D02*
X144145295Y-95714285D01*
X144145295Y-95714285D02*
X144240533Y-95714285D01*
X144240533Y-95714285D02*
X144383390Y-95761904D01*
X144383390Y-95761904D02*
X144954819Y-96333332D01*
X144954819Y-96333332D02*
X144954819Y-95714285D01*
X129833333Y-81454819D02*
X129500000Y-80978628D01*
X129261905Y-81454819D02*
X129261905Y-80454819D01*
X129261905Y-80454819D02*
X129642857Y-80454819D01*
X129642857Y-80454819D02*
X129738095Y-80502438D01*
X129738095Y-80502438D02*
X129785714Y-80550057D01*
X129785714Y-80550057D02*
X129833333Y-80645295D01*
X129833333Y-80645295D02*
X129833333Y-80788152D01*
X129833333Y-80788152D02*
X129785714Y-80883390D01*
X129785714Y-80883390D02*
X129738095Y-80931009D01*
X129738095Y-80931009D02*
X129642857Y-80978628D01*
X129642857Y-80978628D02*
X129261905Y-80978628D01*
X130166667Y-80454819D02*
X130785714Y-80454819D01*
X130785714Y-80454819D02*
X130452381Y-80835771D01*
X130452381Y-80835771D02*
X130595238Y-80835771D01*
X130595238Y-80835771D02*
X130690476Y-80883390D01*
X130690476Y-80883390D02*
X130738095Y-80931009D01*
X130738095Y-80931009D02*
X130785714Y-81026247D01*
X130785714Y-81026247D02*
X130785714Y-81264342D01*
X130785714Y-81264342D02*
X130738095Y-81359580D01*
X130738095Y-81359580D02*
X130690476Y-81407200D01*
X130690476Y-81407200D02*
X130595238Y-81454819D01*
X130595238Y-81454819D02*
X130309524Y-81454819D01*
X130309524Y-81454819D02*
X130214286Y-81407200D01*
X130214286Y-81407200D02*
X130166667Y-81359580D01*
X108954819Y-106166666D02*
X108478628Y-106499999D01*
X108954819Y-106738094D02*
X107954819Y-106738094D01*
X107954819Y-106738094D02*
X107954819Y-106357142D01*
X107954819Y-106357142D02*
X108002438Y-106261904D01*
X108002438Y-106261904D02*
X108050057Y-106214285D01*
X108050057Y-106214285D02*
X108145295Y-106166666D01*
X108145295Y-106166666D02*
X108288152Y-106166666D01*
X108288152Y-106166666D02*
X108383390Y-106214285D01*
X108383390Y-106214285D02*
X108431009Y-106261904D01*
X108431009Y-106261904D02*
X108478628Y-106357142D01*
X108478628Y-106357142D02*
X108478628Y-106738094D01*
X108383390Y-105595237D02*
X108335771Y-105690475D01*
X108335771Y-105690475D02*
X108288152Y-105738094D01*
X108288152Y-105738094D02*
X108192914Y-105785713D01*
X108192914Y-105785713D02*
X108145295Y-105785713D01*
X108145295Y-105785713D02*
X108050057Y-105738094D01*
X108050057Y-105738094D02*
X108002438Y-105690475D01*
X108002438Y-105690475D02*
X107954819Y-105595237D01*
X107954819Y-105595237D02*
X107954819Y-105404761D01*
X107954819Y-105404761D02*
X108002438Y-105309523D01*
X108002438Y-105309523D02*
X108050057Y-105261904D01*
X108050057Y-105261904D02*
X108145295Y-105214285D01*
X108145295Y-105214285D02*
X108192914Y-105214285D01*
X108192914Y-105214285D02*
X108288152Y-105261904D01*
X108288152Y-105261904D02*
X108335771Y-105309523D01*
X108335771Y-105309523D02*
X108383390Y-105404761D01*
X108383390Y-105404761D02*
X108383390Y-105595237D01*
X108383390Y-105595237D02*
X108431009Y-105690475D01*
X108431009Y-105690475D02*
X108478628Y-105738094D01*
X108478628Y-105738094D02*
X108573866Y-105785713D01*
X108573866Y-105785713D02*
X108764342Y-105785713D01*
X108764342Y-105785713D02*
X108859580Y-105738094D01*
X108859580Y-105738094D02*
X108907200Y-105690475D01*
X108907200Y-105690475D02*
X108954819Y-105595237D01*
X108954819Y-105595237D02*
X108954819Y-105404761D01*
X108954819Y-105404761D02*
X108907200Y-105309523D01*
X108907200Y-105309523D02*
X108859580Y-105261904D01*
X108859580Y-105261904D02*
X108764342Y-105214285D01*
X108764342Y-105214285D02*
X108573866Y-105214285D01*
X108573866Y-105214285D02*
X108478628Y-105261904D01*
X108478628Y-105261904D02*
X108431009Y-105309523D01*
X108431009Y-105309523D02*
X108383390Y-105404761D01*
X135238095Y-89454819D02*
X135238095Y-90264342D01*
X135238095Y-90264342D02*
X135285714Y-90359580D01*
X135285714Y-90359580D02*
X135333333Y-90407200D01*
X135333333Y-90407200D02*
X135428571Y-90454819D01*
X135428571Y-90454819D02*
X135619047Y-90454819D01*
X135619047Y-90454819D02*
X135714285Y-90407200D01*
X135714285Y-90407200D02*
X135761904Y-90359580D01*
X135761904Y-90359580D02*
X135809523Y-90264342D01*
X135809523Y-90264342D02*
X135809523Y-89454819D01*
X136190476Y-89454819D02*
X136809523Y-89454819D01*
X136809523Y-89454819D02*
X136476190Y-89835771D01*
X136476190Y-89835771D02*
X136619047Y-89835771D01*
X136619047Y-89835771D02*
X136714285Y-89883390D01*
X136714285Y-89883390D02*
X136761904Y-89931009D01*
X136761904Y-89931009D02*
X136809523Y-90026247D01*
X136809523Y-90026247D02*
X136809523Y-90264342D01*
X136809523Y-90264342D02*
X136761904Y-90359580D01*
X136761904Y-90359580D02*
X136714285Y-90407200D01*
X136714285Y-90407200D02*
X136619047Y-90454819D01*
X136619047Y-90454819D02*
X136333333Y-90454819D01*
X136333333Y-90454819D02*
X136238095Y-90407200D01*
X136238095Y-90407200D02*
X136190476Y-90359580D01*
X71859580Y-101642857D02*
X71907200Y-101690476D01*
X71907200Y-101690476D02*
X71954819Y-101833333D01*
X71954819Y-101833333D02*
X71954819Y-101928571D01*
X71954819Y-101928571D02*
X71907200Y-102071428D01*
X71907200Y-102071428D02*
X71811961Y-102166666D01*
X71811961Y-102166666D02*
X71716723Y-102214285D01*
X71716723Y-102214285D02*
X71526247Y-102261904D01*
X71526247Y-102261904D02*
X71383390Y-102261904D01*
X71383390Y-102261904D02*
X71192914Y-102214285D01*
X71192914Y-102214285D02*
X71097676Y-102166666D01*
X71097676Y-102166666D02*
X71002438Y-102071428D01*
X71002438Y-102071428D02*
X70954819Y-101928571D01*
X70954819Y-101928571D02*
X70954819Y-101833333D01*
X70954819Y-101833333D02*
X71002438Y-101690476D01*
X71002438Y-101690476D02*
X71050057Y-101642857D01*
X71954819Y-100690476D02*
X71954819Y-101261904D01*
X71954819Y-100976190D02*
X70954819Y-100976190D01*
X70954819Y-100976190D02*
X71097676Y-101071428D01*
X71097676Y-101071428D02*
X71192914Y-101166666D01*
X71192914Y-101166666D02*
X71240533Y-101261904D01*
X71050057Y-100309523D02*
X71002438Y-100261904D01*
X71002438Y-100261904D02*
X70954819Y-100166666D01*
X70954819Y-100166666D02*
X70954819Y-99928571D01*
X70954819Y-99928571D02*
X71002438Y-99833333D01*
X71002438Y-99833333D02*
X71050057Y-99785714D01*
X71050057Y-99785714D02*
X71145295Y-99738095D01*
X71145295Y-99738095D02*
X71240533Y-99738095D01*
X71240533Y-99738095D02*
X71383390Y-99785714D01*
X71383390Y-99785714D02*
X71954819Y-100357142D01*
X71954819Y-100357142D02*
X71954819Y-99738095D01*
X107454819Y-106166666D02*
X106978628Y-106499999D01*
X107454819Y-106738094D02*
X106454819Y-106738094D01*
X106454819Y-106738094D02*
X106454819Y-106357142D01*
X106454819Y-106357142D02*
X106502438Y-106261904D01*
X106502438Y-106261904D02*
X106550057Y-106214285D01*
X106550057Y-106214285D02*
X106645295Y-106166666D01*
X106645295Y-106166666D02*
X106788152Y-106166666D01*
X106788152Y-106166666D02*
X106883390Y-106214285D01*
X106883390Y-106214285D02*
X106931009Y-106261904D01*
X106931009Y-106261904D02*
X106978628Y-106357142D01*
X106978628Y-106357142D02*
X106978628Y-106738094D01*
X107454819Y-105690475D02*
X107454819Y-105499999D01*
X107454819Y-105499999D02*
X107407200Y-105404761D01*
X107407200Y-105404761D02*
X107359580Y-105357142D01*
X107359580Y-105357142D02*
X107216723Y-105261904D01*
X107216723Y-105261904D02*
X107026247Y-105214285D01*
X107026247Y-105214285D02*
X106645295Y-105214285D01*
X106645295Y-105214285D02*
X106550057Y-105261904D01*
X106550057Y-105261904D02*
X106502438Y-105309523D01*
X106502438Y-105309523D02*
X106454819Y-105404761D01*
X106454819Y-105404761D02*
X106454819Y-105595237D01*
X106454819Y-105595237D02*
X106502438Y-105690475D01*
X106502438Y-105690475D02*
X106550057Y-105738094D01*
X106550057Y-105738094D02*
X106645295Y-105785713D01*
X106645295Y-105785713D02*
X106883390Y-105785713D01*
X106883390Y-105785713D02*
X106978628Y-105738094D01*
X106978628Y-105738094D02*
X107026247Y-105690475D01*
X107026247Y-105690475D02*
X107073866Y-105595237D01*
X107073866Y-105595237D02*
X107073866Y-105404761D01*
X107073866Y-105404761D02*
X107026247Y-105309523D01*
X107026247Y-105309523D02*
X106978628Y-105261904D01*
X106978628Y-105261904D02*
X106883390Y-105214285D01*
X112107142Y-125394819D02*
X111773809Y-124918628D01*
X111535714Y-125394819D02*
X111535714Y-124394819D01*
X111535714Y-124394819D02*
X111916666Y-124394819D01*
X111916666Y-124394819D02*
X112011904Y-124442438D01*
X112011904Y-124442438D02*
X112059523Y-124490057D01*
X112059523Y-124490057D02*
X112107142Y-124585295D01*
X112107142Y-124585295D02*
X112107142Y-124728152D01*
X112107142Y-124728152D02*
X112059523Y-124823390D01*
X112059523Y-124823390D02*
X112011904Y-124871009D01*
X112011904Y-124871009D02*
X111916666Y-124918628D01*
X111916666Y-124918628D02*
X111535714Y-124918628D01*
X112488095Y-124490057D02*
X112535714Y-124442438D01*
X112535714Y-124442438D02*
X112630952Y-124394819D01*
X112630952Y-124394819D02*
X112869047Y-124394819D01*
X112869047Y-124394819D02*
X112964285Y-124442438D01*
X112964285Y-124442438D02*
X113011904Y-124490057D01*
X113011904Y-124490057D02*
X113059523Y-124585295D01*
X113059523Y-124585295D02*
X113059523Y-124680533D01*
X113059523Y-124680533D02*
X113011904Y-124823390D01*
X113011904Y-124823390D02*
X112440476Y-125394819D01*
X112440476Y-125394819D02*
X113059523Y-125394819D01*
X113440476Y-124490057D02*
X113488095Y-124442438D01*
X113488095Y-124442438D02*
X113583333Y-124394819D01*
X113583333Y-124394819D02*
X113821428Y-124394819D01*
X113821428Y-124394819D02*
X113916666Y-124442438D01*
X113916666Y-124442438D02*
X113964285Y-124490057D01*
X113964285Y-124490057D02*
X114011904Y-124585295D01*
X114011904Y-124585295D02*
X114011904Y-124680533D01*
X114011904Y-124680533D02*
X113964285Y-124823390D01*
X113964285Y-124823390D02*
X113392857Y-125394819D01*
X113392857Y-125394819D02*
X114011904Y-125394819D01*
X117954819Y-57119047D02*
X117954819Y-57595237D01*
X117954819Y-57595237D02*
X116954819Y-57595237D01*
X117431009Y-56785713D02*
X117431009Y-56452380D01*
X117954819Y-56309523D02*
X117954819Y-56785713D01*
X117954819Y-56785713D02*
X116954819Y-56785713D01*
X116954819Y-56785713D02*
X116954819Y-56309523D01*
X117954819Y-55880951D02*
X116954819Y-55880951D01*
X116954819Y-55880951D02*
X116954819Y-55642856D01*
X116954819Y-55642856D02*
X117002438Y-55499999D01*
X117002438Y-55499999D02*
X117097676Y-55404761D01*
X117097676Y-55404761D02*
X117192914Y-55357142D01*
X117192914Y-55357142D02*
X117383390Y-55309523D01*
X117383390Y-55309523D02*
X117526247Y-55309523D01*
X117526247Y-55309523D02*
X117716723Y-55357142D01*
X117716723Y-55357142D02*
X117811961Y-55404761D01*
X117811961Y-55404761D02*
X117907200Y-55499999D01*
X117907200Y-55499999D02*
X117954819Y-55642856D01*
X117954819Y-55642856D02*
X117954819Y-55880951D01*
X117954819Y-54357142D02*
X117954819Y-54928570D01*
X117954819Y-54642856D02*
X116954819Y-54642856D01*
X116954819Y-54642856D02*
X117097676Y-54738094D01*
X117097676Y-54738094D02*
X117192914Y-54833332D01*
X117192914Y-54833332D02*
X117240533Y-54928570D01*
X109857142Y-65954819D02*
X109523809Y-65478628D01*
X109285714Y-65954819D02*
X109285714Y-64954819D01*
X109285714Y-64954819D02*
X109666666Y-64954819D01*
X109666666Y-64954819D02*
X109761904Y-65002438D01*
X109761904Y-65002438D02*
X109809523Y-65050057D01*
X109809523Y-65050057D02*
X109857142Y-65145295D01*
X109857142Y-65145295D02*
X109857142Y-65288152D01*
X109857142Y-65288152D02*
X109809523Y-65383390D01*
X109809523Y-65383390D02*
X109761904Y-65431009D01*
X109761904Y-65431009D02*
X109666666Y-65478628D01*
X109666666Y-65478628D02*
X109285714Y-65478628D01*
X110809523Y-65954819D02*
X110238095Y-65954819D01*
X110523809Y-65954819D02*
X110523809Y-64954819D01*
X110523809Y-64954819D02*
X110428571Y-65097676D01*
X110428571Y-65097676D02*
X110333333Y-65192914D01*
X110333333Y-65192914D02*
X110238095Y-65240533D01*
X111190476Y-65050057D02*
X111238095Y-65002438D01*
X111238095Y-65002438D02*
X111333333Y-64954819D01*
X111333333Y-64954819D02*
X111571428Y-64954819D01*
X111571428Y-64954819D02*
X111666666Y-65002438D01*
X111666666Y-65002438D02*
X111714285Y-65050057D01*
X111714285Y-65050057D02*
X111761904Y-65145295D01*
X111761904Y-65145295D02*
X111761904Y-65240533D01*
X111761904Y-65240533D02*
X111714285Y-65383390D01*
X111714285Y-65383390D02*
X111142857Y-65954819D01*
X111142857Y-65954819D02*
X111761904Y-65954819D01*
X97133333Y-72859580D02*
X97085714Y-72907200D01*
X97085714Y-72907200D02*
X96942857Y-72954819D01*
X96942857Y-72954819D02*
X96847619Y-72954819D01*
X96847619Y-72954819D02*
X96704762Y-72907200D01*
X96704762Y-72907200D02*
X96609524Y-72811961D01*
X96609524Y-72811961D02*
X96561905Y-72716723D01*
X96561905Y-72716723D02*
X96514286Y-72526247D01*
X96514286Y-72526247D02*
X96514286Y-72383390D01*
X96514286Y-72383390D02*
X96561905Y-72192914D01*
X96561905Y-72192914D02*
X96609524Y-72097676D01*
X96609524Y-72097676D02*
X96704762Y-72002438D01*
X96704762Y-72002438D02*
X96847619Y-71954819D01*
X96847619Y-71954819D02*
X96942857Y-71954819D01*
X96942857Y-71954819D02*
X97085714Y-72002438D01*
X97085714Y-72002438D02*
X97133333Y-72050057D01*
X97466667Y-71954819D02*
X98133333Y-71954819D01*
X98133333Y-71954819D02*
X97704762Y-72954819D01*
X144633333Y-115859580D02*
X144585714Y-115907200D01*
X144585714Y-115907200D02*
X144442857Y-115954819D01*
X144442857Y-115954819D02*
X144347619Y-115954819D01*
X144347619Y-115954819D02*
X144204762Y-115907200D01*
X144204762Y-115907200D02*
X144109524Y-115811961D01*
X144109524Y-115811961D02*
X144061905Y-115716723D01*
X144061905Y-115716723D02*
X144014286Y-115526247D01*
X144014286Y-115526247D02*
X144014286Y-115383390D01*
X144014286Y-115383390D02*
X144061905Y-115192914D01*
X144061905Y-115192914D02*
X144109524Y-115097676D01*
X144109524Y-115097676D02*
X144204762Y-115002438D01*
X144204762Y-115002438D02*
X144347619Y-114954819D01*
X144347619Y-114954819D02*
X144442857Y-114954819D01*
X144442857Y-114954819D02*
X144585714Y-115002438D01*
X144585714Y-115002438D02*
X144633333Y-115050057D01*
X145204762Y-115383390D02*
X145109524Y-115335771D01*
X145109524Y-115335771D02*
X145061905Y-115288152D01*
X145061905Y-115288152D02*
X145014286Y-115192914D01*
X145014286Y-115192914D02*
X145014286Y-115145295D01*
X145014286Y-115145295D02*
X145061905Y-115050057D01*
X145061905Y-115050057D02*
X145109524Y-115002438D01*
X145109524Y-115002438D02*
X145204762Y-114954819D01*
X145204762Y-114954819D02*
X145395238Y-114954819D01*
X145395238Y-114954819D02*
X145490476Y-115002438D01*
X145490476Y-115002438D02*
X145538095Y-115050057D01*
X145538095Y-115050057D02*
X145585714Y-115145295D01*
X145585714Y-115145295D02*
X145585714Y-115192914D01*
X145585714Y-115192914D02*
X145538095Y-115288152D01*
X145538095Y-115288152D02*
X145490476Y-115335771D01*
X145490476Y-115335771D02*
X145395238Y-115383390D01*
X145395238Y-115383390D02*
X145204762Y-115383390D01*
X145204762Y-115383390D02*
X145109524Y-115431009D01*
X145109524Y-115431009D02*
X145061905Y-115478628D01*
X145061905Y-115478628D02*
X145014286Y-115573866D01*
X145014286Y-115573866D02*
X145014286Y-115764342D01*
X145014286Y-115764342D02*
X145061905Y-115859580D01*
X145061905Y-115859580D02*
X145109524Y-115907200D01*
X145109524Y-115907200D02*
X145204762Y-115954819D01*
X145204762Y-115954819D02*
X145395238Y-115954819D01*
X145395238Y-115954819D02*
X145490476Y-115907200D01*
X145490476Y-115907200D02*
X145538095Y-115859580D01*
X145538095Y-115859580D02*
X145585714Y-115764342D01*
X145585714Y-115764342D02*
X145585714Y-115573866D01*
X145585714Y-115573866D02*
X145538095Y-115478628D01*
X145538095Y-115478628D02*
X145490476Y-115431009D01*
X145490476Y-115431009D02*
X145395238Y-115383390D01*
X119954819Y-59666666D02*
X119478628Y-59999999D01*
X119954819Y-60238094D02*
X118954819Y-60238094D01*
X118954819Y-60238094D02*
X118954819Y-59857142D01*
X118954819Y-59857142D02*
X119002438Y-59761904D01*
X119002438Y-59761904D02*
X119050057Y-59714285D01*
X119050057Y-59714285D02*
X119145295Y-59666666D01*
X119145295Y-59666666D02*
X119288152Y-59666666D01*
X119288152Y-59666666D02*
X119383390Y-59714285D01*
X119383390Y-59714285D02*
X119431009Y-59761904D01*
X119431009Y-59761904D02*
X119478628Y-59857142D01*
X119478628Y-59857142D02*
X119478628Y-60238094D01*
X118954819Y-58809523D02*
X118954819Y-58999999D01*
X118954819Y-58999999D02*
X119002438Y-59095237D01*
X119002438Y-59095237D02*
X119050057Y-59142856D01*
X119050057Y-59142856D02*
X119192914Y-59238094D01*
X119192914Y-59238094D02*
X119383390Y-59285713D01*
X119383390Y-59285713D02*
X119764342Y-59285713D01*
X119764342Y-59285713D02*
X119859580Y-59238094D01*
X119859580Y-59238094D02*
X119907200Y-59190475D01*
X119907200Y-59190475D02*
X119954819Y-59095237D01*
X119954819Y-59095237D02*
X119954819Y-58904761D01*
X119954819Y-58904761D02*
X119907200Y-58809523D01*
X119907200Y-58809523D02*
X119859580Y-58761904D01*
X119859580Y-58761904D02*
X119764342Y-58714285D01*
X119764342Y-58714285D02*
X119526247Y-58714285D01*
X119526247Y-58714285D02*
X119431009Y-58761904D01*
X119431009Y-58761904D02*
X119383390Y-58809523D01*
X119383390Y-58809523D02*
X119335771Y-58904761D01*
X119335771Y-58904761D02*
X119335771Y-59095237D01*
X119335771Y-59095237D02*
X119383390Y-59190475D01*
X119383390Y-59190475D02*
X119431009Y-59238094D01*
X119431009Y-59238094D02*
X119526247Y-59285713D01*
X94454819Y-96142857D02*
X93978628Y-96476190D01*
X94454819Y-96714285D02*
X93454819Y-96714285D01*
X93454819Y-96714285D02*
X93454819Y-96333333D01*
X93454819Y-96333333D02*
X93502438Y-96238095D01*
X93502438Y-96238095D02*
X93550057Y-96190476D01*
X93550057Y-96190476D02*
X93645295Y-96142857D01*
X93645295Y-96142857D02*
X93788152Y-96142857D01*
X93788152Y-96142857D02*
X93883390Y-96190476D01*
X93883390Y-96190476D02*
X93931009Y-96238095D01*
X93931009Y-96238095D02*
X93978628Y-96333333D01*
X93978628Y-96333333D02*
X93978628Y-96714285D01*
X94454819Y-95190476D02*
X94454819Y-95761904D01*
X94454819Y-95476190D02*
X93454819Y-95476190D01*
X93454819Y-95476190D02*
X93597676Y-95571428D01*
X93597676Y-95571428D02*
X93692914Y-95666666D01*
X93692914Y-95666666D02*
X93740533Y-95761904D01*
X94454819Y-94714285D02*
X94454819Y-94523809D01*
X94454819Y-94523809D02*
X94407200Y-94428571D01*
X94407200Y-94428571D02*
X94359580Y-94380952D01*
X94359580Y-94380952D02*
X94216723Y-94285714D01*
X94216723Y-94285714D02*
X94026247Y-94238095D01*
X94026247Y-94238095D02*
X93645295Y-94238095D01*
X93645295Y-94238095D02*
X93550057Y-94285714D01*
X93550057Y-94285714D02*
X93502438Y-94333333D01*
X93502438Y-94333333D02*
X93454819Y-94428571D01*
X93454819Y-94428571D02*
X93454819Y-94619047D01*
X93454819Y-94619047D02*
X93502438Y-94714285D01*
X93502438Y-94714285D02*
X93550057Y-94761904D01*
X93550057Y-94761904D02*
X93645295Y-94809523D01*
X93645295Y-94809523D02*
X93883390Y-94809523D01*
X93883390Y-94809523D02*
X93978628Y-94761904D01*
X93978628Y-94761904D02*
X94026247Y-94714285D01*
X94026247Y-94714285D02*
X94073866Y-94619047D01*
X94073866Y-94619047D02*
X94073866Y-94428571D01*
X94073866Y-94428571D02*
X94026247Y-94333333D01*
X94026247Y-94333333D02*
X93978628Y-94285714D01*
X93978628Y-94285714D02*
X93883390Y-94238095D01*
X132454819Y-112642857D02*
X131978628Y-112976190D01*
X132454819Y-113214285D02*
X131454819Y-113214285D01*
X131454819Y-113214285D02*
X131454819Y-112833333D01*
X131454819Y-112833333D02*
X131502438Y-112738095D01*
X131502438Y-112738095D02*
X131550057Y-112690476D01*
X131550057Y-112690476D02*
X131645295Y-112642857D01*
X131645295Y-112642857D02*
X131788152Y-112642857D01*
X131788152Y-112642857D02*
X131883390Y-112690476D01*
X131883390Y-112690476D02*
X131931009Y-112738095D01*
X131931009Y-112738095D02*
X131978628Y-112833333D01*
X131978628Y-112833333D02*
X131978628Y-113214285D01*
X132454819Y-111690476D02*
X132454819Y-112261904D01*
X132454819Y-111976190D02*
X131454819Y-111976190D01*
X131454819Y-111976190D02*
X131597676Y-112071428D01*
X131597676Y-112071428D02*
X131692914Y-112166666D01*
X131692914Y-112166666D02*
X131740533Y-112261904D01*
X131454819Y-110833333D02*
X131454819Y-111023809D01*
X131454819Y-111023809D02*
X131502438Y-111119047D01*
X131502438Y-111119047D02*
X131550057Y-111166666D01*
X131550057Y-111166666D02*
X131692914Y-111261904D01*
X131692914Y-111261904D02*
X131883390Y-111309523D01*
X131883390Y-111309523D02*
X132264342Y-111309523D01*
X132264342Y-111309523D02*
X132359580Y-111261904D01*
X132359580Y-111261904D02*
X132407200Y-111214285D01*
X132407200Y-111214285D02*
X132454819Y-111119047D01*
X132454819Y-111119047D02*
X132454819Y-110928571D01*
X132454819Y-110928571D02*
X132407200Y-110833333D01*
X132407200Y-110833333D02*
X132359580Y-110785714D01*
X132359580Y-110785714D02*
X132264342Y-110738095D01*
X132264342Y-110738095D02*
X132026247Y-110738095D01*
X132026247Y-110738095D02*
X131931009Y-110785714D01*
X131931009Y-110785714D02*
X131883390Y-110833333D01*
X131883390Y-110833333D02*
X131835771Y-110928571D01*
X131835771Y-110928571D02*
X131835771Y-111119047D01*
X131835771Y-111119047D02*
X131883390Y-111214285D01*
X131883390Y-111214285D02*
X131931009Y-111261904D01*
X131931009Y-111261904D02*
X132026247Y-111309523D01*
X112359580Y-132166666D02*
X112407200Y-132214285D01*
X112407200Y-132214285D02*
X112454819Y-132357142D01*
X112454819Y-132357142D02*
X112454819Y-132452380D01*
X112454819Y-132452380D02*
X112407200Y-132595237D01*
X112407200Y-132595237D02*
X112311961Y-132690475D01*
X112311961Y-132690475D02*
X112216723Y-132738094D01*
X112216723Y-132738094D02*
X112026247Y-132785713D01*
X112026247Y-132785713D02*
X111883390Y-132785713D01*
X111883390Y-132785713D02*
X111692914Y-132738094D01*
X111692914Y-132738094D02*
X111597676Y-132690475D01*
X111597676Y-132690475D02*
X111502438Y-132595237D01*
X111502438Y-132595237D02*
X111454819Y-132452380D01*
X111454819Y-132452380D02*
X111454819Y-132357142D01*
X111454819Y-132357142D02*
X111502438Y-132214285D01*
X111502438Y-132214285D02*
X111550057Y-132166666D01*
X111454819Y-131833332D02*
X111454819Y-131214285D01*
X111454819Y-131214285D02*
X111835771Y-131547618D01*
X111835771Y-131547618D02*
X111835771Y-131404761D01*
X111835771Y-131404761D02*
X111883390Y-131309523D01*
X111883390Y-131309523D02*
X111931009Y-131261904D01*
X111931009Y-131261904D02*
X112026247Y-131214285D01*
X112026247Y-131214285D02*
X112264342Y-131214285D01*
X112264342Y-131214285D02*
X112359580Y-131261904D01*
X112359580Y-131261904D02*
X112407200Y-131309523D01*
X112407200Y-131309523D02*
X112454819Y-131404761D01*
X112454819Y-131404761D02*
X112454819Y-131690475D01*
X112454819Y-131690475D02*
X112407200Y-131785713D01*
X112407200Y-131785713D02*
X112359580Y-131833332D01*
X73738095Y-80954819D02*
X73738095Y-81764342D01*
X73738095Y-81764342D02*
X73785714Y-81859580D01*
X73785714Y-81859580D02*
X73833333Y-81907200D01*
X73833333Y-81907200D02*
X73928571Y-81954819D01*
X73928571Y-81954819D02*
X74119047Y-81954819D01*
X74119047Y-81954819D02*
X74214285Y-81907200D01*
X74214285Y-81907200D02*
X74261904Y-81859580D01*
X74261904Y-81859580D02*
X74309523Y-81764342D01*
X74309523Y-81764342D02*
X74309523Y-80954819D01*
X74738095Y-81050057D02*
X74785714Y-81002438D01*
X74785714Y-81002438D02*
X74880952Y-80954819D01*
X74880952Y-80954819D02*
X75119047Y-80954819D01*
X75119047Y-80954819D02*
X75214285Y-81002438D01*
X75214285Y-81002438D02*
X75261904Y-81050057D01*
X75261904Y-81050057D02*
X75309523Y-81145295D01*
X75309523Y-81145295D02*
X75309523Y-81240533D01*
X75309523Y-81240533D02*
X75261904Y-81383390D01*
X75261904Y-81383390D02*
X74690476Y-81954819D01*
X74690476Y-81954819D02*
X75309523Y-81954819D01*
X87954819Y-60142857D02*
X87478628Y-60476190D01*
X87954819Y-60714285D02*
X86954819Y-60714285D01*
X86954819Y-60714285D02*
X86954819Y-60333333D01*
X86954819Y-60333333D02*
X87002438Y-60238095D01*
X87002438Y-60238095D02*
X87050057Y-60190476D01*
X87050057Y-60190476D02*
X87145295Y-60142857D01*
X87145295Y-60142857D02*
X87288152Y-60142857D01*
X87288152Y-60142857D02*
X87383390Y-60190476D01*
X87383390Y-60190476D02*
X87431009Y-60238095D01*
X87431009Y-60238095D02*
X87478628Y-60333333D01*
X87478628Y-60333333D02*
X87478628Y-60714285D01*
X87050057Y-59761904D02*
X87002438Y-59714285D01*
X87002438Y-59714285D02*
X86954819Y-59619047D01*
X86954819Y-59619047D02*
X86954819Y-59380952D01*
X86954819Y-59380952D02*
X87002438Y-59285714D01*
X87002438Y-59285714D02*
X87050057Y-59238095D01*
X87050057Y-59238095D02*
X87145295Y-59190476D01*
X87145295Y-59190476D02*
X87240533Y-59190476D01*
X87240533Y-59190476D02*
X87383390Y-59238095D01*
X87383390Y-59238095D02*
X87954819Y-59809523D01*
X87954819Y-59809523D02*
X87954819Y-59190476D01*
X87954819Y-58238095D02*
X87954819Y-58809523D01*
X87954819Y-58523809D02*
X86954819Y-58523809D01*
X86954819Y-58523809D02*
X87097676Y-58619047D01*
X87097676Y-58619047D02*
X87192914Y-58714285D01*
X87192914Y-58714285D02*
X87240533Y-58809523D01*
X83954819Y-57119047D02*
X83954819Y-57595237D01*
X83954819Y-57595237D02*
X82954819Y-57595237D01*
X83431009Y-56785713D02*
X83431009Y-56452380D01*
X83954819Y-56309523D02*
X83954819Y-56785713D01*
X83954819Y-56785713D02*
X82954819Y-56785713D01*
X82954819Y-56785713D02*
X82954819Y-56309523D01*
X83954819Y-55880951D02*
X82954819Y-55880951D01*
X82954819Y-55880951D02*
X82954819Y-55642856D01*
X82954819Y-55642856D02*
X83002438Y-55499999D01*
X83002438Y-55499999D02*
X83097676Y-55404761D01*
X83097676Y-55404761D02*
X83192914Y-55357142D01*
X83192914Y-55357142D02*
X83383390Y-55309523D01*
X83383390Y-55309523D02*
X83526247Y-55309523D01*
X83526247Y-55309523D02*
X83716723Y-55357142D01*
X83716723Y-55357142D02*
X83811961Y-55404761D01*
X83811961Y-55404761D02*
X83907200Y-55499999D01*
X83907200Y-55499999D02*
X83954819Y-55642856D01*
X83954819Y-55642856D02*
X83954819Y-55880951D01*
X82954819Y-54976189D02*
X82954819Y-54357142D01*
X82954819Y-54357142D02*
X83335771Y-54690475D01*
X83335771Y-54690475D02*
X83335771Y-54547618D01*
X83335771Y-54547618D02*
X83383390Y-54452380D01*
X83383390Y-54452380D02*
X83431009Y-54404761D01*
X83431009Y-54404761D02*
X83526247Y-54357142D01*
X83526247Y-54357142D02*
X83764342Y-54357142D01*
X83764342Y-54357142D02*
X83859580Y-54404761D01*
X83859580Y-54404761D02*
X83907200Y-54452380D01*
X83907200Y-54452380D02*
X83954819Y-54547618D01*
X83954819Y-54547618D02*
X83954819Y-54833332D01*
X83954819Y-54833332D02*
X83907200Y-54928570D01*
X83907200Y-54928570D02*
X83859580Y-54976189D01*
X147454819Y-84666666D02*
X146978628Y-84999999D01*
X147454819Y-85238094D02*
X146454819Y-85238094D01*
X146454819Y-85238094D02*
X146454819Y-84857142D01*
X146454819Y-84857142D02*
X146502438Y-84761904D01*
X146502438Y-84761904D02*
X146550057Y-84714285D01*
X146550057Y-84714285D02*
X146645295Y-84666666D01*
X146645295Y-84666666D02*
X146788152Y-84666666D01*
X146788152Y-84666666D02*
X146883390Y-84714285D01*
X146883390Y-84714285D02*
X146931009Y-84761904D01*
X146931009Y-84761904D02*
X146978628Y-84857142D01*
X146978628Y-84857142D02*
X146978628Y-85238094D01*
X146454819Y-83761904D02*
X146454819Y-84238094D01*
X146454819Y-84238094D02*
X146931009Y-84285713D01*
X146931009Y-84285713D02*
X146883390Y-84238094D01*
X146883390Y-84238094D02*
X146835771Y-84142856D01*
X146835771Y-84142856D02*
X146835771Y-83904761D01*
X146835771Y-83904761D02*
X146883390Y-83809523D01*
X146883390Y-83809523D02*
X146931009Y-83761904D01*
X146931009Y-83761904D02*
X147026247Y-83714285D01*
X147026247Y-83714285D02*
X147264342Y-83714285D01*
X147264342Y-83714285D02*
X147359580Y-83761904D01*
X147359580Y-83761904D02*
X147407200Y-83809523D01*
X147407200Y-83809523D02*
X147454819Y-83904761D01*
X147454819Y-83904761D02*
X147454819Y-84142856D01*
X147454819Y-84142856D02*
X147407200Y-84238094D01*
X147407200Y-84238094D02*
X147359580Y-84285713D01*
X94833333Y-65954819D02*
X94357143Y-65954819D01*
X94357143Y-65954819D02*
X94357143Y-64954819D01*
X95690476Y-65954819D02*
X95119048Y-65954819D01*
X95404762Y-65954819D02*
X95404762Y-64954819D01*
X95404762Y-64954819D02*
X95309524Y-65097676D01*
X95309524Y-65097676D02*
X95214286Y-65192914D01*
X95214286Y-65192914D02*
X95119048Y-65240533D01*
X134454819Y-113642857D02*
X133978628Y-113976190D01*
X134454819Y-114214285D02*
X133454819Y-114214285D01*
X133454819Y-114214285D02*
X133454819Y-113833333D01*
X133454819Y-113833333D02*
X133502438Y-113738095D01*
X133502438Y-113738095D02*
X133550057Y-113690476D01*
X133550057Y-113690476D02*
X133645295Y-113642857D01*
X133645295Y-113642857D02*
X133788152Y-113642857D01*
X133788152Y-113642857D02*
X133883390Y-113690476D01*
X133883390Y-113690476D02*
X133931009Y-113738095D01*
X133931009Y-113738095D02*
X133978628Y-113833333D01*
X133978628Y-113833333D02*
X133978628Y-114214285D01*
X134454819Y-112690476D02*
X134454819Y-113261904D01*
X134454819Y-112976190D02*
X133454819Y-112976190D01*
X133454819Y-112976190D02*
X133597676Y-113071428D01*
X133597676Y-113071428D02*
X133692914Y-113166666D01*
X133692914Y-113166666D02*
X133740533Y-113261904D01*
X133454819Y-112357142D02*
X133454819Y-111690476D01*
X133454819Y-111690476D02*
X134454819Y-112119047D01*
X103357142Y-65954819D02*
X103023809Y-65478628D01*
X102785714Y-65954819D02*
X102785714Y-64954819D01*
X102785714Y-64954819D02*
X103166666Y-64954819D01*
X103166666Y-64954819D02*
X103261904Y-65002438D01*
X103261904Y-65002438D02*
X103309523Y-65050057D01*
X103309523Y-65050057D02*
X103357142Y-65145295D01*
X103357142Y-65145295D02*
X103357142Y-65288152D01*
X103357142Y-65288152D02*
X103309523Y-65383390D01*
X103309523Y-65383390D02*
X103261904Y-65431009D01*
X103261904Y-65431009D02*
X103166666Y-65478628D01*
X103166666Y-65478628D02*
X102785714Y-65478628D01*
X104309523Y-65954819D02*
X103738095Y-65954819D01*
X104023809Y-65954819D02*
X104023809Y-64954819D01*
X104023809Y-64954819D02*
X103928571Y-65097676D01*
X103928571Y-65097676D02*
X103833333Y-65192914D01*
X103833333Y-65192914D02*
X103738095Y-65240533D01*
X104928571Y-64954819D02*
X105023809Y-64954819D01*
X105023809Y-64954819D02*
X105119047Y-65002438D01*
X105119047Y-65002438D02*
X105166666Y-65050057D01*
X105166666Y-65050057D02*
X105214285Y-65145295D01*
X105214285Y-65145295D02*
X105261904Y-65335771D01*
X105261904Y-65335771D02*
X105261904Y-65573866D01*
X105261904Y-65573866D02*
X105214285Y-65764342D01*
X105214285Y-65764342D02*
X105166666Y-65859580D01*
X105166666Y-65859580D02*
X105119047Y-65907200D01*
X105119047Y-65907200D02*
X105023809Y-65954819D01*
X105023809Y-65954819D02*
X104928571Y-65954819D01*
X104928571Y-65954819D02*
X104833333Y-65907200D01*
X104833333Y-65907200D02*
X104785714Y-65859580D01*
X104785714Y-65859580D02*
X104738095Y-65764342D01*
X104738095Y-65764342D02*
X104690476Y-65573866D01*
X104690476Y-65573866D02*
X104690476Y-65335771D01*
X104690476Y-65335771D02*
X104738095Y-65145295D01*
X104738095Y-65145295D02*
X104785714Y-65050057D01*
X104785714Y-65050057D02*
X104833333Y-65002438D01*
X104833333Y-65002438D02*
X104928571Y-64954819D01*
X85433333Y-107854819D02*
X85100000Y-107378628D01*
X84861905Y-107854819D02*
X84861905Y-106854819D01*
X84861905Y-106854819D02*
X85242857Y-106854819D01*
X85242857Y-106854819D02*
X85338095Y-106902438D01*
X85338095Y-106902438D02*
X85385714Y-106950057D01*
X85385714Y-106950057D02*
X85433333Y-107045295D01*
X85433333Y-107045295D02*
X85433333Y-107188152D01*
X85433333Y-107188152D02*
X85385714Y-107283390D01*
X85385714Y-107283390D02*
X85338095Y-107331009D01*
X85338095Y-107331009D02*
X85242857Y-107378628D01*
X85242857Y-107378628D02*
X84861905Y-107378628D01*
X86290476Y-107188152D02*
X86290476Y-107854819D01*
X86052381Y-106807200D02*
X85814286Y-107521485D01*
X85814286Y-107521485D02*
X86433333Y-107521485D01*
X56931009Y-86154761D02*
X56978628Y-86011904D01*
X56978628Y-86011904D02*
X57026247Y-85964285D01*
X57026247Y-85964285D02*
X57121485Y-85916666D01*
X57121485Y-85916666D02*
X57264342Y-85916666D01*
X57264342Y-85916666D02*
X57359580Y-85964285D01*
X57359580Y-85964285D02*
X57407200Y-86011904D01*
X57407200Y-86011904D02*
X57454819Y-86107142D01*
X57454819Y-86107142D02*
X57454819Y-86488094D01*
X57454819Y-86488094D02*
X56454819Y-86488094D01*
X56454819Y-86488094D02*
X56454819Y-86154761D01*
X56454819Y-86154761D02*
X56502438Y-86059523D01*
X56502438Y-86059523D02*
X56550057Y-86011904D01*
X56550057Y-86011904D02*
X56645295Y-85964285D01*
X56645295Y-85964285D02*
X56740533Y-85964285D01*
X56740533Y-85964285D02*
X56835771Y-86011904D01*
X56835771Y-86011904D02*
X56883390Y-86059523D01*
X56883390Y-86059523D02*
X56931009Y-86154761D01*
X56931009Y-86154761D02*
X56931009Y-86488094D01*
X57454819Y-84964285D02*
X57454819Y-85535713D01*
X57454819Y-85249999D02*
X56454819Y-85249999D01*
X56454819Y-85249999D02*
X56597676Y-85345237D01*
X56597676Y-85345237D02*
X56692914Y-85440475D01*
X56692914Y-85440475D02*
X56740533Y-85535713D01*
D14*
X64076266Y-97266041D02*
X64076266Y-94218422D01*
X65600076Y-95742231D02*
X62552457Y-95742231D01*
D13*
X109857142Y-68454819D02*
X109523809Y-67978628D01*
X109285714Y-68454819D02*
X109285714Y-67454819D01*
X109285714Y-67454819D02*
X109666666Y-67454819D01*
X109666666Y-67454819D02*
X109761904Y-67502438D01*
X109761904Y-67502438D02*
X109809523Y-67550057D01*
X109809523Y-67550057D02*
X109857142Y-67645295D01*
X109857142Y-67645295D02*
X109857142Y-67788152D01*
X109857142Y-67788152D02*
X109809523Y-67883390D01*
X109809523Y-67883390D02*
X109761904Y-67931009D01*
X109761904Y-67931009D02*
X109666666Y-67978628D01*
X109666666Y-67978628D02*
X109285714Y-67978628D01*
X110809523Y-68454819D02*
X110238095Y-68454819D01*
X110523809Y-68454819D02*
X110523809Y-67454819D01*
X110523809Y-67454819D02*
X110428571Y-67597676D01*
X110428571Y-67597676D02*
X110333333Y-67692914D01*
X110333333Y-67692914D02*
X110238095Y-67740533D01*
X111761904Y-68454819D02*
X111190476Y-68454819D01*
X111476190Y-68454819D02*
X111476190Y-67454819D01*
X111476190Y-67454819D02*
X111380952Y-67597676D01*
X111380952Y-67597676D02*
X111285714Y-67692914D01*
X111285714Y-67692914D02*
X111190476Y-67740533D01*
X132454819Y-100142857D02*
X131978628Y-100476190D01*
X132454819Y-100714285D02*
X131454819Y-100714285D01*
X131454819Y-100714285D02*
X131454819Y-100333333D01*
X131454819Y-100333333D02*
X131502438Y-100238095D01*
X131502438Y-100238095D02*
X131550057Y-100190476D01*
X131550057Y-100190476D02*
X131645295Y-100142857D01*
X131645295Y-100142857D02*
X131788152Y-100142857D01*
X131788152Y-100142857D02*
X131883390Y-100190476D01*
X131883390Y-100190476D02*
X131931009Y-100238095D01*
X131931009Y-100238095D02*
X131978628Y-100333333D01*
X131978628Y-100333333D02*
X131978628Y-100714285D01*
X132454819Y-99190476D02*
X132454819Y-99761904D01*
X132454819Y-99476190D02*
X131454819Y-99476190D01*
X131454819Y-99476190D02*
X131597676Y-99571428D01*
X131597676Y-99571428D02*
X131692914Y-99666666D01*
X131692914Y-99666666D02*
X131740533Y-99761904D01*
X131454819Y-98857142D02*
X131454819Y-98238095D01*
X131454819Y-98238095D02*
X131835771Y-98571428D01*
X131835771Y-98571428D02*
X131835771Y-98428571D01*
X131835771Y-98428571D02*
X131883390Y-98333333D01*
X131883390Y-98333333D02*
X131931009Y-98285714D01*
X131931009Y-98285714D02*
X132026247Y-98238095D01*
X132026247Y-98238095D02*
X132264342Y-98238095D01*
X132264342Y-98238095D02*
X132359580Y-98285714D01*
X132359580Y-98285714D02*
X132407200Y-98333333D01*
X132407200Y-98333333D02*
X132454819Y-98428571D01*
X132454819Y-98428571D02*
X132454819Y-98714285D01*
X132454819Y-98714285D02*
X132407200Y-98809523D01*
X132407200Y-98809523D02*
X132359580Y-98857142D01*
X85954819Y-60142857D02*
X85478628Y-60476190D01*
X85954819Y-60714285D02*
X84954819Y-60714285D01*
X84954819Y-60714285D02*
X84954819Y-60333333D01*
X84954819Y-60333333D02*
X85002438Y-60238095D01*
X85002438Y-60238095D02*
X85050057Y-60190476D01*
X85050057Y-60190476D02*
X85145295Y-60142857D01*
X85145295Y-60142857D02*
X85288152Y-60142857D01*
X85288152Y-60142857D02*
X85383390Y-60190476D01*
X85383390Y-60190476D02*
X85431009Y-60238095D01*
X85431009Y-60238095D02*
X85478628Y-60333333D01*
X85478628Y-60333333D02*
X85478628Y-60714285D01*
X85050057Y-59761904D02*
X85002438Y-59714285D01*
X85002438Y-59714285D02*
X84954819Y-59619047D01*
X84954819Y-59619047D02*
X84954819Y-59380952D01*
X84954819Y-59380952D02*
X85002438Y-59285714D01*
X85002438Y-59285714D02*
X85050057Y-59238095D01*
X85050057Y-59238095D02*
X85145295Y-59190476D01*
X85145295Y-59190476D02*
X85240533Y-59190476D01*
X85240533Y-59190476D02*
X85383390Y-59238095D01*
X85383390Y-59238095D02*
X85954819Y-59809523D01*
X85954819Y-59809523D02*
X85954819Y-59190476D01*
X84954819Y-58571428D02*
X84954819Y-58476190D01*
X84954819Y-58476190D02*
X85002438Y-58380952D01*
X85002438Y-58380952D02*
X85050057Y-58333333D01*
X85050057Y-58333333D02*
X85145295Y-58285714D01*
X85145295Y-58285714D02*
X85335771Y-58238095D01*
X85335771Y-58238095D02*
X85573866Y-58238095D01*
X85573866Y-58238095D02*
X85764342Y-58285714D01*
X85764342Y-58285714D02*
X85859580Y-58333333D01*
X85859580Y-58333333D02*
X85907200Y-58380952D01*
X85907200Y-58380952D02*
X85954819Y-58476190D01*
X85954819Y-58476190D02*
X85954819Y-58571428D01*
X85954819Y-58571428D02*
X85907200Y-58666666D01*
X85907200Y-58666666D02*
X85859580Y-58714285D01*
X85859580Y-58714285D02*
X85764342Y-58761904D01*
X85764342Y-58761904D02*
X85573866Y-58809523D01*
X85573866Y-58809523D02*
X85335771Y-58809523D01*
X85335771Y-58809523D02*
X85145295Y-58761904D01*
X85145295Y-58761904D02*
X85050057Y-58714285D01*
X85050057Y-58714285D02*
X85002438Y-58666666D01*
X85002438Y-58666666D02*
X84954819Y-58571428D01*
X49238095Y-100454819D02*
X49238095Y-99454819D01*
X49238095Y-99931009D02*
X49809523Y-99931009D01*
X49809523Y-100454819D02*
X49809523Y-99454819D01*
X50714285Y-99454819D02*
X50523809Y-99454819D01*
X50523809Y-99454819D02*
X50428571Y-99502438D01*
X50428571Y-99502438D02*
X50380952Y-99550057D01*
X50380952Y-99550057D02*
X50285714Y-99692914D01*
X50285714Y-99692914D02*
X50238095Y-99883390D01*
X50238095Y-99883390D02*
X50238095Y-100264342D01*
X50238095Y-100264342D02*
X50285714Y-100359580D01*
X50285714Y-100359580D02*
X50333333Y-100407200D01*
X50333333Y-100407200D02*
X50428571Y-100454819D01*
X50428571Y-100454819D02*
X50619047Y-100454819D01*
X50619047Y-100454819D02*
X50714285Y-100407200D01*
X50714285Y-100407200D02*
X50761904Y-100359580D01*
X50761904Y-100359580D02*
X50809523Y-100264342D01*
X50809523Y-100264342D02*
X50809523Y-100026247D01*
X50809523Y-100026247D02*
X50761904Y-99931009D01*
X50761904Y-99931009D02*
X50714285Y-99883390D01*
X50714285Y-99883390D02*
X50619047Y-99835771D01*
X50619047Y-99835771D02*
X50428571Y-99835771D01*
X50428571Y-99835771D02*
X50333333Y-99883390D01*
X50333333Y-99883390D02*
X50285714Y-99931009D01*
X50285714Y-99931009D02*
X50238095Y-100026247D01*
X142454819Y-88666666D02*
X141978628Y-88999999D01*
X142454819Y-89238094D02*
X141454819Y-89238094D01*
X141454819Y-89238094D02*
X141454819Y-88857142D01*
X141454819Y-88857142D02*
X141502438Y-88761904D01*
X141502438Y-88761904D02*
X141550057Y-88714285D01*
X141550057Y-88714285D02*
X141645295Y-88666666D01*
X141645295Y-88666666D02*
X141788152Y-88666666D01*
X141788152Y-88666666D02*
X141883390Y-88714285D01*
X141883390Y-88714285D02*
X141931009Y-88761904D01*
X141931009Y-88761904D02*
X141978628Y-88857142D01*
X141978628Y-88857142D02*
X141978628Y-89238094D01*
X142454819Y-87714285D02*
X142454819Y-88285713D01*
X142454819Y-87999999D02*
X141454819Y-87999999D01*
X141454819Y-87999999D02*
X141597676Y-88095237D01*
X141597676Y-88095237D02*
X141692914Y-88190475D01*
X141692914Y-88190475D02*
X141740533Y-88285713D01*
X101333333Y-53454819D02*
X101000000Y-52978628D01*
X100761905Y-53454819D02*
X100761905Y-52454819D01*
X100761905Y-52454819D02*
X101142857Y-52454819D01*
X101142857Y-52454819D02*
X101238095Y-52502438D01*
X101238095Y-52502438D02*
X101285714Y-52550057D01*
X101285714Y-52550057D02*
X101333333Y-52645295D01*
X101333333Y-52645295D02*
X101333333Y-52788152D01*
X101333333Y-52788152D02*
X101285714Y-52883390D01*
X101285714Y-52883390D02*
X101238095Y-52931009D01*
X101238095Y-52931009D02*
X101142857Y-52978628D01*
X101142857Y-52978628D02*
X100761905Y-52978628D01*
X101666667Y-52454819D02*
X102333333Y-52454819D01*
X102333333Y-52454819D02*
X101904762Y-53454819D01*
X70359580Y-89142857D02*
X70407200Y-89190476D01*
X70407200Y-89190476D02*
X70454819Y-89333333D01*
X70454819Y-89333333D02*
X70454819Y-89428571D01*
X70454819Y-89428571D02*
X70407200Y-89571428D01*
X70407200Y-89571428D02*
X70311961Y-89666666D01*
X70311961Y-89666666D02*
X70216723Y-89714285D01*
X70216723Y-89714285D02*
X70026247Y-89761904D01*
X70026247Y-89761904D02*
X69883390Y-89761904D01*
X69883390Y-89761904D02*
X69692914Y-89714285D01*
X69692914Y-89714285D02*
X69597676Y-89666666D01*
X69597676Y-89666666D02*
X69502438Y-89571428D01*
X69502438Y-89571428D02*
X69454819Y-89428571D01*
X69454819Y-89428571D02*
X69454819Y-89333333D01*
X69454819Y-89333333D02*
X69502438Y-89190476D01*
X69502438Y-89190476D02*
X69550057Y-89142857D01*
X70454819Y-88190476D02*
X70454819Y-88761904D01*
X70454819Y-88476190D02*
X69454819Y-88476190D01*
X69454819Y-88476190D02*
X69597676Y-88571428D01*
X69597676Y-88571428D02*
X69692914Y-88666666D01*
X69692914Y-88666666D02*
X69740533Y-88761904D01*
X70454819Y-87238095D02*
X70454819Y-87809523D01*
X70454819Y-87523809D02*
X69454819Y-87523809D01*
X69454819Y-87523809D02*
X69597676Y-87619047D01*
X69597676Y-87619047D02*
X69692914Y-87714285D01*
X69692914Y-87714285D02*
X69740533Y-87809523D01*
X70359580Y-102142857D02*
X70407200Y-102190476D01*
X70407200Y-102190476D02*
X70454819Y-102333333D01*
X70454819Y-102333333D02*
X70454819Y-102428571D01*
X70454819Y-102428571D02*
X70407200Y-102571428D01*
X70407200Y-102571428D02*
X70311961Y-102666666D01*
X70311961Y-102666666D02*
X70216723Y-102714285D01*
X70216723Y-102714285D02*
X70026247Y-102761904D01*
X70026247Y-102761904D02*
X69883390Y-102761904D01*
X69883390Y-102761904D02*
X69692914Y-102714285D01*
X69692914Y-102714285D02*
X69597676Y-102666666D01*
X69597676Y-102666666D02*
X69502438Y-102571428D01*
X69502438Y-102571428D02*
X69454819Y-102428571D01*
X69454819Y-102428571D02*
X69454819Y-102333333D01*
X69454819Y-102333333D02*
X69502438Y-102190476D01*
X69502438Y-102190476D02*
X69550057Y-102142857D01*
X70454819Y-101190476D02*
X70454819Y-101761904D01*
X70454819Y-101476190D02*
X69454819Y-101476190D01*
X69454819Y-101476190D02*
X69597676Y-101571428D01*
X69597676Y-101571428D02*
X69692914Y-101666666D01*
X69692914Y-101666666D02*
X69740533Y-101761904D01*
X69454819Y-100857142D02*
X69454819Y-100238095D01*
X69454819Y-100238095D02*
X69835771Y-100571428D01*
X69835771Y-100571428D02*
X69835771Y-100428571D01*
X69835771Y-100428571D02*
X69883390Y-100333333D01*
X69883390Y-100333333D02*
X69931009Y-100285714D01*
X69931009Y-100285714D02*
X70026247Y-100238095D01*
X70026247Y-100238095D02*
X70264342Y-100238095D01*
X70264342Y-100238095D02*
X70359580Y-100285714D01*
X70359580Y-100285714D02*
X70407200Y-100333333D01*
X70407200Y-100333333D02*
X70454819Y-100428571D01*
X70454819Y-100428571D02*
X70454819Y-100714285D01*
X70454819Y-100714285D02*
X70407200Y-100809523D01*
X70407200Y-100809523D02*
X70359580Y-100857142D01*
X102788095Y-66154819D02*
X102788095Y-66964342D01*
X102788095Y-66964342D02*
X102835714Y-67059580D01*
X102835714Y-67059580D02*
X102883333Y-67107200D01*
X102883333Y-67107200D02*
X102978571Y-67154819D01*
X102978571Y-67154819D02*
X103169047Y-67154819D01*
X103169047Y-67154819D02*
X103264285Y-67107200D01*
X103264285Y-67107200D02*
X103311904Y-67059580D01*
X103311904Y-67059580D02*
X103359523Y-66964342D01*
X103359523Y-66964342D02*
X103359523Y-66154819D01*
X104311904Y-66154819D02*
X103835714Y-66154819D01*
X103835714Y-66154819D02*
X103788095Y-66631009D01*
X103788095Y-66631009D02*
X103835714Y-66583390D01*
X103835714Y-66583390D02*
X103930952Y-66535771D01*
X103930952Y-66535771D02*
X104169047Y-66535771D01*
X104169047Y-66535771D02*
X104264285Y-66583390D01*
X104264285Y-66583390D02*
X104311904Y-66631009D01*
X104311904Y-66631009D02*
X104359523Y-66726247D01*
X104359523Y-66726247D02*
X104359523Y-66964342D01*
X104359523Y-66964342D02*
X104311904Y-67059580D01*
X104311904Y-67059580D02*
X104264285Y-67107200D01*
X104264285Y-67107200D02*
X104169047Y-67154819D01*
X104169047Y-67154819D02*
X103930952Y-67154819D01*
X103930952Y-67154819D02*
X103835714Y-67107200D01*
X103835714Y-67107200D02*
X103788095Y-67059580D01*
X89954819Y-57119047D02*
X89954819Y-57595237D01*
X89954819Y-57595237D02*
X88954819Y-57595237D01*
X89431009Y-56785713D02*
X89431009Y-56452380D01*
X89954819Y-56309523D02*
X89954819Y-56785713D01*
X89954819Y-56785713D02*
X88954819Y-56785713D01*
X88954819Y-56785713D02*
X88954819Y-56309523D01*
X89954819Y-55880951D02*
X88954819Y-55880951D01*
X88954819Y-55880951D02*
X88954819Y-55642856D01*
X88954819Y-55642856D02*
X89002438Y-55499999D01*
X89002438Y-55499999D02*
X89097676Y-55404761D01*
X89097676Y-55404761D02*
X89192914Y-55357142D01*
X89192914Y-55357142D02*
X89383390Y-55309523D01*
X89383390Y-55309523D02*
X89526247Y-55309523D01*
X89526247Y-55309523D02*
X89716723Y-55357142D01*
X89716723Y-55357142D02*
X89811961Y-55404761D01*
X89811961Y-55404761D02*
X89907200Y-55499999D01*
X89907200Y-55499999D02*
X89954819Y-55642856D01*
X89954819Y-55642856D02*
X89954819Y-55880951D01*
X89288152Y-54452380D02*
X89954819Y-54452380D01*
X88907200Y-54690475D02*
X89621485Y-54928570D01*
X89621485Y-54928570D02*
X89621485Y-54309523D01*
X132404761Y-87050057D02*
X132309523Y-87002438D01*
X132309523Y-87002438D02*
X132214285Y-86907200D01*
X132214285Y-86907200D02*
X132071428Y-86764342D01*
X132071428Y-86764342D02*
X131976190Y-86716723D01*
X131976190Y-86716723D02*
X131880952Y-86716723D01*
X131928571Y-86954819D02*
X131833333Y-86907200D01*
X131833333Y-86907200D02*
X131738095Y-86811961D01*
X131738095Y-86811961D02*
X131690476Y-86621485D01*
X131690476Y-86621485D02*
X131690476Y-86288152D01*
X131690476Y-86288152D02*
X131738095Y-86097676D01*
X131738095Y-86097676D02*
X131833333Y-86002438D01*
X131833333Y-86002438D02*
X131928571Y-85954819D01*
X131928571Y-85954819D02*
X132119047Y-85954819D01*
X132119047Y-85954819D02*
X132214285Y-86002438D01*
X132214285Y-86002438D02*
X132309523Y-86097676D01*
X132309523Y-86097676D02*
X132357142Y-86288152D01*
X132357142Y-86288152D02*
X132357142Y-86621485D01*
X132357142Y-86621485D02*
X132309523Y-86811961D01*
X132309523Y-86811961D02*
X132214285Y-86907200D01*
X132214285Y-86907200D02*
X132119047Y-86954819D01*
X132119047Y-86954819D02*
X131928571Y-86954819D01*
X133309523Y-86954819D02*
X132738095Y-86954819D01*
X133023809Y-86954819D02*
X133023809Y-85954819D01*
X133023809Y-85954819D02*
X132928571Y-86097676D01*
X132928571Y-86097676D02*
X132833333Y-86192914D01*
X132833333Y-86192914D02*
X132738095Y-86240533D01*
X111045180Y-112838095D02*
X110235657Y-112838095D01*
X110235657Y-112838095D02*
X110140419Y-112885714D01*
X110140419Y-112885714D02*
X110092800Y-112933333D01*
X110092800Y-112933333D02*
X110045180Y-113028571D01*
X110045180Y-113028571D02*
X110045180Y-113219047D01*
X110045180Y-113219047D02*
X110092800Y-113314285D01*
X110092800Y-113314285D02*
X110140419Y-113361904D01*
X110140419Y-113361904D02*
X110235657Y-113409523D01*
X110235657Y-113409523D02*
X111045180Y-113409523D01*
X110045180Y-114409523D02*
X110045180Y-113838095D01*
X110045180Y-114123809D02*
X111045180Y-114123809D01*
X111045180Y-114123809D02*
X110902323Y-114028571D01*
X110902323Y-114028571D02*
X110807085Y-113933333D01*
X110807085Y-113933333D02*
X110759466Y-113838095D01*
X118126666Y-74454819D02*
X118126666Y-75169104D01*
X118126666Y-75169104D02*
X118079047Y-75311961D01*
X118079047Y-75311961D02*
X117983809Y-75407200D01*
X117983809Y-75407200D02*
X117840952Y-75454819D01*
X117840952Y-75454819D02*
X117745714Y-75454819D01*
X119126666Y-75454819D02*
X118555238Y-75454819D01*
X118840952Y-75454819D02*
X118840952Y-74454819D01*
X118840952Y-74454819D02*
X118745714Y-74597676D01*
X118745714Y-74597676D02*
X118650476Y-74692914D01*
X118650476Y-74692914D02*
X118555238Y-74740533D01*
X103238095Y-50454819D02*
X103238095Y-49454819D01*
X103238095Y-49931009D02*
X103809523Y-49931009D01*
X103809523Y-50454819D02*
X103809523Y-49454819D01*
X104238095Y-49550057D02*
X104285714Y-49502438D01*
X104285714Y-49502438D02*
X104380952Y-49454819D01*
X104380952Y-49454819D02*
X104619047Y-49454819D01*
X104619047Y-49454819D02*
X104714285Y-49502438D01*
X104714285Y-49502438D02*
X104761904Y-49550057D01*
X104761904Y-49550057D02*
X104809523Y-49645295D01*
X104809523Y-49645295D02*
X104809523Y-49740533D01*
X104809523Y-49740533D02*
X104761904Y-49883390D01*
X104761904Y-49883390D02*
X104190476Y-50454819D01*
X104190476Y-50454819D02*
X104809523Y-50454819D01*
X71859580Y-89642857D02*
X71907200Y-89690476D01*
X71907200Y-89690476D02*
X71954819Y-89833333D01*
X71954819Y-89833333D02*
X71954819Y-89928571D01*
X71954819Y-89928571D02*
X71907200Y-90071428D01*
X71907200Y-90071428D02*
X71811961Y-90166666D01*
X71811961Y-90166666D02*
X71716723Y-90214285D01*
X71716723Y-90214285D02*
X71526247Y-90261904D01*
X71526247Y-90261904D02*
X71383390Y-90261904D01*
X71383390Y-90261904D02*
X71192914Y-90214285D01*
X71192914Y-90214285D02*
X71097676Y-90166666D01*
X71097676Y-90166666D02*
X71002438Y-90071428D01*
X71002438Y-90071428D02*
X70954819Y-89928571D01*
X70954819Y-89928571D02*
X70954819Y-89833333D01*
X70954819Y-89833333D02*
X71002438Y-89690476D01*
X71002438Y-89690476D02*
X71050057Y-89642857D01*
X71954819Y-88690476D02*
X71954819Y-89261904D01*
X71954819Y-88976190D02*
X70954819Y-88976190D01*
X70954819Y-88976190D02*
X71097676Y-89071428D01*
X71097676Y-89071428D02*
X71192914Y-89166666D01*
X71192914Y-89166666D02*
X71240533Y-89261904D01*
X70954819Y-88071428D02*
X70954819Y-87976190D01*
X70954819Y-87976190D02*
X71002438Y-87880952D01*
X71002438Y-87880952D02*
X71050057Y-87833333D01*
X71050057Y-87833333D02*
X71145295Y-87785714D01*
X71145295Y-87785714D02*
X71335771Y-87738095D01*
X71335771Y-87738095D02*
X71573866Y-87738095D01*
X71573866Y-87738095D02*
X71764342Y-87785714D01*
X71764342Y-87785714D02*
X71859580Y-87833333D01*
X71859580Y-87833333D02*
X71907200Y-87880952D01*
X71907200Y-87880952D02*
X71954819Y-87976190D01*
X71954819Y-87976190D02*
X71954819Y-88071428D01*
X71954819Y-88071428D02*
X71907200Y-88166666D01*
X71907200Y-88166666D02*
X71859580Y-88214285D01*
X71859580Y-88214285D02*
X71764342Y-88261904D01*
X71764342Y-88261904D02*
X71573866Y-88309523D01*
X71573866Y-88309523D02*
X71335771Y-88309523D01*
X71335771Y-88309523D02*
X71145295Y-88261904D01*
X71145295Y-88261904D02*
X71050057Y-88214285D01*
X71050057Y-88214285D02*
X71002438Y-88166666D01*
X71002438Y-88166666D02*
X70954819Y-88071428D01*
X77266666Y-130444819D02*
X77266666Y-131159104D01*
X77266666Y-131159104D02*
X77219047Y-131301961D01*
X77219047Y-131301961D02*
X77123809Y-131397200D01*
X77123809Y-131397200D02*
X76980952Y-131444819D01*
X76980952Y-131444819D02*
X76885714Y-131444819D01*
X77695238Y-130540057D02*
X77742857Y-130492438D01*
X77742857Y-130492438D02*
X77838095Y-130444819D01*
X77838095Y-130444819D02*
X78076190Y-130444819D01*
X78076190Y-130444819D02*
X78171428Y-130492438D01*
X78171428Y-130492438D02*
X78219047Y-130540057D01*
X78219047Y-130540057D02*
X78266666Y-130635295D01*
X78266666Y-130635295D02*
X78266666Y-130730533D01*
X78266666Y-130730533D02*
X78219047Y-130873390D01*
X78219047Y-130873390D02*
X77647619Y-131444819D01*
X77647619Y-131444819D02*
X78266666Y-131444819D01*
X115080952Y-125394819D02*
X114604762Y-125394819D01*
X114604762Y-125394819D02*
X114604762Y-124394819D01*
X115414286Y-124871009D02*
X115747619Y-124871009D01*
X115890476Y-125394819D02*
X115414286Y-125394819D01*
X115414286Y-125394819D02*
X115414286Y-124394819D01*
X115414286Y-124394819D02*
X115890476Y-124394819D01*
X116319048Y-125394819D02*
X116319048Y-124394819D01*
X116319048Y-124394819D02*
X116557143Y-124394819D01*
X116557143Y-124394819D02*
X116700000Y-124442438D01*
X116700000Y-124442438D02*
X116795238Y-124537676D01*
X116795238Y-124537676D02*
X116842857Y-124632914D01*
X116842857Y-124632914D02*
X116890476Y-124823390D01*
X116890476Y-124823390D02*
X116890476Y-124966247D01*
X116890476Y-124966247D02*
X116842857Y-125156723D01*
X116842857Y-125156723D02*
X116795238Y-125251961D01*
X116795238Y-125251961D02*
X116700000Y-125347200D01*
X116700000Y-125347200D02*
X116557143Y-125394819D01*
X116557143Y-125394819D02*
X116319048Y-125394819D01*
X117795238Y-124394819D02*
X117319048Y-124394819D01*
X117319048Y-124394819D02*
X117271429Y-124871009D01*
X117271429Y-124871009D02*
X117319048Y-124823390D01*
X117319048Y-124823390D02*
X117414286Y-124775771D01*
X117414286Y-124775771D02*
X117652381Y-124775771D01*
X117652381Y-124775771D02*
X117747619Y-124823390D01*
X117747619Y-124823390D02*
X117795238Y-124871009D01*
X117795238Y-124871009D02*
X117842857Y-124966247D01*
X117842857Y-124966247D02*
X117842857Y-125204342D01*
X117842857Y-125204342D02*
X117795238Y-125299580D01*
X117795238Y-125299580D02*
X117747619Y-125347200D01*
X117747619Y-125347200D02*
X117652381Y-125394819D01*
X117652381Y-125394819D02*
X117414286Y-125394819D01*
X117414286Y-125394819D02*
X117319048Y-125347200D01*
X117319048Y-125347200D02*
X117271429Y-125299580D01*
X146359580Y-96166666D02*
X146407200Y-96214285D01*
X146407200Y-96214285D02*
X146454819Y-96357142D01*
X146454819Y-96357142D02*
X146454819Y-96452380D01*
X146454819Y-96452380D02*
X146407200Y-96595237D01*
X146407200Y-96595237D02*
X146311961Y-96690475D01*
X146311961Y-96690475D02*
X146216723Y-96738094D01*
X146216723Y-96738094D02*
X146026247Y-96785713D01*
X146026247Y-96785713D02*
X145883390Y-96785713D01*
X145883390Y-96785713D02*
X145692914Y-96738094D01*
X145692914Y-96738094D02*
X145597676Y-96690475D01*
X145597676Y-96690475D02*
X145502438Y-96595237D01*
X145502438Y-96595237D02*
X145454819Y-96452380D01*
X145454819Y-96452380D02*
X145454819Y-96357142D01*
X145454819Y-96357142D02*
X145502438Y-96214285D01*
X145502438Y-96214285D02*
X145550057Y-96166666D01*
X146454819Y-95214285D02*
X146454819Y-95785713D01*
X146454819Y-95499999D02*
X145454819Y-95499999D01*
X145454819Y-95499999D02*
X145597676Y-95595237D01*
X145597676Y-95595237D02*
X145692914Y-95690475D01*
X145692914Y-95690475D02*
X145740533Y-95785713D01*
X144333333Y-117359580D02*
X144285714Y-117407200D01*
X144285714Y-117407200D02*
X144142857Y-117454819D01*
X144142857Y-117454819D02*
X144047619Y-117454819D01*
X144047619Y-117454819D02*
X143904762Y-117407200D01*
X143904762Y-117407200D02*
X143809524Y-117311961D01*
X143809524Y-117311961D02*
X143761905Y-117216723D01*
X143761905Y-117216723D02*
X143714286Y-117026247D01*
X143714286Y-117026247D02*
X143714286Y-116883390D01*
X143714286Y-116883390D02*
X143761905Y-116692914D01*
X143761905Y-116692914D02*
X143809524Y-116597676D01*
X143809524Y-116597676D02*
X143904762Y-116502438D01*
X143904762Y-116502438D02*
X144047619Y-116454819D01*
X144047619Y-116454819D02*
X144142857Y-116454819D01*
X144142857Y-116454819D02*
X144285714Y-116502438D01*
X144285714Y-116502438D02*
X144333333Y-116550057D01*
X144809524Y-117454819D02*
X145000000Y-117454819D01*
X145000000Y-117454819D02*
X145095238Y-117407200D01*
X145095238Y-117407200D02*
X145142857Y-117359580D01*
X145142857Y-117359580D02*
X145238095Y-117216723D01*
X145238095Y-117216723D02*
X145285714Y-117026247D01*
X145285714Y-117026247D02*
X145285714Y-116645295D01*
X145285714Y-116645295D02*
X145238095Y-116550057D01*
X145238095Y-116550057D02*
X145190476Y-116502438D01*
X145190476Y-116502438D02*
X145095238Y-116454819D01*
X145095238Y-116454819D02*
X144904762Y-116454819D01*
X144904762Y-116454819D02*
X144809524Y-116502438D01*
X144809524Y-116502438D02*
X144761905Y-116550057D01*
X144761905Y-116550057D02*
X144714286Y-116645295D01*
X144714286Y-116645295D02*
X144714286Y-116883390D01*
X144714286Y-116883390D02*
X144761905Y-116978628D01*
X144761905Y-116978628D02*
X144809524Y-117026247D01*
X144809524Y-117026247D02*
X144904762Y-117073866D01*
X144904762Y-117073866D02*
X145095238Y-117073866D01*
X145095238Y-117073866D02*
X145190476Y-117026247D01*
X145190476Y-117026247D02*
X145238095Y-116978628D01*
X145238095Y-116978628D02*
X145285714Y-116883390D01*
X75238095Y-143454819D02*
X75238095Y-142454819D01*
X75238095Y-142931009D02*
X75809523Y-142931009D01*
X75809523Y-143454819D02*
X75809523Y-142454819D01*
X76761904Y-142454819D02*
X76285714Y-142454819D01*
X76285714Y-142454819D02*
X76238095Y-142931009D01*
X76238095Y-142931009D02*
X76285714Y-142883390D01*
X76285714Y-142883390D02*
X76380952Y-142835771D01*
X76380952Y-142835771D02*
X76619047Y-142835771D01*
X76619047Y-142835771D02*
X76714285Y-142883390D01*
X76714285Y-142883390D02*
X76761904Y-142931009D01*
X76761904Y-142931009D02*
X76809523Y-143026247D01*
X76809523Y-143026247D02*
X76809523Y-143264342D01*
X76809523Y-143264342D02*
X76761904Y-143359580D01*
X76761904Y-143359580D02*
X76714285Y-143407200D01*
X76714285Y-143407200D02*
X76619047Y-143454819D01*
X76619047Y-143454819D02*
X76380952Y-143454819D01*
X76380952Y-143454819D02*
X76285714Y-143407200D01*
X76285714Y-143407200D02*
X76238095Y-143359580D01*
X126954819Y-85666666D02*
X126478628Y-85999999D01*
X126954819Y-86238094D02*
X125954819Y-86238094D01*
X125954819Y-86238094D02*
X125954819Y-85857142D01*
X125954819Y-85857142D02*
X126002438Y-85761904D01*
X126002438Y-85761904D02*
X126050057Y-85714285D01*
X126050057Y-85714285D02*
X126145295Y-85666666D01*
X126145295Y-85666666D02*
X126288152Y-85666666D01*
X126288152Y-85666666D02*
X126383390Y-85714285D01*
X126383390Y-85714285D02*
X126431009Y-85761904D01*
X126431009Y-85761904D02*
X126478628Y-85857142D01*
X126478628Y-85857142D02*
X126478628Y-86238094D01*
X126050057Y-85285713D02*
X126002438Y-85238094D01*
X126002438Y-85238094D02*
X125954819Y-85142856D01*
X125954819Y-85142856D02*
X125954819Y-84904761D01*
X125954819Y-84904761D02*
X126002438Y-84809523D01*
X126002438Y-84809523D02*
X126050057Y-84761904D01*
X126050057Y-84761904D02*
X126145295Y-84714285D01*
X126145295Y-84714285D02*
X126240533Y-84714285D01*
X126240533Y-84714285D02*
X126383390Y-84761904D01*
X126383390Y-84761904D02*
X126954819Y-85333332D01*
X126954819Y-85333332D02*
X126954819Y-84714285D01*
X94454819Y-99666666D02*
X94454819Y-100142856D01*
X94454819Y-100142856D02*
X93454819Y-100142856D01*
X93550057Y-99380951D02*
X93502438Y-99333332D01*
X93502438Y-99333332D02*
X93454819Y-99238094D01*
X93454819Y-99238094D02*
X93454819Y-98999999D01*
X93454819Y-98999999D02*
X93502438Y-98904761D01*
X93502438Y-98904761D02*
X93550057Y-98857142D01*
X93550057Y-98857142D02*
X93645295Y-98809523D01*
X93645295Y-98809523D02*
X93740533Y-98809523D01*
X93740533Y-98809523D02*
X93883390Y-98857142D01*
X93883390Y-98857142D02*
X94454819Y-99428570D01*
X94454819Y-99428570D02*
X94454819Y-98809523D01*
X141333333Y-80859580D02*
X141285714Y-80907200D01*
X141285714Y-80907200D02*
X141142857Y-80954819D01*
X141142857Y-80954819D02*
X141047619Y-80954819D01*
X141047619Y-80954819D02*
X140904762Y-80907200D01*
X140904762Y-80907200D02*
X140809524Y-80811961D01*
X140809524Y-80811961D02*
X140761905Y-80716723D01*
X140761905Y-80716723D02*
X140714286Y-80526247D01*
X140714286Y-80526247D02*
X140714286Y-80383390D01*
X140714286Y-80383390D02*
X140761905Y-80192914D01*
X140761905Y-80192914D02*
X140809524Y-80097676D01*
X140809524Y-80097676D02*
X140904762Y-80002438D01*
X140904762Y-80002438D02*
X141047619Y-79954819D01*
X141047619Y-79954819D02*
X141142857Y-79954819D01*
X141142857Y-79954819D02*
X141285714Y-80002438D01*
X141285714Y-80002438D02*
X141333333Y-80050057D01*
X142238095Y-79954819D02*
X141761905Y-79954819D01*
X141761905Y-79954819D02*
X141714286Y-80431009D01*
X141714286Y-80431009D02*
X141761905Y-80383390D01*
X141761905Y-80383390D02*
X141857143Y-80335771D01*
X141857143Y-80335771D02*
X142095238Y-80335771D01*
X142095238Y-80335771D02*
X142190476Y-80383390D01*
X142190476Y-80383390D02*
X142238095Y-80431009D01*
X142238095Y-80431009D02*
X142285714Y-80526247D01*
X142285714Y-80526247D02*
X142285714Y-80764342D01*
X142285714Y-80764342D02*
X142238095Y-80859580D01*
X142238095Y-80859580D02*
X142190476Y-80907200D01*
X142190476Y-80907200D02*
X142095238Y-80954819D01*
X142095238Y-80954819D02*
X141857143Y-80954819D01*
X141857143Y-80954819D02*
X141761905Y-80907200D01*
X141761905Y-80907200D02*
X141714286Y-80859580D01*
X147261905Y-95454819D02*
X147261905Y-96264342D01*
X147261905Y-96264342D02*
X147309524Y-96359580D01*
X147309524Y-96359580D02*
X147357143Y-96407200D01*
X147357143Y-96407200D02*
X147452381Y-96454819D01*
X147452381Y-96454819D02*
X147642857Y-96454819D01*
X147642857Y-96454819D02*
X147738095Y-96407200D01*
X147738095Y-96407200D02*
X147785714Y-96359580D01*
X147785714Y-96359580D02*
X147833333Y-96264342D01*
X147833333Y-96264342D02*
X147833333Y-95454819D01*
X148261905Y-96407200D02*
X148404762Y-96454819D01*
X148404762Y-96454819D02*
X148642857Y-96454819D01*
X148642857Y-96454819D02*
X148738095Y-96407200D01*
X148738095Y-96407200D02*
X148785714Y-96359580D01*
X148785714Y-96359580D02*
X148833333Y-96264342D01*
X148833333Y-96264342D02*
X148833333Y-96169104D01*
X148833333Y-96169104D02*
X148785714Y-96073866D01*
X148785714Y-96073866D02*
X148738095Y-96026247D01*
X148738095Y-96026247D02*
X148642857Y-95978628D01*
X148642857Y-95978628D02*
X148452381Y-95931009D01*
X148452381Y-95931009D02*
X148357143Y-95883390D01*
X148357143Y-95883390D02*
X148309524Y-95835771D01*
X148309524Y-95835771D02*
X148261905Y-95740533D01*
X148261905Y-95740533D02*
X148261905Y-95645295D01*
X148261905Y-95645295D02*
X148309524Y-95550057D01*
X148309524Y-95550057D02*
X148357143Y-95502438D01*
X148357143Y-95502438D02*
X148452381Y-95454819D01*
X148452381Y-95454819D02*
X148690476Y-95454819D01*
X148690476Y-95454819D02*
X148833333Y-95502438D01*
X149595238Y-95931009D02*
X149738095Y-95978628D01*
X149738095Y-95978628D02*
X149785714Y-96026247D01*
X149785714Y-96026247D02*
X149833333Y-96121485D01*
X149833333Y-96121485D02*
X149833333Y-96264342D01*
X149833333Y-96264342D02*
X149785714Y-96359580D01*
X149785714Y-96359580D02*
X149738095Y-96407200D01*
X149738095Y-96407200D02*
X149642857Y-96454819D01*
X149642857Y-96454819D02*
X149261905Y-96454819D01*
X149261905Y-96454819D02*
X149261905Y-95454819D01*
X149261905Y-95454819D02*
X149595238Y-95454819D01*
X149595238Y-95454819D02*
X149690476Y-95502438D01*
X149690476Y-95502438D02*
X149738095Y-95550057D01*
X149738095Y-95550057D02*
X149785714Y-95645295D01*
X149785714Y-95645295D02*
X149785714Y-95740533D01*
X149785714Y-95740533D02*
X149738095Y-95835771D01*
X149738095Y-95835771D02*
X149690476Y-95883390D01*
X149690476Y-95883390D02*
X149595238Y-95931009D01*
X149595238Y-95931009D02*
X149261905Y-95931009D01*
X150785714Y-96454819D02*
X150214286Y-96454819D01*
X150500000Y-96454819D02*
X150500000Y-95454819D01*
X150500000Y-95454819D02*
X150404762Y-95597676D01*
X150404762Y-95597676D02*
X150309524Y-95692914D01*
X150309524Y-95692914D02*
X150214286Y-95740533D01*
X134454819Y-101142857D02*
X133978628Y-101476190D01*
X134454819Y-101714285D02*
X133454819Y-101714285D01*
X133454819Y-101714285D02*
X133454819Y-101333333D01*
X133454819Y-101333333D02*
X133502438Y-101238095D01*
X133502438Y-101238095D02*
X133550057Y-101190476D01*
X133550057Y-101190476D02*
X133645295Y-101142857D01*
X133645295Y-101142857D02*
X133788152Y-101142857D01*
X133788152Y-101142857D02*
X133883390Y-101190476D01*
X133883390Y-101190476D02*
X133931009Y-101238095D01*
X133931009Y-101238095D02*
X133978628Y-101333333D01*
X133978628Y-101333333D02*
X133978628Y-101714285D01*
X134454819Y-100190476D02*
X134454819Y-100761904D01*
X134454819Y-100476190D02*
X133454819Y-100476190D01*
X133454819Y-100476190D02*
X133597676Y-100571428D01*
X133597676Y-100571428D02*
X133692914Y-100666666D01*
X133692914Y-100666666D02*
X133740533Y-100761904D01*
X133788152Y-99333333D02*
X134454819Y-99333333D01*
X133407200Y-99571428D02*
X134121485Y-99809523D01*
X134121485Y-99809523D02*
X134121485Y-99190476D01*
X103238095Y-150454819D02*
X103238095Y-149454819D01*
X103238095Y-149931009D02*
X103809523Y-149931009D01*
X103809523Y-150454819D02*
X103809523Y-149454819D01*
X104714285Y-149788152D02*
X104714285Y-150454819D01*
X104476190Y-149407200D02*
X104238095Y-150121485D01*
X104238095Y-150121485D02*
X104857142Y-150121485D01*
X144238095Y-79954819D02*
X144238095Y-80764342D01*
X144238095Y-80764342D02*
X144285714Y-80859580D01*
X144285714Y-80859580D02*
X144333333Y-80907200D01*
X144333333Y-80907200D02*
X144428571Y-80954819D01*
X144428571Y-80954819D02*
X144619047Y-80954819D01*
X144619047Y-80954819D02*
X144714285Y-80907200D01*
X144714285Y-80907200D02*
X144761904Y-80859580D01*
X144761904Y-80859580D02*
X144809523Y-80764342D01*
X144809523Y-80764342D02*
X144809523Y-79954819D01*
X145714285Y-80288152D02*
X145714285Y-80954819D01*
X145476190Y-79907200D02*
X145238095Y-80621485D01*
X145238095Y-80621485D02*
X145857142Y-80621485D01*
X136454819Y-114642857D02*
X135978628Y-114976190D01*
X136454819Y-115214285D02*
X135454819Y-115214285D01*
X135454819Y-115214285D02*
X135454819Y-114833333D01*
X135454819Y-114833333D02*
X135502438Y-114738095D01*
X135502438Y-114738095D02*
X135550057Y-114690476D01*
X135550057Y-114690476D02*
X135645295Y-114642857D01*
X135645295Y-114642857D02*
X135788152Y-114642857D01*
X135788152Y-114642857D02*
X135883390Y-114690476D01*
X135883390Y-114690476D02*
X135931009Y-114738095D01*
X135931009Y-114738095D02*
X135978628Y-114833333D01*
X135978628Y-114833333D02*
X135978628Y-115214285D01*
X136454819Y-113690476D02*
X136454819Y-114261904D01*
X136454819Y-113976190D02*
X135454819Y-113976190D01*
X135454819Y-113976190D02*
X135597676Y-114071428D01*
X135597676Y-114071428D02*
X135692914Y-114166666D01*
X135692914Y-114166666D02*
X135740533Y-114261904D01*
X135883390Y-113119047D02*
X135835771Y-113214285D01*
X135835771Y-113214285D02*
X135788152Y-113261904D01*
X135788152Y-113261904D02*
X135692914Y-113309523D01*
X135692914Y-113309523D02*
X135645295Y-113309523D01*
X135645295Y-113309523D02*
X135550057Y-113261904D01*
X135550057Y-113261904D02*
X135502438Y-113214285D01*
X135502438Y-113214285D02*
X135454819Y-113119047D01*
X135454819Y-113119047D02*
X135454819Y-112928571D01*
X135454819Y-112928571D02*
X135502438Y-112833333D01*
X135502438Y-112833333D02*
X135550057Y-112785714D01*
X135550057Y-112785714D02*
X135645295Y-112738095D01*
X135645295Y-112738095D02*
X135692914Y-112738095D01*
X135692914Y-112738095D02*
X135788152Y-112785714D01*
X135788152Y-112785714D02*
X135835771Y-112833333D01*
X135835771Y-112833333D02*
X135883390Y-112928571D01*
X135883390Y-112928571D02*
X135883390Y-113119047D01*
X135883390Y-113119047D02*
X135931009Y-113214285D01*
X135931009Y-113214285D02*
X135978628Y-113261904D01*
X135978628Y-113261904D02*
X136073866Y-113309523D01*
X136073866Y-113309523D02*
X136264342Y-113309523D01*
X136264342Y-113309523D02*
X136359580Y-113261904D01*
X136359580Y-113261904D02*
X136407200Y-113214285D01*
X136407200Y-113214285D02*
X136454819Y-113119047D01*
X136454819Y-113119047D02*
X136454819Y-112928571D01*
X136454819Y-112928571D02*
X136407200Y-112833333D01*
X136407200Y-112833333D02*
X136359580Y-112785714D01*
X136359580Y-112785714D02*
X136264342Y-112738095D01*
X136264342Y-112738095D02*
X136073866Y-112738095D01*
X136073866Y-112738095D02*
X135978628Y-112785714D01*
X135978628Y-112785714D02*
X135931009Y-112833333D01*
X135931009Y-112833333D02*
X135883390Y-112928571D01*
D15*
%TO.C,SDCard1*%
X153820000Y-100670000D02*
X153820000Y-102980000D01*
X152760000Y-113750000D02*
X152760000Y-112250000D01*
X151920000Y-100670000D02*
X153820000Y-100670000D01*
X151920000Y-99650000D02*
X151920000Y-100670000D01*
X145590000Y-112990000D02*
X145570000Y-113010000D01*
X145590000Y-112400000D02*
X145590000Y-112990000D01*
X145590000Y-110960000D02*
X140620000Y-111260000D01*
X145590000Y-110820000D02*
X145590000Y-110960000D01*
X145590000Y-110450000D02*
X145590000Y-110820000D01*
X145590000Y-107350000D02*
X145570000Y-107380000D01*
X145590000Y-106770000D02*
X145590000Y-107350000D01*
X145590000Y-105320000D02*
X140620000Y-105620000D01*
X145590000Y-105180000D02*
X145590000Y-105320000D01*
X145590000Y-104810000D02*
X145590000Y-105180000D01*
X145570000Y-113010000D02*
X140010000Y-112480000D01*
X145570000Y-107380000D02*
X140010000Y-106840000D01*
X140620000Y-111970000D02*
X145590000Y-112400000D01*
X140620000Y-111260000D02*
X140620000Y-111970000D01*
X140620000Y-106330000D02*
X145590000Y-106770000D01*
X140620000Y-105620000D02*
X140620000Y-106330000D01*
X140030000Y-110830000D02*
X145590000Y-110450000D01*
X140030000Y-105190000D02*
X145590000Y-104810000D01*
X140010000Y-112480000D02*
X140010000Y-110860000D01*
X140010000Y-110860000D02*
X140030000Y-110830000D01*
X140010000Y-106840000D02*
X140010000Y-105220000D01*
X140010000Y-105220000D02*
X140030000Y-105190000D01*
X138530000Y-113730000D02*
X150570000Y-113730000D01*
X138530000Y-113730000D02*
X138530000Y-112900000D01*
X138530000Y-110440000D02*
X138530000Y-107200000D01*
X138530000Y-104740000D02*
X138530000Y-99650000D01*
X138530000Y-99650000D02*
X151920000Y-99650000D01*
X152754014Y-112253786D02*
G75*
G02*
X153800000Y-102980000I8795988J3703786D01*
G01*
D16*
%TO.C,+3.3*%
X95750000Y-72500000D02*
G75*
G02*
X93850000Y-72500000I-950000J0D01*
G01*
X93850000Y-72500000D02*
G75*
G02*
X95750000Y-72500000I950000J0D01*
G01*
D13*
%TO.C,R15*%
X136660000Y-106140000D02*
X135340000Y-106140000D01*
X136660000Y-105180000D02*
X136660000Y-106140000D01*
X136660000Y-104320000D02*
X136660000Y-103360000D01*
X136660000Y-103360000D02*
X135340000Y-103360000D01*
X135340000Y-106140000D02*
X135340000Y-105180000D01*
X135340000Y-103360000D02*
X135340000Y-104320000D01*
D15*
%TO.C,U6*%
X103000000Y-98590000D02*
X103000000Y-101400000D01*
X98600000Y-103000000D02*
X101400000Y-103000000D01*
X98600000Y-97000000D02*
X101400000Y-97000000D01*
X97000000Y-101400000D02*
X97000000Y-98590000D01*
%TO.C,C4*%
X114710000Y-130780000D02*
G75*
G02*
X114400000Y-131090000I-310000J0D01*
G01*
X114400000Y-128310000D02*
G75*
G02*
X114710000Y-128620000I0J-310000D01*
G01*
X113600000Y-131090000D02*
G75*
G02*
X113290000Y-130780000I0J310000D01*
G01*
X113290000Y-128620000D02*
G75*
G02*
X113600000Y-128310000I310000J0D01*
G01*
X114710000Y-129980000D02*
X114710000Y-130780000D01*
X114710000Y-129420000D02*
X114710000Y-128620000D01*
X114400000Y-131090000D02*
X113600000Y-131090000D01*
X113600000Y-128310000D02*
X114400000Y-128310000D01*
X113290000Y-129980000D02*
X113290000Y-130780000D01*
X113290000Y-129420000D02*
X113290000Y-128620000D01*
D13*
%TO.C,LED2*%
X96250000Y-53690000D02*
X94770000Y-53690000D01*
X96250000Y-52540000D02*
X96250000Y-53690000D01*
X96250000Y-52160000D02*
X96250000Y-51110000D01*
X95950000Y-50810000D02*
X96250000Y-51110000D01*
X95850000Y-52520000D02*
X95840000Y-52520000D01*
X95850000Y-52520000D02*
X95170000Y-52520000D01*
X95850000Y-50810000D02*
X95950000Y-50810000D01*
X95850000Y-50810000D02*
X95150000Y-50810000D01*
X95840000Y-52520000D02*
X95500000Y-52180000D01*
X95500000Y-52520000D02*
X95500000Y-52180000D01*
X95170000Y-52520000D02*
X95170000Y-52510000D01*
X95170000Y-52510000D02*
X95500000Y-52180000D01*
X95150000Y-50810000D02*
X95050000Y-50810000D01*
X95050000Y-50810000D02*
X94750000Y-51110000D01*
X94750000Y-52540000D02*
X94750000Y-53690000D01*
X94750000Y-52160000D02*
X94750000Y-51110000D01*
%TO.C,C6*%
X107060000Y-73250000D02*
G75*
G02*
X106910000Y-73400000I-150000J0D01*
G01*
X106910000Y-71600000D02*
G75*
G02*
X107060000Y-71750000I0J-150000D01*
G01*
X103290000Y-73400000D02*
G75*
G02*
X103140000Y-73250000I0J150000D01*
G01*
X103140000Y-71750000D02*
G75*
G02*
X103290000Y-71600000I150000J0D01*
G01*
X107060000Y-71750000D02*
X107060000Y-73250000D01*
X106910000Y-73400000D02*
X105500000Y-73400000D01*
X105500000Y-71600000D02*
X106910000Y-71600000D01*
X104700000Y-71600000D02*
X103290000Y-71600000D01*
X103290000Y-73400000D02*
X104700000Y-73400000D01*
X103140000Y-71750000D02*
X103140000Y-73250000D01*
D15*
%TO.C,C14*%
X93210000Y-92880000D02*
G75*
G02*
X92900000Y-93190000I-310000J0D01*
G01*
X92900000Y-90410000D02*
G75*
G02*
X93210000Y-90720000I0J-310000D01*
G01*
X92100000Y-93190000D02*
G75*
G02*
X91790000Y-92880000I0J310000D01*
G01*
X91790000Y-90720000D02*
G75*
G02*
X92100000Y-90410000I310000J0D01*
G01*
X93210000Y-92080000D02*
X93210000Y-92880000D01*
X93210000Y-91520000D02*
X93210000Y-90720000D01*
X92900000Y-93190000D02*
X92100000Y-93190000D01*
X92100000Y-90410000D02*
X92900000Y-90410000D01*
X91790000Y-92080000D02*
X91790000Y-92880000D01*
X91790000Y-91520000D02*
X91790000Y-90720000D01*
%TO.C,C2*%
X145210000Y-94780000D02*
G75*
G02*
X144900000Y-95090000I-310000J0D01*
G01*
X144900000Y-92310000D02*
G75*
G02*
X145210000Y-92620000I0J-310000D01*
G01*
X144100000Y-95090000D02*
G75*
G02*
X143790000Y-94780000I0J310000D01*
G01*
X143790000Y-92620000D02*
G75*
G02*
X144100000Y-92310000I310000J0D01*
G01*
X145210000Y-93980000D02*
X145210000Y-94780000D01*
X145210000Y-93420000D02*
X145210000Y-92620000D01*
X144900000Y-95090000D02*
X144100000Y-95090000D01*
X144100000Y-92310000D02*
X144900000Y-92310000D01*
X143790000Y-93980000D02*
X143790000Y-94780000D01*
X143790000Y-93420000D02*
X143790000Y-92620000D01*
D13*
%TO.C,R3*%
X131640000Y-83160000D02*
X130680000Y-83160000D01*
X131640000Y-81840000D02*
X131640000Y-83160000D01*
X130680000Y-81840000D02*
X131640000Y-81840000D01*
X129820000Y-81840000D02*
X128860000Y-81840000D01*
X128860000Y-83160000D02*
X129820000Y-83160000D01*
X128860000Y-81840000D02*
X128860000Y-83160000D01*
%TO.C,R8*%
X109160000Y-110140000D02*
X109160000Y-109180000D01*
X109160000Y-107360000D02*
X109160000Y-108320000D01*
X107840000Y-110140000D02*
X109160000Y-110140000D01*
X107840000Y-109180000D02*
X107840000Y-110140000D01*
X107840000Y-108320000D02*
X107840000Y-107360000D01*
X107840000Y-107360000D02*
X109160000Y-107360000D01*
D17*
%TO.C,U3*%
X135550001Y-89000000D02*
X135550001Y-89000000D01*
X135550001Y-89000000D01*
X135550001Y-89000000D01*
X135550001Y-89000000D01*
X135550001Y-89000000D01*
X135550001Y-89000001D01*
X135550001Y-89000001D01*
X135550001Y-89000001D01*
X135550001Y-89000001D01*
X135550001Y-89000001D01*
X135550001Y-89000001D01*
X135550001Y-89000001D01*
X135550000Y-89000001D01*
X135550000Y-89000001D01*
X135550000Y-89000001D01*
X135550000Y-89000001D01*
X135550000Y-89000001D01*
X135550000Y-89000001D01*
X135550000Y-89000001D01*
X135550000Y-89000001D01*
X135550000Y-89000001D01*
X135550000Y-89000001D01*
X135550000Y-89000001D01*
X135550000Y-89000001D01*
X135549999Y-89000001D01*
X135549999Y-89000001D01*
X135549999Y-89000001D01*
X135549999Y-89000001D01*
X135549999Y-89000001D01*
X135549999Y-89000001D01*
X135549999Y-89000000D01*
X135549999Y-89000000D01*
X135549999Y-89000000D01*
X135549999Y-89000000D01*
X135549999Y-89000000D01*
X135549999Y-89000000D01*
X135549999Y-89000000D02*
X135549999Y-89000000D01*
X135549999Y-89000000D01*
X135549999Y-89000000D01*
X135549999Y-89000000D01*
X135549999Y-89000000D01*
X135549999Y-89000000D01*
X135549999Y-88999999D01*
X135549999Y-88999999D01*
X135549999Y-88999999D01*
X135549999Y-88999999D01*
X135549999Y-88999999D01*
X135550000Y-88999999D01*
X135550000Y-88999999D01*
X135550000Y-88999999D01*
X135550000Y-88999999D01*
X135550000Y-88999999D01*
X135550000Y-88999999D01*
X135550000Y-88999999D01*
X135550000Y-88999999D01*
X135550000Y-88999999D01*
X135550000Y-88999999D01*
X135550000Y-88999999D01*
X135550000Y-88999999D01*
X135550001Y-88999999D01*
X135550001Y-88999999D01*
X135550001Y-88999999D01*
X135550001Y-88999999D01*
X135550001Y-88999999D01*
X135550001Y-88999999D01*
X135550001Y-89000000D01*
X135550001Y-89000000D01*
X135550001Y-89000000D01*
X135550001Y-89000000D01*
X135550001Y-89000000D01*
X135550001Y-89000000D01*
X135550001Y-89000000D01*
D14*
X140650000Y-88650000D02*
X140650000Y-88000000D01*
X140650000Y-84000000D02*
X140650000Y-83350000D01*
X140650000Y-83350000D02*
X140000000Y-83350000D01*
X140000000Y-88650000D02*
X140650000Y-88650000D01*
X136000000Y-88650000D02*
X135350000Y-88650000D01*
X136000000Y-83350000D02*
X135350000Y-83350000D01*
X135350000Y-88650000D02*
X135350000Y-88000000D01*
X135350000Y-83350000D02*
X135350000Y-84000000D01*
D13*
%TO.C,C12*%
X72000000Y-99370000D02*
G75*
G02*
X71850000Y-99520000I-150000J0D01*
G01*
X71850000Y-97180000D02*
G75*
G02*
X72000000Y-97330000I0J-150000D01*
G01*
X71150000Y-99520000D02*
G75*
G02*
X71000000Y-99370000I0J150000D01*
G01*
X71000000Y-97330000D02*
G75*
G02*
X71150000Y-97180000I150000J0D01*
G01*
X72000000Y-99370000D02*
X72000000Y-98580000D01*
X72000000Y-97330000D02*
X72000000Y-98120000D01*
X71150000Y-99520000D02*
X71850000Y-99520000D01*
X71150000Y-97180000D02*
X71850000Y-97180000D01*
X71000000Y-98580000D02*
X71000000Y-99370000D01*
X71000000Y-98120000D02*
X71000000Y-97330000D01*
%TO.C,R9*%
X107645000Y-110140000D02*
X106325000Y-110140000D01*
X107645000Y-109180000D02*
X107645000Y-110140000D01*
X107645000Y-108320000D02*
X107645000Y-107360000D01*
X107645000Y-107360000D02*
X106325000Y-107360000D01*
X106325000Y-110140000D02*
X106325000Y-109180000D01*
X106325000Y-107360000D02*
X106325000Y-108320000D01*
%TO.C,R22*%
X114140000Y-127110000D02*
X114140000Y-125790000D01*
X114140000Y-125790000D02*
X113180000Y-125790000D01*
X113180000Y-127110000D02*
X114140000Y-127110000D01*
X112320000Y-127110000D02*
X111360000Y-127110000D01*
X111360000Y-127110000D02*
X111360000Y-125790000D01*
X111360000Y-125790000D02*
X112320000Y-125790000D01*
%TO.C,LED1*%
X118250000Y-53690000D02*
X116770000Y-53690000D01*
X118250000Y-52540000D02*
X118250000Y-53690000D01*
X118250000Y-52160000D02*
X118250000Y-51110000D01*
X117950000Y-50810000D02*
X118250000Y-51110000D01*
X117850000Y-52520000D02*
X117840000Y-52520000D01*
X117850000Y-52520000D02*
X117170000Y-52520000D01*
X117850000Y-50810000D02*
X117950000Y-50810000D01*
X117850000Y-50810000D02*
X117150000Y-50810000D01*
X117840000Y-52520000D02*
X117500000Y-52180000D01*
X117500000Y-52520000D02*
X117500000Y-52180000D01*
X117170000Y-52520000D02*
X117170000Y-52510000D01*
X117170000Y-52510000D02*
X117500000Y-52180000D01*
X117150000Y-50810000D02*
X117050000Y-50810000D01*
X117050000Y-50810000D02*
X116750000Y-51110000D01*
X116750000Y-52540000D02*
X116750000Y-53690000D01*
X116750000Y-52160000D02*
X116750000Y-51110000D01*
%TO.C,R12*%
X108640000Y-66160000D02*
X108640000Y-64840000D01*
X108640000Y-64840000D02*
X107680000Y-64840000D01*
X107680000Y-66160000D02*
X108640000Y-66160000D01*
X106820000Y-66160000D02*
X105860000Y-66160000D01*
X105860000Y-66160000D02*
X105860000Y-64840000D01*
X105860000Y-64840000D02*
X106820000Y-64840000D01*
%TO.C,C7*%
X102460000Y-73250000D02*
G75*
G02*
X102310000Y-73400000I-150000J0D01*
G01*
X102310000Y-71600000D02*
G75*
G02*
X102460000Y-71750000I0J-150000D01*
G01*
X98690000Y-73400000D02*
G75*
G02*
X98540000Y-73250000I0J150000D01*
G01*
X98540000Y-71750000D02*
G75*
G02*
X98690000Y-71600000I150000J0D01*
G01*
X102460000Y-73250000D02*
X102460000Y-71750000D01*
X102310000Y-71600000D02*
X100900000Y-71600000D01*
X100900000Y-73400000D02*
X102310000Y-73400000D01*
X100100000Y-73400000D02*
X98690000Y-73400000D01*
X98690000Y-71600000D02*
X100100000Y-71600000D01*
X98540000Y-73250000D02*
X98540000Y-71750000D01*
%TO.C,C8*%
X148520000Y-115850000D02*
G75*
G02*
X148370000Y-116000000I-150000J0D01*
G01*
X148370000Y-115000000D02*
G75*
G02*
X148520000Y-115150000I0J-150000D01*
G01*
X146330000Y-116000000D02*
G75*
G02*
X146180000Y-115850000I0J150000D01*
G01*
X146180000Y-115150000D02*
G75*
G02*
X146330000Y-115000000I150000J0D01*
G01*
X148520000Y-115150000D02*
X148520000Y-115850000D01*
X148370000Y-116000000D02*
X147580000Y-116000000D01*
X147580000Y-115000000D02*
X148370000Y-115000000D01*
X147120000Y-115000000D02*
X146330000Y-115000000D01*
X146330000Y-116000000D02*
X147120000Y-116000000D01*
X146180000Y-115150000D02*
X146180000Y-115850000D01*
%TO.C,R6*%
X120160000Y-58140000D02*
X118840000Y-58140000D01*
X120160000Y-57180000D02*
X120160000Y-58140000D01*
X120160000Y-56320000D02*
X120160000Y-55360000D01*
X120160000Y-55360000D02*
X118840000Y-55360000D01*
X118840000Y-58140000D02*
X118840000Y-57180000D01*
X118840000Y-55360000D02*
X118840000Y-56320000D01*
%TO.C,R19*%
X93160000Y-96640000D02*
X93160000Y-95680000D01*
X93160000Y-93860000D02*
X93160000Y-94820000D01*
X91840000Y-96640000D02*
X93160000Y-96640000D01*
X91840000Y-95680000D02*
X91840000Y-96640000D01*
X91840000Y-94820000D02*
X91840000Y-93860000D01*
X91840000Y-93860000D02*
X93160000Y-93860000D01*
%TO.C,R16*%
X132660000Y-110140000D02*
X131340000Y-110140000D01*
X132660000Y-109180000D02*
X132660000Y-110140000D01*
X132660000Y-108320000D02*
X132660000Y-107360000D01*
X132660000Y-107360000D02*
X131340000Y-107360000D01*
X131340000Y-110140000D02*
X131340000Y-109180000D01*
X131340000Y-107360000D02*
X131340000Y-108320000D01*
%TO.C,C3*%
X112500000Y-130570000D02*
G75*
G02*
X112350000Y-130720000I-150000J0D01*
G01*
X112350000Y-128380000D02*
G75*
G02*
X112500000Y-128530000I0J-150000D01*
G01*
X111650000Y-130720000D02*
G75*
G02*
X111500000Y-130570000I0J150000D01*
G01*
X111500000Y-128530000D02*
G75*
G02*
X111650000Y-128380000I150000J0D01*
G01*
X112500000Y-130570000D02*
X112500000Y-129780000D01*
X112500000Y-128530000D02*
X112500000Y-129320000D01*
X111650000Y-130720000D02*
X112350000Y-130720000D01*
X111650000Y-128380000D02*
X112350000Y-128380000D01*
X111500000Y-129780000D02*
X111500000Y-130570000D01*
X111500000Y-129320000D02*
X111500000Y-128530000D01*
D16*
%TO.C,U2*%
X91440000Y-101340000D02*
X91110000Y-101100000D01*
X91440000Y-100860000D01*
X91440000Y-101340000D01*
G36*
X91440000Y-101340000D02*
G01*
X91110000Y-101100000D01*
X91440000Y-100860000D01*
X91440000Y-101340000D01*
G37*
X91110000Y-105060000D02*
X73890000Y-105060000D01*
X91110000Y-101450000D02*
X91110000Y-105060000D01*
X91110000Y-100750000D02*
X91110000Y-82840000D01*
X91110000Y-82840000D02*
X73890000Y-82840000D01*
X73890000Y-105060000D02*
X73890000Y-82840000D01*
D13*
%TO.C,R21*%
X88160000Y-58140000D02*
X86840000Y-58140000D01*
X88160000Y-57180000D02*
X88160000Y-58140000D01*
X88160000Y-56320000D02*
X88160000Y-55360000D01*
X88160000Y-55360000D02*
X86840000Y-55360000D01*
X86840000Y-58140000D02*
X86840000Y-57180000D01*
X86840000Y-55360000D02*
X86840000Y-56320000D01*
%TO.C,LED3*%
X84250000Y-53690000D02*
X82770000Y-53690000D01*
X84250000Y-52540000D02*
X84250000Y-53690000D01*
X84250000Y-52160000D02*
X84250000Y-51110000D01*
X83950000Y-50810000D02*
X84250000Y-51110000D01*
X83850000Y-52520000D02*
X83840000Y-52520000D01*
X83850000Y-52520000D02*
X83170000Y-52520000D01*
X83850000Y-50810000D02*
X83950000Y-50810000D01*
X83850000Y-50810000D02*
X83150000Y-50810000D01*
X83840000Y-52520000D02*
X83500000Y-52180000D01*
X83500000Y-52520000D02*
X83500000Y-52180000D01*
X83170000Y-52520000D02*
X83170000Y-52510000D01*
X83170000Y-52510000D02*
X83500000Y-52180000D01*
X83150000Y-50810000D02*
X83050000Y-50810000D01*
X83050000Y-50810000D02*
X82750000Y-51110000D01*
X82750000Y-52540000D02*
X82750000Y-53690000D01*
X82750000Y-52160000D02*
X82750000Y-51110000D01*
%TO.C,R5*%
X149160000Y-85140000D02*
X147840000Y-85140000D01*
X149160000Y-84180000D02*
X149160000Y-85140000D01*
X149160000Y-83320000D02*
X149160000Y-82360000D01*
X149160000Y-82360000D02*
X147840000Y-82360000D01*
X147840000Y-85140000D02*
X147840000Y-84180000D01*
X147840000Y-82360000D02*
X147840000Y-83320000D01*
%TO.C,L1*%
X98490000Y-70600000D02*
X98490000Y-70380000D01*
X98460000Y-66610000D02*
X98460000Y-66400000D01*
X98460000Y-66400000D02*
X94310000Y-66400000D01*
X94330000Y-70400000D02*
X94320000Y-70600000D01*
X94320000Y-70600000D02*
X98490000Y-70600000D01*
X94310000Y-66400000D02*
X94310000Y-66600000D01*
%TO.C,R17*%
X134660000Y-111140000D02*
X133340000Y-111140000D01*
X134660000Y-110180000D02*
X134660000Y-111140000D01*
X134660000Y-109320000D02*
X134660000Y-108360000D01*
X134660000Y-108360000D02*
X133340000Y-108360000D01*
X133340000Y-111140000D02*
X133340000Y-110180000D01*
X133340000Y-108360000D02*
X133340000Y-109320000D01*
%TO.C,R10*%
X102140000Y-66160000D02*
X102140000Y-64840000D01*
X102140000Y-64840000D02*
X101180000Y-64840000D01*
X101180000Y-66160000D02*
X102140000Y-66160000D01*
X100320000Y-66160000D02*
X99360000Y-66160000D01*
X99360000Y-66160000D02*
X99360000Y-64840000D01*
X99360000Y-64840000D02*
X100320000Y-64840000D01*
%TO.C,R4*%
X84240000Y-108060000D02*
X84240000Y-106740000D01*
X84240000Y-106740000D02*
X83280000Y-106740000D01*
X83280000Y-108060000D02*
X84240000Y-108060000D01*
X82420000Y-108060000D02*
X81460000Y-108060000D01*
X81460000Y-108060000D02*
X81460000Y-106740000D01*
X81460000Y-106740000D02*
X82420000Y-106740000D01*
D15*
%TO.C,B1*%
X62420000Y-78700000D02*
G75*
G02*
X63285356Y-92570070I-1410000J-7050000D01*
G01*
X58830000Y-92660000D02*
G75*
G02*
X59596546Y-78642400I2190000J6910000D01*
G01*
D13*
X68240000Y-94010000D02*
X68240000Y-90200000D01*
X68240000Y-90200000D02*
X66840000Y-90200000D01*
X63290000Y-94010000D02*
X68240000Y-94010000D01*
X55030000Y-90200000D02*
X53760000Y-90200000D01*
X53760000Y-94010000D02*
X58720000Y-94010000D01*
X53760000Y-90200000D02*
X53760000Y-94010000D01*
%TO.C,R11*%
X108640000Y-68710000D02*
X107680000Y-68710000D01*
X108640000Y-67390000D02*
X108640000Y-68710000D01*
X107680000Y-67390000D02*
X108640000Y-67390000D01*
X106820000Y-67390000D02*
X105860000Y-67390000D01*
X105860000Y-68710000D02*
X106820000Y-68710000D01*
X105860000Y-67390000D02*
X105860000Y-68710000D01*
%TO.C,R13*%
X132660000Y-104140000D02*
X131340000Y-104140000D01*
X132660000Y-103180000D02*
X132660000Y-104140000D01*
X132660000Y-102320000D02*
X132660000Y-101360000D01*
X132660000Y-101360000D02*
X131340000Y-101360000D01*
X131340000Y-104140000D02*
X131340000Y-103180000D01*
X131340000Y-101360000D02*
X131340000Y-102320000D01*
%TO.C,R20*%
X86160000Y-58140000D02*
X84840000Y-58140000D01*
X86160000Y-57180000D02*
X86160000Y-58140000D01*
X86160000Y-56320000D02*
X86160000Y-55360000D01*
X86160000Y-55360000D02*
X84840000Y-55360000D01*
X84840000Y-58140000D02*
X84840000Y-57180000D01*
X84840000Y-55360000D02*
X84840000Y-56320000D01*
%TO.C,R1*%
X142660000Y-87640000D02*
X142660000Y-86680000D01*
X142660000Y-84860000D02*
X142660000Y-85820000D01*
X141340000Y-87640000D02*
X142660000Y-87640000D01*
X141340000Y-86680000D02*
X141340000Y-87640000D01*
X141340000Y-85820000D02*
X141340000Y-84860000D01*
X141340000Y-84860000D02*
X142660000Y-84860000D01*
%TO.C,R7*%
X100140000Y-53760000D02*
X99180000Y-53760000D01*
X100140000Y-52440000D02*
X100140000Y-53760000D01*
X99180000Y-52440000D02*
X100140000Y-52440000D01*
X98320000Y-52440000D02*
X97360000Y-52440000D01*
X97360000Y-53760000D02*
X98320000Y-53760000D01*
X97360000Y-52440000D02*
X97360000Y-53760000D01*
D15*
%TO.C,C11*%
X70710000Y-92680000D02*
G75*
G02*
X70400000Y-92990000I-310000J0D01*
G01*
X70400000Y-90210000D02*
G75*
G02*
X70710000Y-90520000I0J-310000D01*
G01*
X69600000Y-92990000D02*
G75*
G02*
X69290000Y-92680000I0J310000D01*
G01*
X69290000Y-90520000D02*
G75*
G02*
X69600000Y-90210000I310000J0D01*
G01*
X70710000Y-91880000D02*
X70710000Y-92680000D01*
X70710000Y-91320000D02*
X70710000Y-90520000D01*
X70400000Y-92990000D02*
X69600000Y-92990000D01*
X69600000Y-90210000D02*
X70400000Y-90210000D01*
X69290000Y-91880000D02*
X69290000Y-92680000D01*
X69290000Y-91320000D02*
X69290000Y-90520000D01*
%TO.C,C13*%
X70710000Y-99580000D02*
G75*
G02*
X70400000Y-99890000I-310000J0D01*
G01*
X70400000Y-97110000D02*
G75*
G02*
X70710000Y-97420000I0J-310000D01*
G01*
X69600000Y-99890000D02*
G75*
G02*
X69290000Y-99580000I0J310000D01*
G01*
X69290000Y-97420000D02*
G75*
G02*
X69600000Y-97110000I310000J0D01*
G01*
X70710000Y-98780000D02*
X70710000Y-99580000D01*
X70710000Y-98220000D02*
X70710000Y-97420000D01*
X70400000Y-99890000D02*
X69600000Y-99890000D01*
X69600000Y-97110000D02*
X70400000Y-97110000D01*
X69290000Y-98780000D02*
X69290000Y-99580000D01*
X69290000Y-98220000D02*
X69290000Y-97420000D01*
%TO.C,U5*%
D13*
X101475000Y-67500000D02*
G75*
G02*
X101325000Y-67500000I-75000J0D01*
G01*
X101325000Y-67500000D02*
G75*
G02*
X101475000Y-67500000I75000J0D01*
G01*
D11*
X103700000Y-70550000D02*
X103700000Y-70400000D01*
X103700000Y-70550000D02*
X101900000Y-70550000D01*
X103700000Y-69490000D02*
X103700000Y-68500000D01*
X103700000Y-67590000D02*
X103700000Y-67450000D01*
X103700000Y-67450000D02*
X101900000Y-67450000D01*
X101900000Y-70550000D02*
X101900000Y-70400000D01*
X101900000Y-69490000D02*
X101900000Y-69450000D01*
X101900000Y-68540000D02*
X101900000Y-68500000D01*
X101900000Y-67590000D02*
X101900000Y-67450000D01*
D13*
%TO.C,LED4*%
X90250000Y-53690000D02*
X88770000Y-53690000D01*
X90250000Y-52540000D02*
X90250000Y-53690000D01*
X90250000Y-52160000D02*
X90250000Y-51110000D01*
X89950000Y-50810000D02*
X90250000Y-51110000D01*
X89850000Y-52520000D02*
X89840000Y-52520000D01*
X89850000Y-52520000D02*
X89170000Y-52520000D01*
X89850000Y-50810000D02*
X89950000Y-50810000D01*
X89850000Y-50810000D02*
X89150000Y-50810000D01*
X89840000Y-52520000D02*
X89500000Y-52180000D01*
X89500000Y-52520000D02*
X89500000Y-52180000D01*
X89170000Y-52520000D02*
X89170000Y-52510000D01*
X89170000Y-52510000D02*
X89500000Y-52180000D01*
X89150000Y-50810000D02*
X89050000Y-50810000D01*
X89050000Y-50810000D02*
X88750000Y-51110000D01*
X88750000Y-52540000D02*
X88750000Y-53690000D01*
X88750000Y-52160000D02*
X88750000Y-51110000D01*
%TO.C,Q1*%
X131525000Y-84250000D02*
G75*
G02*
X131375000Y-84250000I-75000J0D01*
G01*
X131375000Y-84250000D02*
G75*
G02*
X131525000Y-84250000I75000J0D01*
G01*
D18*
X131450000Y-86050000D02*
X131370000Y-86050000D01*
X131450000Y-84650000D02*
X131450000Y-86050000D01*
X131450000Y-84650000D02*
X131370000Y-84650000D01*
X129340000Y-86050000D02*
X129250000Y-86050000D01*
X129340000Y-84650000D02*
X129250000Y-84650000D01*
X129250000Y-84650000D02*
X129250000Y-86050000D01*
D16*
%TO.C,U1*%
X109200000Y-131525000D02*
X109200000Y-131025000D01*
X109700000Y-131025000D01*
X109200000Y-131525000D01*
G36*
X109200000Y-131525000D02*
G01*
X109200000Y-131025000D01*
X109700000Y-131025000D01*
X109200000Y-131525000D01*
G37*
X109200000Y-137900000D02*
X109200000Y-131700000D01*
X109200000Y-137900000D02*
X90800000Y-137900000D01*
X109200000Y-113050000D02*
X109200000Y-112050000D01*
X109200000Y-112050000D02*
X107700000Y-112050000D01*
X90800000Y-137900000D02*
X90800000Y-131700000D01*
X90800000Y-112050000D02*
X92300000Y-112050000D01*
X90800000Y-112050000D02*
X90800000Y-113050000D01*
%TO.C,J1*%
X120880000Y-71120000D02*
X120880000Y-72500000D01*
X119500000Y-71120000D02*
X120880000Y-71120000D01*
X118230000Y-73880000D02*
X115580000Y-73880000D01*
X118230000Y-71120000D02*
X118230000Y-73880000D01*
X118230000Y-71120000D02*
X115580000Y-71120000D01*
X115580000Y-71120000D02*
X115580000Y-73880000D01*
D13*
%TO.C,C10*%
X72000000Y-92770000D02*
G75*
G02*
X71850000Y-92920000I-150000J0D01*
G01*
X71850000Y-90580000D02*
G75*
G02*
X72000000Y-90730000I0J-150000D01*
G01*
X71150000Y-92920000D02*
G75*
G02*
X71000000Y-92770000I0J150000D01*
G01*
X71000000Y-90730000D02*
G75*
G02*
X71150000Y-90580000I150000J0D01*
G01*
X72000000Y-91980000D02*
X72000000Y-92770000D01*
X72000000Y-91520000D02*
X72000000Y-90730000D01*
X71850000Y-92920000D02*
X71150000Y-92920000D01*
X71850000Y-90580000D02*
X71150000Y-90580000D01*
X71000000Y-92770000D02*
X71000000Y-91980000D01*
X71000000Y-90730000D02*
X71000000Y-91520000D01*
D16*
%TO.C,J2*%
X78980000Y-129990000D02*
X77600000Y-129990000D01*
X78980000Y-128610000D02*
X78980000Y-129990000D01*
X78980000Y-127340000D02*
X78980000Y-119610000D01*
X78980000Y-127340000D02*
X76220000Y-127340000D01*
X78980000Y-119610000D02*
X76220000Y-119610000D01*
X76220000Y-127340000D02*
X76220000Y-119610000D01*
D13*
%TO.C,LED5*%
X117690000Y-126900000D02*
X117390000Y-127200000D01*
X117690000Y-126800000D02*
X117690000Y-126900000D01*
X117690000Y-126800000D02*
X117690000Y-126100000D01*
X117690000Y-126100000D02*
X117690000Y-126000000D01*
X117690000Y-126000000D02*
X117390000Y-125700000D01*
X116340000Y-127200000D02*
X117390000Y-127200000D01*
X116340000Y-125700000D02*
X117390000Y-125700000D01*
X115990000Y-126120000D02*
X116320000Y-126450000D01*
X115980000Y-126800000D02*
X115980000Y-126790000D01*
X115980000Y-126800000D02*
X115980000Y-126120000D01*
X115980000Y-126790000D02*
X116320000Y-126450000D01*
X115980000Y-126450000D02*
X116320000Y-126450000D01*
X115980000Y-126120000D02*
X115990000Y-126120000D01*
X115960000Y-127200000D02*
X114810000Y-127200000D01*
X115960000Y-125700000D02*
X114810000Y-125700000D01*
X114810000Y-127200000D02*
X114810000Y-125720000D01*
%TO.C,C1*%
X146500000Y-94570000D02*
G75*
G02*
X146350000Y-94720000I-150000J0D01*
G01*
X146350000Y-92380000D02*
G75*
G02*
X146500000Y-92530000I0J-150000D01*
G01*
X145650000Y-94720000D02*
G75*
G02*
X145500000Y-94570000I0J150000D01*
G01*
X145500000Y-92530000D02*
G75*
G02*
X145650000Y-92380000I150000J0D01*
G01*
X146500000Y-94570000D02*
X146500000Y-93780000D01*
X146500000Y-92530000D02*
X146500000Y-93320000D01*
X145650000Y-94720000D02*
X146350000Y-94720000D01*
X145650000Y-92380000D02*
X146350000Y-92380000D01*
X145500000Y-93780000D02*
X145500000Y-94570000D01*
X145500000Y-93320000D02*
X145500000Y-92530000D01*
D15*
%TO.C,C9*%
X148590000Y-117400000D02*
G75*
G02*
X148280000Y-117710000I-310000J0D01*
G01*
X148280000Y-116290000D02*
G75*
G02*
X148590000Y-116600000I0J-310000D01*
G01*
X146120000Y-117710000D02*
G75*
G02*
X145810000Y-117400000I0J310000D01*
G01*
X145810000Y-116600000D02*
G75*
G02*
X146120000Y-116290000I310000J0D01*
G01*
X148590000Y-116600000D02*
X148590000Y-117400000D01*
X147480000Y-117710000D02*
X148280000Y-117710000D01*
X147480000Y-116290000D02*
X148280000Y-116290000D01*
X146920000Y-117710000D02*
X146120000Y-117710000D01*
X146920000Y-116290000D02*
X146120000Y-116290000D01*
X145810000Y-117400000D02*
X145810000Y-116600000D01*
D13*
%TO.C,R2*%
X128660000Y-86640000D02*
X127340000Y-86640000D01*
X128660000Y-85680000D02*
X128660000Y-86640000D01*
X128660000Y-84820000D02*
X128660000Y-83860000D01*
X128660000Y-83860000D02*
X127340000Y-83860000D01*
X127340000Y-86640000D02*
X127340000Y-85680000D01*
X127340000Y-83860000D02*
X127340000Y-84820000D01*
%TO.C,L2*%
X93000000Y-100470000D02*
X93000000Y-99680000D01*
X93000000Y-98430000D02*
X93000000Y-99220000D01*
X92850000Y-100620000D02*
X93000000Y-100470000D01*
X92850000Y-98280000D02*
X93000000Y-98430000D01*
X92150000Y-100620000D02*
X92850000Y-100620000D01*
X92150000Y-98280000D02*
X92850000Y-98280000D01*
X92000000Y-100470000D02*
X92150000Y-100620000D01*
X92000000Y-99680000D02*
X92000000Y-100470000D01*
X92000000Y-99220000D02*
X92000000Y-98430000D01*
X92000000Y-98430000D02*
X92150000Y-98280000D01*
D15*
%TO.C,C5*%
X143190000Y-82600000D02*
G75*
G02*
X142880000Y-82910000I-310000J0D01*
G01*
X142880000Y-81490000D02*
G75*
G02*
X143190000Y-81800000I0J-310000D01*
G01*
X140720000Y-82910000D02*
G75*
G02*
X140410000Y-82600000I0J310000D01*
G01*
X140410000Y-81800000D02*
G75*
G02*
X140720000Y-81490000I310000J0D01*
G01*
X143190000Y-81800000D02*
X143190000Y-82600000D01*
X142080000Y-82910000D02*
X142880000Y-82910000D01*
X142080000Y-81490000D02*
X142880000Y-81490000D01*
X141520000Y-82910000D02*
X140720000Y-82910000D01*
X141520000Y-81490000D02*
X140720000Y-81490000D01*
X140410000Y-82600000D02*
X140410000Y-81800000D01*
%TO.C,USB1*%
X154330000Y-94870000D02*
X154280000Y-94870000D01*
X154330000Y-94700000D02*
X154330000Y-94870000D01*
X154280000Y-94870000D02*
X153860000Y-94510000D01*
X154280000Y-86410000D02*
X154080000Y-86620000D01*
X154280000Y-86120000D02*
X154280000Y-86410000D01*
X154080000Y-94440000D02*
X154330000Y-94700000D01*
X154080000Y-86620000D02*
X154080000Y-94440000D01*
X153860000Y-86510000D02*
X154280000Y-86120000D01*
X152390000Y-94500000D02*
X153860000Y-94500000D01*
X152390000Y-94500000D02*
X152330000Y-94500000D01*
X152390000Y-86500000D02*
X153990000Y-86500000D01*
X152390000Y-86500000D02*
X152330000Y-86500000D01*
X150570000Y-94500000D02*
X149770000Y-94500000D01*
X150570000Y-86500000D02*
X149770000Y-86500000D01*
X148410000Y-94500000D02*
X148360000Y-94500000D01*
X148410000Y-86500000D02*
X148360000Y-86500000D01*
X148360000Y-94500000D02*
X148360000Y-92260000D01*
X148360000Y-88740000D02*
X148360000Y-86500000D01*
D13*
%TO.C,R14*%
X134660000Y-105140000D02*
X133340000Y-105140000D01*
X134660000Y-104180000D02*
X134660000Y-105140000D01*
X134660000Y-103320000D02*
X134660000Y-102360000D01*
X134660000Y-102360000D02*
X133340000Y-102360000D01*
X133340000Y-105140000D02*
X133340000Y-104180000D01*
X133340000Y-102360000D02*
X133340000Y-103320000D01*
%TO.C,U4*%
X147025000Y-81950000D02*
G75*
G02*
X146875000Y-81950000I-75000J0D01*
G01*
X146875000Y-81950000D02*
G75*
G02*
X147025000Y-81950000I75000J0D01*
G01*
X146980000Y-82500000D02*
X146980000Y-84200000D01*
X144970000Y-84200000D02*
X145930000Y-84200000D01*
X143920000Y-82500000D02*
X143920000Y-84200000D01*
%TO.C,R18*%
X136660000Y-112140000D02*
X135340000Y-112140000D01*
X136660000Y-111180000D02*
X136660000Y-112140000D01*
X136660000Y-110320000D02*
X136660000Y-109360000D01*
X136660000Y-109360000D02*
X135340000Y-109360000D01*
X135340000Y-112140000D02*
X135340000Y-111180000D01*
X135340000Y-109360000D02*
X135340000Y-110320000D01*
%TD*%
%LPC*%
D19*
%TO.C,SDCard1*%
X149150000Y-104770000D03*
X148800000Y-105870000D03*
X149150000Y-106970000D03*
X149400000Y-108080000D03*
X149150000Y-109170000D03*
X149400000Y-110270000D03*
X149150000Y-111380000D03*
X149150000Y-112470000D03*
D20*
X151900000Y-113220000D03*
X152950000Y-99780000D03*
D21*
X139050000Y-111670000D03*
X139050000Y-105970000D03*
%TD*%
D22*
%TO.C,+3.3*%
X94800000Y-72500000D03*
%TD*%
D23*
%TO.C,R15*%
X136000000Y-104000000D03*
X136000000Y-105500000D03*
%TD*%
D24*
%TO.C,U6*%
X100000000Y-100000000D03*
D25*
X102550000Y-102550000D03*
X102550000Y-97450000D03*
X97450000Y-97450000D03*
X97450000Y-102550000D03*
%TD*%
D26*
%TO.C,H1*%
X80000000Y-57000000D03*
%TD*%
D27*
%TO.C,C4*%
X114000000Y-130400000D03*
X114000000Y-129000000D03*
%TD*%
D28*
%TO.C,LED2*%
X95500000Y-53100000D03*
X95500000Y-51500000D03*
%TD*%
D26*
%TO.C,H3*%
X138000000Y-95000000D03*
%TD*%
D29*
%TO.C,C6*%
X104100000Y-72500000D03*
X106100000Y-72500000D03*
%TD*%
D27*
%TO.C,C14*%
X92500000Y-91100000D03*
X92500000Y-92500000D03*
%TD*%
%TO.C,C2*%
X144500000Y-94400000D03*
X144500000Y-93000000D03*
%TD*%
D30*
%TO.C,R3*%
X129500000Y-82500000D03*
X131000000Y-82500000D03*
%TD*%
D23*
%TO.C,R8*%
X108500000Y-109500000D03*
X108500000Y-108000000D03*
%TD*%
D31*
%TO.C,U3*%
X138000000Y-86000000D03*
D32*
X135500000Y-87500000D03*
X135500000Y-87000000D03*
X135500000Y-86500000D03*
X135500000Y-86000000D03*
X135500000Y-85500000D03*
X135500000Y-85000000D03*
X135500000Y-84500000D03*
D33*
X136500000Y-83500000D03*
X137000000Y-83500000D03*
X137500000Y-83500000D03*
X138000000Y-83500000D03*
X138500000Y-83500000D03*
X139000000Y-83500000D03*
X139500000Y-83500000D03*
D32*
X140500000Y-84500000D03*
X140500000Y-85000000D03*
X140500000Y-85500000D03*
X140500000Y-86000000D03*
X140500000Y-86500000D03*
X140500000Y-87000000D03*
X140500000Y-87500000D03*
D33*
X139500000Y-88500000D03*
X139000000Y-88500000D03*
X138500000Y-88500000D03*
X138000000Y-88500000D03*
X137500000Y-88500000D03*
X137000000Y-88500000D03*
X136500000Y-88500000D03*
%TD*%
D34*
%TO.C,C12*%
X71500000Y-98900000D03*
X71500000Y-97800000D03*
%TD*%
D23*
%TO.C,R9*%
X106985000Y-108000000D03*
X106985000Y-109500000D03*
%TD*%
D30*
%TO.C,R22*%
X113500000Y-126450000D03*
X112000000Y-126450000D03*
%TD*%
D28*
%TO.C,LED1*%
X117500000Y-53100000D03*
X117500000Y-51500000D03*
%TD*%
D30*
%TO.C,R12*%
X108000000Y-65500000D03*
X106500000Y-65500000D03*
%TD*%
D29*
%TO.C,C7*%
X101500000Y-72500000D03*
X99500000Y-72500000D03*
%TD*%
D35*
%TO.C,C8*%
X146800000Y-115500000D03*
X147900000Y-115500000D03*
%TD*%
D23*
%TO.C,R6*%
X119500000Y-56000000D03*
X119500000Y-57500000D03*
%TD*%
%TO.C,R19*%
X92500000Y-96000000D03*
X92500000Y-94500000D03*
%TD*%
%TO.C,R16*%
X132000000Y-108000000D03*
X132000000Y-109500000D03*
%TD*%
D34*
%TO.C,C3*%
X112000000Y-130100000D03*
X112000000Y-129000000D03*
%TD*%
D36*
%TO.C,U2*%
X77250000Y-86600000D03*
X77250000Y-88700000D03*
X77250000Y-90800000D03*
X77250000Y-92900000D03*
X77250000Y-95000000D03*
X77250000Y-97100000D03*
X77250000Y-99200000D03*
X77250000Y-101300000D03*
X79350000Y-86600000D03*
X79350000Y-88700000D03*
X79350000Y-90800000D03*
X79350000Y-92900000D03*
X79350000Y-95000000D03*
X79350000Y-97100000D03*
X79350000Y-99200000D03*
X79350000Y-101300000D03*
X81450000Y-86600000D03*
X81450000Y-88700000D03*
X81450000Y-90800000D03*
X81450000Y-92900000D03*
X81450000Y-95000000D03*
X81450000Y-97100000D03*
X81450000Y-99200000D03*
X81450000Y-101300000D03*
X83550000Y-86600000D03*
X83550000Y-88700000D03*
X83550000Y-90800000D03*
X83550000Y-92900000D03*
X83550000Y-95000000D03*
X83550000Y-97100000D03*
X83550000Y-99200000D03*
X83550000Y-101300000D03*
X85650000Y-86600000D03*
X85650000Y-88700000D03*
X85650000Y-90800000D03*
X85650000Y-92900000D03*
X85650000Y-95000000D03*
X85650000Y-97100000D03*
X85650000Y-99200000D03*
X85650000Y-101300000D03*
X87750000Y-86600000D03*
X87750000Y-88700000D03*
X87750000Y-90800000D03*
X87750000Y-92900000D03*
X87750000Y-95000000D03*
X87750000Y-97100000D03*
X87750000Y-99200000D03*
X87750000Y-101300000D03*
D37*
X89100000Y-103900000D03*
X88000000Y-103900000D03*
X86900000Y-103900000D03*
X85800000Y-103900000D03*
X84700000Y-103900000D03*
X83600000Y-103900000D03*
X82500000Y-103900000D03*
X81400000Y-103900000D03*
X80300000Y-103900000D03*
X79200000Y-103900000D03*
X78100000Y-103900000D03*
X77000000Y-103900000D03*
X75900000Y-103900000D03*
D38*
X75000000Y-101100000D03*
X75000000Y-100000000D03*
X75000000Y-98900000D03*
X75000000Y-97800000D03*
X75000000Y-96700000D03*
X75000000Y-95600000D03*
X75000000Y-94500000D03*
X75000000Y-93400000D03*
X75000000Y-92300000D03*
X75000000Y-91200000D03*
X75000000Y-90100000D03*
X75000000Y-89000000D03*
X75000000Y-87900000D03*
X75000000Y-86800000D03*
D37*
X75900000Y-84000000D03*
X77000000Y-84000000D03*
X78100000Y-84000000D03*
X79200000Y-84000000D03*
X80300000Y-84000000D03*
X81400000Y-84000000D03*
X82500000Y-84000000D03*
X83600000Y-84000000D03*
X84700000Y-84000000D03*
X85800000Y-84000000D03*
X86900000Y-84000000D03*
X88000000Y-84000000D03*
X89100000Y-84000000D03*
D38*
X90000000Y-86800000D03*
X90000000Y-87900000D03*
X90000000Y-89000000D03*
X90000000Y-90100000D03*
X90000000Y-91200000D03*
X90000000Y-92300000D03*
X90000000Y-93400000D03*
X90000000Y-94500000D03*
X90000000Y-95600000D03*
X90000000Y-96700000D03*
X90000000Y-97800000D03*
X90000000Y-98900000D03*
X90000000Y-100000000D03*
X90000000Y-101100000D03*
%TD*%
D23*
%TO.C,R21*%
X87500000Y-56000000D03*
X87500000Y-57500000D03*
%TD*%
D28*
%TO.C,LED3*%
X83500000Y-53100000D03*
X83500000Y-51500000D03*
%TD*%
D23*
%TO.C,R5*%
X148500000Y-83000000D03*
X148500000Y-84500000D03*
%TD*%
D39*
%TO.C,L1*%
X94800000Y-68500000D03*
X98000000Y-68500000D03*
%TD*%
D23*
%TO.C,R17*%
X134000000Y-109000000D03*
X134000000Y-110500000D03*
%TD*%
D30*
%TO.C,R10*%
X101500000Y-65500000D03*
X100000000Y-65500000D03*
%TD*%
%TO.C,R4*%
X83600000Y-107400000D03*
X82100000Y-107400000D03*
%TD*%
D40*
%TO.C,B1*%
X61000000Y-77150000D03*
X61000000Y-94350000D03*
D41*
X61000000Y-82000000D03*
D42*
X61000000Y-89500000D03*
%TD*%
D30*
%TO.C,R11*%
X106500000Y-68050000D03*
X108000000Y-68050000D03*
%TD*%
D23*
%TO.C,R13*%
X132000000Y-102000000D03*
X132000000Y-103500000D03*
%TD*%
%TO.C,R20*%
X85500000Y-56000000D03*
X85500000Y-57500000D03*
%TD*%
D26*
%TO.C,H6*%
X54000000Y-100000000D03*
%TD*%
D23*
%TO.C,R1*%
X142000000Y-87000000D03*
X142000000Y-85500000D03*
%TD*%
D30*
%TO.C,R7*%
X98000000Y-53100000D03*
X99500000Y-53100000D03*
%TD*%
D27*
%TO.C,C11*%
X70000000Y-90900000D03*
X70000000Y-92300000D03*
%TD*%
%TO.C,C13*%
X70000000Y-99200000D03*
X70000000Y-97800000D03*
%TD*%
D43*
%TO.C,U5*%
X104100000Y-68050000D03*
X104100000Y-69950000D03*
X101500000Y-69950000D03*
X101500000Y-69000000D03*
X101500000Y-68050000D03*
%TD*%
D28*
%TO.C,LED4*%
X89500000Y-53100000D03*
X89500000Y-51500000D03*
%TD*%
D44*
%TO.C,Q1*%
X131000000Y-86250000D03*
X130350000Y-86250000D03*
X129700000Y-86250000D03*
X129700000Y-84450000D03*
X130350000Y-84450000D03*
X131000000Y-84450000D03*
%TD*%
D45*
%TO.C,U1*%
X100500000Y-121500000D03*
X100500000Y-123500000D03*
X101500000Y-122500000D03*
D46*
X101500000Y-122540000D03*
D45*
X102500000Y-121500000D03*
X102500000Y-123500000D03*
D47*
X91250000Y-130260000D03*
X91250000Y-128990000D03*
X91250000Y-127720000D03*
X91250000Y-126450000D03*
X91250000Y-125180000D03*
X91250000Y-123910000D03*
X91250000Y-122640000D03*
X91250000Y-121370000D03*
X91250000Y-120100000D03*
X91250000Y-118830000D03*
X91250000Y-117560000D03*
X91250000Y-116290000D03*
X91250000Y-115020000D03*
X91250000Y-113750000D03*
D48*
X93015000Y-112500000D03*
X94285000Y-112500000D03*
X95555000Y-112500000D03*
X96825000Y-112500000D03*
X98095000Y-112500000D03*
X99365000Y-112500000D03*
X100635000Y-112500000D03*
X101905000Y-112500000D03*
X103175000Y-112500000D03*
X104445000Y-112500000D03*
X105715000Y-112500000D03*
X106985000Y-112500000D03*
D47*
X108750000Y-113750000D03*
X108750000Y-115020000D03*
X108750000Y-116290000D03*
X108750000Y-117560000D03*
X108750000Y-118830000D03*
X108750000Y-120100000D03*
X108750000Y-121370000D03*
X108750000Y-122640000D03*
X108750000Y-123910000D03*
X108750000Y-125180000D03*
X108750000Y-126450000D03*
X108750000Y-127720000D03*
X108750000Y-128990000D03*
X108750000Y-130260000D03*
%TD*%
D49*
%TO.C,J1*%
X116960000Y-72500000D03*
D50*
X119500000Y-72500000D03*
%TD*%
D26*
%TO.C,H2*%
X108000000Y-50000000D03*
%TD*%
D34*
%TO.C,C10*%
X71500000Y-91200000D03*
X71500000Y-92300000D03*
%TD*%
D49*
%TO.C,J2*%
X77600000Y-120990000D03*
X77600000Y-123530000D03*
X77600000Y-126070000D03*
D50*
X77600000Y-128610000D03*
%TD*%
D28*
%TO.C,LED5*%
X115400000Y-126450000D03*
X117000000Y-126450000D03*
%TD*%
D34*
%TO.C,C1*%
X146000000Y-94100000D03*
X146000000Y-93000000D03*
%TD*%
D51*
%TO.C,C9*%
X146500000Y-117000000D03*
X147900000Y-117000000D03*
%TD*%
D26*
%TO.C,H5*%
X80000000Y-143000000D03*
%TD*%
D23*
%TO.C,R2*%
X128000000Y-84500000D03*
X128000000Y-86000000D03*
%TD*%
D34*
%TO.C,L2*%
X92500000Y-100000000D03*
X92500000Y-98900000D03*
%TD*%
D51*
%TO.C,C5*%
X141100000Y-82200000D03*
X142500000Y-82200000D03*
%TD*%
D52*
%TO.C,USB1*%
X149100000Y-87300000D03*
D53*
X151450000Y-87300000D03*
X151450000Y-93700000D03*
D52*
X149100000Y-93700000D03*
D54*
X148550000Y-89200000D03*
X148550000Y-89850000D03*
X148550000Y-90500000D03*
X148550000Y-91150000D03*
X148550000Y-91800000D03*
D55*
X149300000Y-88500000D03*
X149300000Y-92500000D03*
%TD*%
D23*
%TO.C,R14*%
X134000000Y-103000000D03*
X134000000Y-104500000D03*
%TD*%
D26*
%TO.C,H4*%
X108000000Y-150000000D03*
%TD*%
D56*
%TO.C,U4*%
X146400000Y-84500000D03*
X144500000Y-84500000D03*
D57*
X144500000Y-82200000D03*
X145450000Y-82200000D03*
X146400000Y-82200000D03*
%TD*%
D23*
%TO.C,R18*%
X136000000Y-110000000D03*
X136000000Y-111500000D03*
%TD*%
D58*
%TO.C,SW1*%
X95300000Y-59500000D03*
X100000000Y-59500000D03*
X104700000Y-59500000D03*
%TD*%
D59*
%TO.C,CN1*%
X137000000Y-80000000D03*
X139000000Y-80000000D03*
%TD*%
%LPD*%
M02*
