%TF.GenerationSoftware,KiCad,Pcbnew,9.0.6-9.0.6~ubuntu24.04.1*%
%TF.CreationDate,2025-12-17T14:29:43+07:00*%
%TF.ProjectId,esp32s3-gnss-base-station,65737033-3273-4332-9d67-6e73732d6261,0.1*%
%TF.SameCoordinates,Original*%
%TF.FileFunction,Copper,L2,Inr*%
%TF.FilePolarity,Positive*%
%FSLAX46Y46*%
G04 Gerber Fmt 4.6, Leading zero omitted, Abs format (unit mm)*
G04 Created by KiCad (PCBNEW 9.0.6-9.0.6~ubuntu24.04.1) date 2025-12-17 14:29:43*
%MOMM*%
%LPD*%
G01*
G04 APERTURE LIST*
%TA.AperFunction,ComponentPad*%
%ADD10C,1.800000*%
%TD*%
%TA.AperFunction,ComponentPad*%
%ADD11C,2.000000*%
%TD*%
%TA.AperFunction,ComponentPad*%
%ADD12C,5.000000*%
%TD*%
%TA.AperFunction,ComponentPad*%
%ADD13C,1.000000*%
%TD*%
%TA.AperFunction,ComponentPad*%
%ADD14C,1.200000*%
%TD*%
%TA.AperFunction,HeatsinkPad*%
%ADD15C,0.600000*%
%TD*%
%TA.AperFunction,ComponentPad*%
%ADD16C,1.700000*%
%TD*%
%TA.AperFunction,ComponentPad*%
%ADD17R,1.700000X1.700000*%
%TD*%
%TA.AperFunction,ComponentPad*%
%ADD18C,0.550000*%
%TD*%
%TA.AperFunction,ComponentPad*%
%ADD19O,2.000000X3.000000*%
%TD*%
%TA.AperFunction,ComponentPad*%
%ADD20C,1.600000*%
%TD*%
%TA.AperFunction,ViaPad*%
%ADD21C,0.600000*%
%TD*%
G04 APERTURE END LIST*
D10*
%TO.N,Net-(U2-RF_IN)*%
%TO.C,U6*%
X100000000Y-100000000D03*
D11*
%TO.N,GND*%
X102550000Y-102550000D03*
X102550000Y-97450000D03*
X97450000Y-97450000D03*
X97450000Y-102550000D03*
%TD*%
D12*
%TO.N,GND*%
%TO.C,H1*%
X80000000Y-57000000D03*
%TD*%
%TO.N,GND*%
%TO.C,H3*%
X138000000Y-95000000D03*
%TD*%
D13*
%TO.N,*%
%TO.C,B1*%
X61000000Y-82000000D03*
D14*
X61000000Y-89500000D03*
%TD*%
D12*
%TO.N,GND*%
%TO.C,H6*%
X54000000Y-100000000D03*
%TD*%
D15*
%TO.N,GND*%
%TO.C,U1*%
X100500000Y-121500000D03*
X100500000Y-123500000D03*
X101500000Y-122500000D03*
X102500000Y-121500000D03*
X102500000Y-123500000D03*
%TD*%
D16*
%TO.N,+BATT*%
%TO.C,J1*%
X116960000Y-72500000D03*
D17*
%TO.N,+5V*%
X119500000Y-72500000D03*
%TD*%
D12*
%TO.N,GND*%
%TO.C,H2*%
X108000000Y-50000000D03*
%TD*%
D16*
%TO.N,SDA*%
%TO.C,J2*%
X77600000Y-120990000D03*
%TO.N,SCL*%
X77600000Y-123530000D03*
%TO.N,+3V3*%
X77600000Y-126070000D03*
D17*
%TO.N,GND*%
X77600000Y-128610000D03*
%TD*%
D12*
%TO.N,GND*%
%TO.C,H5*%
X80000000Y-143000000D03*
%TD*%
D18*
%TO.N,*%
%TO.C,USB1*%
X149300000Y-88500000D03*
X149300000Y-92500000D03*
%TD*%
D12*
%TO.N,GND*%
%TO.C,H4*%
X108000000Y-150000000D03*
%TD*%
D19*
%TO.N,unconnected-(SW1-Pad3)*%
%TO.C,SW1*%
X95300000Y-59500000D03*
%TO.N,+BATT*%
X100000000Y-59500000D03*
%TO.N,Net-(U4-BAT)*%
X104700000Y-59500000D03*
%TD*%
D20*
%TO.N,GND*%
%TO.C,CN1*%
X137000000Y-80000000D03*
%TO.N,Net-(U4-BAT)*%
X139000000Y-80000000D03*
%TD*%
D21*
%TO.N,GND*%
X91500000Y-101000000D03*
X77250000Y-86600000D03*
X92500000Y-90000000D03*
X95500000Y-50500000D03*
X79350000Y-97100000D03*
X130050000Y-112250000D03*
X96500000Y-99000000D03*
X96500000Y-101000000D03*
X85650000Y-90800000D03*
X146500000Y-89200000D03*
X83500000Y-50500000D03*
X101000000Y-101000000D03*
X101000000Y-99000000D03*
X94000000Y-101000000D03*
X87750000Y-86600000D03*
X146720000Y-110270000D03*
X79350000Y-90800000D03*
X99000000Y-99000000D03*
X131000000Y-104500000D03*
X131000000Y-110500000D03*
X85650000Y-97100000D03*
X82500000Y-93950000D03*
X138000000Y-86000000D03*
X87750000Y-101300000D03*
X89500000Y-50500000D03*
X130700000Y-106250000D03*
X91500000Y-99000000D03*
X77250000Y-101300000D03*
X99000000Y-101000000D03*
X94000000Y-99000000D03*
%TO.N,+5V*%
X119500000Y-58500000D03*
X144500000Y-86000000D03*
%TO.N,+3V3*%
X115500000Y-129000000D03*
X132000000Y-104500000D03*
X70000000Y-96700000D03*
X147900000Y-108100000D03*
X107250000Y-128990000D03*
X108000000Y-69950000D03*
X70000000Y-93400000D03*
X136000000Y-106500000D03*
X147900000Y-114500000D03*
X134000000Y-111500000D03*
X97800000Y-72500000D03*
X81100000Y-107400000D03*
X132000000Y-110500000D03*
X134000000Y-105500000D03*
X136000000Y-112500000D03*
%TO.N,+BATT*%
X106100000Y-69950000D03*
%TO.N,Net-(U4-~{CHRG})*%
X146400000Y-81000000D03*
X117500000Y-50500000D03*
%TO.N,BOOT*%
X110500000Y-113750000D03*
X93015000Y-113750000D03*
X129000000Y-84500000D03*
%TO.N,COM_DTR*%
X128000000Y-87500000D03*
X134000000Y-87500000D03*
X129700000Y-87500000D03*
%TO.N,Net-(Q1-B1)*%
X131820000Y-85360000D03*
X128500000Y-82500000D03*
%TO.N,ENABLE*%
X84600000Y-107400000D03*
X110500000Y-115020000D03*
X107250000Y-127720000D03*
%TO.N,Net-(U3-VDD)*%
X139500000Y-89650000D03*
X143000000Y-85500000D03*
%TO.N,Net-(U2-RTK_STAT)*%
X85500000Y-58500000D03*
X83600000Y-82100000D03*
%TO.N,Net-(U2-TIMEPULSE)*%
X88000000Y-105800000D03*
X87500000Y-58500000D03*
%TO.N,COM_RX*%
X110500000Y-116290000D03*
X94285000Y-126450000D03*
%TO.N,COM_TX*%
X95555000Y-125180000D03*
X110500000Y-117560000D03*
%TO.N,RTCM_OUT*%
X78100000Y-105800000D03*
X75900000Y-82100000D03*
%TO.N,RTCM_IN*%
X79200000Y-105800000D03*
X77000000Y-82100000D03*
%TO.N,Net-(U3-D+)*%
X137500000Y-90300000D03*
X146500000Y-90300000D03*
%TO.N,Net-(U3-D-)*%
X138500000Y-91350000D03*
X146500000Y-91350000D03*
%TD*%
%TA.AperFunction,Conductor*%
%TO.N,GND*%
G36*
X100203639Y-46500903D02*
G01*
X101532652Y-46522475D01*
X101535078Y-46522545D01*
X102863084Y-46577182D01*
X102865462Y-46577309D01*
X104191702Y-46664980D01*
X104194118Y-46665170D01*
X105517785Y-46785821D01*
X105520118Y-46786063D01*
X106748116Y-46928889D01*
X106840360Y-46939618D01*
X106842804Y-46939933D01*
X107028148Y-46966180D01*
X108158796Y-47126294D01*
X108161174Y-47126661D01*
X109378254Y-47330031D01*
X109472088Y-47345711D01*
X109474515Y-47346147D01*
X110779602Y-47597758D01*
X110781983Y-47598248D01*
X112080414Y-47882265D01*
X112082693Y-47882793D01*
X112924056Y-48088897D01*
X112976076Y-48121107D01*
X112999230Y-48177742D01*
X112999500Y-48185054D01*
X112999500Y-54065892D01*
X113029579Y-54178151D01*
X113033609Y-54193190D01*
X113099496Y-54307309D01*
X113099498Y-54307311D01*
X113099500Y-54307314D01*
X113192686Y-54400500D01*
X113192688Y-54400501D01*
X113192690Y-54400503D01*
X113306810Y-54466390D01*
X113306808Y-54466390D01*
X113306812Y-54466391D01*
X113306814Y-54466392D01*
X113434108Y-54500500D01*
X113434110Y-54500500D01*
X115565890Y-54500500D01*
X115565892Y-54500500D01*
X115693186Y-54466392D01*
X115693188Y-54466390D01*
X115693190Y-54466390D01*
X115807309Y-54400503D01*
X115807309Y-54400502D01*
X115807314Y-54400500D01*
X115900500Y-54307314D01*
X115966392Y-54193186D01*
X116000500Y-54065892D01*
X116000501Y-50434108D01*
X116999500Y-50434108D01*
X116999500Y-50565892D01*
X117029579Y-50678151D01*
X117033609Y-50693190D01*
X117099496Y-50807309D01*
X117099498Y-50807311D01*
X117099500Y-50807314D01*
X117192686Y-50900500D01*
X117192688Y-50900501D01*
X117192690Y-50900503D01*
X117306810Y-50966390D01*
X117306808Y-50966390D01*
X117306812Y-50966391D01*
X117306814Y-50966392D01*
X117434108Y-51000500D01*
X117434110Y-51000500D01*
X117565890Y-51000500D01*
X117565892Y-51000500D01*
X117693186Y-50966392D01*
X117693188Y-50966390D01*
X117693190Y-50966390D01*
X117807309Y-50900503D01*
X117807309Y-50900502D01*
X117807314Y-50900500D01*
X117900500Y-50807314D01*
X117900503Y-50807309D01*
X117966390Y-50693190D01*
X117966390Y-50693188D01*
X117966392Y-50693186D01*
X118000500Y-50565892D01*
X118000500Y-50434108D01*
X117966392Y-50306814D01*
X117966390Y-50306811D01*
X117966390Y-50306809D01*
X117900503Y-50192690D01*
X117900501Y-50192688D01*
X117900500Y-50192686D01*
X117807314Y-50099500D01*
X117807311Y-50099498D01*
X117807309Y-50099496D01*
X117693189Y-50033609D01*
X117693191Y-50033609D01*
X117643799Y-50020375D01*
X117565892Y-49999500D01*
X117434108Y-49999500D01*
X117356200Y-50020375D01*
X117306809Y-50033609D01*
X117192690Y-50099496D01*
X117099496Y-50192690D01*
X117033609Y-50306809D01*
X117033608Y-50306814D01*
X116999500Y-50434108D01*
X116000501Y-50434108D01*
X116000501Y-49086086D01*
X116019408Y-49027898D01*
X116068908Y-48991934D01*
X116128844Y-48991538D01*
X116274280Y-49036674D01*
X116355907Y-49062007D01*
X116357743Y-49062596D01*
X117350241Y-49392055D01*
X117351967Y-49392647D01*
X118255645Y-49712399D01*
X118337802Y-49741469D01*
X118339615Y-49742131D01*
X118935335Y-49966136D01*
X118983147Y-50004313D01*
X118999490Y-50058800D01*
X118999499Y-54065891D01*
X118999500Y-54065893D01*
X119033608Y-54193187D01*
X119071651Y-54259079D01*
X119071652Y-54259080D01*
X119099497Y-54307311D01*
X119099502Y-54307317D01*
X119192683Y-54400497D01*
X119192687Y-54400501D01*
X119240923Y-54428349D01*
X119306814Y-54466392D01*
X119434108Y-54500500D01*
X119434109Y-54500500D01*
X119434110Y-54500500D01*
X121565890Y-54500500D01*
X121565892Y-54500500D01*
X121693186Y-54466392D01*
X121693188Y-54466390D01*
X121693190Y-54466390D01*
X121807309Y-54400503D01*
X121807309Y-54400502D01*
X121807314Y-54400500D01*
X121900500Y-54307314D01*
X121966392Y-54193186D01*
X122000500Y-54065892D01*
X122000499Y-51391762D01*
X122019406Y-51333572D01*
X122068906Y-51297608D01*
X122130092Y-51297608D01*
X122140114Y-51301478D01*
X122600266Y-51508532D01*
X122602587Y-51509614D01*
X123884865Y-52128218D01*
X123887216Y-52129390D01*
X124504509Y-52447745D01*
X125152569Y-52781967D01*
X125154889Y-52783203D01*
X126402416Y-53469292D01*
X126404610Y-53470537D01*
X127633419Y-54189647D01*
X127635615Y-54190971D01*
X128078713Y-54466390D01*
X128844784Y-54942562D01*
X128847007Y-54943985D01*
X129277022Y-55227438D01*
X130035715Y-55727546D01*
X130037843Y-55728990D01*
X131205232Y-56543955D01*
X131207364Y-56545487D01*
X132352605Y-57391277D01*
X132354663Y-57392840D01*
X133476972Y-58268876D01*
X133478992Y-58270497D01*
X134577553Y-59176144D01*
X134579515Y-59177806D01*
X134657535Y-59245698D01*
X135653517Y-60112395D01*
X135655485Y-60114154D01*
X136704182Y-61077034D01*
X136706102Y-61078845D01*
X137728738Y-62069318D01*
X137730610Y-62071180D01*
X138726477Y-63088563D01*
X138728298Y-63090473D01*
X139696728Y-64134082D01*
X139698497Y-64136041D01*
X140638714Y-65205041D01*
X140640430Y-65207045D01*
X141551847Y-66300766D01*
X141553510Y-66302817D01*
X142410023Y-67388231D01*
X142435426Y-67420422D01*
X142437017Y-67422494D01*
X143288877Y-68563277D01*
X143290390Y-68565361D01*
X143789492Y-69272300D01*
X144111498Y-69728397D01*
X144112992Y-69730573D01*
X144902828Y-70915119D01*
X144904262Y-70917334D01*
X145238959Y-71449500D01*
X145584872Y-71999500D01*
X145662195Y-72122442D01*
X145663564Y-72124685D01*
X146369203Y-73315977D01*
X146389153Y-73349656D01*
X146390451Y-73351918D01*
X146642046Y-73803722D01*
X147083086Y-74595724D01*
X147084340Y-74598047D01*
X147743602Y-75859935D01*
X147744768Y-75862242D01*
X148370145Y-77141229D01*
X148371272Y-77143615D01*
X148962328Y-78438815D01*
X148963392Y-78441231D01*
X149519706Y-79751717D01*
X149520705Y-79754160D01*
X150041894Y-81079031D01*
X150042827Y-81081500D01*
X150528504Y-82419768D01*
X150529371Y-82422261D01*
X150979192Y-83772978D01*
X150979993Y-83775493D01*
X151392718Y-85134666D01*
X151393074Y-85135864D01*
X151393361Y-85136855D01*
X151408456Y-85193190D01*
X151410942Y-85197496D01*
X151412335Y-85202301D01*
X151412347Y-85202328D01*
X151443360Y-85253683D01*
X151444316Y-85255301D01*
X151474348Y-85307318D01*
X151474349Y-85307319D01*
X151474351Y-85307322D01*
X151477358Y-85311242D01*
X151480471Y-85315138D01*
X151523728Y-85356724D01*
X151524427Y-85357396D01*
X151567535Y-85400503D01*
X151571862Y-85403001D01*
X151575473Y-85406472D01*
X151575475Y-85406474D01*
X151608888Y-85424896D01*
X151628031Y-85435452D01*
X151629687Y-85436386D01*
X151681661Y-85466394D01*
X151686210Y-85468278D01*
X151690873Y-85470103D01*
X151690878Y-85470106D01*
X151749208Y-85484511D01*
X151750930Y-85484954D01*
X151808957Y-85500503D01*
X151808963Y-85500502D01*
X151813916Y-85501154D01*
X151818810Y-85501701D01*
X151818818Y-85501703D01*
X151878935Y-85500518D01*
X151880679Y-85500501D01*
X153400500Y-85500500D01*
X153458691Y-85519407D01*
X153494655Y-85568907D01*
X153499500Y-85599500D01*
X153499500Y-114400497D01*
X153480593Y-114458688D01*
X153431093Y-114494652D01*
X153400500Y-114499497D01*
X151880834Y-114499494D01*
X151879852Y-114499494D01*
X151818816Y-114498293D01*
X151813952Y-114499494D01*
X151808957Y-114499494D01*
X151808955Y-114499494D01*
X151751049Y-114515009D01*
X151749165Y-114515494D01*
X151690877Y-114529889D01*
X151686290Y-114531683D01*
X151681663Y-114533600D01*
X151629756Y-114563568D01*
X151628063Y-114564523D01*
X151575473Y-114593522D01*
X151571541Y-114596418D01*
X151567535Y-114599492D01*
X151525190Y-114641836D01*
X151523802Y-114643197D01*
X151480470Y-114684857D01*
X151477441Y-114688648D01*
X151474349Y-114692677D01*
X151444415Y-114744523D01*
X151443427Y-114746197D01*
X151412346Y-114797665D01*
X151410383Y-114802151D01*
X151408457Y-114806804D01*
X151393649Y-114862066D01*
X151392745Y-114865229D01*
X150972492Y-116248040D01*
X150971677Y-116250599D01*
X150513067Y-117624527D01*
X150512182Y-117627062D01*
X150016497Y-118987991D01*
X150015544Y-118990501D01*
X149483128Y-120337499D01*
X149482107Y-120339983D01*
X148913352Y-121672051D01*
X148912264Y-121674506D01*
X148307593Y-122990658D01*
X148306439Y-122993083D01*
X147666309Y-124292321D01*
X147665090Y-124294713D01*
X146989930Y-125576170D01*
X146988656Y-125578509D01*
X146940372Y-125664419D01*
X146279007Y-126841149D01*
X146277660Y-126843472D01*
X145534023Y-128086412D01*
X145532613Y-128088697D01*
X144755543Y-129311008D01*
X144754072Y-129313255D01*
X143944125Y-130514060D01*
X143942593Y-130516265D01*
X143100412Y-131694610D01*
X143098821Y-131696774D01*
X143050438Y-131760729D01*
X143000252Y-131795729D01*
X142971486Y-131800000D01*
X124091007Y-131800000D01*
X124032816Y-131781093D01*
X124021003Y-131771004D01*
X124000000Y-131750001D01*
X124000000Y-131750000D01*
X76000000Y-131750000D01*
X76000000Y-131750001D01*
X75978997Y-131771004D01*
X75924480Y-131798781D01*
X75908993Y-131800000D01*
X57027537Y-131800000D01*
X56969346Y-131781093D01*
X56947099Y-131758713D01*
X56901106Y-131694610D01*
X56113254Y-130596528D01*
X56111783Y-130594418D01*
X55375976Y-129507824D01*
X76249999Y-129507824D01*
X76256401Y-129567370D01*
X76256403Y-129567381D01*
X76306646Y-129702088D01*
X76306647Y-129702090D01*
X76392807Y-129817184D01*
X76392815Y-129817192D01*
X76507909Y-129903352D01*
X76507911Y-129903353D01*
X76642618Y-129953596D01*
X76642629Y-129953598D01*
X76702176Y-129960000D01*
X77349999Y-129960000D01*
X77350000Y-129959999D01*
X77350000Y-129043012D01*
X77407007Y-129075925D01*
X77534174Y-129110000D01*
X77665826Y-129110000D01*
X77792993Y-129075925D01*
X77850000Y-129043012D01*
X77850000Y-129959999D01*
X77850001Y-129960000D01*
X78497824Y-129960000D01*
X78557370Y-129953598D01*
X78557381Y-129953596D01*
X78692088Y-129903353D01*
X78692090Y-129903352D01*
X78807184Y-129817192D01*
X78807192Y-129817184D01*
X78893352Y-129702090D01*
X78893353Y-129702088D01*
X78943596Y-129567381D01*
X78943598Y-129567370D01*
X78950000Y-129507824D01*
X78950000Y-128924108D01*
X106749500Y-128924108D01*
X106749500Y-129055892D01*
X106754868Y-129075925D01*
X106783609Y-129183190D01*
X106849496Y-129297309D01*
X106849498Y-129297311D01*
X106849500Y-129297314D01*
X106942686Y-129390500D01*
X106942688Y-129390501D01*
X106942690Y-129390503D01*
X107056810Y-129456390D01*
X107056808Y-129456390D01*
X107056812Y-129456391D01*
X107056814Y-129456392D01*
X107184108Y-129490500D01*
X107184110Y-129490500D01*
X107315890Y-129490500D01*
X107315892Y-129490500D01*
X107443186Y-129456392D01*
X107443188Y-129456390D01*
X107443190Y-129456390D01*
X107557309Y-129390503D01*
X107557309Y-129390502D01*
X107557314Y-129390500D01*
X107650500Y-129297314D01*
X107710616Y-129193190D01*
X107716390Y-129183190D01*
X107716390Y-129183188D01*
X107716392Y-129183186D01*
X107750500Y-129055892D01*
X107750500Y-128934108D01*
X114999500Y-128934108D01*
X114999500Y-129065892D01*
X115029579Y-129178151D01*
X115033609Y-129193190D01*
X115099496Y-129307309D01*
X115099498Y-129307311D01*
X115099500Y-129307314D01*
X115192686Y-129400500D01*
X115192688Y-129400501D01*
X115192690Y-129400503D01*
X115306810Y-129466390D01*
X115306808Y-129466390D01*
X115306812Y-129466391D01*
X115306814Y-129466392D01*
X115434108Y-129500500D01*
X115434110Y-129500500D01*
X115565890Y-129500500D01*
X115565892Y-129500500D01*
X115693186Y-129466392D01*
X115693188Y-129466390D01*
X115693190Y-129466390D01*
X115807309Y-129400503D01*
X115807309Y-129400502D01*
X115807314Y-129400500D01*
X115900500Y-129307314D01*
X115906274Y-129297314D01*
X115966390Y-129193190D01*
X115966390Y-129193188D01*
X115966392Y-129193186D01*
X116000500Y-129065892D01*
X116000500Y-128934108D01*
X115966392Y-128806814D01*
X115966390Y-128806811D01*
X115966390Y-128806809D01*
X115900503Y-128692690D01*
X115900501Y-128692688D01*
X115900500Y-128692686D01*
X115807314Y-128599500D01*
X115807311Y-128599498D01*
X115807309Y-128599496D01*
X115693189Y-128533609D01*
X115693191Y-128533609D01*
X115643799Y-128520375D01*
X115565892Y-128499500D01*
X115434108Y-128499500D01*
X115356200Y-128520375D01*
X115306809Y-128533609D01*
X115192690Y-128599496D01*
X115099496Y-128692690D01*
X115033609Y-128806809D01*
X115033608Y-128806814D01*
X114999500Y-128934108D01*
X107750500Y-128934108D01*
X107750500Y-128924108D01*
X107716392Y-128796814D01*
X107716390Y-128796811D01*
X107716390Y-128796809D01*
X107650503Y-128682690D01*
X107650501Y-128682688D01*
X107650500Y-128682686D01*
X107557314Y-128589500D01*
X107557311Y-128589498D01*
X107557309Y-128589496D01*
X107443189Y-128523609D01*
X107443191Y-128523609D01*
X107393799Y-128510375D01*
X107315892Y-128489500D01*
X107184108Y-128489500D01*
X107106200Y-128510375D01*
X107056809Y-128523609D01*
X106942690Y-128589496D01*
X106849496Y-128682690D01*
X106783609Y-128796809D01*
X106766677Y-128860001D01*
X106749500Y-128924108D01*
X78950000Y-128924108D01*
X78950000Y-128860001D01*
X78949999Y-128860000D01*
X78033012Y-128860000D01*
X78065925Y-128802993D01*
X78100000Y-128675826D01*
X78100000Y-128544174D01*
X78065925Y-128417007D01*
X78033012Y-128360000D01*
X78949999Y-128360000D01*
X78950000Y-128359999D01*
X78950000Y-127712175D01*
X78949999Y-127712173D01*
X78944198Y-127658200D01*
X78944198Y-127658198D01*
X78943758Y-127654108D01*
X106749500Y-127654108D01*
X106749500Y-127785892D01*
X106779579Y-127898151D01*
X106783609Y-127913190D01*
X106849496Y-128027309D01*
X106849498Y-128027311D01*
X106849500Y-128027314D01*
X106942686Y-128120500D01*
X106942688Y-128120501D01*
X106942690Y-128120503D01*
X107056810Y-128186390D01*
X107056808Y-128186390D01*
X107056812Y-128186391D01*
X107056814Y-128186392D01*
X107184108Y-128220500D01*
X107184110Y-128220500D01*
X107315890Y-128220500D01*
X107315892Y-128220500D01*
X107443186Y-128186392D01*
X107443188Y-128186390D01*
X107443190Y-128186390D01*
X107557309Y-128120503D01*
X107557309Y-128120502D01*
X107557314Y-128120500D01*
X107650500Y-128027314D01*
X107716392Y-127913186D01*
X107750500Y-127785892D01*
X107750500Y-127654108D01*
X107716392Y-127526814D01*
X107716390Y-127526811D01*
X107716390Y-127526809D01*
X107650503Y-127412690D01*
X107650501Y-127412688D01*
X107650500Y-127412686D01*
X107557314Y-127319500D01*
X107557311Y-127319498D01*
X107557309Y-127319496D01*
X107443189Y-127253609D01*
X107443191Y-127253609D01*
X107393799Y-127240375D01*
X107315892Y-127219500D01*
X107184108Y-127219500D01*
X107106200Y-127240375D01*
X107056809Y-127253609D01*
X106942690Y-127319496D01*
X106849496Y-127412690D01*
X106783609Y-127526809D01*
X106783608Y-127526814D01*
X106749500Y-127654108D01*
X78943758Y-127654108D01*
X78943600Y-127652635D01*
X78943596Y-127652618D01*
X78893353Y-127517911D01*
X78893352Y-127517909D01*
X78807192Y-127402815D01*
X78807184Y-127402807D01*
X78692090Y-127316647D01*
X78692088Y-127316646D01*
X78557381Y-127266403D01*
X78557370Y-127266401D01*
X78497824Y-127260000D01*
X77969881Y-127260000D01*
X77911690Y-127241093D01*
X77875726Y-127191593D01*
X77875726Y-127130407D01*
X77911690Y-127080907D01*
X77931992Y-127069537D01*
X78097598Y-127000941D01*
X78269655Y-126885977D01*
X78415977Y-126739655D01*
X78530941Y-126567598D01*
X78606946Y-126384108D01*
X93784500Y-126384108D01*
X93784500Y-126515892D01*
X93814579Y-126628151D01*
X93818609Y-126643190D01*
X93884496Y-126757309D01*
X93884498Y-126757311D01*
X93884500Y-126757314D01*
X93977686Y-126850500D01*
X93977688Y-126850501D01*
X93977690Y-126850503D01*
X94091810Y-126916390D01*
X94091808Y-126916390D01*
X94091812Y-126916391D01*
X94091814Y-126916392D01*
X94219108Y-126950500D01*
X94219110Y-126950500D01*
X94350890Y-126950500D01*
X94350892Y-126950500D01*
X94478186Y-126916392D01*
X94478188Y-126916390D01*
X94478190Y-126916390D01*
X94592309Y-126850503D01*
X94592309Y-126850502D01*
X94592314Y-126850500D01*
X94685500Y-126757314D01*
X94685503Y-126757309D01*
X94751390Y-126643190D01*
X94751390Y-126643188D01*
X94751392Y-126643186D01*
X94785500Y-126515892D01*
X94785500Y-126384108D01*
X94751392Y-126256814D01*
X94751390Y-126256811D01*
X94751390Y-126256809D01*
X94685503Y-126142690D01*
X94685501Y-126142688D01*
X94685500Y-126142686D01*
X94592314Y-126049500D01*
X94592311Y-126049498D01*
X94592309Y-126049496D01*
X94478189Y-125983609D01*
X94478191Y-125983609D01*
X94428799Y-125970375D01*
X94350892Y-125949500D01*
X94219108Y-125949500D01*
X94141200Y-125970375D01*
X94091809Y-125983609D01*
X93977690Y-126049496D01*
X93884496Y-126142690D01*
X93818609Y-126256809D01*
X93818608Y-126256814D01*
X93784500Y-126384108D01*
X78606946Y-126384108D01*
X78610130Y-126376420D01*
X78650500Y-126173465D01*
X78650500Y-125966535D01*
X78610130Y-125763580D01*
X78530941Y-125572402D01*
X78415977Y-125400345D01*
X78269655Y-125254023D01*
X78097598Y-125139059D01*
X78097599Y-125139059D01*
X78097597Y-125139058D01*
X78037362Y-125114108D01*
X95054500Y-125114108D01*
X95054500Y-125245892D01*
X95056678Y-125254020D01*
X95088609Y-125373190D01*
X95154496Y-125487309D01*
X95154498Y-125487311D01*
X95154500Y-125487314D01*
X95247686Y-125580500D01*
X95247688Y-125580501D01*
X95247690Y-125580503D01*
X95361810Y-125646390D01*
X95361808Y-125646390D01*
X95361812Y-125646391D01*
X95361814Y-125646392D01*
X95489108Y-125680500D01*
X95489110Y-125680500D01*
X95620890Y-125680500D01*
X95620892Y-125680500D01*
X95748186Y-125646392D01*
X95748188Y-125646390D01*
X95748190Y-125646390D01*
X95862309Y-125580503D01*
X95862309Y-125580502D01*
X95862314Y-125580500D01*
X95955500Y-125487314D01*
X96021392Y-125373186D01*
X96055500Y-125245892D01*
X96055500Y-125114108D01*
X96021392Y-124986814D01*
X96021390Y-124986811D01*
X96021390Y-124986809D01*
X95955503Y-124872690D01*
X95955501Y-124872688D01*
X95955500Y-124872686D01*
X95862314Y-124779500D01*
X95862311Y-124779498D01*
X95862309Y-124779496D01*
X95748189Y-124713609D01*
X95748191Y-124713609D01*
X95698799Y-124700375D01*
X95620892Y-124679500D01*
X95489108Y-124679500D01*
X95411200Y-124700375D01*
X95361809Y-124713609D01*
X95247690Y-124779496D01*
X95154496Y-124872690D01*
X95088609Y-124986809D01*
X95088608Y-124986814D01*
X95054500Y-125114108D01*
X78037362Y-125114108D01*
X77906418Y-125059869D01*
X77703467Y-125019500D01*
X77703465Y-125019500D01*
X77496535Y-125019500D01*
X77496532Y-125019500D01*
X77293581Y-125059869D01*
X77102402Y-125139058D01*
X76930348Y-125254020D01*
X76784020Y-125400348D01*
X76669058Y-125572402D01*
X76589869Y-125763581D01*
X76549500Y-125966532D01*
X76549500Y-126173467D01*
X76589869Y-126376418D01*
X76669058Y-126567597D01*
X76784020Y-126739651D01*
X76784023Y-126739655D01*
X76930345Y-126885977D01*
X77102402Y-127000941D01*
X77268005Y-127069536D01*
X77314530Y-127109273D01*
X77328814Y-127168767D01*
X77305399Y-127225295D01*
X77253230Y-127257265D01*
X77230119Y-127260000D01*
X76702176Y-127260000D01*
X76642629Y-127266401D01*
X76642618Y-127266403D01*
X76507911Y-127316646D01*
X76507909Y-127316647D01*
X76392815Y-127402807D01*
X76392807Y-127402815D01*
X76306647Y-127517909D01*
X76306646Y-127517911D01*
X76256403Y-127652618D01*
X76256401Y-127652629D01*
X76250000Y-127712175D01*
X76250000Y-128359999D01*
X76250001Y-128360000D01*
X77166988Y-128360000D01*
X77134075Y-128417007D01*
X77100000Y-128544174D01*
X77100000Y-128675826D01*
X77134075Y-128802993D01*
X77166988Y-128860000D01*
X76250001Y-128860000D01*
X76250000Y-128860001D01*
X76250000Y-129507824D01*
X76249999Y-129507824D01*
X55375976Y-129507824D01*
X55299600Y-129395037D01*
X55298151Y-129392833D01*
X55005342Y-128934108D01*
X54518830Y-128171920D01*
X54517455Y-128169702D01*
X53893072Y-127130407D01*
X53771516Y-126928074D01*
X53770165Y-126925754D01*
X53228737Y-125966532D01*
X53058202Y-125664403D01*
X53056923Y-125662063D01*
X52964444Y-125487314D01*
X52379442Y-124381886D01*
X52378218Y-124379496D01*
X51925860Y-123465588D01*
X51906528Y-123426532D01*
X76549500Y-123426532D01*
X76549500Y-123633467D01*
X76589869Y-123836418D01*
X76669058Y-124027597D01*
X76784020Y-124199651D01*
X76784023Y-124199655D01*
X76930345Y-124345977D01*
X77102402Y-124460941D01*
X77293580Y-124540130D01*
X77496535Y-124580500D01*
X77496536Y-124580500D01*
X77703464Y-124580500D01*
X77703465Y-124580500D01*
X77906420Y-124540130D01*
X78097598Y-124460941D01*
X78269655Y-124345977D01*
X78415977Y-124199655D01*
X78530941Y-124027598D01*
X78610130Y-123836420D01*
X78650500Y-123633465D01*
X78650500Y-123426535D01*
X78610130Y-123223580D01*
X78530941Y-123032402D01*
X78415977Y-122860345D01*
X78269655Y-122714023D01*
X78269651Y-122714020D01*
X78097597Y-122599058D01*
X77906418Y-122519869D01*
X77703467Y-122479500D01*
X77703465Y-122479500D01*
X77496535Y-122479500D01*
X77496532Y-122479500D01*
X77293581Y-122519869D01*
X77102402Y-122599058D01*
X76930348Y-122714020D01*
X76784020Y-122860348D01*
X76669058Y-123032402D01*
X76589869Y-123223581D01*
X76549500Y-123426532D01*
X51906528Y-123426532D01*
X51806073Y-123223580D01*
X51735668Y-123081340D01*
X51734542Y-123078984D01*
X51127455Y-121763923D01*
X51126375Y-121761498D01*
X51088518Y-121673281D01*
X50750897Y-120886532D01*
X76549500Y-120886532D01*
X76549500Y-121093467D01*
X76589869Y-121296418D01*
X76669058Y-121487597D01*
X76669059Y-121487598D01*
X76784023Y-121659655D01*
X76930345Y-121805977D01*
X77102402Y-121920941D01*
X77293580Y-122000130D01*
X77496535Y-122040500D01*
X77496536Y-122040500D01*
X77703464Y-122040500D01*
X77703465Y-122040500D01*
X77906420Y-122000130D01*
X78097598Y-121920941D01*
X78269655Y-121805977D01*
X78415977Y-121659655D01*
X78530941Y-121487598D01*
X78610130Y-121296420D01*
X78650500Y-121093465D01*
X78650500Y-120886535D01*
X78610130Y-120683580D01*
X78530941Y-120492402D01*
X78415977Y-120320345D01*
X78269655Y-120174023D01*
X78097598Y-120059059D01*
X78097599Y-120059059D01*
X78097597Y-120059058D01*
X77906418Y-119979869D01*
X77703467Y-119939500D01*
X77703465Y-119939500D01*
X77496535Y-119939500D01*
X77496532Y-119939500D01*
X77293581Y-119979869D01*
X77102402Y-120059058D01*
X76930348Y-120174020D01*
X76784020Y-120320348D01*
X76669058Y-120492402D01*
X76589869Y-120683581D01*
X76549500Y-120886532D01*
X50750897Y-120886532D01*
X50555170Y-120430436D01*
X50554152Y-120427972D01*
X50518696Y-120338748D01*
X50019276Y-119081957D01*
X50018318Y-119079448D01*
X49704694Y-118223251D01*
X49520114Y-117719344D01*
X49519261Y-117716913D01*
X49444437Y-117494108D01*
X109999500Y-117494108D01*
X109999500Y-117625892D01*
X110023875Y-117716861D01*
X110033609Y-117753190D01*
X110099496Y-117867309D01*
X110099498Y-117867311D01*
X110099500Y-117867314D01*
X110192686Y-117960500D01*
X110192688Y-117960501D01*
X110192690Y-117960503D01*
X110306810Y-118026390D01*
X110306808Y-118026390D01*
X110306812Y-118026391D01*
X110306814Y-118026392D01*
X110434108Y-118060500D01*
X110434110Y-118060500D01*
X110565890Y-118060500D01*
X110565892Y-118060500D01*
X110693186Y-118026392D01*
X110693188Y-118026390D01*
X110693190Y-118026390D01*
X110807309Y-117960503D01*
X110807309Y-117960502D01*
X110807314Y-117960500D01*
X110900500Y-117867314D01*
X110966392Y-117753186D01*
X111000500Y-117625892D01*
X111000500Y-117494108D01*
X110966392Y-117366814D01*
X110966390Y-117366811D01*
X110966390Y-117366809D01*
X110900503Y-117252690D01*
X110900501Y-117252688D01*
X110900500Y-117252686D01*
X110807314Y-117159500D01*
X110807311Y-117159498D01*
X110807309Y-117159496D01*
X110693189Y-117093609D01*
X110693191Y-117093609D01*
X110643799Y-117080375D01*
X110565892Y-117059500D01*
X110434108Y-117059500D01*
X110356200Y-117080375D01*
X110306809Y-117093609D01*
X110192690Y-117159496D01*
X110099496Y-117252690D01*
X110033609Y-117366809D01*
X110033608Y-117366814D01*
X109999500Y-117494108D01*
X49444437Y-117494108D01*
X49058136Y-116343820D01*
X49057316Y-116341264D01*
X49021477Y-116224108D01*
X109999500Y-116224108D01*
X109999500Y-116355892D01*
X110029579Y-116468151D01*
X110033609Y-116483190D01*
X110099496Y-116597309D01*
X110099498Y-116597311D01*
X110099500Y-116597314D01*
X110192686Y-116690500D01*
X110192688Y-116690501D01*
X110192690Y-116690503D01*
X110306810Y-116756390D01*
X110306808Y-116756390D01*
X110306812Y-116756391D01*
X110306814Y-116756392D01*
X110434108Y-116790500D01*
X110434110Y-116790500D01*
X110565890Y-116790500D01*
X110565892Y-116790500D01*
X110693186Y-116756392D01*
X110693188Y-116756390D01*
X110693190Y-116756390D01*
X110807309Y-116690503D01*
X110807309Y-116690502D01*
X110807314Y-116690500D01*
X110900500Y-116597314D01*
X110966392Y-116483186D01*
X111000500Y-116355892D01*
X111000500Y-116224108D01*
X110966392Y-116096814D01*
X110966390Y-116096811D01*
X110966390Y-116096809D01*
X110900503Y-115982690D01*
X110900501Y-115982688D01*
X110900500Y-115982686D01*
X110807314Y-115889500D01*
X110807311Y-115889498D01*
X110807309Y-115889496D01*
X110693189Y-115823609D01*
X110693191Y-115823609D01*
X110643799Y-115810375D01*
X110565892Y-115789500D01*
X110434108Y-115789500D01*
X110356200Y-115810375D01*
X110306809Y-115823609D01*
X110192690Y-115889496D01*
X110099496Y-115982690D01*
X110033609Y-116096809D01*
X110033608Y-116096814D01*
X109999500Y-116224108D01*
X49021477Y-116224108D01*
X48633621Y-114956238D01*
X48633001Y-114954108D01*
X109999500Y-114954108D01*
X109999500Y-115085892D01*
X110028249Y-115193186D01*
X110033609Y-115213190D01*
X110099496Y-115327309D01*
X110099498Y-115327311D01*
X110099500Y-115327314D01*
X110192686Y-115420500D01*
X110192688Y-115420501D01*
X110192690Y-115420503D01*
X110306810Y-115486390D01*
X110306808Y-115486390D01*
X110306812Y-115486391D01*
X110306814Y-115486392D01*
X110434108Y-115520500D01*
X110434110Y-115520500D01*
X110565890Y-115520500D01*
X110565892Y-115520500D01*
X110693186Y-115486392D01*
X110693188Y-115486390D01*
X110693190Y-115486390D01*
X110807309Y-115420503D01*
X110807309Y-115420502D01*
X110807314Y-115420500D01*
X110900500Y-115327314D01*
X110900503Y-115327309D01*
X110966390Y-115213190D01*
X110966390Y-115213188D01*
X110966392Y-115213186D01*
X111000500Y-115085892D01*
X111000500Y-114954108D01*
X110966392Y-114826814D01*
X110966390Y-114826811D01*
X110966390Y-114826809D01*
X110900503Y-114712690D01*
X110900501Y-114712688D01*
X110900500Y-114712686D01*
X110807314Y-114619500D01*
X110807311Y-114619498D01*
X110807309Y-114619496D01*
X110693189Y-114553609D01*
X110693191Y-114553609D01*
X110618514Y-114533600D01*
X110579870Y-114523245D01*
X110571873Y-114521102D01*
X110565892Y-114519500D01*
X110434108Y-114519500D01*
X110381486Y-114533600D01*
X110306809Y-114553609D01*
X110192690Y-114619496D01*
X110099496Y-114712690D01*
X110033609Y-114826809D01*
X110023315Y-114865229D01*
X109999500Y-114954108D01*
X48633001Y-114954108D01*
X48632872Y-114953665D01*
X48489222Y-114434108D01*
X147399500Y-114434108D01*
X147399500Y-114565892D01*
X147413863Y-114619496D01*
X147433609Y-114693190D01*
X147499496Y-114807309D01*
X147499498Y-114807311D01*
X147499500Y-114807314D01*
X147592686Y-114900500D01*
X147592688Y-114900501D01*
X147592690Y-114900503D01*
X147706810Y-114966390D01*
X147706808Y-114966390D01*
X147706812Y-114966391D01*
X147706814Y-114966392D01*
X147834108Y-115000500D01*
X147834110Y-115000500D01*
X147965890Y-115000500D01*
X147965892Y-115000500D01*
X148093186Y-114966392D01*
X148093188Y-114966390D01*
X148093190Y-114966390D01*
X148207309Y-114900503D01*
X148207309Y-114900502D01*
X148207314Y-114900500D01*
X148300500Y-114807314D01*
X148300793Y-114806807D01*
X148366390Y-114693190D01*
X148366390Y-114693188D01*
X148366392Y-114693186D01*
X148400500Y-114565892D01*
X148400500Y-114434108D01*
X148366392Y-114306814D01*
X148366390Y-114306811D01*
X148366390Y-114306809D01*
X148300503Y-114192690D01*
X148300501Y-114192688D01*
X148300500Y-114192686D01*
X148207314Y-114099500D01*
X148207311Y-114099498D01*
X148207309Y-114099496D01*
X148093189Y-114033609D01*
X148093191Y-114033609D01*
X148027904Y-114016116D01*
X147965892Y-113999500D01*
X147834108Y-113999500D01*
X147772096Y-114016116D01*
X147706809Y-114033609D01*
X147592690Y-114099496D01*
X147499496Y-114192690D01*
X147433609Y-114306809D01*
X147433608Y-114306814D01*
X147399500Y-114434108D01*
X48489222Y-114434108D01*
X48281857Y-113684108D01*
X92514500Y-113684108D01*
X92514500Y-113815892D01*
X92544579Y-113928151D01*
X92548609Y-113943190D01*
X92614496Y-114057309D01*
X92614498Y-114057311D01*
X92614500Y-114057314D01*
X92707686Y-114150500D01*
X92707688Y-114150501D01*
X92707690Y-114150503D01*
X92821810Y-114216390D01*
X92821808Y-114216390D01*
X92821812Y-114216391D01*
X92821814Y-114216392D01*
X92949108Y-114250500D01*
X92949110Y-114250500D01*
X93080890Y-114250500D01*
X93080892Y-114250500D01*
X93208186Y-114216392D01*
X93208188Y-114216390D01*
X93208190Y-114216390D01*
X93322309Y-114150503D01*
X93322309Y-114150502D01*
X93322314Y-114150500D01*
X93415500Y-114057314D01*
X93481392Y-113943186D01*
X93515500Y-113815892D01*
X93515500Y-113684108D01*
X109999500Y-113684108D01*
X109999500Y-113815892D01*
X110029579Y-113928151D01*
X110033609Y-113943190D01*
X110099496Y-114057309D01*
X110099498Y-114057311D01*
X110099500Y-114057314D01*
X110192686Y-114150500D01*
X110192688Y-114150501D01*
X110192690Y-114150503D01*
X110306810Y-114216390D01*
X110306808Y-114216390D01*
X110306812Y-114216391D01*
X110306814Y-114216392D01*
X110434108Y-114250500D01*
X110434110Y-114250500D01*
X110565890Y-114250500D01*
X110565892Y-114250500D01*
X110693186Y-114216392D01*
X110693188Y-114216390D01*
X110693190Y-114216390D01*
X110807309Y-114150503D01*
X110807309Y-114150502D01*
X110807314Y-114150500D01*
X110900500Y-114057314D01*
X110966392Y-113943186D01*
X111000500Y-113815892D01*
X111000500Y-113684108D01*
X110966392Y-113556814D01*
X110966390Y-113556811D01*
X110966390Y-113556809D01*
X110900503Y-113442690D01*
X110900501Y-113442688D01*
X110900500Y-113442686D01*
X110807314Y-113349500D01*
X110807311Y-113349498D01*
X110807309Y-113349496D01*
X110693189Y-113283609D01*
X110693191Y-113283609D01*
X110643799Y-113270375D01*
X110565892Y-113249500D01*
X110434108Y-113249500D01*
X110356200Y-113270375D01*
X110306809Y-113283609D01*
X110192690Y-113349496D01*
X110099496Y-113442690D01*
X110033609Y-113556809D01*
X110033608Y-113556814D01*
X109999500Y-113684108D01*
X93515500Y-113684108D01*
X93481392Y-113556814D01*
X93481390Y-113556811D01*
X93481390Y-113556809D01*
X93415503Y-113442690D01*
X93415501Y-113442688D01*
X93415500Y-113442686D01*
X93322314Y-113349500D01*
X93322311Y-113349498D01*
X93322309Y-113349496D01*
X93208189Y-113283609D01*
X93208191Y-113283609D01*
X93158799Y-113270375D01*
X93080892Y-113249500D01*
X92949108Y-113249500D01*
X92871200Y-113270375D01*
X92821809Y-113283609D01*
X92707690Y-113349496D01*
X92614496Y-113442690D01*
X92548609Y-113556809D01*
X92548608Y-113556814D01*
X92514500Y-113684108D01*
X48281857Y-113684108D01*
X48246883Y-113557612D01*
X48246204Y-113555016D01*
X48084213Y-112900503D01*
X47968781Y-112434108D01*
X135499500Y-112434108D01*
X135499500Y-112565892D01*
X135506502Y-112592023D01*
X135533609Y-112693190D01*
X135599496Y-112807309D01*
X135599498Y-112807311D01*
X135599500Y-112807314D01*
X135692686Y-112900500D01*
X135692688Y-112900501D01*
X135692690Y-112900503D01*
X135806810Y-112966390D01*
X135806808Y-112966390D01*
X135806812Y-112966391D01*
X135806814Y-112966392D01*
X135934108Y-113000500D01*
X135934110Y-113000500D01*
X136065890Y-113000500D01*
X136065892Y-113000500D01*
X136193186Y-112966392D01*
X136193188Y-112966390D01*
X136193190Y-112966390D01*
X136307309Y-112900503D01*
X136307309Y-112900502D01*
X136307314Y-112900500D01*
X136400500Y-112807314D01*
X136466392Y-112693186D01*
X136500500Y-112565892D01*
X136500500Y-112434108D01*
X136466392Y-112306814D01*
X136466390Y-112306811D01*
X136466390Y-112306809D01*
X136400503Y-112192690D01*
X136400501Y-112192688D01*
X136400500Y-112192686D01*
X136307314Y-112099500D01*
X136307311Y-112099498D01*
X136307309Y-112099496D01*
X136193189Y-112033609D01*
X136193191Y-112033609D01*
X136143799Y-112020375D01*
X136065892Y-111999500D01*
X135934108Y-111999500D01*
X135856200Y-112020375D01*
X135806809Y-112033609D01*
X135692690Y-112099496D01*
X135599496Y-112192690D01*
X135533609Y-112306809D01*
X135533608Y-112306814D01*
X135499500Y-112434108D01*
X47968781Y-112434108D01*
X47898227Y-112149040D01*
X47897621Y-112146440D01*
X47887345Y-112099496D01*
X47741693Y-111434108D01*
X133499500Y-111434108D01*
X133499500Y-111565892D01*
X133529579Y-111678151D01*
X133533609Y-111693190D01*
X133599496Y-111807309D01*
X133599498Y-111807311D01*
X133599500Y-111807314D01*
X133692686Y-111900500D01*
X133692688Y-111900501D01*
X133692690Y-111900503D01*
X133806810Y-111966390D01*
X133806808Y-111966390D01*
X133806812Y-111966391D01*
X133806814Y-111966392D01*
X133934108Y-112000500D01*
X133934110Y-112000500D01*
X134065890Y-112000500D01*
X134065892Y-112000500D01*
X134193186Y-111966392D01*
X134193188Y-111966390D01*
X134193190Y-111966390D01*
X134307309Y-111900503D01*
X134307309Y-111900502D01*
X134307314Y-111900500D01*
X134400500Y-111807314D01*
X134466392Y-111693186D01*
X134500500Y-111565892D01*
X134500500Y-111434108D01*
X134466392Y-111306814D01*
X134466390Y-111306811D01*
X134466390Y-111306809D01*
X134400503Y-111192690D01*
X134400501Y-111192688D01*
X134400500Y-111192686D01*
X134307314Y-111099500D01*
X134307311Y-111099498D01*
X134307309Y-111099496D01*
X134193189Y-111033609D01*
X134193191Y-111033609D01*
X134143799Y-111020375D01*
X134065892Y-110999500D01*
X133934108Y-110999500D01*
X133856200Y-111020375D01*
X133806809Y-111033609D01*
X133692690Y-111099496D01*
X133599496Y-111192690D01*
X133533609Y-111306809D01*
X133533608Y-111306814D01*
X133499500Y-111434108D01*
X47741693Y-111434108D01*
X47587890Y-110731481D01*
X47587375Y-110728968D01*
X47531165Y-110434108D01*
X131499500Y-110434108D01*
X131499500Y-110565892D01*
X131529579Y-110678151D01*
X131533609Y-110693190D01*
X131599496Y-110807309D01*
X131599498Y-110807311D01*
X131599500Y-110807314D01*
X131692686Y-110900500D01*
X131692688Y-110900501D01*
X131692690Y-110900503D01*
X131806810Y-110966390D01*
X131806808Y-110966390D01*
X131806812Y-110966391D01*
X131806814Y-110966392D01*
X131934108Y-111000500D01*
X131934110Y-111000500D01*
X132065890Y-111000500D01*
X132065892Y-111000500D01*
X132193186Y-110966392D01*
X132193188Y-110966390D01*
X132193190Y-110966390D01*
X132307309Y-110900503D01*
X132307309Y-110900502D01*
X132307314Y-110900500D01*
X132400500Y-110807314D01*
X132445013Y-110730216D01*
X132466390Y-110693190D01*
X132466390Y-110693188D01*
X132466392Y-110693186D01*
X132500500Y-110565892D01*
X132500500Y-110434108D01*
X132466392Y-110306814D01*
X132466390Y-110306811D01*
X132466390Y-110306809D01*
X132400503Y-110192690D01*
X132400501Y-110192688D01*
X132400500Y-110192686D01*
X132307314Y-110099500D01*
X132307311Y-110099498D01*
X132307309Y-110099496D01*
X132193189Y-110033609D01*
X132193191Y-110033609D01*
X132143799Y-110020375D01*
X132065892Y-109999500D01*
X131934108Y-109999500D01*
X131856200Y-110020375D01*
X131806809Y-110033609D01*
X131692690Y-110099496D01*
X131599496Y-110192690D01*
X131533609Y-110306809D01*
X131533608Y-110306814D01*
X131499500Y-110434108D01*
X47531165Y-110434108D01*
X47316124Y-109306083D01*
X47315663Y-109303471D01*
X47195767Y-108566390D01*
X47109185Y-108034108D01*
X147399500Y-108034108D01*
X147399500Y-108165892D01*
X147427146Y-108269068D01*
X147433609Y-108293190D01*
X147499496Y-108407309D01*
X147499498Y-108407311D01*
X147499500Y-108407314D01*
X147592686Y-108500500D01*
X147592688Y-108500501D01*
X147592690Y-108500503D01*
X147706810Y-108566390D01*
X147706808Y-108566390D01*
X147706812Y-108566391D01*
X147706814Y-108566392D01*
X147834108Y-108600500D01*
X147834110Y-108600500D01*
X147965890Y-108600500D01*
X147965892Y-108600500D01*
X148093186Y-108566392D01*
X148093188Y-108566390D01*
X148093190Y-108566390D01*
X148207309Y-108500503D01*
X148207309Y-108500502D01*
X148207314Y-108500500D01*
X148300500Y-108407314D01*
X148366392Y-108293186D01*
X148400500Y-108165892D01*
X148400500Y-108034108D01*
X148366392Y-107906814D01*
X148366390Y-107906811D01*
X148366390Y-107906809D01*
X148300503Y-107792690D01*
X148300501Y-107792688D01*
X148300500Y-107792686D01*
X148207314Y-107699500D01*
X148207311Y-107699498D01*
X148207309Y-107699496D01*
X148093189Y-107633609D01*
X148093191Y-107633609D01*
X148043799Y-107620375D01*
X147965892Y-107599500D01*
X147834108Y-107599500D01*
X147756200Y-107620375D01*
X147706809Y-107633609D01*
X147592690Y-107699496D01*
X147499496Y-107792690D01*
X147433609Y-107906809D01*
X147433608Y-107906814D01*
X147399500Y-108034108D01*
X47109185Y-108034108D01*
X47083109Y-107873800D01*
X47082729Y-107871248D01*
X47010250Y-107334108D01*
X80599500Y-107334108D01*
X80599500Y-107465892D01*
X80629579Y-107578151D01*
X80633609Y-107593190D01*
X80699496Y-107707309D01*
X80699498Y-107707311D01*
X80699500Y-107707314D01*
X80792686Y-107800500D01*
X80792688Y-107800501D01*
X80792690Y-107800503D01*
X80906810Y-107866390D01*
X80906808Y-107866390D01*
X80906812Y-107866391D01*
X80906814Y-107866392D01*
X81034108Y-107900500D01*
X81034110Y-107900500D01*
X81165890Y-107900500D01*
X81165892Y-107900500D01*
X81293186Y-107866392D01*
X81293188Y-107866390D01*
X81293190Y-107866390D01*
X81407309Y-107800503D01*
X81407309Y-107800502D01*
X81407314Y-107800500D01*
X81500500Y-107707314D01*
X81500503Y-107707309D01*
X81566390Y-107593190D01*
X81566390Y-107593188D01*
X81566392Y-107593186D01*
X81600500Y-107465892D01*
X81600500Y-107334108D01*
X84099500Y-107334108D01*
X84099500Y-107465892D01*
X84129579Y-107578151D01*
X84133609Y-107593190D01*
X84199496Y-107707309D01*
X84199498Y-107707311D01*
X84199500Y-107707314D01*
X84292686Y-107800500D01*
X84292688Y-107800501D01*
X84292690Y-107800503D01*
X84406810Y-107866390D01*
X84406808Y-107866390D01*
X84406812Y-107866391D01*
X84406814Y-107866392D01*
X84534108Y-107900500D01*
X84534110Y-107900500D01*
X84665890Y-107900500D01*
X84665892Y-107900500D01*
X84793186Y-107866392D01*
X84793188Y-107866390D01*
X84793190Y-107866390D01*
X84907309Y-107800503D01*
X84907309Y-107800502D01*
X84907314Y-107800500D01*
X85000500Y-107707314D01*
X85000503Y-107707309D01*
X85066390Y-107593190D01*
X85066390Y-107593188D01*
X85066392Y-107593186D01*
X85100500Y-107465892D01*
X85100500Y-107334108D01*
X85066392Y-107206814D01*
X85066390Y-107206811D01*
X85066390Y-107206809D01*
X85000503Y-107092690D01*
X85000501Y-107092688D01*
X85000500Y-107092686D01*
X84907314Y-106999500D01*
X84907311Y-106999498D01*
X84907309Y-106999496D01*
X84793189Y-106933609D01*
X84793191Y-106933609D01*
X84743799Y-106920375D01*
X84665892Y-106899500D01*
X84534108Y-106899500D01*
X84456200Y-106920375D01*
X84406809Y-106933609D01*
X84292690Y-106999496D01*
X84199496Y-107092690D01*
X84133609Y-107206809D01*
X84133608Y-107206814D01*
X84099500Y-107334108D01*
X81600500Y-107334108D01*
X81566392Y-107206814D01*
X81566390Y-107206811D01*
X81566390Y-107206809D01*
X81500503Y-107092690D01*
X81500501Y-107092688D01*
X81500500Y-107092686D01*
X81407314Y-106999500D01*
X81407311Y-106999498D01*
X81407309Y-106999496D01*
X81293189Y-106933609D01*
X81293191Y-106933609D01*
X81243799Y-106920375D01*
X81165892Y-106899500D01*
X81034108Y-106899500D01*
X80956200Y-106920375D01*
X80906809Y-106933609D01*
X80792690Y-106999496D01*
X80699496Y-107092690D01*
X80633609Y-107206809D01*
X80633608Y-107206814D01*
X80599500Y-107334108D01*
X47010250Y-107334108D01*
X46889035Y-106435790D01*
X46888831Y-106434108D01*
X135499500Y-106434108D01*
X135499500Y-106565892D01*
X135529579Y-106678151D01*
X135533609Y-106693190D01*
X135599496Y-106807309D01*
X135599498Y-106807311D01*
X135599500Y-106807314D01*
X135692686Y-106900500D01*
X135692688Y-106900501D01*
X135692690Y-106900503D01*
X135806810Y-106966390D01*
X135806808Y-106966390D01*
X135806812Y-106966391D01*
X135806814Y-106966392D01*
X135934108Y-107000500D01*
X135934110Y-107000500D01*
X136065890Y-107000500D01*
X136065892Y-107000500D01*
X136193186Y-106966392D01*
X136193188Y-106966390D01*
X136193190Y-106966390D01*
X136307309Y-106900503D01*
X136307309Y-106900502D01*
X136307314Y-106900500D01*
X136400500Y-106807314D01*
X136466392Y-106693186D01*
X136500500Y-106565892D01*
X136500500Y-106434108D01*
X136466392Y-106306814D01*
X136466390Y-106306811D01*
X136466390Y-106306809D01*
X136400503Y-106192690D01*
X136400501Y-106192688D01*
X136400500Y-106192686D01*
X136307314Y-106099500D01*
X136307311Y-106099498D01*
X136307309Y-106099496D01*
X136193189Y-106033609D01*
X136193191Y-106033609D01*
X136143799Y-106020375D01*
X136065892Y-105999500D01*
X135934108Y-105999500D01*
X135856200Y-106020375D01*
X135806809Y-106033609D01*
X135692690Y-106099496D01*
X135599496Y-106192690D01*
X135533609Y-106306809D01*
X135533608Y-106306814D01*
X135499500Y-106434108D01*
X46888831Y-106434108D01*
X46888719Y-106433183D01*
X46813630Y-105734108D01*
X77599500Y-105734108D01*
X77599500Y-105865892D01*
X77608773Y-105900500D01*
X77633609Y-105993190D01*
X77699496Y-106107309D01*
X77699498Y-106107311D01*
X77699500Y-106107314D01*
X77792686Y-106200500D01*
X77792688Y-106200501D01*
X77792690Y-106200503D01*
X77906810Y-106266390D01*
X77906808Y-106266390D01*
X77906812Y-106266391D01*
X77906814Y-106266392D01*
X78034108Y-106300500D01*
X78034110Y-106300500D01*
X78165890Y-106300500D01*
X78165892Y-106300500D01*
X78293186Y-106266392D01*
X78293188Y-106266390D01*
X78293190Y-106266390D01*
X78407309Y-106200503D01*
X78407309Y-106200502D01*
X78407314Y-106200500D01*
X78500500Y-106107314D01*
X78500503Y-106107309D01*
X78564264Y-105996873D01*
X78609733Y-105955932D01*
X78670583Y-105949536D01*
X78723571Y-105980129D01*
X78735736Y-105996873D01*
X78799496Y-106107309D01*
X78799498Y-106107311D01*
X78799500Y-106107314D01*
X78892686Y-106200500D01*
X78892688Y-106200501D01*
X78892690Y-106200503D01*
X79006810Y-106266390D01*
X79006808Y-106266390D01*
X79006812Y-106266391D01*
X79006814Y-106266392D01*
X79134108Y-106300500D01*
X79134110Y-106300500D01*
X79265890Y-106300500D01*
X79265892Y-106300500D01*
X79393186Y-106266392D01*
X79393188Y-106266390D01*
X79393190Y-106266390D01*
X79507309Y-106200503D01*
X79507309Y-106200502D01*
X79507314Y-106200500D01*
X79600500Y-106107314D01*
X79600503Y-106107309D01*
X79666390Y-105993190D01*
X79666390Y-105993188D01*
X79666392Y-105993186D01*
X79700500Y-105865892D01*
X79700500Y-105734108D01*
X87499500Y-105734108D01*
X87499500Y-105865892D01*
X87508773Y-105900500D01*
X87533609Y-105993190D01*
X87599496Y-106107309D01*
X87599498Y-106107311D01*
X87599500Y-106107314D01*
X87692686Y-106200500D01*
X87692688Y-106200501D01*
X87692690Y-106200503D01*
X87806810Y-106266390D01*
X87806808Y-106266390D01*
X87806812Y-106266391D01*
X87806814Y-106266392D01*
X87934108Y-106300500D01*
X87934110Y-106300500D01*
X88065890Y-106300500D01*
X88065892Y-106300500D01*
X88193186Y-106266392D01*
X88193188Y-106266390D01*
X88193190Y-106266390D01*
X88307309Y-106200503D01*
X88307309Y-106200502D01*
X88307314Y-106200500D01*
X88400500Y-106107314D01*
X88400503Y-106107309D01*
X88466390Y-105993190D01*
X88466390Y-105993188D01*
X88466392Y-105993186D01*
X88500500Y-105865892D01*
X88500500Y-105734108D01*
X88466392Y-105606814D01*
X88466390Y-105606811D01*
X88466390Y-105606809D01*
X88400503Y-105492690D01*
X88400501Y-105492688D01*
X88400500Y-105492686D01*
X88341922Y-105434108D01*
X133499500Y-105434108D01*
X133499500Y-105565892D01*
X133520447Y-105644067D01*
X133533609Y-105693190D01*
X133599496Y-105807309D01*
X133599498Y-105807311D01*
X133599500Y-105807314D01*
X133692686Y-105900500D01*
X133692688Y-105900501D01*
X133692690Y-105900503D01*
X133806810Y-105966390D01*
X133806808Y-105966390D01*
X133806812Y-105966391D01*
X133806814Y-105966392D01*
X133934108Y-106000500D01*
X133934110Y-106000500D01*
X134065890Y-106000500D01*
X134065892Y-106000500D01*
X134193186Y-105966392D01*
X134193188Y-105966390D01*
X134193190Y-105966390D01*
X134307309Y-105900503D01*
X134307309Y-105900502D01*
X134307314Y-105900500D01*
X134400500Y-105807314D01*
X134466392Y-105693186D01*
X134500500Y-105565892D01*
X134500500Y-105434108D01*
X134466392Y-105306814D01*
X134466390Y-105306811D01*
X134466390Y-105306809D01*
X134400503Y-105192690D01*
X134400501Y-105192688D01*
X134400500Y-105192686D01*
X134307314Y-105099500D01*
X134307311Y-105099498D01*
X134307309Y-105099496D01*
X134193189Y-105033609D01*
X134193191Y-105033609D01*
X134143799Y-105020375D01*
X134065892Y-104999500D01*
X133934108Y-104999500D01*
X133856200Y-105020375D01*
X133806809Y-105033609D01*
X133692690Y-105099496D01*
X133599496Y-105192690D01*
X133533609Y-105306809D01*
X133526428Y-105333609D01*
X133499500Y-105434108D01*
X88341922Y-105434108D01*
X88307314Y-105399500D01*
X88307311Y-105399498D01*
X88307309Y-105399496D01*
X88193189Y-105333609D01*
X88193191Y-105333609D01*
X88143799Y-105320375D01*
X88065892Y-105299500D01*
X87934108Y-105299500D01*
X87856200Y-105320375D01*
X87806809Y-105333609D01*
X87692690Y-105399496D01*
X87599496Y-105492690D01*
X87533609Y-105606809D01*
X87523626Y-105644067D01*
X87499500Y-105734108D01*
X79700500Y-105734108D01*
X79666392Y-105606814D01*
X79666390Y-105606811D01*
X79666390Y-105606809D01*
X79600503Y-105492690D01*
X79600501Y-105492688D01*
X79600500Y-105492686D01*
X79507314Y-105399500D01*
X79507311Y-105399498D01*
X79507309Y-105399496D01*
X79393189Y-105333609D01*
X79393191Y-105333609D01*
X79343799Y-105320375D01*
X79265892Y-105299500D01*
X79134108Y-105299500D01*
X79056200Y-105320375D01*
X79006809Y-105333609D01*
X78892690Y-105399496D01*
X78799496Y-105492690D01*
X78735736Y-105603126D01*
X78690267Y-105644067D01*
X78629416Y-105650463D01*
X78576428Y-105619870D01*
X78564264Y-105603126D01*
X78500503Y-105492690D01*
X78500501Y-105492688D01*
X78500500Y-105492686D01*
X78407314Y-105399500D01*
X78407311Y-105399498D01*
X78407309Y-105399496D01*
X78293189Y-105333609D01*
X78293191Y-105333609D01*
X78243799Y-105320375D01*
X78165892Y-105299500D01*
X78034108Y-105299500D01*
X77956200Y-105320375D01*
X77906809Y-105333609D01*
X77792690Y-105399496D01*
X77699496Y-105492690D01*
X77633609Y-105606809D01*
X77623626Y-105644067D01*
X77599500Y-105734108D01*
X46813630Y-105734108D01*
X46734026Y-104992995D01*
X46733777Y-104990324D01*
X46726587Y-104900500D01*
X46689253Y-104434108D01*
X131499500Y-104434108D01*
X131499500Y-104565892D01*
X131529579Y-104678151D01*
X131533609Y-104693190D01*
X131599496Y-104807309D01*
X131599498Y-104807311D01*
X131599500Y-104807314D01*
X131692686Y-104900500D01*
X131692688Y-104900501D01*
X131692690Y-104900503D01*
X131806810Y-104966390D01*
X131806808Y-104966390D01*
X131806812Y-104966391D01*
X131806814Y-104966392D01*
X131934108Y-105000500D01*
X131934110Y-105000500D01*
X132065890Y-105000500D01*
X132065892Y-105000500D01*
X132193186Y-104966392D01*
X132193188Y-104966390D01*
X132193190Y-104966390D01*
X132307309Y-104900503D01*
X132307309Y-104900502D01*
X132307314Y-104900500D01*
X132400500Y-104807314D01*
X132466392Y-104693186D01*
X132500500Y-104565892D01*
X132500500Y-104434108D01*
X132466392Y-104306814D01*
X132466390Y-104306811D01*
X132466390Y-104306809D01*
X132400503Y-104192690D01*
X132400501Y-104192688D01*
X132400500Y-104192686D01*
X132307314Y-104099500D01*
X132307311Y-104099498D01*
X132307309Y-104099496D01*
X132193189Y-104033609D01*
X132193191Y-104033609D01*
X132143799Y-104020375D01*
X132065892Y-103999500D01*
X131934108Y-103999500D01*
X131856200Y-104020375D01*
X131806809Y-104033609D01*
X131692690Y-104099496D01*
X131599496Y-104192690D01*
X131533609Y-104306809D01*
X131533608Y-104306814D01*
X131499500Y-104434108D01*
X46689253Y-104434108D01*
X46618205Y-103546538D01*
X46618029Y-103543885D01*
X46611440Y-103419105D01*
X46559316Y-102431943D01*
X95950000Y-102431943D01*
X95950000Y-102668056D01*
X95986934Y-102901252D01*
X95986935Y-102901256D01*
X96059892Y-103125793D01*
X96059894Y-103125796D01*
X96167084Y-103336169D01*
X96227339Y-103419105D01*
X96810689Y-102835754D01*
X96829669Y-102881574D01*
X96906275Y-102996223D01*
X97003777Y-103093725D01*
X97118426Y-103170331D01*
X97164243Y-103189309D01*
X96580893Y-103772659D01*
X96663825Y-103832913D01*
X96663829Y-103832915D01*
X96874203Y-103940105D01*
X96874206Y-103940107D01*
X97098743Y-104013064D01*
X97098747Y-104013065D01*
X97331944Y-104050000D01*
X97568056Y-104050000D01*
X97801252Y-104013065D01*
X97801256Y-104013064D01*
X98025793Y-103940107D01*
X98025796Y-103940105D01*
X98236170Y-103832915D01*
X98236176Y-103832911D01*
X98319105Y-103772659D01*
X98319105Y-103772658D01*
X97735756Y-103189309D01*
X97781574Y-103170331D01*
X97896223Y-103093725D01*
X97993725Y-102996223D01*
X98070331Y-102881574D01*
X98089309Y-102835756D01*
X98672658Y-103419105D01*
X98672659Y-103419105D01*
X98732911Y-103336176D01*
X98732915Y-103336170D01*
X98840105Y-103125796D01*
X98840107Y-103125793D01*
X98913064Y-102901256D01*
X98913065Y-102901252D01*
X98950000Y-102668056D01*
X98950000Y-102431943D01*
X101050000Y-102431943D01*
X101050000Y-102668056D01*
X101086934Y-102901252D01*
X101086935Y-102901256D01*
X101159892Y-103125793D01*
X101159894Y-103125796D01*
X101267084Y-103336169D01*
X101327339Y-103419105D01*
X101910689Y-102835754D01*
X101929669Y-102881574D01*
X102006275Y-102996223D01*
X102103777Y-103093725D01*
X102218426Y-103170331D01*
X102264243Y-103189309D01*
X101680893Y-103772659D01*
X101763825Y-103832913D01*
X101763829Y-103832915D01*
X101974203Y-103940105D01*
X101974206Y-103940107D01*
X102198743Y-104013064D01*
X102198747Y-104013065D01*
X102431944Y-104050000D01*
X102668056Y-104050000D01*
X102901252Y-104013065D01*
X102901256Y-104013064D01*
X103125793Y-103940107D01*
X103125796Y-103940105D01*
X103336170Y-103832915D01*
X103336176Y-103832911D01*
X103419105Y-103772659D01*
X103419105Y-103772658D01*
X102835756Y-103189309D01*
X102881574Y-103170331D01*
X102996223Y-103093725D01*
X103093725Y-102996223D01*
X103170331Y-102881574D01*
X103189309Y-102835756D01*
X103772658Y-103419105D01*
X103772659Y-103419105D01*
X103832911Y-103336176D01*
X103832915Y-103336170D01*
X103940105Y-103125796D01*
X103940107Y-103125793D01*
X104013064Y-102901256D01*
X104013065Y-102901252D01*
X104050000Y-102668056D01*
X104050000Y-102431943D01*
X104013065Y-102198747D01*
X104013064Y-102198743D01*
X103940107Y-101974206D01*
X103940105Y-101974203D01*
X103832915Y-101763829D01*
X103832913Y-101763825D01*
X103772659Y-101680893D01*
X103189309Y-102264243D01*
X103170331Y-102218426D01*
X103093725Y-102103777D01*
X102996223Y-102006275D01*
X102881574Y-101929669D01*
X102835754Y-101910689D01*
X103419105Y-101327339D01*
X103336169Y-101267084D01*
X103125796Y-101159894D01*
X103125793Y-101159892D01*
X102901256Y-101086935D01*
X102901252Y-101086934D01*
X102668056Y-101050000D01*
X102431944Y-101050000D01*
X102198747Y-101086934D01*
X102198743Y-101086935D01*
X101974206Y-101159892D01*
X101974203Y-101159894D01*
X101763823Y-101267088D01*
X101680893Y-101327339D01*
X102264244Y-101910690D01*
X102218426Y-101929669D01*
X102103777Y-102006275D01*
X102006275Y-102103777D01*
X101929669Y-102218426D01*
X101910690Y-102264244D01*
X101327339Y-101680893D01*
X101267088Y-101763823D01*
X101159894Y-101974203D01*
X101159892Y-101974206D01*
X101086935Y-102198743D01*
X101086934Y-102198747D01*
X101050000Y-102431943D01*
X98950000Y-102431943D01*
X98913065Y-102198747D01*
X98913064Y-102198743D01*
X98840107Y-101974206D01*
X98840105Y-101974203D01*
X98732915Y-101763829D01*
X98732913Y-101763825D01*
X98672659Y-101680893D01*
X98089309Y-102264243D01*
X98070331Y-102218426D01*
X97993725Y-102103777D01*
X97896223Y-102006275D01*
X97781574Y-101929669D01*
X97735754Y-101910689D01*
X98319105Y-101327339D01*
X98236169Y-101267084D01*
X98025796Y-101159894D01*
X98025793Y-101159892D01*
X97801256Y-101086935D01*
X97801252Y-101086934D01*
X97568056Y-101050000D01*
X97331944Y-101050000D01*
X97098747Y-101086934D01*
X97098743Y-101086935D01*
X96874206Y-101159892D01*
X96874203Y-101159894D01*
X96663823Y-101267088D01*
X96580893Y-101327339D01*
X97164244Y-101910690D01*
X97118426Y-101929669D01*
X97003777Y-102006275D01*
X96906275Y-102103777D01*
X96829669Y-102218426D01*
X96810690Y-102264244D01*
X96227339Y-101680893D01*
X96167088Y-101763823D01*
X96059894Y-101974203D01*
X96059892Y-101974206D01*
X95986935Y-102198743D01*
X95986934Y-102198747D01*
X95950000Y-102431943D01*
X46559316Y-102431943D01*
X46547003Y-102198743D01*
X46541654Y-102097456D01*
X46541551Y-102094802D01*
X46537318Y-101929669D01*
X46504434Y-100646831D01*
X46504402Y-100644289D01*
X46505495Y-99913385D01*
X98899500Y-99913385D01*
X98899500Y-100086614D01*
X98926597Y-100257702D01*
X98926598Y-100257706D01*
X98980123Y-100422438D01*
X98980125Y-100422441D01*
X98980126Y-100422444D01*
X98980127Y-100422445D01*
X99058768Y-100576788D01*
X99160586Y-100716928D01*
X99283072Y-100839414D01*
X99423212Y-100941232D01*
X99577555Y-101019873D01*
X99577557Y-101019873D01*
X99577558Y-101019874D01*
X99577561Y-101019876D01*
X99742293Y-101073401D01*
X99742297Y-101073402D01*
X99913386Y-101100500D01*
X99913389Y-101100500D01*
X100086614Y-101100500D01*
X100257702Y-101073402D01*
X100257706Y-101073401D01*
X100422438Y-101019876D01*
X100422440Y-101019874D01*
X100422445Y-101019873D01*
X100576788Y-100941232D01*
X100716928Y-100839414D01*
X100839414Y-100716928D01*
X100941232Y-100576788D01*
X101019873Y-100422445D01*
X101019874Y-100422440D01*
X101019876Y-100422438D01*
X101073401Y-100257706D01*
X101073402Y-100257702D01*
X101100500Y-100086614D01*
X101100500Y-99913385D01*
X101073402Y-99742297D01*
X101073401Y-99742293D01*
X101019876Y-99577561D01*
X101019874Y-99577558D01*
X101019873Y-99577557D01*
X101019873Y-99577555D01*
X100941232Y-99423212D01*
X100839414Y-99283072D01*
X100716928Y-99160586D01*
X100576788Y-99058768D01*
X100576787Y-99058767D01*
X100576785Y-99058766D01*
X100422441Y-98980125D01*
X100422438Y-98980123D01*
X100257706Y-98926598D01*
X100257702Y-98926597D01*
X100086614Y-98899500D01*
X100086611Y-98899500D01*
X99913389Y-98899500D01*
X99913386Y-98899500D01*
X99742297Y-98926597D01*
X99742293Y-98926598D01*
X99577561Y-98980123D01*
X99577558Y-98980125D01*
X99423214Y-99058766D01*
X99283073Y-99160585D01*
X99160585Y-99283073D01*
X99058766Y-99423214D01*
X98980125Y-99577558D01*
X98980123Y-99577561D01*
X98926598Y-99742293D01*
X98926597Y-99742297D01*
X98899500Y-99913385D01*
X46505495Y-99913385D01*
X46506569Y-99195771D01*
X46506610Y-99193088D01*
X46507541Y-99160585D01*
X46548057Y-97745284D01*
X46548169Y-97742626D01*
X46553105Y-97654182D01*
X46571086Y-97331943D01*
X95950000Y-97331943D01*
X95950000Y-97568056D01*
X95986934Y-97801252D01*
X95986935Y-97801256D01*
X96059892Y-98025793D01*
X96059894Y-98025796D01*
X96167084Y-98236169D01*
X96227339Y-98319105D01*
X96810689Y-97735754D01*
X96829669Y-97781574D01*
X96906275Y-97896223D01*
X97003777Y-97993725D01*
X97118426Y-98070331D01*
X97164243Y-98089309D01*
X96580893Y-98672659D01*
X96663825Y-98732913D01*
X96663829Y-98732915D01*
X96874203Y-98840105D01*
X96874206Y-98840107D01*
X97098743Y-98913064D01*
X97098747Y-98913065D01*
X97331944Y-98950000D01*
X97568056Y-98950000D01*
X97801252Y-98913065D01*
X97801256Y-98913064D01*
X98025793Y-98840107D01*
X98025796Y-98840105D01*
X98236170Y-98732915D01*
X98236176Y-98732911D01*
X98319105Y-98672659D01*
X98319105Y-98672658D01*
X97735756Y-98089309D01*
X97781574Y-98070331D01*
X97896223Y-97993725D01*
X97993725Y-97896223D01*
X98070331Y-97781574D01*
X98089309Y-97735756D01*
X98672658Y-98319105D01*
X98672659Y-98319105D01*
X98732911Y-98236176D01*
X98732915Y-98236170D01*
X98840105Y-98025796D01*
X98840107Y-98025793D01*
X98913064Y-97801256D01*
X98913065Y-97801252D01*
X98950000Y-97568056D01*
X98950000Y-97331943D01*
X101050000Y-97331943D01*
X101050000Y-97568056D01*
X101086934Y-97801252D01*
X101086935Y-97801256D01*
X101159892Y-98025793D01*
X101159894Y-98025796D01*
X101267084Y-98236169D01*
X101327339Y-98319105D01*
X101910689Y-97735754D01*
X101929669Y-97781574D01*
X102006275Y-97896223D01*
X102103777Y-97993725D01*
X102218426Y-98070331D01*
X102264243Y-98089309D01*
X101680893Y-98672659D01*
X101763825Y-98732913D01*
X101763829Y-98732915D01*
X101974203Y-98840105D01*
X101974206Y-98840107D01*
X102198743Y-98913064D01*
X102198747Y-98913065D01*
X102431944Y-98950000D01*
X102668056Y-98950000D01*
X102901252Y-98913065D01*
X102901256Y-98913064D01*
X103125793Y-98840107D01*
X103125796Y-98840105D01*
X103336170Y-98732915D01*
X103336176Y-98732911D01*
X103419105Y-98672659D01*
X103419105Y-98672658D01*
X102835756Y-98089309D01*
X102881574Y-98070331D01*
X102996223Y-97993725D01*
X103093725Y-97896223D01*
X103170331Y-97781574D01*
X103189309Y-97735756D01*
X103772658Y-98319105D01*
X103772659Y-98319105D01*
X103832911Y-98236176D01*
X103832915Y-98236170D01*
X103940105Y-98025796D01*
X103940107Y-98025793D01*
X104013064Y-97801256D01*
X104013065Y-97801252D01*
X104050000Y-97568056D01*
X104050000Y-97331943D01*
X104013065Y-97098747D01*
X104013064Y-97098743D01*
X103940107Y-96874206D01*
X103940105Y-96874203D01*
X103832915Y-96663829D01*
X103832913Y-96663825D01*
X103772659Y-96580893D01*
X103189309Y-97164243D01*
X103170331Y-97118426D01*
X103093725Y-97003777D01*
X102996223Y-96906275D01*
X102881574Y-96829669D01*
X102835754Y-96810689D01*
X103419105Y-96227339D01*
X103336169Y-96167084D01*
X103125796Y-96059894D01*
X103125793Y-96059892D01*
X102901256Y-95986935D01*
X102901252Y-95986934D01*
X102668056Y-95950000D01*
X102431944Y-95950000D01*
X102198747Y-95986934D01*
X102198743Y-95986935D01*
X101974206Y-96059892D01*
X101974203Y-96059894D01*
X101763823Y-96167088D01*
X101680893Y-96227339D01*
X102264244Y-96810690D01*
X102218426Y-96829669D01*
X102103777Y-96906275D01*
X102006275Y-97003777D01*
X101929669Y-97118426D01*
X101910690Y-97164244D01*
X101327339Y-96580893D01*
X101267088Y-96663823D01*
X101159894Y-96874203D01*
X101159892Y-96874206D01*
X101086935Y-97098743D01*
X101086934Y-97098747D01*
X101050000Y-97331943D01*
X98950000Y-97331943D01*
X98913065Y-97098747D01*
X98913064Y-97098743D01*
X98840107Y-96874206D01*
X98840105Y-96874203D01*
X98732915Y-96663829D01*
X98732913Y-96663825D01*
X98672659Y-96580893D01*
X98089309Y-97164243D01*
X98070331Y-97118426D01*
X97993725Y-97003777D01*
X97896223Y-96906275D01*
X97781574Y-96829669D01*
X97735754Y-96810689D01*
X98319105Y-96227339D01*
X98236169Y-96167084D01*
X98025796Y-96059894D01*
X98025793Y-96059892D01*
X97801256Y-95986935D01*
X97801252Y-95986934D01*
X97568056Y-95950000D01*
X97331944Y-95950000D01*
X97098747Y-95986934D01*
X97098743Y-95986935D01*
X96874206Y-96059892D01*
X96874203Y-96059894D01*
X96663823Y-96167088D01*
X96580893Y-96227339D01*
X97164244Y-96810690D01*
X97118426Y-96829669D01*
X97003777Y-96906275D01*
X96906275Y-97003777D01*
X96829669Y-97118426D01*
X96810690Y-97164244D01*
X96227339Y-96580893D01*
X96167088Y-96663823D01*
X96059894Y-96874203D01*
X96059892Y-96874206D01*
X95986935Y-97098743D01*
X95986934Y-97098747D01*
X95950000Y-97331943D01*
X46571086Y-97331943D01*
X46580324Y-97166392D01*
X46610027Y-96634108D01*
X69499500Y-96634108D01*
X69499500Y-96765892D01*
X69516589Y-96829669D01*
X69533609Y-96893190D01*
X69599496Y-97007309D01*
X69599498Y-97007311D01*
X69599500Y-97007314D01*
X69692686Y-97100500D01*
X69692688Y-97100501D01*
X69692690Y-97100503D01*
X69806810Y-97166390D01*
X69806808Y-97166390D01*
X69806812Y-97166391D01*
X69806814Y-97166392D01*
X69934108Y-97200500D01*
X69934110Y-97200500D01*
X70065890Y-97200500D01*
X70065892Y-97200500D01*
X70193186Y-97166392D01*
X70193188Y-97166390D01*
X70193190Y-97166390D01*
X70307309Y-97100503D01*
X70307309Y-97100502D01*
X70307314Y-97100500D01*
X70400500Y-97007314D01*
X70466392Y-96893186D01*
X70500500Y-96765892D01*
X70500500Y-96634108D01*
X70466392Y-96506814D01*
X70466390Y-96506811D01*
X70466390Y-96506809D01*
X70400503Y-96392690D01*
X70400501Y-96392688D01*
X70400500Y-96392686D01*
X70307314Y-96299500D01*
X70307311Y-96299498D01*
X70307309Y-96299496D01*
X70193189Y-96233609D01*
X70193191Y-96233609D01*
X70143799Y-96220375D01*
X70065892Y-96199500D01*
X69934108Y-96199500D01*
X69856200Y-96220375D01*
X69806809Y-96233609D01*
X69692690Y-96299496D01*
X69599496Y-96392690D01*
X69533609Y-96506809D01*
X69533608Y-96506814D01*
X69499500Y-96634108D01*
X46610027Y-96634108D01*
X46610697Y-96622103D01*
X46618378Y-96484438D01*
X46628869Y-96296440D01*
X46629054Y-96293782D01*
X46639577Y-96167088D01*
X46748945Y-94850327D01*
X46749196Y-94847735D01*
X46908201Y-93407968D01*
X46908517Y-93405418D01*
X46918357Y-93334108D01*
X69499500Y-93334108D01*
X69499500Y-93465892D01*
X69529579Y-93578151D01*
X69533609Y-93593190D01*
X69599496Y-93707309D01*
X69599498Y-93707311D01*
X69599500Y-93707314D01*
X69692686Y-93800500D01*
X69692688Y-93800501D01*
X69692690Y-93800503D01*
X69806810Y-93866390D01*
X69806808Y-93866390D01*
X69806812Y-93866391D01*
X69806814Y-93866392D01*
X69934108Y-93900500D01*
X69934110Y-93900500D01*
X70065890Y-93900500D01*
X70065892Y-93900500D01*
X70193186Y-93866392D01*
X70193188Y-93866390D01*
X70193190Y-93866390D01*
X70307309Y-93800503D01*
X70307309Y-93800502D01*
X70307314Y-93800500D01*
X70400500Y-93707314D01*
X70466392Y-93593186D01*
X70500500Y-93465892D01*
X70500500Y-93334108D01*
X70466392Y-93206814D01*
X70466390Y-93206811D01*
X70466390Y-93206809D01*
X70400503Y-93092690D01*
X70400501Y-93092688D01*
X70400500Y-93092686D01*
X70307314Y-92999500D01*
X70307311Y-92999498D01*
X70307309Y-92999496D01*
X70193189Y-92933609D01*
X70193191Y-92933609D01*
X70143799Y-92920375D01*
X70065892Y-92899500D01*
X69934108Y-92899500D01*
X69856200Y-92920375D01*
X69806809Y-92933609D01*
X69692690Y-92999496D01*
X69599496Y-93092690D01*
X69533609Y-93206809D01*
X69533608Y-93206814D01*
X69499500Y-93334108D01*
X46918357Y-93334108D01*
X47042996Y-92430817D01*
X148774500Y-92430817D01*
X148774500Y-92569183D01*
X148810312Y-92702836D01*
X148879495Y-92822665D01*
X148977335Y-92920505D01*
X149097164Y-92989688D01*
X149230817Y-93025500D01*
X149230819Y-93025500D01*
X149369181Y-93025500D01*
X149369183Y-93025500D01*
X149502836Y-92989688D01*
X149622665Y-92920505D01*
X149720505Y-92822665D01*
X149789688Y-92702836D01*
X149825500Y-92569183D01*
X149825500Y-92430817D01*
X149789688Y-92297164D01*
X149720505Y-92177335D01*
X149622665Y-92079495D01*
X149502836Y-92010312D01*
X149369183Y-91974500D01*
X149230817Y-91974500D01*
X149097164Y-92010312D01*
X148977335Y-92079495D01*
X148879495Y-92177335D01*
X148810312Y-92297164D01*
X148774500Y-92430817D01*
X47042996Y-92430817D01*
X47106513Y-91970489D01*
X47106895Y-91967969D01*
X47220234Y-91284108D01*
X137999500Y-91284108D01*
X137999500Y-91415892D01*
X138029579Y-91528151D01*
X138033609Y-91543190D01*
X138099496Y-91657309D01*
X138099498Y-91657311D01*
X138099500Y-91657314D01*
X138192686Y-91750500D01*
X138192688Y-91750501D01*
X138192690Y-91750503D01*
X138306810Y-91816390D01*
X138306808Y-91816390D01*
X138306812Y-91816391D01*
X138306814Y-91816392D01*
X138434108Y-91850500D01*
X138434110Y-91850500D01*
X138565890Y-91850500D01*
X138565892Y-91850500D01*
X138693186Y-91816392D01*
X138693188Y-91816390D01*
X138693190Y-91816390D01*
X138807309Y-91750503D01*
X138807309Y-91750502D01*
X138807314Y-91750500D01*
X138900500Y-91657314D01*
X138966392Y-91543186D01*
X139000500Y-91415892D01*
X139000500Y-91284108D01*
X138966392Y-91156814D01*
X138966390Y-91156811D01*
X138966390Y-91156809D01*
X138900503Y-91042690D01*
X138900501Y-91042688D01*
X138900500Y-91042686D01*
X138807314Y-90949500D01*
X138807311Y-90949498D01*
X138807309Y-90949496D01*
X138693189Y-90883609D01*
X138693191Y-90883609D01*
X138643799Y-90870375D01*
X138565892Y-90849500D01*
X138434108Y-90849500D01*
X138356200Y-90870375D01*
X138306809Y-90883609D01*
X138192690Y-90949496D01*
X138099496Y-91042690D01*
X138033609Y-91156809D01*
X138033608Y-91156814D01*
X137999500Y-91284108D01*
X47220234Y-91284108D01*
X47343737Y-90538919D01*
X47344189Y-90536406D01*
X47561207Y-89416230D01*
X60149500Y-89416230D01*
X60149500Y-89583769D01*
X60182183Y-89748079D01*
X60182185Y-89748085D01*
X60246296Y-89902862D01*
X60246297Y-89902863D01*
X60339374Y-90042162D01*
X60457838Y-90160626D01*
X60597137Y-90253703D01*
X60751918Y-90317816D01*
X60916233Y-90350500D01*
X60916234Y-90350500D01*
X61083766Y-90350500D01*
X61083767Y-90350500D01*
X61248082Y-90317816D01*
X61402863Y-90253703D01*
X61432189Y-90234108D01*
X136999500Y-90234108D01*
X136999500Y-90365892D01*
X137029579Y-90478151D01*
X137033609Y-90493190D01*
X137099496Y-90607309D01*
X137099498Y-90607311D01*
X137099500Y-90607314D01*
X137192686Y-90700500D01*
X137192688Y-90700501D01*
X137192690Y-90700503D01*
X137306810Y-90766390D01*
X137306808Y-90766390D01*
X137306812Y-90766391D01*
X137306814Y-90766392D01*
X137434108Y-90800500D01*
X137434110Y-90800500D01*
X137565890Y-90800500D01*
X137565892Y-90800500D01*
X137693186Y-90766392D01*
X137693188Y-90766390D01*
X137693190Y-90766390D01*
X137807309Y-90700503D01*
X137807309Y-90700502D01*
X137807314Y-90700500D01*
X137900500Y-90607314D01*
X137900503Y-90607309D01*
X137966390Y-90493190D01*
X137966390Y-90493188D01*
X137966392Y-90493186D01*
X138000500Y-90365892D01*
X138000500Y-90234108D01*
X145999500Y-90234108D01*
X145999500Y-90365892D01*
X146029579Y-90478151D01*
X146033609Y-90493190D01*
X146099496Y-90607309D01*
X146099498Y-90607311D01*
X146099500Y-90607314D01*
X146192686Y-90700500D01*
X146192688Y-90700501D01*
X146259826Y-90739264D01*
X146300766Y-90784734D01*
X146307161Y-90845584D01*
X146276568Y-90898572D01*
X146259826Y-90910736D01*
X146192688Y-90949498D01*
X146099496Y-91042690D01*
X146033609Y-91156809D01*
X146033608Y-91156814D01*
X145999500Y-91284108D01*
X145999500Y-91415892D01*
X146029579Y-91528151D01*
X146033609Y-91543190D01*
X146099496Y-91657309D01*
X146099498Y-91657311D01*
X146099500Y-91657314D01*
X146192686Y-91750500D01*
X146192688Y-91750501D01*
X146192690Y-91750503D01*
X146306810Y-91816390D01*
X146306808Y-91816390D01*
X146306812Y-91816391D01*
X146306814Y-91816392D01*
X146434108Y-91850500D01*
X146434110Y-91850500D01*
X146565890Y-91850500D01*
X146565892Y-91850500D01*
X146693186Y-91816392D01*
X146693188Y-91816390D01*
X146693190Y-91816390D01*
X146807309Y-91750503D01*
X146807309Y-91750502D01*
X146807314Y-91750500D01*
X146900500Y-91657314D01*
X146966392Y-91543186D01*
X147000500Y-91415892D01*
X147000500Y-91284108D01*
X146966392Y-91156814D01*
X146966390Y-91156811D01*
X146966390Y-91156809D01*
X146900503Y-91042690D01*
X146900501Y-91042688D01*
X146900500Y-91042686D01*
X146807314Y-90949500D01*
X146740173Y-90910736D01*
X146699233Y-90865267D01*
X146692837Y-90804417D01*
X146723430Y-90751429D01*
X146740171Y-90739264D01*
X146807314Y-90700500D01*
X146900500Y-90607314D01*
X146900503Y-90607309D01*
X146966390Y-90493190D01*
X146966390Y-90493188D01*
X146966392Y-90493186D01*
X147000500Y-90365892D01*
X147000500Y-90234108D01*
X146966392Y-90106814D01*
X146966390Y-90106811D01*
X146966390Y-90106809D01*
X146900503Y-89992690D01*
X146900501Y-89992688D01*
X146900500Y-89992686D01*
X146807314Y-89899500D01*
X146807311Y-89899498D01*
X146807309Y-89899496D01*
X146693189Y-89833609D01*
X146693191Y-89833609D01*
X146643799Y-89820375D01*
X146565892Y-89799500D01*
X146434108Y-89799500D01*
X146356200Y-89820375D01*
X146306809Y-89833609D01*
X146192690Y-89899496D01*
X146099496Y-89992690D01*
X146033609Y-90106809D01*
X146019189Y-90160626D01*
X145999500Y-90234108D01*
X138000500Y-90234108D01*
X137966392Y-90106814D01*
X137966390Y-90106811D01*
X137966390Y-90106809D01*
X137900503Y-89992690D01*
X137900501Y-89992688D01*
X137900500Y-89992686D01*
X137807314Y-89899500D01*
X137807311Y-89899498D01*
X137807309Y-89899496D01*
X137693189Y-89833609D01*
X137693191Y-89833609D01*
X137643799Y-89820375D01*
X137565892Y-89799500D01*
X137434108Y-89799500D01*
X137356200Y-89820375D01*
X137306809Y-89833609D01*
X137192690Y-89899496D01*
X137099496Y-89992690D01*
X137033609Y-90106809D01*
X137019189Y-90160626D01*
X136999500Y-90234108D01*
X61432189Y-90234108D01*
X61542162Y-90160626D01*
X61660626Y-90042162D01*
X61753703Y-89902863D01*
X61817816Y-89748082D01*
X61850432Y-89584108D01*
X138999500Y-89584108D01*
X138999500Y-89715892D01*
X139029579Y-89828151D01*
X139033609Y-89843190D01*
X139099496Y-89957309D01*
X139099498Y-89957311D01*
X139099500Y-89957314D01*
X139192686Y-90050500D01*
X139192688Y-90050501D01*
X139192690Y-90050503D01*
X139306810Y-90116390D01*
X139306808Y-90116390D01*
X139306812Y-90116391D01*
X139306814Y-90116392D01*
X139434108Y-90150500D01*
X139434110Y-90150500D01*
X139565890Y-90150500D01*
X139565892Y-90150500D01*
X139693186Y-90116392D01*
X139693188Y-90116390D01*
X139693190Y-90116390D01*
X139807309Y-90050503D01*
X139807309Y-90050502D01*
X139807314Y-90050500D01*
X139900500Y-89957314D01*
X139900503Y-89957309D01*
X139966390Y-89843190D01*
X139966390Y-89843188D01*
X139966392Y-89843186D01*
X140000500Y-89715892D01*
X140000500Y-89584108D01*
X139966392Y-89456814D01*
X139966390Y-89456811D01*
X139966390Y-89456809D01*
X139900503Y-89342690D01*
X139900501Y-89342688D01*
X139900500Y-89342686D01*
X139807314Y-89249500D01*
X139807311Y-89249498D01*
X139807309Y-89249496D01*
X139693189Y-89183609D01*
X139693191Y-89183609D01*
X139643799Y-89170375D01*
X139565892Y-89149500D01*
X139434108Y-89149500D01*
X139356200Y-89170375D01*
X139306809Y-89183609D01*
X139192690Y-89249496D01*
X139099496Y-89342690D01*
X139033609Y-89456809D01*
X139033608Y-89456814D01*
X138999500Y-89584108D01*
X61850432Y-89584108D01*
X61850500Y-89583767D01*
X61850500Y-89416233D01*
X61817816Y-89251918D01*
X61753703Y-89097137D01*
X61660626Y-88957838D01*
X61542162Y-88839374D01*
X61402863Y-88746297D01*
X61402864Y-88746297D01*
X61402862Y-88746296D01*
X61248085Y-88682185D01*
X61248079Y-88682183D01*
X61083769Y-88649500D01*
X61083767Y-88649500D01*
X60916233Y-88649500D01*
X60916230Y-88649500D01*
X60751920Y-88682183D01*
X60751914Y-88682185D01*
X60597137Y-88746296D01*
X60457838Y-88839374D01*
X60457834Y-88839377D01*
X60339377Y-88957834D01*
X60339374Y-88957838D01*
X60246296Y-89097137D01*
X60182185Y-89251914D01*
X60182183Y-89251920D01*
X60149500Y-89416230D01*
X47561207Y-89416230D01*
X47619700Y-89114308D01*
X47620225Y-89111783D01*
X47771423Y-88430817D01*
X148774500Y-88430817D01*
X148774500Y-88569183D01*
X148810312Y-88702836D01*
X148879495Y-88822665D01*
X148977335Y-88920505D01*
X149097164Y-88989688D01*
X149230817Y-89025500D01*
X149230819Y-89025500D01*
X149369181Y-89025500D01*
X149369183Y-89025500D01*
X149502836Y-88989688D01*
X149622665Y-88920505D01*
X149720505Y-88822665D01*
X149789688Y-88702836D01*
X149825500Y-88569183D01*
X149825500Y-88430817D01*
X149789688Y-88297164D01*
X149720505Y-88177335D01*
X149622665Y-88079495D01*
X149502836Y-88010312D01*
X149369183Y-87974500D01*
X149230817Y-87974500D01*
X149097164Y-88010312D01*
X148977335Y-88079495D01*
X148879495Y-88177335D01*
X148810312Y-88297164D01*
X148774500Y-88430817D01*
X47771423Y-88430817D01*
X47934185Y-87697772D01*
X47934796Y-87695185D01*
X47935297Y-87693186D01*
X48000241Y-87434108D01*
X127499500Y-87434108D01*
X127499500Y-87565892D01*
X127529579Y-87678151D01*
X127533609Y-87693190D01*
X127599496Y-87807309D01*
X127599498Y-87807311D01*
X127599500Y-87807314D01*
X127692686Y-87900500D01*
X127692688Y-87900501D01*
X127692690Y-87900503D01*
X127806810Y-87966390D01*
X127806808Y-87966390D01*
X127806812Y-87966391D01*
X127806814Y-87966392D01*
X127934108Y-88000500D01*
X127934110Y-88000500D01*
X128065890Y-88000500D01*
X128065892Y-88000500D01*
X128193186Y-87966392D01*
X128193188Y-87966390D01*
X128193190Y-87966390D01*
X128307309Y-87900503D01*
X128307309Y-87900502D01*
X128307314Y-87900500D01*
X128400500Y-87807314D01*
X128400503Y-87807309D01*
X128466390Y-87693190D01*
X128466390Y-87693188D01*
X128466392Y-87693186D01*
X128500500Y-87565892D01*
X128500500Y-87434108D01*
X129199500Y-87434108D01*
X129199500Y-87565892D01*
X129229579Y-87678151D01*
X129233609Y-87693190D01*
X129299496Y-87807309D01*
X129299498Y-87807311D01*
X129299500Y-87807314D01*
X129392686Y-87900500D01*
X129392688Y-87900501D01*
X129392690Y-87900503D01*
X129506810Y-87966390D01*
X129506808Y-87966390D01*
X129506812Y-87966391D01*
X129506814Y-87966392D01*
X129634108Y-88000500D01*
X129634110Y-88000500D01*
X129765890Y-88000500D01*
X129765892Y-88000500D01*
X129893186Y-87966392D01*
X129893188Y-87966390D01*
X129893190Y-87966390D01*
X130007309Y-87900503D01*
X130007309Y-87900502D01*
X130007314Y-87900500D01*
X130100500Y-87807314D01*
X130100503Y-87807309D01*
X130166390Y-87693190D01*
X130166390Y-87693188D01*
X130166392Y-87693186D01*
X130200500Y-87565892D01*
X130200500Y-87434108D01*
X133499500Y-87434108D01*
X133499500Y-87565892D01*
X133529579Y-87678151D01*
X133533609Y-87693190D01*
X133599496Y-87807309D01*
X133599498Y-87807311D01*
X133599500Y-87807314D01*
X133692686Y-87900500D01*
X133692688Y-87900501D01*
X133692690Y-87900503D01*
X133806810Y-87966390D01*
X133806808Y-87966390D01*
X133806812Y-87966391D01*
X133806814Y-87966392D01*
X133934108Y-88000500D01*
X133934110Y-88000500D01*
X134065890Y-88000500D01*
X134065892Y-88000500D01*
X134193186Y-87966392D01*
X134193188Y-87966390D01*
X134193190Y-87966390D01*
X134307309Y-87900503D01*
X134307309Y-87900502D01*
X134307314Y-87900500D01*
X134400500Y-87807314D01*
X134400503Y-87807309D01*
X134466390Y-87693190D01*
X134466390Y-87693188D01*
X134466392Y-87693186D01*
X134500500Y-87565892D01*
X134500500Y-87434108D01*
X134466392Y-87306814D01*
X134466390Y-87306811D01*
X134466390Y-87306809D01*
X134400503Y-87192690D01*
X134400501Y-87192688D01*
X134400500Y-87192686D01*
X134307314Y-87099500D01*
X134307311Y-87099498D01*
X134307309Y-87099496D01*
X134193189Y-87033609D01*
X134193191Y-87033609D01*
X134143799Y-87020375D01*
X134065892Y-86999500D01*
X133934108Y-86999500D01*
X133856200Y-87020375D01*
X133806809Y-87033609D01*
X133692690Y-87099496D01*
X133599496Y-87192690D01*
X133533609Y-87306809D01*
X133533608Y-87306814D01*
X133499500Y-87434108D01*
X130200500Y-87434108D01*
X130166392Y-87306814D01*
X130166390Y-87306811D01*
X130166390Y-87306809D01*
X130100503Y-87192690D01*
X130100501Y-87192688D01*
X130100500Y-87192686D01*
X130007314Y-87099500D01*
X130007311Y-87099498D01*
X130007309Y-87099496D01*
X129893189Y-87033609D01*
X129893191Y-87033609D01*
X129843799Y-87020375D01*
X129765892Y-86999500D01*
X129634108Y-86999500D01*
X129556200Y-87020375D01*
X129506809Y-87033609D01*
X129392690Y-87099496D01*
X129299496Y-87192690D01*
X129233609Y-87306809D01*
X129233608Y-87306814D01*
X129199500Y-87434108D01*
X128500500Y-87434108D01*
X128466392Y-87306814D01*
X128466390Y-87306811D01*
X128466390Y-87306809D01*
X128400503Y-87192690D01*
X128400501Y-87192688D01*
X128400500Y-87192686D01*
X128307314Y-87099500D01*
X128307311Y-87099498D01*
X128307309Y-87099496D01*
X128193189Y-87033609D01*
X128193191Y-87033609D01*
X128143799Y-87020375D01*
X128065892Y-86999500D01*
X127934108Y-86999500D01*
X127856200Y-87020375D01*
X127806809Y-87033609D01*
X127692690Y-87099496D01*
X127599496Y-87192690D01*
X127533609Y-87306809D01*
X127533608Y-87306814D01*
X127499500Y-87434108D01*
X48000241Y-87434108D01*
X48286993Y-86290184D01*
X48287650Y-86287707D01*
X48565568Y-85294108D01*
X131319500Y-85294108D01*
X131319500Y-85425892D01*
X131339666Y-85501154D01*
X131353609Y-85553190D01*
X131419496Y-85667309D01*
X131419498Y-85667311D01*
X131419500Y-85667314D01*
X131512686Y-85760500D01*
X131512688Y-85760501D01*
X131512690Y-85760503D01*
X131626810Y-85826390D01*
X131626808Y-85826390D01*
X131626812Y-85826391D01*
X131626814Y-85826392D01*
X131754108Y-85860500D01*
X131754110Y-85860500D01*
X131885890Y-85860500D01*
X131885892Y-85860500D01*
X132013186Y-85826392D01*
X132013188Y-85826390D01*
X132013190Y-85826390D01*
X132127309Y-85760503D01*
X132127309Y-85760502D01*
X132127314Y-85760500D01*
X132220500Y-85667314D01*
X132259655Y-85599496D01*
X132286390Y-85553190D01*
X132286390Y-85553188D01*
X132286392Y-85553186D01*
X132318299Y-85434108D01*
X142499500Y-85434108D01*
X142499500Y-85565892D01*
X142526674Y-85667309D01*
X142533609Y-85693190D01*
X142599496Y-85807309D01*
X142599498Y-85807311D01*
X142599500Y-85807314D01*
X142692686Y-85900500D01*
X142692688Y-85900501D01*
X142692690Y-85900503D01*
X142806810Y-85966390D01*
X142806808Y-85966390D01*
X142806812Y-85966391D01*
X142806814Y-85966392D01*
X142934108Y-86000500D01*
X142934110Y-86000500D01*
X143065890Y-86000500D01*
X143065892Y-86000500D01*
X143193186Y-85966392D01*
X143193188Y-85966390D01*
X143193190Y-85966390D01*
X143249104Y-85934108D01*
X143999500Y-85934108D01*
X143999500Y-86065892D01*
X144029579Y-86178151D01*
X144033609Y-86193190D01*
X144099496Y-86307309D01*
X144099498Y-86307311D01*
X144099500Y-86307314D01*
X144192686Y-86400500D01*
X144192688Y-86400501D01*
X144192690Y-86400503D01*
X144306810Y-86466390D01*
X144306808Y-86466390D01*
X144306812Y-86466391D01*
X144306814Y-86466392D01*
X144434108Y-86500500D01*
X144434110Y-86500500D01*
X144565890Y-86500500D01*
X144565892Y-86500500D01*
X144693186Y-86466392D01*
X144693188Y-86466390D01*
X144693190Y-86466390D01*
X144807309Y-86400503D01*
X144807309Y-86400502D01*
X144807314Y-86400500D01*
X144900500Y-86307314D01*
X144966392Y-86193186D01*
X145000500Y-86065892D01*
X145000500Y-85934108D01*
X144966392Y-85806814D01*
X144966390Y-85806811D01*
X144966390Y-85806809D01*
X144900503Y-85692690D01*
X144900501Y-85692688D01*
X144900500Y-85692686D01*
X144807314Y-85599500D01*
X144807311Y-85599498D01*
X144807309Y-85599496D01*
X144693189Y-85533609D01*
X144693191Y-85533609D01*
X144640187Y-85519407D01*
X144565892Y-85499500D01*
X144434108Y-85499500D01*
X144359813Y-85519407D01*
X144306809Y-85533609D01*
X144192690Y-85599496D01*
X144099496Y-85692690D01*
X144033609Y-85806809D01*
X144028362Y-85826392D01*
X143999500Y-85934108D01*
X143249104Y-85934108D01*
X143307309Y-85900503D01*
X143307309Y-85900502D01*
X143307314Y-85900500D01*
X143400500Y-85807314D01*
X143400792Y-85806809D01*
X143466390Y-85693190D01*
X143466390Y-85693188D01*
X143466392Y-85693186D01*
X143500500Y-85565892D01*
X143500500Y-85434108D01*
X143466392Y-85306814D01*
X143466390Y-85306811D01*
X143466390Y-85306809D01*
X143400503Y-85192690D01*
X143400501Y-85192688D01*
X143400500Y-85192686D01*
X143307314Y-85099500D01*
X143307311Y-85099498D01*
X143307309Y-85099496D01*
X143193189Y-85033609D01*
X143193191Y-85033609D01*
X143143799Y-85020375D01*
X143065892Y-84999500D01*
X142934108Y-84999500D01*
X142856200Y-85020375D01*
X142806809Y-85033609D01*
X142692690Y-85099496D01*
X142599496Y-85192690D01*
X142533609Y-85306809D01*
X142520055Y-85357396D01*
X142499500Y-85434108D01*
X132318299Y-85434108D01*
X132320500Y-85425892D01*
X132320500Y-85294108D01*
X132286392Y-85166814D01*
X132286390Y-85166811D01*
X132286390Y-85166809D01*
X132220503Y-85052690D01*
X132220501Y-85052688D01*
X132220500Y-85052686D01*
X132127314Y-84959500D01*
X132127311Y-84959498D01*
X132127309Y-84959496D01*
X132013189Y-84893609D01*
X132013191Y-84893609D01*
X131963799Y-84880375D01*
X131885892Y-84859500D01*
X131754108Y-84859500D01*
X131676200Y-84880375D01*
X131626809Y-84893609D01*
X131512690Y-84959496D01*
X131419496Y-85052690D01*
X131353609Y-85166809D01*
X131334539Y-85237978D01*
X131319500Y-85294108D01*
X48565568Y-85294108D01*
X48677846Y-84892697D01*
X48678573Y-84890227D01*
X48819599Y-84434108D01*
X128499500Y-84434108D01*
X128499500Y-84565892D01*
X128520989Y-84646092D01*
X128533609Y-84693190D01*
X128599496Y-84807309D01*
X128599498Y-84807311D01*
X128599500Y-84807314D01*
X128692686Y-84900500D01*
X128692688Y-84900501D01*
X128692690Y-84900503D01*
X128806810Y-84966390D01*
X128806808Y-84966390D01*
X128806812Y-84966391D01*
X128806814Y-84966392D01*
X128934108Y-85000500D01*
X128934110Y-85000500D01*
X129065890Y-85000500D01*
X129065892Y-85000500D01*
X129193186Y-84966392D01*
X129193188Y-84966390D01*
X129193190Y-84966390D01*
X129307309Y-84900503D01*
X129307309Y-84900502D01*
X129307314Y-84900500D01*
X129400500Y-84807314D01*
X129466392Y-84693186D01*
X129500500Y-84565892D01*
X129500500Y-84434108D01*
X129466392Y-84306814D01*
X129466390Y-84306811D01*
X129466390Y-84306809D01*
X129400503Y-84192690D01*
X129400501Y-84192688D01*
X129400500Y-84192686D01*
X129307314Y-84099500D01*
X129307311Y-84099498D01*
X129307309Y-84099496D01*
X129193189Y-84033609D01*
X129193191Y-84033609D01*
X129143799Y-84020375D01*
X129065892Y-83999500D01*
X128934108Y-83999500D01*
X128856200Y-84020375D01*
X128806809Y-84033609D01*
X128692690Y-84099496D01*
X128599496Y-84192690D01*
X128533609Y-84306809D01*
X128533608Y-84306814D01*
X128499500Y-84434108D01*
X48819599Y-84434108D01*
X49106451Y-83506342D01*
X49107231Y-83503937D01*
X49572460Y-82132232D01*
X49573354Y-82129708D01*
X49648634Y-81926081D01*
X60249500Y-81926081D01*
X60249500Y-82073918D01*
X60278342Y-82218914D01*
X60334915Y-82355493D01*
X60334916Y-82355495D01*
X60417049Y-82478416D01*
X60521584Y-82582951D01*
X60644505Y-82665084D01*
X60781087Y-82721658D01*
X60926082Y-82750500D01*
X60926083Y-82750500D01*
X61073917Y-82750500D01*
X61073918Y-82750500D01*
X61218913Y-82721658D01*
X61355495Y-82665084D01*
X61478416Y-82582951D01*
X61582951Y-82478416D01*
X61665084Y-82355495D01*
X61721658Y-82218913D01*
X61750500Y-82073918D01*
X61750500Y-82034108D01*
X75399500Y-82034108D01*
X75399500Y-82165892D01*
X75408539Y-82199625D01*
X75433609Y-82293190D01*
X75499496Y-82407309D01*
X75499498Y-82407311D01*
X75499500Y-82407314D01*
X75592686Y-82500500D01*
X75592688Y-82500501D01*
X75592690Y-82500503D01*
X75706810Y-82566390D01*
X75706808Y-82566390D01*
X75706812Y-82566391D01*
X75706814Y-82566392D01*
X75834108Y-82600500D01*
X75834110Y-82600500D01*
X75965890Y-82600500D01*
X75965892Y-82600500D01*
X76093186Y-82566392D01*
X76093188Y-82566390D01*
X76093190Y-82566390D01*
X76207309Y-82500503D01*
X76207309Y-82500502D01*
X76207314Y-82500500D01*
X76300500Y-82407314D01*
X76300503Y-82407309D01*
X76364264Y-82296873D01*
X76409733Y-82255932D01*
X76470583Y-82249536D01*
X76523571Y-82280129D01*
X76535736Y-82296873D01*
X76599496Y-82407309D01*
X76599498Y-82407311D01*
X76599500Y-82407314D01*
X76692686Y-82500500D01*
X76692688Y-82500501D01*
X76692690Y-82500503D01*
X76806810Y-82566390D01*
X76806808Y-82566390D01*
X76806812Y-82566391D01*
X76806814Y-82566392D01*
X76934108Y-82600500D01*
X76934110Y-82600500D01*
X77065890Y-82600500D01*
X77065892Y-82600500D01*
X77193186Y-82566392D01*
X77193188Y-82566390D01*
X77193190Y-82566390D01*
X77307309Y-82500503D01*
X77307309Y-82500502D01*
X77307314Y-82500500D01*
X77400500Y-82407314D01*
X77400503Y-82407309D01*
X77466390Y-82293190D01*
X77466391Y-82293187D01*
X77466392Y-82293186D01*
X77500500Y-82165892D01*
X77500500Y-82034108D01*
X83099500Y-82034108D01*
X83099500Y-82165892D01*
X83108539Y-82199625D01*
X83133609Y-82293190D01*
X83199496Y-82407309D01*
X83199498Y-82407311D01*
X83199500Y-82407314D01*
X83292686Y-82500500D01*
X83292688Y-82500501D01*
X83292690Y-82500503D01*
X83406810Y-82566390D01*
X83406808Y-82566390D01*
X83406812Y-82566391D01*
X83406814Y-82566392D01*
X83534108Y-82600500D01*
X83534110Y-82600500D01*
X83665890Y-82600500D01*
X83665892Y-82600500D01*
X83793186Y-82566392D01*
X83793188Y-82566390D01*
X83793190Y-82566390D01*
X83907309Y-82500503D01*
X83907309Y-82500502D01*
X83907314Y-82500500D01*
X83973706Y-82434108D01*
X127999500Y-82434108D01*
X127999500Y-82565892D01*
X128004071Y-82582951D01*
X128033609Y-82693190D01*
X128099496Y-82807309D01*
X128099498Y-82807311D01*
X128099500Y-82807314D01*
X128192686Y-82900500D01*
X128192688Y-82900501D01*
X128192690Y-82900503D01*
X128306810Y-82966390D01*
X128306808Y-82966390D01*
X128306812Y-82966391D01*
X128306814Y-82966392D01*
X128434108Y-83000500D01*
X128434110Y-83000500D01*
X128565890Y-83000500D01*
X128565892Y-83000500D01*
X128693186Y-82966392D01*
X128693188Y-82966390D01*
X128693190Y-82966390D01*
X128807309Y-82900503D01*
X128807309Y-82900502D01*
X128807314Y-82900500D01*
X128900500Y-82807314D01*
X128900503Y-82807309D01*
X128966390Y-82693190D01*
X128966390Y-82693188D01*
X128966392Y-82693186D01*
X129000500Y-82565892D01*
X129000500Y-82434108D01*
X128966392Y-82306814D01*
X128966390Y-82306811D01*
X128966390Y-82306809D01*
X128900503Y-82192690D01*
X128900501Y-82192688D01*
X128900500Y-82192686D01*
X128807314Y-82099500D01*
X128807311Y-82099498D01*
X128807309Y-82099496D01*
X128693189Y-82033609D01*
X128693191Y-82033609D01*
X128643799Y-82020375D01*
X128565892Y-81999500D01*
X128434108Y-81999500D01*
X128356200Y-82020375D01*
X128306809Y-82033609D01*
X128192690Y-82099496D01*
X128099496Y-82192690D01*
X128033609Y-82306809D01*
X128033608Y-82306814D01*
X127999500Y-82434108D01*
X83973706Y-82434108D01*
X84000500Y-82407314D01*
X84009504Y-82391717D01*
X84017357Y-82378118D01*
X84058524Y-82306814D01*
X84066392Y-82293186D01*
X84100500Y-82165892D01*
X84100500Y-82034108D01*
X84066392Y-81906814D01*
X84066390Y-81906811D01*
X84066390Y-81906809D01*
X84000503Y-81792690D01*
X84000501Y-81792688D01*
X84000500Y-81792686D01*
X83907314Y-81699500D01*
X83907311Y-81699498D01*
X83907309Y-81699496D01*
X83793189Y-81633609D01*
X83793191Y-81633609D01*
X83743799Y-81620375D01*
X83665892Y-81599500D01*
X83534108Y-81599500D01*
X83456200Y-81620375D01*
X83406809Y-81633609D01*
X83292690Y-81699496D01*
X83199496Y-81792690D01*
X83133609Y-81906809D01*
X83128445Y-81926081D01*
X83099500Y-82034108D01*
X77500500Y-82034108D01*
X77466392Y-81906814D01*
X77466390Y-81906811D01*
X77466390Y-81906809D01*
X77400503Y-81792690D01*
X77400501Y-81792688D01*
X77400500Y-81792686D01*
X77307314Y-81699500D01*
X77307311Y-81699498D01*
X77307309Y-81699496D01*
X77193189Y-81633609D01*
X77193191Y-81633609D01*
X77143799Y-81620375D01*
X77065892Y-81599500D01*
X76934108Y-81599500D01*
X76856200Y-81620375D01*
X76806809Y-81633609D01*
X76692690Y-81699496D01*
X76599496Y-81792690D01*
X76535736Y-81903126D01*
X76490267Y-81944067D01*
X76429416Y-81950463D01*
X76376428Y-81919870D01*
X76364264Y-81903126D01*
X76300503Y-81792690D01*
X76300501Y-81792688D01*
X76300500Y-81792686D01*
X76207314Y-81699500D01*
X76207311Y-81699498D01*
X76207309Y-81699496D01*
X76093189Y-81633609D01*
X76093191Y-81633609D01*
X76043799Y-81620375D01*
X75965892Y-81599500D01*
X75834108Y-81599500D01*
X75756200Y-81620375D01*
X75706809Y-81633609D01*
X75592690Y-81699496D01*
X75499496Y-81792690D01*
X75433609Y-81906809D01*
X75428445Y-81926081D01*
X75399500Y-82034108D01*
X61750500Y-82034108D01*
X61750500Y-81926082D01*
X61721658Y-81781087D01*
X61665084Y-81644505D01*
X61582951Y-81521584D01*
X61478416Y-81417049D01*
X61355495Y-81334916D01*
X61288846Y-81307309D01*
X61218914Y-81278342D01*
X61073918Y-81249500D01*
X60926082Y-81249500D01*
X60926081Y-81249500D01*
X60781085Y-81278342D01*
X60644506Y-81334915D01*
X60521585Y-81417048D01*
X60417048Y-81521585D01*
X60334915Y-81644506D01*
X60278342Y-81781085D01*
X60249500Y-81926081D01*
X49648634Y-81926081D01*
X49663123Y-81886889D01*
X49752730Y-81644506D01*
X50075640Y-80771051D01*
X50076554Y-80768682D01*
X50425690Y-79897684D01*
X135700000Y-79897684D01*
X135700000Y-80102315D01*
X135732008Y-80304412D01*
X135795243Y-80499027D01*
X135888139Y-80681348D01*
X135888143Y-80681353D01*
X135920523Y-80725920D01*
X135920524Y-80725920D01*
X136557851Y-80088592D01*
X136580656Y-80173698D01*
X136639901Y-80276314D01*
X136723686Y-80360099D01*
X136826302Y-80419344D01*
X136911405Y-80442147D01*
X136274078Y-81079475D01*
X136318647Y-81111858D01*
X136500972Y-81204756D01*
X136695587Y-81267991D01*
X136897685Y-81300000D01*
X137102315Y-81300000D01*
X137304412Y-81267991D01*
X137499027Y-81204756D01*
X137681342Y-81111863D01*
X137681350Y-81111858D01*
X137725920Y-81079475D01*
X137088593Y-80442148D01*
X137173698Y-80419344D01*
X137276314Y-80360099D01*
X137360099Y-80276314D01*
X137419344Y-80173698D01*
X137442148Y-80088593D01*
X138079475Y-80725920D01*
X138108771Y-80685599D01*
X138158271Y-80649636D01*
X138219457Y-80649637D01*
X138258867Y-80673788D01*
X138362209Y-80777131D01*
X138362213Y-80777134D01*
X138362218Y-80777139D01*
X138526086Y-80886632D01*
X138708165Y-80962051D01*
X138901459Y-81000500D01*
X138901460Y-81000500D01*
X139098540Y-81000500D01*
X139098541Y-81000500D01*
X139291835Y-80962051D01*
X139359296Y-80934108D01*
X145899500Y-80934108D01*
X145899500Y-81065892D01*
X145911818Y-81111863D01*
X145933609Y-81193190D01*
X145999496Y-81307309D01*
X145999498Y-81307311D01*
X145999500Y-81307314D01*
X146092686Y-81400500D01*
X146092688Y-81400501D01*
X146092690Y-81400503D01*
X146206810Y-81466390D01*
X146206808Y-81466390D01*
X146206812Y-81466391D01*
X146206814Y-81466392D01*
X146334108Y-81500500D01*
X146334110Y-81500500D01*
X146465890Y-81500500D01*
X146465892Y-81500500D01*
X146593186Y-81466392D01*
X146593188Y-81466390D01*
X146593190Y-81466390D01*
X146707309Y-81400503D01*
X146707309Y-81400502D01*
X146707314Y-81400500D01*
X146800500Y-81307314D01*
X146866392Y-81193186D01*
X146900500Y-81065892D01*
X146900500Y-80934108D01*
X146866392Y-80806814D01*
X146866390Y-80806811D01*
X146866390Y-80806809D01*
X146800503Y-80692690D01*
X146800501Y-80692688D01*
X146800500Y-80692686D01*
X146707314Y-80599500D01*
X146707311Y-80599498D01*
X146707309Y-80599496D01*
X146593189Y-80533609D01*
X146593191Y-80533609D01*
X146543799Y-80520375D01*
X146465892Y-80499500D01*
X146334108Y-80499500D01*
X146256200Y-80520375D01*
X146206809Y-80533609D01*
X146092690Y-80599496D01*
X145999496Y-80692690D01*
X145933609Y-80806809D01*
X145933608Y-80806814D01*
X145899500Y-80934108D01*
X139359296Y-80934108D01*
X139473914Y-80886632D01*
X139637782Y-80777139D01*
X139777139Y-80637782D01*
X139886632Y-80473914D01*
X139962051Y-80291835D01*
X140000500Y-80098541D01*
X140000500Y-79901459D01*
X139962051Y-79708165D01*
X139886632Y-79526086D01*
X139777139Y-79362218D01*
X139637782Y-79222861D01*
X139473914Y-79113368D01*
X139473915Y-79113368D01*
X139473913Y-79113367D01*
X139291835Y-79037949D01*
X139098543Y-78999500D01*
X139098541Y-78999500D01*
X138901459Y-78999500D01*
X138901456Y-78999500D01*
X138708165Y-79037949D01*
X138708163Y-79037949D01*
X138526086Y-79113367D01*
X138362218Y-79222861D01*
X138362208Y-79222869D01*
X138258866Y-79326211D01*
X138204350Y-79353988D01*
X138143918Y-79344416D01*
X138108772Y-79314400D01*
X138079475Y-79274078D01*
X137442147Y-79911405D01*
X137419344Y-79826302D01*
X137360099Y-79723686D01*
X137276314Y-79639901D01*
X137173698Y-79580656D01*
X137088592Y-79557851D01*
X137725920Y-78920524D01*
X137725920Y-78920523D01*
X137681353Y-78888143D01*
X137681348Y-78888139D01*
X137499027Y-78795243D01*
X137304412Y-78732008D01*
X137102315Y-78700000D01*
X136897685Y-78700000D01*
X136695587Y-78732008D01*
X136500972Y-78795243D01*
X136318651Y-78888139D01*
X136318647Y-78888141D01*
X136274078Y-78920523D01*
X136911406Y-79557851D01*
X136826302Y-79580656D01*
X136723686Y-79639901D01*
X136639901Y-79723686D01*
X136580656Y-79826302D01*
X136557851Y-79911406D01*
X135920523Y-79274078D01*
X135888141Y-79318647D01*
X135888139Y-79318651D01*
X135795243Y-79500972D01*
X135732008Y-79695587D01*
X135700000Y-79897684D01*
X50425690Y-79897684D01*
X50615473Y-79424226D01*
X50616502Y-79421757D01*
X51191716Y-78092340D01*
X51192738Y-78090063D01*
X51803799Y-76776731D01*
X51804954Y-76774337D01*
X52451362Y-75478151D01*
X52452558Y-75475832D01*
X53133918Y-74197589D01*
X53135158Y-74195336D01*
X53850914Y-72936078D01*
X53852268Y-72933770D01*
X53872390Y-72900503D01*
X54154491Y-72434108D01*
X97299500Y-72434108D01*
X97299500Y-72565892D01*
X97309567Y-72603463D01*
X97333609Y-72693190D01*
X97399496Y-72807309D01*
X97399498Y-72807311D01*
X97399500Y-72807314D01*
X97492686Y-72900500D01*
X97492688Y-72900501D01*
X97492690Y-72900503D01*
X97606810Y-72966390D01*
X97606808Y-72966390D01*
X97606812Y-72966391D01*
X97606814Y-72966392D01*
X97734108Y-73000500D01*
X97734110Y-73000500D01*
X97865890Y-73000500D01*
X97865892Y-73000500D01*
X97993186Y-72966392D01*
X97993188Y-72966390D01*
X97993190Y-72966390D01*
X98107309Y-72900503D01*
X98107309Y-72900502D01*
X98107314Y-72900500D01*
X98200500Y-72807314D01*
X98266392Y-72693186D01*
X98300500Y-72565892D01*
X98300500Y-72434108D01*
X98290432Y-72396532D01*
X115909500Y-72396532D01*
X115909500Y-72603467D01*
X115949869Y-72806418D01*
X116029058Y-72997597D01*
X116029059Y-72997598D01*
X116144023Y-73169655D01*
X116290345Y-73315977D01*
X116462402Y-73430941D01*
X116653580Y-73510130D01*
X116856535Y-73550500D01*
X116856536Y-73550500D01*
X117063464Y-73550500D01*
X117063465Y-73550500D01*
X117266420Y-73510130D01*
X117457598Y-73430941D01*
X117629655Y-73315977D01*
X117775977Y-73169655D01*
X117890941Y-72997598D01*
X117970130Y-72806420D01*
X118010500Y-72603465D01*
X118010500Y-72396535D01*
X117970130Y-72193580D01*
X117890941Y-72002402D01*
X117775977Y-71830345D01*
X117629655Y-71684023D01*
X117549182Y-71630253D01*
X118449500Y-71630253D01*
X118449500Y-73369746D01*
X118449501Y-73369758D01*
X118461132Y-73428227D01*
X118461134Y-73428233D01*
X118497171Y-73482165D01*
X118505448Y-73494552D01*
X118571769Y-73538867D01*
X118616231Y-73547711D01*
X118630241Y-73550498D01*
X118630246Y-73550498D01*
X118630252Y-73550500D01*
X118630253Y-73550500D01*
X120369747Y-73550500D01*
X120369748Y-73550500D01*
X120428231Y-73538867D01*
X120494552Y-73494552D01*
X120538867Y-73428231D01*
X120550500Y-73369748D01*
X120550500Y-71630252D01*
X120538867Y-71571769D01*
X120494552Y-71505448D01*
X120494548Y-71505445D01*
X120428233Y-71461134D01*
X120428231Y-71461133D01*
X120428228Y-71461132D01*
X120428227Y-71461132D01*
X120369758Y-71449501D01*
X120369748Y-71449500D01*
X118630252Y-71449500D01*
X118630251Y-71449500D01*
X118630241Y-71449501D01*
X118571772Y-71461132D01*
X118571766Y-71461134D01*
X118505451Y-71505445D01*
X118505445Y-71505451D01*
X118461134Y-71571766D01*
X118461132Y-71571772D01*
X118449501Y-71630241D01*
X118449500Y-71630253D01*
X117549182Y-71630253D01*
X117457597Y-71569058D01*
X117266418Y-71489869D01*
X117063467Y-71449500D01*
X117063465Y-71449500D01*
X116856535Y-71449500D01*
X116856532Y-71449500D01*
X116653581Y-71489869D01*
X116462402Y-71569058D01*
X116290348Y-71684020D01*
X116144020Y-71830348D01*
X116029058Y-72002402D01*
X115949869Y-72193581D01*
X115909500Y-72396532D01*
X98290432Y-72396532D01*
X98266392Y-72306814D01*
X98266390Y-72306811D01*
X98266390Y-72306809D01*
X98200503Y-72192690D01*
X98200501Y-72192688D01*
X98200500Y-72192686D01*
X98107314Y-72099500D01*
X98107311Y-72099498D01*
X98107309Y-72099496D01*
X97993189Y-72033609D01*
X97993191Y-72033609D01*
X97943799Y-72020375D01*
X97865892Y-71999500D01*
X97734108Y-71999500D01*
X97656200Y-72020375D01*
X97606809Y-72033609D01*
X97492690Y-72099496D01*
X97399496Y-72192690D01*
X97333609Y-72306809D01*
X97333608Y-72306814D01*
X97299500Y-72434108D01*
X54154491Y-72434108D01*
X54601922Y-71694373D01*
X54603274Y-71692204D01*
X55386291Y-70473554D01*
X55387714Y-70471404D01*
X55787980Y-69884108D01*
X105599500Y-69884108D01*
X105599500Y-70015892D01*
X105629579Y-70128151D01*
X105633609Y-70143190D01*
X105699496Y-70257309D01*
X105699498Y-70257311D01*
X105699500Y-70257314D01*
X105792686Y-70350500D01*
X105792688Y-70350501D01*
X105792690Y-70350503D01*
X105906810Y-70416390D01*
X105906808Y-70416390D01*
X105906812Y-70416391D01*
X105906814Y-70416392D01*
X106034108Y-70450500D01*
X106034110Y-70450500D01*
X106165890Y-70450500D01*
X106165892Y-70450500D01*
X106293186Y-70416392D01*
X106293188Y-70416390D01*
X106293190Y-70416390D01*
X106407309Y-70350503D01*
X106407309Y-70350502D01*
X106407314Y-70350500D01*
X106500500Y-70257314D01*
X106566392Y-70143186D01*
X106600500Y-70015892D01*
X106600500Y-69884108D01*
X107499500Y-69884108D01*
X107499500Y-70015892D01*
X107529579Y-70128151D01*
X107533609Y-70143190D01*
X107599496Y-70257309D01*
X107599498Y-70257311D01*
X107599500Y-70257314D01*
X107692686Y-70350500D01*
X107692688Y-70350501D01*
X107692690Y-70350503D01*
X107806810Y-70416390D01*
X107806808Y-70416390D01*
X107806812Y-70416391D01*
X107806814Y-70416392D01*
X107934108Y-70450500D01*
X107934110Y-70450500D01*
X108065890Y-70450500D01*
X108065892Y-70450500D01*
X108193186Y-70416392D01*
X108193188Y-70416390D01*
X108193190Y-70416390D01*
X108307309Y-70350503D01*
X108307309Y-70350502D01*
X108307314Y-70350500D01*
X108400500Y-70257314D01*
X108466392Y-70143186D01*
X108500500Y-70015892D01*
X108500500Y-69884108D01*
X108466392Y-69756814D01*
X108466390Y-69756811D01*
X108466390Y-69756809D01*
X108400503Y-69642690D01*
X108400501Y-69642688D01*
X108400500Y-69642686D01*
X108307314Y-69549500D01*
X108307311Y-69549498D01*
X108307309Y-69549496D01*
X108193189Y-69483609D01*
X108193191Y-69483609D01*
X108143799Y-69470375D01*
X108065892Y-69449500D01*
X107934108Y-69449500D01*
X107856200Y-69470375D01*
X107806809Y-69483609D01*
X107692690Y-69549496D01*
X107599496Y-69642690D01*
X107533609Y-69756809D01*
X107533608Y-69756814D01*
X107499500Y-69884108D01*
X106600500Y-69884108D01*
X106566392Y-69756814D01*
X106566390Y-69756811D01*
X106566390Y-69756809D01*
X106500503Y-69642690D01*
X106500501Y-69642688D01*
X106500500Y-69642686D01*
X106407314Y-69549500D01*
X106407311Y-69549498D01*
X106407309Y-69549496D01*
X106293189Y-69483609D01*
X106293191Y-69483609D01*
X106243799Y-69470375D01*
X106165892Y-69449500D01*
X106034108Y-69449500D01*
X105956200Y-69470375D01*
X105906809Y-69483609D01*
X105792690Y-69549496D01*
X105699496Y-69642690D01*
X105633609Y-69756809D01*
X105633608Y-69756814D01*
X105599500Y-69884108D01*
X55787980Y-69884108D01*
X56203481Y-69274457D01*
X56204966Y-69272340D01*
X57052880Y-68097980D01*
X57054437Y-68095882D01*
X57933914Y-66944918D01*
X57935540Y-66942851D01*
X58845848Y-65816236D01*
X58847541Y-65814196D01*
X59788079Y-64712673D01*
X59789797Y-64710714D01*
X60759923Y-63635039D01*
X60761732Y-63633089D01*
X61760614Y-62584182D01*
X61762408Y-62582349D01*
X62789401Y-61560888D01*
X62791269Y-61559079D01*
X63845585Y-60565848D01*
X63847517Y-60564076D01*
X64928446Y-59599749D01*
X64930326Y-59598117D01*
X66037022Y-58663452D01*
X66038996Y-58661831D01*
X66323965Y-58434108D01*
X84999500Y-58434108D01*
X84999500Y-58565892D01*
X85025195Y-58661789D01*
X85033609Y-58693190D01*
X85099496Y-58807309D01*
X85099498Y-58807311D01*
X85099500Y-58807314D01*
X85192686Y-58900500D01*
X85192688Y-58900501D01*
X85192690Y-58900503D01*
X85306810Y-58966390D01*
X85306808Y-58966390D01*
X85306812Y-58966391D01*
X85306814Y-58966392D01*
X85434108Y-59000500D01*
X85434110Y-59000500D01*
X85565890Y-59000500D01*
X85565892Y-59000500D01*
X85693186Y-58966392D01*
X85693188Y-58966390D01*
X85693190Y-58966390D01*
X85807309Y-58900503D01*
X85807309Y-58900502D01*
X85807314Y-58900500D01*
X85900500Y-58807314D01*
X85951554Y-58718886D01*
X85966390Y-58693190D01*
X85966390Y-58693188D01*
X85966392Y-58693186D01*
X86000500Y-58565892D01*
X86000500Y-58434108D01*
X86999500Y-58434108D01*
X86999500Y-58565892D01*
X87025195Y-58661789D01*
X87033609Y-58693190D01*
X87099496Y-58807309D01*
X87099498Y-58807311D01*
X87099500Y-58807314D01*
X87192686Y-58900500D01*
X87192688Y-58900501D01*
X87192690Y-58900503D01*
X87306810Y-58966390D01*
X87306808Y-58966390D01*
X87306812Y-58966391D01*
X87306814Y-58966392D01*
X87434108Y-59000500D01*
X87434110Y-59000500D01*
X87565890Y-59000500D01*
X87565892Y-59000500D01*
X87693186Y-58966392D01*
X87693188Y-58966390D01*
X87693190Y-58966390D01*
X87798628Y-58905515D01*
X94099500Y-58905515D01*
X94099500Y-60094484D01*
X94129058Y-60281113D01*
X94187453Y-60460832D01*
X94240047Y-60564055D01*
X94273240Y-60629199D01*
X94384310Y-60782073D01*
X94517927Y-60915690D01*
X94670801Y-61026760D01*
X94839168Y-61112547D01*
X95018882Y-61170940D01*
X95018883Y-61170940D01*
X95018886Y-61170941D01*
X95205516Y-61200500D01*
X95205519Y-61200500D01*
X95394484Y-61200500D01*
X95581113Y-61170941D01*
X95581114Y-61170940D01*
X95581118Y-61170940D01*
X95760832Y-61112547D01*
X95929199Y-61026760D01*
X96082073Y-60915690D01*
X96215690Y-60782073D01*
X96326760Y-60629199D01*
X96412547Y-60460832D01*
X96470940Y-60281118D01*
X96478160Y-60235534D01*
X96500500Y-60094484D01*
X96500500Y-58905515D01*
X98799500Y-58905515D01*
X98799500Y-60094484D01*
X98829058Y-60281113D01*
X98887453Y-60460832D01*
X98940047Y-60564055D01*
X98973240Y-60629199D01*
X99084310Y-60782073D01*
X99217927Y-60915690D01*
X99370801Y-61026760D01*
X99539168Y-61112547D01*
X99718882Y-61170940D01*
X99718883Y-61170940D01*
X99718886Y-61170941D01*
X99905516Y-61200500D01*
X99905519Y-61200500D01*
X100094484Y-61200500D01*
X100281113Y-61170941D01*
X100281114Y-61170940D01*
X100281118Y-61170940D01*
X100460832Y-61112547D01*
X100629199Y-61026760D01*
X100782073Y-60915690D01*
X100915690Y-60782073D01*
X101026760Y-60629199D01*
X101112547Y-60460832D01*
X101170940Y-60281118D01*
X101178160Y-60235534D01*
X101200500Y-60094484D01*
X101200500Y-58905515D01*
X103499500Y-58905515D01*
X103499500Y-60094484D01*
X103529058Y-60281113D01*
X103587453Y-60460832D01*
X103640047Y-60564055D01*
X103673240Y-60629199D01*
X103784310Y-60782073D01*
X103917927Y-60915690D01*
X104070801Y-61026760D01*
X104239168Y-61112547D01*
X104418882Y-61170940D01*
X104418883Y-61170940D01*
X104418886Y-61170941D01*
X104605516Y-61200500D01*
X104605519Y-61200500D01*
X104794484Y-61200500D01*
X104981113Y-61170941D01*
X104981114Y-61170940D01*
X104981118Y-61170940D01*
X105160832Y-61112547D01*
X105329199Y-61026760D01*
X105482073Y-60915690D01*
X105615690Y-60782073D01*
X105726760Y-60629199D01*
X105812547Y-60460832D01*
X105870940Y-60281118D01*
X105878160Y-60235534D01*
X105900500Y-60094484D01*
X105900500Y-58905515D01*
X105870941Y-58718886D01*
X105862592Y-58693190D01*
X105812547Y-58539168D01*
X105759016Y-58434108D01*
X118999500Y-58434108D01*
X118999500Y-58565892D01*
X119025195Y-58661789D01*
X119033609Y-58693190D01*
X119099496Y-58807309D01*
X119099498Y-58807311D01*
X119099500Y-58807314D01*
X119192686Y-58900500D01*
X119192688Y-58900501D01*
X119192690Y-58900503D01*
X119306810Y-58966390D01*
X119306808Y-58966390D01*
X119306812Y-58966391D01*
X119306814Y-58966392D01*
X119434108Y-59000500D01*
X119434110Y-59000500D01*
X119565890Y-59000500D01*
X119565892Y-59000500D01*
X119693186Y-58966392D01*
X119693188Y-58966390D01*
X119693190Y-58966390D01*
X119807309Y-58900503D01*
X119807309Y-58900502D01*
X119807314Y-58900500D01*
X119900500Y-58807314D01*
X119951554Y-58718886D01*
X119966390Y-58693190D01*
X119966390Y-58693188D01*
X119966392Y-58693186D01*
X120000500Y-58565892D01*
X120000500Y-58434108D01*
X119966392Y-58306814D01*
X119966390Y-58306811D01*
X119966390Y-58306809D01*
X119900503Y-58192690D01*
X119900501Y-58192688D01*
X119900500Y-58192686D01*
X119807314Y-58099500D01*
X119807311Y-58099498D01*
X119807309Y-58099496D01*
X119693189Y-58033609D01*
X119693191Y-58033609D01*
X119643799Y-58020375D01*
X119565892Y-57999500D01*
X119434108Y-57999500D01*
X119356200Y-58020375D01*
X119306809Y-58033609D01*
X119192690Y-58099496D01*
X119099496Y-58192690D01*
X119033609Y-58306809D01*
X119033608Y-58306814D01*
X118999500Y-58434108D01*
X105759016Y-58434108D01*
X105726761Y-58370803D01*
X105726760Y-58370801D01*
X105615690Y-58217927D01*
X105482073Y-58084310D01*
X105329199Y-57973240D01*
X105329198Y-57973239D01*
X105329196Y-57973238D01*
X105160832Y-57887453D01*
X104981113Y-57829058D01*
X104794484Y-57799500D01*
X104794481Y-57799500D01*
X104605519Y-57799500D01*
X104605516Y-57799500D01*
X104418886Y-57829058D01*
X104239167Y-57887453D01*
X104070803Y-57973238D01*
X103917928Y-58084309D01*
X103784309Y-58217928D01*
X103673238Y-58370803D01*
X103587453Y-58539167D01*
X103529058Y-58718886D01*
X103499500Y-58905515D01*
X101200500Y-58905515D01*
X101170941Y-58718886D01*
X101162592Y-58693190D01*
X101112547Y-58539168D01*
X101026760Y-58370801D01*
X100915690Y-58217927D01*
X100782073Y-58084310D01*
X100629199Y-57973240D01*
X100629198Y-57973239D01*
X100629196Y-57973238D01*
X100460832Y-57887453D01*
X100281113Y-57829058D01*
X100094484Y-57799500D01*
X100094481Y-57799500D01*
X99905519Y-57799500D01*
X99905516Y-57799500D01*
X99718886Y-57829058D01*
X99539167Y-57887453D01*
X99370803Y-57973238D01*
X99217928Y-58084309D01*
X99084309Y-58217928D01*
X98973238Y-58370803D01*
X98887453Y-58539167D01*
X98829058Y-58718886D01*
X98799500Y-58905515D01*
X96500500Y-58905515D01*
X96470941Y-58718886D01*
X96462592Y-58693190D01*
X96412547Y-58539168D01*
X96326760Y-58370801D01*
X96215690Y-58217927D01*
X96082073Y-58084310D01*
X95929199Y-57973240D01*
X95929198Y-57973239D01*
X95929196Y-57973238D01*
X95760832Y-57887453D01*
X95581113Y-57829058D01*
X95394484Y-57799500D01*
X95394481Y-57799500D01*
X95205519Y-57799500D01*
X95205516Y-57799500D01*
X95018886Y-57829058D01*
X94839167Y-57887453D01*
X94670803Y-57973238D01*
X94517928Y-58084309D01*
X94384309Y-58217928D01*
X94273238Y-58370803D01*
X94187453Y-58539167D01*
X94129058Y-58718886D01*
X94099500Y-58905515D01*
X87798628Y-58905515D01*
X87807309Y-58900503D01*
X87807309Y-58900502D01*
X87807314Y-58900500D01*
X87900500Y-58807314D01*
X87951554Y-58718886D01*
X87966390Y-58693190D01*
X87966390Y-58693188D01*
X87966392Y-58693186D01*
X88000500Y-58565892D01*
X88000500Y-58434108D01*
X87966392Y-58306814D01*
X87966390Y-58306811D01*
X87966390Y-58306809D01*
X87900503Y-58192690D01*
X87900501Y-58192688D01*
X87900500Y-58192686D01*
X87807314Y-58099500D01*
X87807311Y-58099498D01*
X87807309Y-58099496D01*
X87693189Y-58033609D01*
X87693191Y-58033609D01*
X87643799Y-58020375D01*
X87565892Y-57999500D01*
X87434108Y-57999500D01*
X87356200Y-58020375D01*
X87306809Y-58033609D01*
X87192690Y-58099496D01*
X87099496Y-58192690D01*
X87033609Y-58306809D01*
X87033608Y-58306814D01*
X86999500Y-58434108D01*
X86000500Y-58434108D01*
X85966392Y-58306814D01*
X85966390Y-58306811D01*
X85966390Y-58306809D01*
X85900503Y-58192690D01*
X85900501Y-58192688D01*
X85900500Y-58192686D01*
X85807314Y-58099500D01*
X85807311Y-58099498D01*
X85807309Y-58099496D01*
X85693189Y-58033609D01*
X85693191Y-58033609D01*
X85643799Y-58020375D01*
X85565892Y-57999500D01*
X85434108Y-57999500D01*
X85356200Y-58020375D01*
X85306809Y-58033609D01*
X85192690Y-58099496D01*
X85099496Y-58192690D01*
X85033609Y-58306809D01*
X85033608Y-58306814D01*
X84999500Y-58434108D01*
X66323965Y-58434108D01*
X67170560Y-57757582D01*
X67172603Y-57755994D01*
X68328300Y-56882748D01*
X68330362Y-56881233D01*
X69509345Y-56039630D01*
X69511474Y-56038155D01*
X70712788Y-55228880D01*
X70714951Y-55227465D01*
X71937813Y-54451040D01*
X71940002Y-54449692D01*
X73183441Y-53706737D01*
X73185708Y-53705424D01*
X74448826Y-52996473D01*
X74451069Y-52995253D01*
X75732970Y-52320809D01*
X75735355Y-52319596D01*
X75895662Y-52240729D01*
X77035065Y-51680171D01*
X77037377Y-51679073D01*
X78353938Y-51075139D01*
X78356331Y-51074080D01*
X78861679Y-50858657D01*
X78922622Y-50853232D01*
X78975117Y-50884665D01*
X78999110Y-50940949D01*
X78999500Y-50949729D01*
X78999500Y-54065892D01*
X79029579Y-54178151D01*
X79033609Y-54193190D01*
X79099496Y-54307309D01*
X79099498Y-54307311D01*
X79099500Y-54307314D01*
X79192686Y-54400500D01*
X79192688Y-54400501D01*
X79192690Y-54400503D01*
X79306810Y-54466390D01*
X79306808Y-54466390D01*
X79306812Y-54466391D01*
X79306814Y-54466392D01*
X79434108Y-54500500D01*
X79434110Y-54500500D01*
X81565890Y-54500500D01*
X81565892Y-54500500D01*
X81693186Y-54466392D01*
X81693188Y-54466390D01*
X81693190Y-54466390D01*
X81807309Y-54400503D01*
X81807309Y-54400502D01*
X81807314Y-54400500D01*
X81900500Y-54307314D01*
X81966392Y-54193186D01*
X82000500Y-54065892D01*
X82000500Y-49691696D01*
X82019407Y-49633505D01*
X82066487Y-49598363D01*
X82651881Y-49391323D01*
X82653534Y-49390756D01*
X83639717Y-49063406D01*
X83641358Y-49062879D01*
X84633730Y-48754774D01*
X84635418Y-48754268D01*
X84872991Y-48685546D01*
X84934143Y-48687539D01*
X84982446Y-48725096D01*
X84999500Y-48780647D01*
X84999500Y-54065892D01*
X85029579Y-54178151D01*
X85033609Y-54193190D01*
X85099496Y-54307309D01*
X85099498Y-54307311D01*
X85099500Y-54307314D01*
X85192686Y-54400500D01*
X85192688Y-54400501D01*
X85192690Y-54400503D01*
X85306810Y-54466390D01*
X85306808Y-54466390D01*
X85306812Y-54466391D01*
X85306814Y-54466392D01*
X85434108Y-54500500D01*
X85434110Y-54500500D01*
X87565891Y-54500500D01*
X87565893Y-54500500D01*
X87693187Y-54466392D01*
X87693189Y-54466390D01*
X87693191Y-54466390D01*
X87807310Y-54400503D01*
X87807310Y-54400502D01*
X87807315Y-54400500D01*
X87900501Y-54307314D01*
X87966393Y-54193186D01*
X88000501Y-54065892D01*
X88000497Y-47944859D01*
X88019404Y-47886669D01*
X88068904Y-47850705D01*
X88077491Y-47848337D01*
X88135217Y-47835176D01*
X88599982Y-47729213D01*
X88601725Y-47728834D01*
X89589029Y-47523269D01*
X89590744Y-47522929D01*
X90581836Y-47336030D01*
X90583486Y-47335735D01*
X90883994Y-47284921D01*
X90944523Y-47293862D01*
X90988236Y-47336673D01*
X90999500Y-47382535D01*
X90999500Y-54065892D01*
X91029579Y-54178151D01*
X91033609Y-54193190D01*
X91099496Y-54307309D01*
X91099498Y-54307311D01*
X91099500Y-54307314D01*
X91192686Y-54400500D01*
X91192688Y-54400501D01*
X91192690Y-54400503D01*
X91306810Y-54466390D01*
X91306808Y-54466390D01*
X91306812Y-54466391D01*
X91306814Y-54466392D01*
X91434108Y-54500500D01*
X91434110Y-54500500D01*
X93565890Y-54500500D01*
X93565892Y-54500500D01*
X93693186Y-54466392D01*
X93693188Y-54466390D01*
X93693190Y-54466390D01*
X93807309Y-54400503D01*
X93807309Y-54400502D01*
X93807314Y-54400500D01*
X93900500Y-54307314D01*
X93966392Y-54193186D01*
X94000500Y-54065892D01*
X94000500Y-46930490D01*
X94019407Y-46872299D01*
X94068907Y-46836335D01*
X94088805Y-46832069D01*
X94882828Y-46745805D01*
X94885224Y-46745575D01*
X96209689Y-46634953D01*
X96212123Y-46634779D01*
X97539001Y-46557150D01*
X97541411Y-46557040D01*
X98869785Y-46512456D01*
X98872194Y-46512405D01*
X100201301Y-46500895D01*
X100203639Y-46500903D01*
G37*
%TD.AperFunction*%
%TD*%
M02*
